<svg width="34" height="34" viewBox="0 0 34 34" fill="none" xmlns="http://www.w3.org/2000/svg">
<path d="M29.0208 4.97921C25.81 1.76827 21.5407 0 17 0C12.4591 0 8.19008 1.76827 4.97921 4.97914C1.76833 8.19002 0 12.4591 0 17C0 21.5409 1.76827 25.81 4.97921 29.0209C8.19002 32.2317 12.4591 34 16.9999 34C21.5407 34 25.81 32.2317 29.0208 29.0209C32.2317 25.8099 34 21.5409 34 17C34 12.4591 32.2317 8.19002 29.0208 4.97921Z" fill="#F5F5F7"/>
<path d="M24.4942 23.0856C24.8831 23.4745 24.8831 24.1053 24.4942 24.4943C24.2996 24.6888 24.0447 24.786 23.7898 24.786C23.5349 24.786 23.2799 24.6887 23.0855 24.4943L17 18.4087L10.9145 24.4943C10.7199 24.6888 10.465 24.786 10.2101 24.786C9.95524 24.786 9.70024 24.6887 9.50587 24.4943C9.11686 24.1053 9.11686 23.4746 9.50587 23.0856L15.5913 17.0001L9.50587 10.9145C9.11686 10.5256 9.11686 9.89486 9.50587 9.50585C9.89481 9.11691 10.5255 9.11691 10.9145 9.50585L17 15.5914L23.0855 9.50585C23.4744 9.11691 24.1051 9.11691 24.4942 9.50585C24.8831 9.89479 24.8831 10.5255 24.4942 10.9145L18.4086 17.0001L24.4942 23.0856Z" fill="#C7C7D3"/>
</svg>
