<svg width="97" height="82" viewBox="0 0 97 82" fill="none" xmlns="http://www.w3.org/2000/svg">
<path fill-rule="evenodd" clip-rule="evenodd" d="M82.4096 26.3153C81.5576 11.6903 69.5636 0 55.1025 0C46.324 0 37.8235 4.32737 32.5564 11.388C32.4368 11.3246 32.3091 11.2824 32.1878 11.2222C31.8677 11.0662 31.5428 10.9167 31.2097 10.7851C31.0238 10.712 30.8379 10.6454 30.6504 10.5787C30.3238 10.4634 29.994 10.3626 29.6561 10.27C29.4686 10.2196 29.2827 10.1676 29.0919 10.1237C28.7298 10.0409 28.3612 9.9775 27.9877 9.92225C27.8228 9.89787 27.6612 9.86537 27.4946 9.84587C26.9611 9.78737 26.4179 9.75 25.8667 9.75C17.8448 9.75 11.3167 16.3101 11.3167 24.375C11.3167 24.5846 11.328 24.7894 11.3425 24.9941C4.61882 28.678 0 36.3984 0 44.1253C0 55.6351 9.31523 65 20.7661 65H29.1C29.9924 65 30.7167 64.2736 30.7167 63.375C30.7167 62.4764 29.9924 61.75 29.1 61.75H20.7661C11.0984 61.75 3.23333 53.8444 3.23333 44.1253C3.23333 37.375 7.60642 30.368 13.6317 27.4641L14.55 27.0238V26C14.55 25.8001 14.5629 25.5954 14.5743 25.3906L14.5888 25.1063L14.5694 24.8008C14.5613 24.6594 14.55 24.518 14.55 24.375C14.55 18.1041 19.6263 13 25.8667 13C26.3662 13 26.8593 13.0439 27.3491 13.1089C27.4753 13.1251 27.5997 13.1462 27.7242 13.1674C28.1575 13.2389 28.5843 13.3331 29.0046 13.455C29.0596 13.4712 29.1162 13.481 29.1695 13.4972C29.6319 13.6386 30.0829 13.819 30.5243 14.0205C30.6358 14.0709 30.7458 14.1261 30.8557 14.1814C31.2469 14.3747 31.6301 14.5892 31.9987 14.8298C35.114 16.8594 37.1833 20.3759 37.1833 24.375C37.1833 25.2736 37.9076 26 38.8 26C39.6924 26 40.4167 25.2736 40.4167 24.375C40.4167 19.8997 38.4023 15.8941 35.2433 13.2096C39.8767 7.11588 47.5106 3.25 55.1025 3.25C67.6219 3.25 78.0236 13.2194 79.1067 25.8164C77.4545 25.6994 74.9794 25.6392 72.5059 26.0195C71.6232 26.1544 71.0169 26.9831 71.1511 27.8704C71.2724 28.6747 71.9611 29.2516 72.7468 29.2516C72.8276 29.2516 72.91 29.2451 72.9925 29.2321C76.588 28.6861 80.337 29.198 80.565 29.2289C88.0922 30.667 93.7667 37.6366 93.7667 45.4545C93.7667 54.4391 86.4933 61.75 77.5547 61.75H71.1333C70.2409 61.75 69.5167 62.4764 69.5167 63.375C69.5167 64.2736 70.2409 65 71.1333 65H77.5547C88.2765 65 97 56.2315 97 45.4545C97 36.5349 90.813 28.535 82.4096 26.3153Z" fill="url(#paint0_linear)"/>
<path fill-rule="evenodd" clip-rule="evenodd" d="M51.6406 42.4684C51.4924 42.3196 51.3136 42.2028 51.1154 42.1212C50.7223 41.9596 50.2777 41.9596 49.8846 42.1212C49.6864 42.2028 49.5092 42.3196 49.3594 42.4684L36.4724 55.2675C35.8425 55.8931 35.8425 56.9043 36.4724 57.53C36.7866 57.842 37.199 57.9988 37.6115 57.9988C38.0239 57.9988 38.4363 57.842 38.7505 57.53L48.8889 47.4607V80.3999C48.8889 81.2848 49.6107 82 50.5 82C51.3893 82 52.1111 81.2848 52.1111 80.3999V47.4607L62.2495 57.53C62.5637 57.842 62.9761 57.9988 63.3885 57.9988C63.801 57.9988 64.2134 57.842 64.5276 57.53C65.1575 56.9043 65.1575 55.8931 64.5276 55.2675L51.6406 42.4684Z" fill="url(#paint1_linear)"/>
<defs>
<linearGradient id="paint0_linear" x1="114.205" y1="88.0579" x2="114.205" y2="0" gradientUnits="userSpaceOnUse">
<stop stop-color="white"/>
<stop offset="1" stop-color="#4A4A4A"/>
</linearGradient>
<linearGradient id="paint1_linear" x1="70.1437" y1="96.1895" x2="70.1437" y2="42" gradientUnits="userSpaceOnUse">
<stop stop-color="white"/>
<stop offset="1" stop-color="#4A4A4A"/>
</linearGradient>
</defs>
</svg>
