<svg xmlns="http://www.w3.org/2000/svg" width="39" height="37" viewBox="0 0 39 37"><g transform="translate(0 -0.762)"><path d="M0,5.475A2.806,2.806,0,0,0,3.008,8h9.985A2.806,2.806,0,0,0,16,5.475V2.525A2.806,2.806,0,0,0,12.992,0H3.008A2.806,2.806,0,0,0,0,2.525Z" transform="translate(23 1.762)" fill="#61b4e4"/><path d="M0,5.475A2.806,2.806,0,0,0,3.008,8h9.985A2.806,2.806,0,0,0,16,5.475V2.525A2.807,2.807,0,0,0,12.992,0H3.008A2.807,2.807,0,0,0,0,2.525Z" transform="translate(23 11.762)" fill="#005cb9"/><path d="M0,5.475A2.807,2.807,0,0,0,3.008,8h9.985A2.807,2.807,0,0,0,16,5.475V2.525A2.807,2.807,0,0,0,12.992,0H3.008A2.807,2.807,0,0,0,0,2.525Z" transform="translate(23 19.762)" fill="#fee050"/><path d="M0,5.475A2.806,2.806,0,0,0,3.008,8h9.985A2.806,2.806,0,0,0,16,5.475V2.525A2.806,2.806,0,0,0,12.992,0H3.008A2.806,2.806,0,0,0,0,2.525Z" transform="translate(23 28.762)" fill="#af8400"/><path d="M30,2.919A2.958,2.958,0,0,0,27.022,0H2.978A2.958,2.958,0,0,0,0,2.919V34.081A2.958,2.958,0,0,0,2.978,37H27.022A2.958,2.958,0,0,0,30,34.081Z" transform="translate(0 0.762)" fill="#e8e8e8"/><rect width="22" height="2" transform="translate(4 25.762)" fill="#7d868c"/><path d="M0,16H16a7.981,7.981,0,0,0-3.665-5.089,6.182,6.182,0,0,0,2.107-4.639A6.359,6.359,0,0,0,8,0,6.359,6.359,0,0,0,1.557,6.271a6.182,6.182,0,0,0,2.108,4.639A7.981,7.981,0,0,0,0,16Z" transform="translate(7 6.762)" fill="#c3c6c8"/><rect width="17" height="2" transform="translate(6 30.762)" fill="#7d868c"/></g></svg>