<svg xmlns="http://www.w3.org/2000/svg" width="89.877" height="88.283" viewBox="0 0 89.877 88.283"><g transform="translate(0 -0.239)"><path d="M0,14.65a6.776,6.776,0,0,0,6.756,6.756H29.188a6.776,6.776,0,0,0,6.756-6.756V6.756A6.776,6.776,0,0,0,29.188,0H6.756A6.776,6.776,0,0,0,0,6.756Z" transform="translate(53.933 1.567)" fill="#61b4e4"/><path d="M0,14.65a6.776,6.776,0,0,0,6.756,6.756H29.188a6.776,6.776,0,0,0,6.756-6.756V6.756A6.776,6.776,0,0,0,29.188,0H6.756A6.776,6.776,0,0,0,0,6.756Z" transform="translate(53.933 22.974)" fill="#005cb9"/><path d="M0,14.65a6.776,6.776,0,0,0,6.756,6.756H29.188a6.776,6.776,0,0,0,6.756-6.756V6.756A6.776,6.776,0,0,0,29.188,0H6.756A6.776,6.776,0,0,0,0,6.756Z" transform="translate(53.933 44.381)" fill="#fee050"/><path d="M0,14.65a6.776,6.776,0,0,0,6.756,6.756H29.188a6.776,6.776,0,0,0,6.756-6.756V6.756A6.776,6.776,0,0,0,29.188,0H6.756A6.776,6.776,0,0,0,0,6.756Z" transform="translate(53.933 65.788)" fill="#af8400"/><path d="M70.165,6.966A6.986,6.986,0,0,0,63.2,0H6.966A6.986,6.986,0,0,0,0,6.966V81.317a6.986,6.986,0,0,0,6.966,6.966H63.2a6.986,6.986,0,0,0,6.966-6.966Z" transform="translate(0 0.24)" fill="#e8e8e8"/><rect width="51.824" height="4.285" transform="translate(9.171 61.394)" fill="#7d868c"/><path d="M0,38.082H37.069a18.979,18.979,0,0,0-8.491-12.113,14.927,14.927,0,1,0-20.088,0A18.978,18.978,0,0,0,0,38.082Z" transform="translate(16.549 14.637)" fill="#c3c6c8"/><rect width="38.774" height="4.285" transform="translate(15.696 69.659)" fill="#7d868c"/></g></svg>