<svg xmlns="http://www.w3.org/2000/svg" xmlns:xlink="http://www.w3.org/1999/xlink" viewBox="0 0 511.925 511.925"><defs><style>.a{clip-path:url(#b);}.b{fill:#ffc107;}.c{fill:#ffa000;}.d{fill:#ffd54f;}.e{fill:#fff;}</style><clipPath id="b"><rect width="511.925" height="511.925"/></clipPath></defs><g id="a" class="a"><rect class="e" width="511.925" height="511.925"/><path class="b" d="M469.333,127.962a42.667,42.667,0,0,0-42.667,42.667,42.206,42.206,0,0,0,2.133,13.163l-34.6,21.995a53.334,53.334,0,0,1-69.931-11.2l-33.92-41.493a42.177,42.177,0,0,0,8.32-25.131,42.667,42.667,0,0,0-85.334,0,42.177,42.177,0,0,0,8.32,25.131l-33.92,41.493a53.333,53.333,0,0,1-69.909,11.2L83.2,183.792a42.148,42.148,0,0,0,2.133-13.163,42.667,42.667,0,1,0-46.4,42.5L64.149,364.378A10.666,10.666,0,0,0,74.666,373.3H437.333a10.666,10.666,0,0,0,10.517-8.917l25.216-151.253a42.667,42.667,0,0,0-3.733-85.163Z"/><ellipse class="c" cx="181.333" cy="53.333" rx="181.333" ry="53.333" transform="translate(74.667 309.296)"/><path class="d" d="M256,426.629c-95.424,0-192-21.973-192-64s96.576-64,192-64,192,21.973,192,64S351.424,426.629,256,426.629Zm0-106.667c-112.043,0-170.667,27.733-170.667,42.667S143.957,405.3,256,405.3s170.667-27.733,170.667-42.667S368.043,319.962,256,319.962Z"/></g></svg>