<svg width="28" height="32" viewBox="0 0 28 32" fill="none" xmlns="http://www.w3.org/2000/svg">
<path fill-rule="evenodd" clip-rule="evenodd" d="M6 0C4.9 0 4 0.9 4 2V30C4 31.1 4.9 32 6 32H26C27.1 32 28 31.1 28 30V8L20 0H6Z" fill="#E2E5E7"/>
<path fill-rule="evenodd" clip-rule="evenodd" d="M22 8H28L20 0V6C20 7.1 20.9 8 22 8Z" fill="#B0B7BD"/>
<path fill-rule="evenodd" clip-rule="evenodd" d="M28 14L22 8H28V14Z" fill="#CAD1D8"/>
<path fill-rule="evenodd" clip-rule="evenodd" d="M24 26C24 26.55 23.55 27 23 27H1C0.45 27 0 26.55 0 26V16C0 15.45 0.45 15 1 15H23C23.55 15 24 15.45 24 16V26Z" fill="#235C99"/>
<path fill-rule="evenodd" clip-rule="evenodd" d="M3.23401 23.504C3.23401 23.855 3.52201 24 3.78601 24H5.68801C9.19001 24 9.27101 18.467 5.61701 18.467H3.78601C3.52201 18.467 3.23401 18.675 3.23401 18.963V23.504ZM4.29001 23.024V19.442H5.61701C7.87101 19.442 7.77601 23.024 5.61701 23.024H4.29001Z" fill="white"/>
<path fill-rule="evenodd" clip-rule="evenodd" d="M9.23499 21.201C9.23499 23.16 10.771 24.144 12.25 24.08C13.649 24.08 15.112 23.097 15.112 21.201C15.112 19.306 13.649 18.338 12.25 18.267C10.77 18.267 9.23499 19.234 9.23499 21.201ZM10.291 21.202C10.291 19.939 11.266 19.307 12.162 19.307C13.082 19.307 14.065 19.938 14.065 21.202C14.065 22.458 13.082 23.098 12.162 23.098C11.267 23.098 10.291 22.458 10.291 21.202Z" fill="white"/>
<path fill-rule="evenodd" clip-rule="evenodd" d="M16.053 21.193C16.053 19.65 17.021 18.323 18.86 18.323C19.556 18.323 20.108 18.531 20.691 19.035C20.907 19.234 20.931 19.586 20.715 19.81C20.499 20.001 20.171 19.978 19.979 19.786C19.652 19.442 19.316 19.347 18.86 19.347C17.629 19.347 17.038 20.219 17.038 21.194C17.038 22.186 17.621 23.097 18.86 23.097C19.316 23.097 19.74 22.912 20.108 22.585C20.355 22.393 20.699 22.488 20.843 22.681C20.971 22.857 21.034 23.153 20.755 23.432C20.195 23.953 19.524 24.057 18.859 24.057C16.925 24.057 16.053 22.736 16.053 21.193Z" fill="white"/>
<path fill-rule="evenodd" clip-rule="evenodd" d="M23 27H4V28H23C23.55 28 24 27.55 24 27V26C24 26.55 23.55 27 23 27Z" fill="#CAD1D8"/>
</svg>
