<svg xmlns="http://www.w3.org/2000/svg" width="56.894" height="69.951" viewBox="0 0 56.894 69.951"><g transform="translate(-0.044)"><path d="M7.659,0,0,41.576,5.471,42.67C17.05,34.191,22.019,0,7.659,0Z" transform="translate(30.679 2.116)" fill="#80362d"/><path d="M31.024,2.116C29.109.953,19-2,11.33,2.116,1.893,7.176-6.358,25.274,6.953,43.692,6.972,43.718,16.8,42.6,16.8,42.6Z" transform="translate(7.314 0)" fill="#80362d"/><path d="M17.565,2.556h-.06V0H2.188V2.553c0,2.5-.01,5.22-2.188,6.864v24.5H19.694V9.379C17.572,7.73,17.565,5.035,17.565,2.556Z" transform="translate(18.644 36.033)" fill="#ffd7a3"/><path d="M6.565,1.576A25.109,25.109,0,0,1,0,.722V12.517H15.318V0A23.859,23.859,0,0,1,6.565,1.576Z" transform="translate(21.926 57.434)" fill="#545465"/><path d="M16.412,14.287a6.035,6.035,0,0,0,1.094.2V9.442C15.384,7.794,15.377,5.1,15.377,2.619V0L3.282.064,0,1.158C2.188,3.62,8.89,12.236,16.412,14.287Z" transform="translate(20.832 35.97)" fill="#fdc88e"/><path d="M30.635,12.035c0,8.762-8.714,19.694-15.318,19.694S0,20.8,0,12.035,6.858,0,15.318,0,30.635,3.274,30.635,12.035Z" transform="translate(13.173 9.774)" fill="#ffe1b2"/><path d="M20.9,0a22.449,22.449,0,0,0-4.242,1.3l-.135-.2-.615.484c-.907.345-1.573.611-1.573.611l.256.427C10.434,5.887.959,13.371.107,14.223-.987,15.318,6.672,43.232,6.672,27.353c0-13.266,7.37-15.893,14.223-17.506a5.148,5.148,0,0,0,4.376-4.376C25.636,3.647,21.989,0,20.9,0Z" transform="translate(9.784 4.304)" fill="#80362d"/><path d="M2.188,8.753c2.006,7.2,6.018,10.462,9.779,11.42,2.061.525,1.163-5.949,1.163-5.949S10.212,6.747,9.847,6.565,6.565,0,6.565,0L0,5.471Z" transform="translate(31.773 2.116)" fill="#80362d"/><path d="M19.8,0c-1.025,1.665-3.114,2.835-7.4,2.835h-.365A12.035,12.035,0,0,0,0,14.871v7.659a3.282,3.282,0,0,0,3.282,3.282H25.734Z" transform="translate(0.044 44.139)" fill="#e4ebf0"/><path d="M5.932,0c1.025,1.665,3.114,2.835,7.4,2.835H13.7A12.035,12.035,0,0,1,25.734,14.871v7.659a3.282,3.282,0,0,1-3.282,3.282H0Z" transform="translate(31.204 44.139)" fill="#e4ebf0"/><circle cx="3.282" cy="3.282" r="3.282" transform="translate(8.797 61.198)" fill="#d0d7dc"/><path d="M10.4,18.791l-1.353-.93a13.049,13.049,0,0,0,1.891-7.194c0-4.893-2.129-9.027-4.65-9.027s-4.65,4.134-4.65,9.027a13.048,13.048,0,0,0,1.891,7.194l-1.353.93A14.7,14.7,0,0,1,0,10.668C0,4.686,2.763,0,6.291,0s6.291,4.686,6.291,10.668A14.709,14.709,0,0,1,10.4,18.791Z" transform="translate(38.612 49.436)" fill="#d0d7dc"/><circle cx="1.094" cy="1.094" r="1.094" transform="translate(40.526 66.668)" fill="#545465"/><circle cx="1.094" cy="1.094" r="1.094" transform="translate(47.091 66.668)" fill="#545465"/><path d="M.821,19.147A.82.82,0,0,1,0,18.327C0,4.148,6.7.262,6.987.1a.821.821,0,0,1,.8,1.432c-.08.047-6.147,3.687-6.147,16.791A.82.82,0,0,1,.821,19.147Z" transform="translate(11.259 43.965)" fill="#d0d7dc"/><circle cx="1.732" cy="1.732" r="1.732" transform="translate(10.347 62.748)" fill="#b2b9bf"/><path d="M3.009,4.924a.821.821,0,0,1-.774-.548A6.278,6.278,0,0,0,.35,1.493.821.821,0,1,1,1.291.148,7.766,7.766,0,0,1,3.783,3.83a.821.821,0,0,1-.774,1.094Z" transform="translate(41.894 46.154)" fill="#d0d7dc"/><path d="M2.747.1C4.537-.31,5.71.566,5.71,2.288,5.71,4.568,3.3,10.152.772,6.665S2.747.1,2.747.1Z" transform="translate(39.432 21.81)" fill="#ffe1b2"/></g></svg>