<svg xmlns="http://www.w3.org/2000/svg" width="90" height="89.658" viewBox="0 0 90 89.658"><g transform="translate(0 -0.171)"><path d="M90,15.562V29.1H0V15.562a8.683,8.683,0,0,1,5.529-8.1L24.506,0,39.319,16.277l4.648-9.469V6.789L45,4.669l1.052,2.121,4.65,9.487L65.494,0l19,7.462A8.715,8.715,0,0,1,90,15.562" transform="translate(0 60.729)" fill="#f2f2f2"/><path d="M26.578,7.755H26.6V.049a41.507,41.507,0,0,1-3.457,4.522L21.3,6.6A8.981,8.981,0,0,1,14.721,9.5H11.908A8.971,8.971,0,0,1,5.327,6.6L3.489,4.571A40.752,40.752,0,0,1,0,0V7.742l.03.015L11.6,14.282l1.706.956,1.706-.956Z" transform="translate(31.697 50.162)" fill="#f8b64c"/><g transform="translate(40.078 50.098)" opacity="0.1"><path d="M.157,8.728.124,8.717C.1,8.709.084,8.7.066,8.7S.026,8.687,0,8.678l7.071,5.252,11.1-6.263h.011L18.193,0c-.019.028-2.636,3.457-3.457,4.479L12.9,6.506A8.981,8.981,0,0,1,6.317,9.413H3.5a8,8,0,0,1-1.671-.178A8.684,8.684,0,0,1,.157,8.728" transform="translate(0.023 0.152)" fill="#40596b"/></g><g transform="translate(23.379 28.652)"><path d="M8.4,5.741C8.691,9.107,7.058,12,4.751,12.2S.332,9.834.034,6.469,1.375.214,3.685.011,8.106,2.374,8.4,5.741" transform="translate(0.064 0.114)" fill="#f8b64c"/><path d="M8.4,6.47C8.1,9.836,5.99,12.4,3.682,12.2S-.263,9.107.035,5.741,2.441-.191,4.749.011,8.692,3.1,8.4,6.47" transform="translate(34.765 0.116)" fill="#f8b64c"/></g><path d="M38.557,29.7a36.784,36.784,0,0,1-9.3,20.211l-1.837,2.025a8.976,8.976,0,0,1-6.581,2.908H18.028a8.966,8.966,0,0,1-6.581-2.908L9.609,49.911A36.944,36.944,0,0,1,.307,29.7a72.678,72.678,0,0,1,0-13.5,19.389,19.389,0,0,1,38.25,0,72.7,72.7,0,0,1,0,13.5" transform="translate(25.577 4.819)" fill="#ffd15c"/><path d="M8.246,9.386S8.377-3.238,26.732.795A31.771,31.771,0,0,1,41.7,12.12s5.5,7.984,2.509,14.7C43.235,29,42.193,31.5,42.313,33.5c0,0-1.018-4.254-1.626-7.8a16.6,16.6,0,0,0-3.75-8.036l-.058-.069a12.851,12.851,0,0,0-12.857-4.189,23.092,23.092,0,0,0-7.607,3.714S8.769,11.989,4.989,20.972A48.3,48.3,0,0,0,3.543,32.725S-6.981,10.688,8.246,9.386" transform="translate(22.146 0.171)" fill="#40596b"/><path d="M9.827,30.169A2.821,2.821,0,0,1,8.4,29.794l.487-.812.469-.823a.8.8,0,0,0,.449.117.936.936,0,0,0,.378-.079c.533-.2,1.025-.962,1.387-2.138a28.147,28.147,0,0,0,.469-8.627A4.021,4.021,0,0,0,9.735,15.6a4.17,4.17,0,0,0-1.179-.172,4.041,4.041,0,0,0-1.822.434,28.584,28.584,0,0,0-4.492,7.2l-.008.021A3.242,3.242,0,0,0,2.1,25.612a1.108,1.108,0,0,0,.711.469l-.187,1.875H2.619A2.885,2.885,0,0,1,.547,26.663c-.657-1.013-.689-2.427-.1-4.2C.473,22.4,2.633,16.116,10.727,9.094l.039-.488a4.738,4.738,0,0,0-.508-2.889A4.8,4.8,0,0,0,6.62,3.075L0,1.725l.864-.488H.883V0L6.921,1.219a6.743,6.743,0,0,1,5.025,3.657,13.581,13.581,0,0,1,.688,4.091c.01.163.017.281.023.332,2.552,10.482.808,17.034.733,17.308-.557,1.794-1.414,2.924-2.548,3.356A2.586,2.586,0,0,1,9.827,30.169ZM8.611,13.928a5.516,5.516,0,0,1,1.555.226,5.561,5.561,0,0,1,1.629.829c-.16-1.258-.374-2.52-.637-3.75-.964.872-1.855,1.754-2.721,2.7l.074,0Z" transform="translate(57.411 56.681)" fill="#acb3ba"/><g transform="translate(59.59 82.266)"><path d="M2,1.641a1.4,1.4,0,0,1-1.637,1.1C-.389,2.589.146-.142.9.006A1.394,1.394,0,0,1,2,1.641" transform="translate(0.099 0.124)" fill="#f8b64c"/><path d="M.126.813A1.392,1.392,0,0,0,.811,2.658C1.51,2.979,2.671.45,1.971.127A1.393,1.393,0,0,0,.126.813" transform="translate(5.011 1.889)" fill="#f8b64c"/></g><path d="M15.708,1.237l-.03-.015V0L11.624.834a14.548,14.548,0,0,0-10.389,20.1l1.718-.754A12.672,12.672,0,0,1,12,2.674l4.581-.943Z" transform="translate(16.017 56.679)" fill="#acb3ba"/><g transform="translate(24.434 57.832)"><path d="M20.494,2.831,6.658,20.981,0,7.5l1.706-.956L13.275.019h.019L13.312,0Z" transform="translate(20.566 0.066)" fill="#cdd6e0"/><path d="M0,2.831l13.858,18.15L20.494,7.5l-1.706-.956L7.219.019,7.181,0Z" transform="translate(0.073 0.066)" fill="#cdd6e0"/></g><path d="M0,24.431l3.786-8.625-1.633-2.4-1.2-1.8L5.6,2.121,6.636,0,7.687,2.121v.019l4.65,9.467-1.219,1.783L9.486,15.806l3.808,8.625Z" transform="translate(38.364 65.398)" fill="#334a5e"/><path d="M11.381,11.606l-1.219,1.783L5.7,4.256l-4.5,9.15L0,11.606,4.646,2.121,5.679,0,6.731,2.121v.019Z" transform="translate(39.321 65.398)" fill="#2a4356"/><path d="M8.494,4.245A4.247,4.247,0,1,1,4.245,0,4.251,4.251,0,0,1,8.494,4.245" transform="translate(15.255 76.307)" fill="#ff7058"/><path d="M5.706,2.852A2.853,2.853,0,1,1,2.856,0a2.85,2.85,0,0,1,2.85,2.852" transform="translate(16.648 77.7)" fill="#f2f2f2"/><path d="M4,2A2,2,0,1,1,2,0,2,2,0,0,1,4,2" transform="translate(17.503 78.555)" fill="#acb3ba"/></g></svg>