<svg width="16" height="17" viewBox="0 0 16 17" fill="none" xmlns="http://www.w3.org/2000/svg">
<path fill-rule="evenodd" clip-rule="evenodd" d="M11.2509 11.3358L15.9126 16.2261C16.0324 16.3521 16.0286 16.5524 15.9038 16.6736C15.8429 16.7325 15.7648 16.7619 15.6864 16.7619C15.6039 16.7619 15.5217 16.7296 15.4602 16.6647L10.7872 11.7624C9.64649 12.7165 8.18295 13.2915 6.58827 13.2915C2.95531 13.2915 0 10.3104 0 6.64577C0 2.9811 2.95531 0 6.58827 0C10.2212 0 13.1765 2.9811 13.1765 6.64577C13.1765 8.47463 12.4399 10.1329 11.2509 11.3358ZM0.627455 6.64577C0.627455 9.96138 3.30135 12.6586 6.58827 12.6586C9.87488 12.6586 12.5491 9.96138 12.5491 6.64577C12.5491 3.33017 9.8752 0.632931 6.58827 0.632931C3.30135 0.632931 0.627455 3.33017 0.627455 6.64577Z" fill="#787878"/>
</svg>
