<svg width="39" height="34" viewBox="0 0 39 34" fill="none" xmlns="http://www.w3.org/2000/svg">
<path fill-rule="evenodd" clip-rule="evenodd" d="M35.1646 5.06383H27.5798V3.73213C27.5724 1.66816 25.8966 -0.000860103 23.8326 0H15.0503C12.9863 -0.000860103 11.3106 1.66816 11.3032 3.73213V5.06383H3.71839C2.73125 5.0619 1.78401 5.45334 1.0862 6.15156C0.388382 6.84978 -0.00250197 7.79725 1.39039e-06 8.78439V30.2679C-0.00295309 31.2562 0.387416 32.2051 1.08499 32.9053C1.78257 33.6054 2.73004 33.9993 3.71839 34H35.1646C36.1529 33.9993 37.1004 33.6054 37.798 32.9053C38.4956 32.2051 38.8859 31.2562 38.883 30.2679V8.78439C38.8855 7.79725 38.4946 6.84978 37.7968 6.15156C37.099 5.45334 36.1517 5.0619 35.1646 5.06383ZM13.1117 3.73213C13.118 2.66651 13.9847 1.80655 15.0503 1.80851H23.8326C24.8983 1.80655 25.765 2.66651 25.7713 3.73213V5.06383H13.1117V3.73213ZM36.5198 31.6271C36.8783 31.2659 37.078 30.7767 37.0745 30.2679V24.0243C36.5039 24.3899 35.8422 24.5879 35.1646 24.5957H25.3193V27.2932C25.3193 27.7926 24.946 28.2128 24.4466 28.2128H14.4365C13.9372 28.2128 13.5638 27.7926 13.5638 27.2932V24.5957H3.71839C3.04081 24.5879 2.37906 24.3899 1.80851 24.0243V30.2679C1.80502 30.7767 2.00468 31.2659 2.36321 31.6271C2.72174 31.9882 3.20952 32.1913 3.71839 32.1915H35.1646C35.6735 32.1913 36.1612 31.9882 36.5198 31.6271ZM15.3723 26.4043V21.5213H23.5106V26.4043H15.3723ZM35.1646 22.7872C36.2282 22.7872 37.0745 21.8885 37.0745 20.825V8.78439C37.0775 8.27672 36.8774 7.78893 36.5186 7.42974C36.1598 7.07056 35.6723 6.86984 35.1646 6.87234H3.71839C3.21072 6.86984 2.72315 7.07056 2.36438 7.42974C2.0056 7.78893 1.80544 8.27672 1.80851 8.78439V20.825C1.80851 21.888 2.6548 22.7872 3.71839 22.7872H13.5637V20.6356C13.5637 20.1363 13.937 19.7128 14.4363 19.7128H24.4465C24.9458 19.7128 25.3192 20.1363 25.3192 20.6356V22.7872H35.1646Z" fill="url(#paint0_linear)"/>
<defs>
<linearGradient id="paint0_linear" x1="-1.52588e-05" y1="34" x2="38.883" y2="34" gradientUnits="userSpaceOnUse">
<stop stop-color="#FFFD61"/>
<stop offset="1" stop-color="#FFCA28"/>
</linearGradient>
</defs>
</svg>
