<svg xmlns="http://www.w3.org/2000/svg" width="89.038" height="88.524" viewBox="0 0 89.038 88.524"><g transform="translate(-0.962)"><path d="M0,0H25.082V62.61H0Z" transform="translate(0.962 25.914)" fill="#5aaae0"/><path d="M0,0H25.285V62.61H0Z" transform="translate(64.715 25.914)" fill="#5aaae0"/><path d="M0,0H38.671V88.525H0Z" transform="translate(26.044)" fill="#7dc7ff"/><path d="M11.96,10.757a5.788,5.788,0,0,0,2.794-4.932,5.9,5.9,0,0,0-11.8,0,5.788,5.788,0,0,0,2.794,4.932A8.737,8.737,0,0,0,0,18.929V30.577H17.7V18.929a8.737,8.737,0,0,0-5.745-8.172Z" transform="translate(36.598 57.948)" fill="#f73445"/><g transform="translate(30.984 25.082)"><path d="M0,0H2.975V2.912H0Z" transform="translate(1.009 6.656)" fill="#359ed8"/><path d="M0,0H2.975V2.912H0Z" transform="translate(1.009 12.481)" fill="#359ed8"/><path d="M0,0H2.975V2.912H0Z" transform="translate(1.009 18.305)" fill="#359ed8"/><path d="M0,0H2.975V2.912H0Z" transform="translate(1.009 24.129)" fill="#359ed8"/><path d="M0,0H2.975V2.912H0Z" transform="translate(6.959 6.656)" fill="#359ed8"/><path d="M0,0H2.975V2.912H0Z" transform="translate(6.959 12.481)" fill="#359ed8"/><path d="M0,0H2.975V2.912H0Z" transform="translate(6.959 18.305)" fill="#359ed8"/><path d="M0,0H2.975V2.912H0Z" transform="translate(6.959 24.129)" fill="#359ed8"/><path d="M0,0H2.975V2.912H0Z" transform="translate(12.908 6.656)" fill="#359ed8"/><path d="M0,0H2.975V2.912H0Z" transform="translate(12.908 12.481)" fill="#359ed8"/><path d="M0,0H2.975V2.912H0Z" transform="translate(12.908 18.305)" fill="#359ed8"/><path d="M0,0H2.975V2.912H0Z" transform="translate(12.908 24.129)" fill="#359ed8"/><path d="M0,0H2.975V2.912H0Z" transform="translate(18.858 6.656)" fill="#359ed8"/><path d="M0,0H2.975V2.912H0Z" transform="translate(6.959 0.832)" fill="#359ed8"/><path d="M0,0H2.975V2.912H0Z" transform="translate(12.908 0.832)" fill="#359ed8"/><path d="M0,0H2.975V2.912H0Z" transform="translate(18.858 0.832)" fill="#359ed8"/><path d="M0,0H2.975V2.912H0Z" transform="translate(18.858 12.481)" fill="#359ed8"/><path d="M0,0H2.975V2.912H0Z" transform="translate(18.858 18.305)" fill="#359ed8"/><path d="M0,0H2.975V2.912H0Z" transform="translate(18.858 24.129)" fill="#359ed8"/><path d="M0,0H2.975V2.912H0Z" transform="translate(24.807 6.656)" fill="#359ed8"/><path d="M0,0H2.975V2.912H0Z" transform="translate(24.807 12.481)" fill="#359ed8"/><path d="M0,0H2.975V2.912H0Z" transform="translate(24.807 18.305)" fill="#359ed8"/><path d="M0,0H2.975V2.912H0Z" transform="translate(24.807 24.129)" fill="#359ed8"/></g><path d="M10.083,7.8A4.324,4.324,0,0,0,11.8,4.368a4.427,4.427,0,0,0-8.852,0A4.324,4.324,0,0,0,4.671,7.8,7.273,7.273,0,0,0,0,14.561v7.28H14.754v-7.28A7.273,7.273,0,0,0,10.083,7.8Z" transform="translate(8.315 66.684)" fill="#f7f769"/><path d="M10.083,7.8A4.324,4.324,0,0,0,11.8,4.368a4.427,4.427,0,0,0-8.852,0A4.324,4.324,0,0,0,4.671,7.8,7.273,7.273,0,0,0,0,14.561V26.209H14.754V14.561A7.273,7.273,0,0,0,10.083,7.8Z" transform="translate(21.701 62.315)" fill="#ffc943"/><path d="M10.083,7.8A4.324,4.324,0,0,0,11.8,4.368a4.427,4.427,0,0,0-8.852,0A4.324,4.324,0,0,0,4.671,7.8,7.273,7.273,0,0,0,0,14.561v7.28H14.754v-7.28A7.273,7.273,0,0,0,10.083,7.8Z" transform="translate(67.809 66.684)" fill="#f7f769"/><path d="M10.083,7.8A4.324,4.324,0,0,0,11.8,4.368a4.427,4.427,0,0,0-8.852,0A4.324,4.324,0,0,0,4.671,7.8,7.273,7.273,0,0,0,0,14.561V26.209H14.754V14.561A7.273,7.273,0,0,0,10.083,7.8Z" transform="translate(54.423 62.315)" fill="#ffc943"/><path d="M0,0H2.975V23.3H0Z" transform="translate(72.152 36.107)" fill="#005889"/><path d="M0,0H2.975V23.3H0Z" transform="translate(81.076 36.107)" fill="#005889"/><path d="M0,0H2.975V23.3H0Z" transform="translate(6.708 36.107)" fill="#005889"/><path d="M0,0H2.975V23.3H0Z" transform="translate(15.632 36.107)" fill="#005889"/><path d="M0,0H23.8V14.561H0Z" transform="translate(33.48 4.073)" fill="#359ed8"/></g></svg>