<svg width="28" height="34" viewBox="0 0 28 34" fill="none" xmlns="http://www.w3.org/2000/svg">
<path fill-rule="evenodd" clip-rule="evenodd" d="M20.2632 5.11726H20.3509C21.3637 5.11873 22.1837 5.94058 22.183 6.9534V33.4023L19.7087 31.0994C19.2923 30.7395 18.6748 30.7395 18.2584 31.0994L15.0164 34L11.817 31.0994C11.394 30.7568 10.789 30.7568 10.366 31.0994L7.16656 34L3.9266 31.0987C3.51015 30.7388 2.89274 30.7388 2.47629 31.0987L0.00199127 33.4023V6.9534V6.8664C0.024199 6.38008 0.238772 5.92252 0.598468 5.59445C0.958164 5.26639 1.43349 5.09473 1.9198 5.11726H20.2632ZM11.2605 11.5182H5.80191C5.56841 11.5106 5.34935 11.6309 5.23037 11.832C5.1114 12.033 5.1114 12.2829 5.23037 12.484C5.34935 12.6851 5.56841 12.8053 5.80191 12.7978H11.2605C11.494 12.8053 11.7131 12.6851 11.832 12.484C11.951 12.2829 11.951 12.033 11.832 11.832C11.7131 11.6309 11.494 11.5106 11.2605 11.5182ZM16.3811 23.8896H5.80191C5.56841 23.8972 5.34935 23.7769 5.23037 23.5758C5.1114 23.3748 5.1114 23.1249 5.23037 22.9238C5.34935 22.7228 5.56841 22.6025 5.80191 22.61H16.3811C16.6146 22.6025 16.8337 22.7228 16.9526 22.9238C17.0716 23.1249 17.0716 23.3748 16.9526 23.5758C16.8337 23.7769 16.6146 23.8972 16.3811 23.8896ZM5.80191 18.3441H16.3811C16.7346 18.3441 17.0212 18.0575 17.0212 17.7039C17.0212 17.3504 16.7346 17.0637 16.3811 17.0637H5.80191C5.44836 17.0637 5.16176 17.3504 5.16176 17.7039C5.16176 18.0575 5.44836 18.3441 5.80191 18.3441Z" fill="url(#paint0_linear)"/>
<path fill-rule="evenodd" clip-rule="evenodd" d="M25.3825 0H7.03906C5.97195 0.0231173 5.11901 0.894936 5.11926 1.9623V3.83961H20.2632C21.1003 3.82808 21.9077 4.14961 22.5078 4.73346C23.1078 5.3173 23.4513 6.11561 23.4627 6.95273V26.0226C23.8735 25.7216 24.4366 25.7391 24.828 26.0651L27.3023 28.3687V1.9623C27.3022 0.89508 26.4494 0.0234674 25.3825 0V0Z" fill="url(#paint1_linear)"/>
<defs>
<linearGradient id="paint0_linear" x1="0.223611" y1="5.1153" x2="0.223611" y2="33.4228" gradientUnits="userSpaceOnUse">
<stop stop-color="#535353"/>
<stop offset="1" stop-color="#757575"/>
</linearGradient>
<linearGradient id="paint1_linear" x1="5.11926" y1="0" x2="5.11926" y2="28.3687" gradientUnits="userSpaceOnUse">
<stop stop-color="#646464"/>
<stop offset="1" stop-color="#868686"/>
</linearGradient>
</defs>
</svg>
