<svg xmlns="http://www.w3.org/2000/svg" width="90" height="90" viewBox="0 0 90 90"><path d="M29.482,90H0V15.518L29.482,0V90ZM17.069,71.38v6.206h6.207V71.38Zm-10.862,0v6.206h6.207V71.38ZM17.069,58.965v6.207h6.207V58.965Zm-10.862,0v6.207h6.207V58.965ZM17.069,46.552v6.206h6.207V46.552Zm-10.862,0v6.206h6.207V46.552ZM17.069,34.138v6.206h6.207V34.138Zm-10.862,0v6.206h6.207V34.138Z" fill="#57a4ff"/><path d="M31.035,90H0V15.518L31.035,0ZM18.621,71.38v6.206h6.206V71.38Zm-12.414,0v6.206h6.206V71.38ZM18.621,58.965v6.207h6.206V58.965Zm-12.414,0v6.207h6.206V58.965ZM18.621,46.552v6.206h6.206V46.552Zm-12.414,0v6.206h6.206V46.552ZM18.621,34.138v6.206h6.206V34.138Zm-12.414,0v6.206h6.206V34.138Z" transform="translate(29.482)" fill="#9bc9ff"/><path d="M29.482,90H0V15.518L29.482,0ZM17.069,71.38v6.206h6.207V71.38Zm-10.862,0v6.206h6.207V71.38ZM17.069,58.965v6.207h6.207V58.965Zm-10.862,0v6.207h6.207V58.965ZM17.069,46.552v6.206h6.207V46.552Zm-10.862,0v6.206h6.207V46.552ZM17.069,34.138v6.206h6.207V34.138Zm-10.862,0v6.206h6.207V34.138Z" transform="translate(60.518)" fill="#bddbff"/><g transform="translate(6.152 34.102)"><path d="M0,0H6.207V6.207H0Z" transform="translate(0.054 0.036)" fill="#e0e0e2"/><path d="M0,0H6.207V6.207H0Z" transform="translate(10.916 0.036)" fill="#e0e0e2"/><path d="M0,0H6.207V6.207H0Z" transform="translate(0.054 12.45)" fill="#e0e0e2"/><path d="M0,0H6.207V6.207H0Z" transform="translate(10.916 12.45)" fill="#e0e0e2"/><path d="M0,0H6.207V6.207H0Z" transform="translate(0.054 24.864)" fill="#e0e0e2"/><path d="M0,0H6.207V6.207H0Z" transform="translate(10.916 24.864)" fill="#e0e0e2"/><path d="M0,0H6.207V6.207H0Z" transform="translate(0.054 37.278)" fill="#e0e0e2"/><path d="M0,0H6.207V6.207H0Z" transform="translate(10.916 37.278)" fill="#e0e0e2"/><path d="M0,0H6.207V6.207H0Z" transform="translate(29.537 0.036)" fill="#e0e0e2"/><path d="M0,0H6.207V6.207H0Z" transform="translate(41.951 0.036)" fill="#e0e0e2"/><path d="M0,0H6.207V6.207H0Z" transform="translate(29.537 12.45)" fill="#e0e0e2"/><path d="M0,0H6.207V6.207H0Z" transform="translate(41.951 12.45)" fill="#e0e0e2"/><path d="M0,0H6.207V6.207H0Z" transform="translate(29.537 24.864)" fill="#e0e0e2"/><path d="M0,0H6.207V6.207H0Z" transform="translate(41.951 24.864)" fill="#e0e0e2"/><path d="M0,0H6.207V6.207H0Z" transform="translate(29.537 37.278)" fill="#e0e0e2"/><path d="M0,0H6.207V6.207H0Z" transform="translate(41.951 37.278)" fill="#e0e0e2"/><path d="M0,0H6.207V6.207H0Z" transform="translate(60.572 0.036)" fill="#e0e0e2"/><path d="M0,0H6.207V6.207H0Z" transform="translate(71.434 0.036)" fill="#e0e0e2"/><path d="M0,0H6.207V6.207H0Z" transform="translate(60.572 12.45)" fill="#e0e0e2"/><path d="M0,0H6.207V6.207H0Z" transform="translate(71.434 12.45)" fill="#e0e0e2"/><path d="M0,0H6.207V6.207H0Z" transform="translate(60.572 24.864)" fill="#e0e0e2"/><path d="M0,0H6.207V6.207H0Z" transform="translate(71.434 24.864)" fill="#e0e0e2"/><path d="M0,0H6.207V6.207H0Z" transform="translate(60.572 37.278)" fill="#e0e0e2"/><path d="M0,0H6.207V6.207H0Z" transform="translate(71.434 37.278)" fill="#e0e0e2"/></g></svg>