<svg xmlns="http://www.w3.org/2000/svg" width="24" height="30" viewBox="0 0 24 30"><g><g><g><path fill="#556080" d="M14.368 16.094h-9.28a.562.562 0 0 1 0-1.123h9.28a.562.562 0 0 1 0 1.123zm-9.28 4.865a.562.562 0 1 1 0-1.122h9.28a.562.562 0 1 1 0 1.122zm4.788-10.852a.562.562 0 1 1 0 1.122H5.088a.562.562 0 1 1 0-1.122zm7.974-5.615H1.683A1.61 1.61 0 0 0 0 6.026V29.304l2.17-2.021a.973.973 0 0 1 1.273 0l2.842 2.545 2.806-2.544c.372-.3.902-.3 1.273 0l2.807 2.544 2.844-2.544a.973.973 0 0 1 1.272 0l2.17 2.02V6.102a1.61 1.61 0 0 0-1.607-1.61z"/></g><g><path fill="#8088a0" d="M6.174 0A1.721 1.721 0 0 0 4.49 1.721v1.647h13.284A2.769 2.769 0 0 1 20.581 6.1v16.728a.973.973 0 0 1 1.198.038l2.17 2.02V1.721c0-.936-.748-1.7-1.684-1.721z"/></g></g></g></svg>