<svg width="85" height="86" viewBox="0 0 85 86" fill="none" xmlns="http://www.w3.org/2000/svg">
<path fill-rule="evenodd" clip-rule="evenodd" d="M51.7127 31.2851C51.4644 31.3349 51.2193 31.3961 50.982 31.4601C50.377 31.6229 49.0885 31.7502 47.7219 31.7502C47.6672 31.7502 47.6124 31.7497 47.5573 31.7491L47.8585 34.1299C48.6876 34.0053 49.5846 33.7773 50.5501 33.4118C50.6635 33.3687 50.7962 33.3307 50.9467 33.2955C51.1517 32.5599 51.4065 31.8884 51.7127 31.2851Z" fill="#E5CBBD"/>
<path fill-rule="evenodd" clip-rule="evenodd" d="M43.9919 29.6948H43.9916C43.7167 29.6948 43.4443 29.6658 43.1773 29.6117C43.3506 29.7978 43.6297 30.0338 44.0966 30.2689C45.8505 31.1529 50.0341 30.7146 50.7311 30.5272C51.2411 30.3901 51.7866 30.2606 52.3536 30.221C52.3961 30.1613 52.4404 30.1045 52.4842 30.0468C52.2416 29.8683 51.9443 29.689 51.6342 29.5032C50.915 29.072 50.1303 28.6012 49.7115 27.9382L46.8922 28.5048C46.1295 29.2607 45.0973 29.6948 43.9919 29.6948Z" fill="white"/>
<path fill-rule="evenodd" clip-rule="evenodd" d="M50.6473 25.994C50.3382 26.3108 50.371 26.8374 50.3714 26.8427C50.3731 26.8595 50.3737 26.8763 50.3735 26.8931C50.3637 27.6154 51.2621 28.154 52.1309 28.675C52.4863 28.8881 52.8269 29.0936 53.12 29.3165C53.1866 29.2499 53.2515 29.1811 53.3205 29.1178C53.7787 28.697 54.2468 28.3893 54.6936 28.1636C54.2001 27.7806 53.8263 27.4207 53.6503 27.1496C52.8003 25.8389 51.6987 25.7243 51.6522 25.7201C51.1949 25.689 50.8547 25.7815 50.6473 25.994Z" fill="#E5CBBD"/>
<path fill-rule="evenodd" clip-rule="evenodd" d="M49.4138 27.0129C49.4119 26.9762 49.4074 26.9404 49.4076 26.9027C49.396 26.7219 49.3788 25.9111 49.956 25.3196C50.3625 24.9031 50.9446 24.7144 51.6848 24.7555C50.009 23.1579 48.2163 22.7746 47.0384 22.793C48.155 24.0176 48.4456 25.8275 47.7107 27.355L49.4138 27.0129Z" fill="white"/>
<path fill-rule="evenodd" clip-rule="evenodd" d="M42.0142 29.5016C41.98 29.3762 41.9684 29.2623 41.9688 29.1599C41.9085 29.1257 41.8478 29.0919 41.7889 29.0548C41.475 28.856 41.1968 28.6172 40.9522 28.3504C40.669 29.1259 40.3257 30.4639 40.5353 32.0391C40.6976 32.2052 41.0668 32.5512 41.6369 32.9209C41.6962 32.9437 41.7495 32.9775 41.7947 33.0204C42.0957 33.2055 42.4455 33.3923 42.8458 33.5633C42.9072 33.5756 42.965 33.5994 43.0172 33.6336C44.0028 34.0286 45.2689 34.3134 46.8116 34.2348C46.84 34.2307 46.8686 34.2296 46.8974 34.2307L46.5796 31.7188C45.4066 31.6519 44.2991 31.4725 43.6415 31.1213C42.7198 30.6286 42.1722 30.0839 42.0142 29.5016Z" fill="#B7C16F"/>
<path fill-rule="evenodd" clip-rule="evenodd" d="M45.2743 37.5673C45.5358 36.6802 45.8189 35.8869 46.1193 35.197C45.1379 35.1746 44.263 35.0197 43.5003 34.7929L44.8792 39.1317C44.9967 38.5922 45.1267 38.0679 45.2743 37.5673Z" fill="#A6D9FF"/>
<path fill-rule="evenodd" clip-rule="evenodd" d="M50.6896 34.3868C50.6727 34.393 50.6561 34.3986 50.6391 34.4046C50.6538 34.4098 50.6681 34.4154 50.683 34.4204C50.6853 34.4092 50.6874 34.398 50.6896 34.3868Z" fill="#C69C6D"/>
<path fill-rule="evenodd" clip-rule="evenodd" d="M49.1653 34.8508C48.5995 34.9882 47.2739 35.1607 47.1951 35.1667C46.8497 35.8872 46.5238 36.7585 46.2247 37.7623C46.2823 38.6607 47.6765 38.8503 50.4939 38.8887C50.3907 38.8002 50.3239 38.6704 50.3239 38.5236C50.3239 37.395 50.3907 36.3493 50.5219 35.3855C50.0609 35.2314 49.6072 35.0517 49.1653 34.8508Z" fill="#B7C16F"/>
<path fill-rule="evenodd" clip-rule="evenodd" d="M35.1888 18.5895L36.5446 15.9464V15.1756C35.8768 15.533 35.0795 15.703 34.1329 15.7034C34.1329 15.7034 34.1329 15.7034 34.1325 15.7034C34.1325 15.7034 34.1321 15.7034 34.1317 15.7034C34.1316 15.7034 34.1314 15.7034 34.131 15.7034H34.1306C33.1842 15.7032 32.3867 15.533 31.7191 15.1756V15.9464L33.0749 18.5895H35.1888Z" fill="#C69C6D"/>
<path fill-rule="evenodd" clip-rule="evenodd" d="M39.3521 44.3378H40.981V43.5842H35.6768V44.3378H36.9209C37.3824 44.2362 37.8055 44.206 38.1364 44.206C38.4673 44.2062 38.8906 44.2362 39.3521 44.3378Z" fill="#999999"/>
<path fill-rule="evenodd" clip-rule="evenodd" d="M30.436 43.5842L30.6029 44.3378H32.5865V43.5842H30.436Z" fill="#999999"/>
<path fill-rule="evenodd" clip-rule="evenodd" d="M34.7965 21.2128L35.603 19.6408L35.3907 19.5555H32.8842L32.6672 19.6544L33.467 21.2128H34.7965Z" fill="#999999"/>
<path fill-rule="evenodd" clip-rule="evenodd" d="M29.7373 53.914C30.0168 54.0376 30.3017 54.1302 30.6002 54.0629C31.2157 53.924 31.6036 53.3101 31.4649 52.6946L31.071 50.916L28.7883 51.6829L29.2247 53.1689C29.2274 53.1788 29.3694 53.7515 29.7373 53.914Z" fill="#E0B489"/>
<rect x="33.5524" y="43.5842" width="1.15851" height="0.753602" fill="#4D4D4D"/>
<path fill-rule="evenodd" clip-rule="evenodd" d="M34.1316 40.1216L35.762 38.0686L34.6414 22.1787H33.6219L32.5017 38.0686L34.1316 40.1216Z" fill="#999999"/>
<path fill-rule="evenodd" clip-rule="evenodd" d="M33.8833 49.7996H35.0816L36.1376 48.1178C36.2794 47.892 36.5774 47.824 36.8033 47.9656C36.867 48.0055 36.9169 48.0589 36.9541 48.1188L36.9555 48.118L38.0114 49.7998H42.3897C42.2452 48.3255 40.7111 45.1721 38.1364 45.1721C35.5619 45.1721 34.1333 47.2504 33.8833 49.7996Z" fill="#B79870"/>
<path fill-rule="evenodd" clip-rule="evenodd" d="M52.4471 8.93335C53.3039 10.2624 55.0746 10.8652 55.867 11.0763V12.0252C55.867 14.7178 54.333 16.9085 52.4471 16.9085C50.5615 16.9085 49.0274 14.7178 49.0274 12.0252V11.0763C49.8197 10.8652 51.5904 10.2624 52.4471 8.93335ZM50.1069 12.5963C50.1958 12.6851 50.3215 12.7373 50.4489 12.7373C50.5764 12.7373 50.7002 12.6851 50.7889 12.5963C50.8795 12.5055 50.9316 12.3818 50.9316 12.2543C50.9316 12.1268 50.8796 12.0032 50.7889 11.9124C50.6111 11.7327 50.2866 11.7327 50.1069 11.9124C50.0163 12.0032 49.9659 12.1268 49.9659 12.2543C49.9659 12.3818 50.0161 12.5055 50.1069 12.5963ZM52.4659 15.6064C51.415 15.6064 50.6809 15.1828 50.6809 14.5762C50.6809 14.3094 50.897 14.0932 51.1638 14.0932C51.3937 14.0932 51.5859 14.2538 51.6348 14.4686C51.73 14.5304 52.0134 14.6405 52.4661 14.6405C52.9187 14.6405 53.2021 14.5304 53.2973 14.4686C53.3462 14.2538 53.5384 14.0932 53.7683 14.0932C54.0351 14.0932 54.2512 14.3094 54.2512 14.5762C54.2511 15.1828 53.517 15.6064 52.4659 15.6064ZM54.4844 12.7373C54.6119 12.7373 54.7356 12.6851 54.8244 12.5943C54.9152 12.5055 54.9676 12.3818 54.9672 12.2543C54.9672 12.1268 54.915 12.0032 54.8242 11.9124C54.6448 11.7327 54.3221 11.7327 54.1423 11.9124C54.0517 12.0032 54.0015 12.1268 54.0015 12.2543C54.0015 12.3818 54.0515 12.5055 54.1423 12.5943C54.2312 12.6851 54.355 12.7373 54.4844 12.7373Z" fill="#E5CBBD"/>
<path fill-rule="evenodd" clip-rule="evenodd" d="M47.8293 21.8787C47.6458 21.5812 47.5173 21.2558 47.4487 20.9064L47.0651 20.9985C46.4709 21.1382 45.9243 21.3754 45.4288 21.7031C45.6141 21.772 45.7945 21.8545 45.9692 21.9499C46.4054 21.8497 47.0562 21.7927 47.8293 21.8787Z" fill="#B7C16F"/>
<path fill-rule="evenodd" clip-rule="evenodd" d="M49.9939 16.8716C48.8288 15.8191 48.0613 14.0395 48.0613 12.0254V10.6946H48.0619C48.0617 10.4672 48.2222 10.2644 48.4539 10.2201C48.5053 10.2101 51.964 9.51328 51.964 7.28648C51.964 7.01969 52.1801 6.80352 52.4469 6.80352C52.7137 6.80352 52.9299 7.01969 52.9299 7.28648C52.9299 9.52681 56.4048 10.2134 56.44 10.2199C56.6716 10.264 56.8324 10.4668 56.8322 10.6944H56.8327V12.0252C56.8327 14.0395 56.0652 15.8191 54.9 16.8716V17.2149C56.5252 17.1299 57.6766 16.6065 58.3237 15.653C59.8139 13.4567 58.3195 9.62842 58.304 9.58998C58.2814 9.53318 58.2696 9.47233 58.2696 9.41128C58.2696 7.9261 57.8222 6.74325 56.9398 5.89595C55.244 4.26762 52.4923 4.35958 52.4664 4.36093C52.4603 4.36112 52.4547 4.35997 52.4483 4.35997C52.4413 4.35997 52.435 4.36132 52.428 4.36093C52.3998 4.36016 49.6379 4.27477 47.9497 5.90001C47.0699 6.74692 46.624 7.92823 46.624 9.41128C46.624 9.47233 46.6123 9.53318 46.5897 9.58998C46.5744 9.62842 45.0799 13.4567 46.57 15.653C47.2171 16.6065 48.3685 17.1299 49.9937 17.2149V16.8716H49.9939Z" fill="#E0BC4B"/>
<path fill-rule="evenodd" clip-rule="evenodd" d="M52.4471 22.8851C54.6925 22.8851 56.2584 22.0131 56.5034 20.6804L54.3046 20.1528C54.0874 20.1006 53.9342 19.9065 53.9342 19.6831V17.5278C53.4696 17.7519 52.9689 17.8746 52.4471 17.8746C51.9253 17.8746 51.4246 17.7519 50.96 17.5278V19.6833C50.96 19.9067 50.8068 20.1008 50.5897 20.153L48.3909 20.6805C48.636 22.0131 50.2018 22.8851 52.4471 22.8851Z" fill="#E5CBBD"/>
<path fill-rule="evenodd" clip-rule="evenodd" d="M39.4415 22.884L40.4285 23.5089C40.4565 23.4608 40.4807 23.4112 40.5108 23.3638C41.094 22.4429 41.9968 21.808 43.0278 21.5611L43.7976 19.3509C43.179 18.7947 42.3298 18.2996 41.1562 17.9951C41.1259 17.9872 39.3834 17.1527 39.3834 17.1527L39.5594 20.4891C39.5675 20.644 39.4987 20.7909 39.3791 20.8878C39.7761 20.7889 40.2112 20.8448 40.5832 21.0804C40.8085 21.2232 40.8755 21.5215 40.7328 21.7469C40.59 21.9724 40.2913 22.039 40.0663 21.8966C39.7939 21.7237 39.4323 21.8054 39.2599 22.0776C39.088 22.3498 39.1693 22.7117 39.4415 22.884Z" fill="#A6D9FF"/>
<path fill-rule="evenodd" clip-rule="evenodd" d="M40.9136 26.2623C40.7289 25.4392 40.8755 24.5934 41.327 23.8808C41.9094 22.9609 42.9084 22.4116 43.9989 22.4118C44.5953 22.4118 45.1783 22.5813 45.6846 22.9021C47.1561 23.8337 47.595 25.7887 46.6635 27.2601C46.0808 28.1801 45.0825 28.7293 43.9919 28.7291H43.9918C43.3952 28.7291 42.812 28.5595 42.3055 28.2386C41.5928 27.7873 41.0985 27.0855 40.9136 26.2623ZM45.5399 24.8585C45.3147 24.7159 45.0162 24.7828 44.8736 25.0082C44.762 25.1842 44.7786 25.4048 44.8987 25.5611C44.8864 25.6501 44.8334 25.8252 44.7015 26.0336C44.5698 26.2419 44.4341 26.3645 44.359 26.414C44.1668 26.3723 43.9601 26.4513 43.8484 26.6276C43.7057 26.8531 43.7727 27.1514 43.9979 27.2941C44.0636 27.3358 44.19 27.3969 44.3629 27.3969C44.516 27.3969 44.7058 27.3492 44.9233 27.1977C45.1358 27.0496 45.3469 26.8197 45.5175 26.5502C45.9784 25.8215 45.9873 25.1417 45.5399 24.8585ZM43.7764 23.5651C43.9581 23.3855 44.2806 23.3855 44.4602 23.5651C44.5512 23.6559 44.6032 23.7796 44.6032 23.9071C44.6032 24.0346 44.551 24.1582 44.4602 24.249C44.3714 24.3379 44.246 24.39 44.1183 24.39C43.9927 24.39 43.8672 24.3379 43.7762 24.249C43.6873 24.1582 43.6353 24.0346 43.6353 23.9071C43.6353 23.7796 43.6875 23.6559 43.7764 23.5651ZM42.8723 26.0746C42.6909 25.8949 42.3681 25.8949 42.1884 26.0746C42.0995 26.1654 42.0476 26.289 42.0474 26.4165C42.0474 26.544 42.0974 26.6676 42.1882 26.7584C42.2771 26.8473 42.4028 26.8994 42.5303 26.8994C42.6578 26.8994 42.7815 26.8473 42.8723 26.7584C42.9609 26.6676 43.0133 26.544 43.0133 26.4165C43.0133 26.289 42.9611 26.1654 42.8723 26.0746Z" fill="#D8B4A4"/>
<path fill-rule="evenodd" clip-rule="evenodd" d="M44.9449 20.8641C44.8346 20.6392 44.6994 20.407 44.534 20.1744L44.0901 21.449C44.1208 21.4498 44.1517 21.451 44.1824 21.4523C44.4237 21.2346 44.6776 21.0372 44.9449 20.8641Z" fill="#A6D9FF"/>
<path fill-rule="evenodd" clip-rule="evenodd" d="M45.708 59.0072L49.2364 44.4305L49.1035 44.3129C48.9735 44.1975 48.9154 44.0214 48.9515 43.8512C48.9758 43.7356 49.5809 41.0238 52.353 40.377L53.8367 39.8622C53.3989 39.8645 52.9368 39.8647 52.4471 39.8647C50.2698 39.8647 48.5501 39.8647 47.3732 39.6469C47.0657 39.5902 46.3907 39.4627 45.8843 39.055C45.729 39.7279 45.5973 40.4309 45.487 41.1561C45.4856 41.1746 45.4825 41.1926 45.4791 41.2108C44.5427 47.4391 45.1545 55.2325 45.5345 58.8513C45.5971 58.9037 45.6548 58.9559 45.708 59.0072Z" fill="#767743"/>
<path fill-rule="evenodd" clip-rule="evenodd" d="M57.2658 40.2464C56.7425 40.2464 56.2542 40.1473 55.806 39.9616C55.7712 40.1108 55.6675 40.2358 55.5233 40.2962C55.5653 41.2204 55.8288 42.0353 57.2658 42.0353C58.7045 42.0353 58.967 41.2181 59.0085 40.2964C58.8642 40.236 58.7603 40.1108 58.7255 39.9616C58.2775 40.1473 57.7892 40.2464 57.2658 40.2464Z" fill="#D8B4A4"/>
<path fill-rule="evenodd" clip-rule="evenodd" d="M58.2318 33.7663H60.708C60.7101 33.864 60.7122 33.9622 60.7122 34.0622C60.7122 35.6085 60.3344 37.1628 59.5265 38.1677C59.5246 38.1695 59.5196 38.1749 59.5117 38.1835L59.5117 38.1836C59.3858 38.3214 58.5098 39.2805 57.2659 39.2805C56.023 39.2805 55.1473 38.3228 55.0203 38.1839L55.0203 38.1839L55.0203 38.1838C55.0122 38.175 55.0071 38.1695 55.0052 38.1677C54.1974 37.1628 53.8195 35.6085 53.8195 34.0622C53.8195 33.9622 53.8216 33.864 53.8237 33.7663H56.2999C56.4821 33.7663 56.6486 33.6637 56.7309 33.5011L57.2659 32.4426L57.8006 33.5011C57.8829 33.6637 58.0496 33.7663 58.2318 33.7663ZM54.9115 34.986C54.9115 35.1116 54.9635 35.2372 55.0524 35.328C55.1434 35.4168 55.2668 35.469 55.3943 35.469C55.522 35.469 55.6474 35.4168 55.7362 35.328C55.827 35.2372 55.8773 35.1116 55.8773 34.986C55.8773 34.8585 55.8272 34.7349 55.7362 34.6441C55.5566 34.4645 55.234 34.4645 55.0524 34.6441C54.9637 34.7349 54.9115 34.8585 54.9115 34.986ZM58.2652 38.0565C57.9961 38.1614 57.6489 38.2195 57.2869 38.2203H57.2784C56.3146 38.2203 55.6663 37.8511 55.6648 37.3006C55.664 37.0338 55.8794 36.817 56.1462 36.8161H56.1477C56.3577 36.8161 56.5366 36.9501 56.6029 37.1375C56.701 37.1858 56.9357 37.2544 57.279 37.2544H57.2848C57.6312 37.2536 57.8676 37.1837 57.9659 37.1346C58.0316 36.9468 58.2101 36.8118 58.4205 36.8112H58.422C58.6881 36.8112 58.9042 37.0264 58.905 37.2926C58.9054 37.4845 58.8233 37.8388 58.2652 38.0565ZM59.1747 35.469C59.3024 35.469 59.426 35.4168 59.5168 35.326C59.6057 35.2372 59.6578 35.1114 59.6574 34.986C59.6574 34.8585 59.6055 34.7349 59.5166 34.6441C59.337 34.4645 59.0124 34.4645 58.8327 34.6441C58.7421 34.733 58.6917 34.8585 58.6917 34.986C58.6917 35.1135 58.7439 35.2372 58.8327 35.326C58.9235 35.4168 59.0474 35.469 59.1747 35.469Z" fill="#D8B4A4"/>
<path fill-rule="evenodd" clip-rule="evenodd" d="M52.4705 51.2434L52.2984 49.8491L48.7516 60.0618H49.011C50.1257 55.4498 52.031 52.0007 52.4705 51.2434Z" fill="#767743"/>
<path fill-rule="evenodd" clip-rule="evenodd" d="M46.8972 60.8328C47.2237 60.906 47.5515 60.6991 47.6249 60.3713C47.629 60.3533 47.634 60.3355 47.64 60.3183L52.0115 47.7314C52.0167 47.7159 52.0248 47.7026 52.0318 47.6879L51.9236 46.8122L50.0544 45.1557L46.4448 60.0682L46.8831 60.8312C46.8877 60.832 46.8926 60.8318 46.8972 60.8328Z" fill="#D8B4A4"/>
<path fill-rule="evenodd" clip-rule="evenodd" d="M61.2421 49.997H53.2898L53.397 50.8644H61.1351L61.2421 49.997Z" fill="#D6679F"/>
<path fill-rule="evenodd" clip-rule="evenodd" d="M63.2379 38.0408C63.1697 34.161 62.2689 31.3998 60.5581 29.8291C58.9987 28.3972 57.2807 28.5235 57.2676 28.5235C57.2539 28.5235 55.5017 28.4126 53.9549 29.8464C53.6114 30.1648 53.3023 30.5344 53.0247 30.9489C53.0224 30.9524 52.0965 32.6831 51.811 33.7922C51.8073 33.8125 51.6126 34.6571 51.5426 35.0898C51.5415 35.1035 51.5382 35.1172 51.5359 35.1309C51.3949 36.0186 51.3126 36.9868 51.294 38.041H53.7563C53.1789 37.0027 52.8538 35.644 52.8538 34.0624C52.8538 33.7841 52.8617 33.5121 52.8773 33.2542L52.8795 33.2544C52.8947 33.0015 53.1026 32.8006 53.3593 32.8006H56.003L56.8351 31.1545C56.9554 30.9163 57.2452 30.8207 57.484 30.9412C57.5796 30.9897 57.6509 31.0662 57.6959 31.1551L57.6972 31.1545L58.5293 32.8006H61.173C61.4297 32.8006 61.6376 33.0015 61.6528 33.2544L61.6549 33.2542C61.6706 33.5121 61.6785 33.7841 61.6785 34.0624C61.6785 35.644 61.3534 37.0027 60.776 38.041H63.2379V38.0408Z" fill="#C69C6D"/>
<path fill-rule="evenodd" clip-rule="evenodd" d="M67.0505 27.2671L67.7237 28.2291H68.5481L69.2213 27.2671H67.0505Z" fill="#8C6239"/>
<path fill-rule="evenodd" clip-rule="evenodd" d="M67.9032 17.0688V17.4034C67.9032 17.7679 67.8002 18.1081 67.6245 18.3998V18.564C67.6245 18.8461 67.854 19.0754 68.1356 19.0754C68.4177 19.0754 68.6472 18.8459 68.6472 18.564V18.4006C68.4712 18.1089 68.368 17.7685 68.368 17.4036V17.0688H67.9032V17.0688Z" fill="#C69C6D"/>
<path fill-rule="evenodd" clip-rule="evenodd" d="M63.1944 13.8887C62.7209 15.4185 62.7696 16.2961 62.9431 16.7951V16.1585C62.9431 15.8918 63.1593 15.6756 63.426 15.6756H63.8904C63.9664 14.0554 64.4258 12.7336 65.1846 11.8268C64.2925 11.9814 63.5578 12.7135 63.1944 13.8887Z" fill="#CCCCCC"/>
<path fill-rule="evenodd" clip-rule="evenodd" d="M52.9301 24.6585C53.2299 24.9976 53.8268 25.8308 53.8363 25.8501C54.0505 26.0641 54.2625 26.3178 54.4607 26.6236C54.5918 26.8259 55.0535 27.2572 55.7637 27.75C56.509 27.598 57.1042 27.5507 57.2647 27.5592C57.3412 27.5549 57.5181 27.5503 57.7674 27.5704C57.9665 27.2468 58.2318 26.8944 58.5861 26.549C58.5101 26.4293 58.4213 26.3234 58.3166 26.2359C58.112 26.0647 58.0853 25.7601 58.2565 25.5557C58.4282 25.3511 58.7323 25.3243 58.9369 25.4954C59.0897 25.6233 59.2237 25.7699 59.3395 25.9339C59.9182 25.5362 60.6473 25.184 61.5697 24.9491L61.8006 24.8716C61.5066 23.9776 60.4931 21.6248 57.8309 20.9991L57.4451 20.9066C57.1171 22.583 55.4034 23.7098 52.9299 23.8389V24.6585H52.9301Z" fill="#B7C16F"/>
<path fill-rule="evenodd" clip-rule="evenodd" d="M72.8452 15.6758C73.112 15.6758 73.3282 15.8919 73.3282 16.1587V16.7957C73.502 16.2965 73.5509 15.4188 73.0772 13.8887C72.7135 12.7137 71.979 11.9816 71.0867 11.8272C71.8453 12.7338 72.3049 14.0558 72.3806 15.6758H72.8452Z" fill="#CCCCCC"/>
<path fill-rule="evenodd" clip-rule="evenodd" d="M66.2936 26.5461L65.3279 24.7076L64.0388 25.14L64.1439 27.4987L66.2936 26.5461Z" fill="white"/>
<path fill-rule="evenodd" clip-rule="evenodd" d="M71.3898 19.342C71.7207 19.342 72.0321 19.2583 72.3049 19.1117C71.996 21.2394 70.3707 22.6703 68.1362 22.6703C65.9013 22.6703 64.276 21.2396 63.9671 19.1117C64.2399 19.2583 64.5513 19.342 64.8822 19.342H65.965C66.2581 19.342 66.5351 19.2746 66.7845 19.1577C67.0134 19.6773 67.5327 20.0413 68.136 20.0413C68.7393 20.0413 69.2588 19.6773 69.4879 19.1579C69.7371 19.2748 70.0139 19.342 70.307 19.342H71.3898ZM66.8525 20.356C66.5857 20.356 66.3695 20.5722 66.3695 20.8389C66.3695 21.0261 66.3697 21.5956 68.1547 21.5956C69.9397 21.5956 69.9397 21.0261 69.9397 20.8389C69.9397 20.5722 69.7236 20.356 69.4568 20.356C69.3057 20.356 69.1709 20.4252 69.0822 20.5337C68.9477 20.5735 68.6275 20.6295 68.1545 20.6295C67.6816 20.6295 67.3611 20.5735 67.2269 20.5337C67.1382 20.4253 67.0034 20.356 66.8525 20.356Z" fill="#C69C6D"/>
<path fill-rule="evenodd" clip-rule="evenodd" d="M65.9646 18.3761H64.8819C64.3454 18.3761 63.9092 17.9399 63.909 17.4034V16.9187V16.6415H66.9373V17.4034C66.9373 17.9399 66.5009 18.3761 65.9646 18.3761ZM65.7838 17.1959C65.604 17.0163 65.2814 17.0163 65.1 17.1959C65.0111 17.2848 64.9587 17.4104 64.9587 17.5359C64.9587 17.6634 65.0109 17.789 65.0998 17.8779C65.1906 17.9687 65.3142 18.0208 65.4417 18.0208C65.5694 18.0208 65.6928 17.9687 65.7838 17.8779C65.8744 17.7871 65.9247 17.6634 65.9247 17.5359C65.9247 17.4104 65.8746 17.2867 65.7838 17.1959Z" fill="#D8D5D4"/>
<path fill-rule="evenodd" clip-rule="evenodd" d="M67.4203 15.6758C67.6677 15.6758 67.8696 15.8628 67.8976 16.1029H68.3738C68.4018 15.8628 68.6035 15.6758 68.8512 15.6758H71.4139C71.2978 13.5413 70.3924 11.4291 68.1358 11.4291C65.8792 11.4291 64.9738 13.5413 64.8577 15.6758H67.4203ZM67.1533 12.3165H69.1564C69.4232 12.3165 69.6393 12.5327 69.6393 12.7995C69.6393 13.0663 69.4232 13.2824 69.1564 13.2824H67.1533C66.8865 13.2824 66.6703 13.0663 66.6703 12.7995C66.6703 12.5327 66.8865 12.3165 67.1533 12.3165ZM69.943 13.8827H66.3664C66.0999 13.8827 65.8835 14.0988 65.8835 14.3656C65.8835 14.6324 66.0997 14.8486 66.3664 14.8486H69.943C70.2098 14.8486 70.426 14.6324 70.426 14.3656C70.426 14.0988 70.2098 13.8827 69.943 13.8827Z" fill="#C69C6D"/>
<path fill-rule="evenodd" clip-rule="evenodd" d="M35.5827 21.7964L36.7387 38.188C36.7472 38.3086 36.7103 38.4278 36.6352 38.5222L34.6137 41.0678V42.6183H40.9808V33.6177C40.1573 33.0705 39.7267 32.5885 39.7137 32.5738C39.654 32.505 39.615 32.4208 39.6013 32.3308C39.235 29.944 39.9911 28.0479 40.301 27.3969C40.1579 27.106 40.0441 26.7984 39.9713 26.4741C39.815 25.7786 39.8428 25.0714 40.0396 24.4062L38.9248 23.7002C38.2029 23.2429 37.9871 22.2834 38.4443 21.5609C38.6043 21.3082 38.8265 21.1193 39.0776 20.9977H39.0774C39.0167 20.9977 38.9555 20.9864 38.8975 20.963L36.5033 20.0021L35.5827 21.7964Z" fill="#A6D9FF"/>
<path fill-rule="evenodd" clip-rule="evenodd" d="M28.2279 70.5296C28.5664 70.6391 28.8467 70.5379 28.884 70.4227C28.8888 70.4073 28.8948 70.3922 28.9012 70.3775L31.1987 65.144L29.7763 64.5836L27.7529 70.0762C27.7216 70.1733 27.8897 70.4198 28.2279 70.5296Z" fill="#D8B4A4"/>
<path fill-rule="evenodd" clip-rule="evenodd" d="M72.1279 27.4987L72.2332 25.14L70.9439 24.7076L69.9782 26.5461L72.1279 27.4987Z" fill="white"/>
<path fill-rule="evenodd" clip-rule="evenodd" d="M70.3068 18.3761C69.7705 18.3761 69.3341 17.9397 69.3341 17.4034H69.3339V16.6415H72.3622V16.9187V17.4034C72.3622 17.9399 71.9258 18.3761 71.3896 18.3761H70.3068ZM71.2082 17.1959C71.0287 17.0163 70.7061 17.0163 70.5264 17.1959C70.4354 17.2848 70.3833 17.4104 70.3833 17.5379C70.3833 17.6634 70.4353 17.789 70.5262 17.8779C70.6151 17.9687 70.7407 18.0208 70.8662 18.0208C70.9939 18.0208 71.1193 17.9687 71.2082 17.8779C71.299 17.789 71.3511 17.6634 71.3511 17.5379C71.3511 17.4104 71.2992 17.2848 71.2082 17.1959Z" fill="#D8D5D4"/>
<path fill-rule="evenodd" clip-rule="evenodd" d="M69.9649 23.3364C69.4033 23.5313 68.789 23.6362 68.1356 23.6362C67.4825 23.6362 66.8681 23.5315 66.3068 23.3366V24.4945L67.252 26.2938H69.0196L69.9649 24.4945V23.3364Z" fill="#C69C6D"/>
<path fill-rule="evenodd" clip-rule="evenodd" d="M71.1809 28.1356L70.1211 27.666L69.3241 28.8054L69.6397 29.9956C70.6367 29.5173 71.0335 28.6275 71.1809 28.1356Z" fill="white"/>
<path fill-rule="evenodd" clip-rule="evenodd" d="M65.0909 28.1356C65.2385 28.6275 65.6351 29.5175 66.6323 29.9956L66.9479 28.8054L66.1509 27.666L65.0909 28.1356Z" fill="white"/>
<path fill-rule="evenodd" clip-rule="evenodd" d="M67.8435 29.195L67.5578 30.2728C67.7378 30.3 67.9301 30.3161 68.136 30.3186C68.3419 30.3161 68.5343 30.3 68.7142 30.2728L68.4283 29.195H67.8435Z" fill="#8C6239"/>
<path fill-rule="evenodd" clip-rule="evenodd" d="M40.9808 57.4369V56.4893C40.9269 56.532 40.8723 56.5739 40.817 56.6141V57.4054L40.9808 57.4369Z" fill="#4D4D4D"/>
<path fill-rule="evenodd" clip-rule="evenodd" d="M37.7442 50.7655H42.4444L42.4448 50.7885C42.4462 50.868 42.4476 50.9478 42.4475 51.029C42.4475 54.0737 40.5137 56.5507 38.1364 56.5507C35.7593 56.5507 33.8254 54.0737 33.8254 51.029C33.8254 50.9485 33.8268 50.8697 33.8282 50.7911L33.8286 50.7655H35.3488C35.5149 50.7655 35.6695 50.6801 35.7578 50.5393L36.5465 49.2828L37.3353 50.5393C37.4236 50.6801 37.5781 50.7655 37.7442 50.7655ZM35.682 51.9996C35.682 52.1271 35.7342 52.2526 35.8231 52.3415C35.9119 52.4303 36.0375 52.4825 36.165 52.4825C36.2927 52.4825 36.4161 52.4303 36.5069 52.3415C36.5958 52.2507 36.6479 52.1271 36.6479 51.9996C36.6479 51.8721 36.5958 51.7484 36.5069 51.6576C36.3273 51.478 36.0029 51.478 35.8231 51.6576C35.7342 51.7484 35.682 51.8721 35.682 51.9996ZM39.1784 55.2657C38.8981 55.375 38.5355 55.4357 38.1573 55.4365H38.1492C37.7742 55.4365 37.4145 55.3775 37.1357 55.2701C36.5616 55.0489 36.475 54.6883 36.4747 54.493C36.4741 54.2264 36.6899 54.0094 36.9565 54.009H36.9572C37.1713 54.009 37.3527 54.1477 37.4162 54.3401C37.5182 54.3935 37.7815 54.468 38.1551 54.4705C38.5365 54.4698 38.7919 54.3908 38.8939 54.3369C38.9567 54.1439 39.1381 54.0042 39.3519 54.0038H39.3531C39.6193 54.0038 39.8354 54.2194 39.836 54.4858C39.8364 54.6811 39.7516 55.0422 39.1784 55.2657ZM40.1465 52.4748C40.274 52.4748 40.3976 52.4226 40.4884 52.3318C40.5773 52.243 40.6294 52.1174 40.6294 51.9918C40.6294 51.8643 40.5773 51.7388 40.4884 51.6499C40.3087 51.4702 39.9823 51.4702 39.8045 51.6499C39.7139 51.7388 39.6635 51.8643 39.6635 51.9918C39.6635 52.1193 39.7137 52.243 39.8045 52.3318C39.8934 52.4226 40.0192 52.4748 40.1465 52.4748Z" fill="#D8B4A4"/>
<path fill-rule="evenodd" clip-rule="evenodd" d="M36.4219 57.1631V57.7776C36.5056 57.9857 37.2234 58.5828 38.1335 58.5828C38.1343 58.5828 38.1356 58.5828 38.1366 58.5828C38.1374 58.5828 38.1387 58.5828 38.1397 58.5828C39.05 58.5828 39.7678 57.9855 39.8513 57.7776V57.1631C39.3133 57.3911 38.7366 57.5166 38.1366 57.5166C37.5366 57.5166 36.9599 57.3911 36.4219 57.1631Z" fill="#D8B4A4"/>
<path fill-rule="evenodd" clip-rule="evenodd" d="M34.9089 45.3037H30.8169L32.4072 52.4839C32.6628 53.6171 31.9478 54.7489 30.8129 55.0049C30.657 55.04 30.4999 55.0574 30.344 55.0574C29.9497 55.0574 29.5628 54.9462 29.2213 54.7306C28.7493 54.4325 28.4203 53.9698 28.2934 53.4272L27.2823 49.9833V68.5593L28.8768 64.2297L28.2239 63.9726C28.0933 63.9212 27.9915 63.8153 27.9451 63.683C27.8987 63.5505 27.9123 63.4044 27.982 63.2827L30.005 59.7601C30.1271 59.4921 30.8432 58.1858 33.2193 57.8313L33.432 53.9629C33.0667 53.081 32.8594 52.0846 32.8594 51.0292C32.8594 50.774 32.8679 50.5314 32.8803 50.2947C32.8801 50.2907 32.879 50.2868 32.879 50.2827C32.879 50.2671 32.8822 50.2524 32.8834 50.2374C33.0293 47.6491 33.886 46.155 34.9089 45.3037Z" fill="#4D4D4D"/>
<path fill-rule="evenodd" clip-rule="evenodd" d="M35.456 57.4052V56.6139C35.2823 56.4874 35.1145 56.3494 34.9543 56.1999L35.025 57.4881L35.456 57.4052Z" fill="#4D4D4D"/>
<path fill-rule="evenodd" clip-rule="evenodd" d="M61.9381 41.3126C61.9208 41.3087 59.9532 40.6268 59.9532 40.6268C59.8514 41.5985 59.3887 43.0014 57.266 43.0014C55.141 43.0014 54.6797 41.596 54.5789 40.6268C54.5789 40.6268 52.6115 41.3085 52.5943 41.3124C50.8379 41.7119 50.1743 43.1835 49.9715 43.7909L52.7012 46.2101C52.7892 46.2882 52.8457 46.3956 52.8601 46.5124L53.1708 49.0308H61.3615L61.6721 46.5124C61.6866 46.3958 61.743 46.2882 61.8311 46.2101L64.5608 43.7907C64.3585 43.1849 63.6951 41.7123 61.9381 41.3126Z" fill="#F7A9C9"/>
<path fill-rule="evenodd" clip-rule="evenodd" d="M48.049 63.9726L47.7795 64.0787C47.8046 64.5035 47.8326 64.936 47.8786 65.5399L48.1935 66.3949C48.2101 64.5187 48.4419 62.7075 48.7927 61.0277H48.3918C48.1784 61.3954 47.8251 61.6602 47.4188 61.7645L48.2908 63.2828C48.3606 63.4045 48.3743 63.5507 48.3277 63.683C48.2813 63.8154 48.1795 63.9212 48.049 63.9726Z" fill="#E5CBBD"/>
<path fill-rule="evenodd" clip-rule="evenodd" d="M55.7306 82.2447L55.7266 67.0911H52.5163C52.5862 72.7376 53.8705 80.4292 54.1869 82.2447H55.7306Z" fill="#D8B4A4"/>
<path fill-rule="evenodd" clip-rule="evenodd" d="M60.3448 82.2447C60.6614 80.429 61.9457 72.7363 62.0158 67.0911H58.8055L58.8017 82.2447H60.3448Z" fill="#D8B4A4"/>
<path fill-rule="evenodd" clip-rule="evenodd" d="M62.2604 49.926L62.2337 49.8489L62.2241 49.926H62.2604Z" fill="#C69C6D"/>
<path fill-rule="evenodd" clip-rule="evenodd" d="M61.2831 51.8304H53.2492C52.5495 53.0746 49.3083 59.2016 49.1615 66.1252H65.3702C65.2238 59.1935 61.983 53.0737 61.2831 51.8304Z" fill="#F7A9C9"/>
<path fill-rule="evenodd" clip-rule="evenodd" d="M52.9301 80.6998H52.9502C52.9434 80.6573 52.937 80.6169 52.9301 80.5735V80.6998Z" fill="#E5CBBD"/>
<path fill-rule="evenodd" clip-rule="evenodd" d="M52.9301 82.3822C53.0224 82.3511 53.1175 82.3239 53.2168 82.303C53.187 82.1307 53.1499 81.9144 53.1084 81.6659H52.9299V82.3822H52.9301Z" fill="#998675"/>
<path fill-rule="evenodd" clip-rule="evenodd" d="M65.9714 60.6114L62.5957 50.8919H62.1049L62.0614 51.2437C62.6914 52.3293 66.341 58.953 66.341 66.6084C66.341 66.8752 66.1248 67.0913 65.858 67.0913H62.9813C62.9398 70.4913 62.4651 74.6129 62.0197 77.7843V81.5394H66.7285L67.3834 61.8063C67.1284 61.7873 66.8797 61.7097 66.6574 61.5686C66.3108 61.3482 66.068 61.0092 65.9714 60.6114Z" fill="#736357"/>
<rect x="37.6714" y="82.1137" width="0.929977" height="2.38193" fill="#333333"/>
<path fill-rule="evenodd" clip-rule="evenodd" d="M38.1366 77.8964C38.0545 78.048 37.8949 78.1498 37.7128 78.1498H37.6716V81.1478H38.6016V78.1498H38.5604C38.3783 78.1498 38.2185 78.048 38.1366 77.8964Z" fill="#4D4D4D"/>
<path fill-rule="evenodd" clip-rule="evenodd" d="M34.8477 82.3517H36.7055V78.1498H34.5183L34.8477 82.3517Z" fill="#D8B4A4"/>
<path fill-rule="evenodd" clip-rule="evenodd" d="M45.5274 60.4099C45.5237 60.4041 45.5204 60.3982 45.5171 60.3922C45.5171 60.3922 44.8912 59.0318 42.771 58.764C42.7608 58.7627 42.7506 58.7611 42.7403 58.7592L41.3678 58.4949C41.3668 58.4947 41.3658 58.4945 41.3651 58.4944L40.6207 58.351C40.2087 58.9671 39.1981 59.5487 38.1389 59.5487H38.1366H38.1354H38.1331C37.0737 59.5487 36.0624 58.9667 35.6507 58.3512C35.6507 58.3512 33.5114 58.7625 33.5012 58.764C31.4259 59.0706 30.9039 60.1117 30.8846 60.1575C30.8768 60.1756 29.0976 63.2787 29.0976 63.2787L32.1018 64.4619L32.9054 62.9495C33.0094 62.7538 33.2335 62.6538 33.4487 62.7075C33.6639 62.761 33.8149 62.9543 33.8149 63.1761V70.5761H42.4567V63.1761C42.4567 62.9543 42.6076 62.7612 42.8228 62.7075C43.038 62.6536 43.2619 62.7538 43.366 62.9495L44.1697 64.4619L47.1738 63.2787L45.5274 60.4099Z" fill="#F4A04D"/>
<path fill-rule="evenodd" clip-rule="evenodd" d="M33.3544 83.6941C33.1255 83.9287 33.0128 84.2399 32.9578 84.4955H36.7055V83.3174H34.401C33.944 83.3176 33.6017 83.4409 33.3544 83.6941Z" fill="#999999"/>
<path fill-rule="evenodd" clip-rule="evenodd" d="M14.7313 81.8373H16.8379V67.3461H12.8848C13.1814 71.0183 13.7346 76.3287 14.7313 81.8373Z" fill="#E0B489"/>
<path fill-rule="evenodd" clip-rule="evenodd" d="M33.8155 77.1839H37.2752L37.656 73.3547C37.6824 73.089 37.9208 72.8955 38.1841 72.9217C38.4173 72.9449 38.5946 73.1302 38.6167 73.3547H38.6168L38.9976 77.1839H42.4573V71.5422H33.8155V77.1839Z" fill="#5576A5"/>
<path fill-rule="evenodd" clip-rule="evenodd" d="M48.5141 70.0582L46.4973 64.5838L45.0747 65.1442L47.3722 70.3777C47.3786 70.3926 47.3844 70.4077 47.3894 70.4229C47.4267 70.5379 47.7068 70.6395 48.0455 70.5296C48.3835 70.4198 48.5514 70.1733 48.5141 70.0582Z" fill="#D8B4A4"/>
<path fill-rule="evenodd" clip-rule="evenodd" d="M39.5675 78.1498V82.3517H41.4253L41.7547 78.1498H39.5675Z" fill="#D8B4A4"/>
<path fill-rule="evenodd" clip-rule="evenodd" d="M17.804 81.8373H19.9103C20.9069 76.3287 21.4602 71.0183 21.7569 67.3461H17.804V81.8373Z" fill="#E0B489"/>
<path fill-rule="evenodd" clip-rule="evenodd" d="M22.9801 36.874C23.4843 35.6803 24.0061 34.4461 23.0607 32.3692C22.9786 32.189 23.0151 31.9769 23.1525 31.8341L25.6459 29.2449C24.8768 28.2369 23.8906 27.5816 22.7045 27.3026L21.0711 26.9107L17.8036 36.3522V47.9026H25.1534C25.1262 46.7763 24.8555 43.6885 22.8679 40.2916C22.0948 38.9698 22.5449 37.9044 22.9801 36.874Z" fill="#C4806E"/>
<path fill-rule="evenodd" clip-rule="evenodd" d="M10.9851 66.3802H23.6567C25.5172 55.1878 25.3213 50.2231 25.2027 48.8685H9.44021C9.32314 50.231 9.13112 55.2274 10.9851 66.3802Z" fill="#96564A"/>
<path fill-rule="evenodd" clip-rule="evenodd" d="M32.1495 65.5186L32.0977 65.4983L29.7935 70.7469C29.6179 71.2459 29.1098 71.5438 28.5177 71.5438C28.3276 71.5438 28.1288 71.5131 27.9296 71.4485C27.6781 71.367 27.4594 71.2416 27.2821 71.0883V81.1478H31.9374L32.8152 65.1784L32.7528 65.2961C32.6377 65.5128 32.3782 65.6088 32.1495 65.5186Z" fill="#4D4D4D"/>
<path fill-rule="evenodd" clip-rule="evenodd" d="M17.804 82.8032V84.4957H22.2006C21.7693 82.9361 20.4769 82.8129 20.2984 82.8032H17.804Z" fill="#998675"/>
<path fill-rule="evenodd" clip-rule="evenodd" d="M26.3373 82.6925C25.8419 83.2174 25.6922 84.0028 25.6486 84.4955H31.9119V82.1135H27.8551C27.2015 82.1137 26.7051 82.303 26.3373 82.6925Z" fill="#333333"/>
<path fill-rule="evenodd" clip-rule="evenodd" d="M27.2736 46.5252L28.516 50.7557L30.8608 49.9677L26.7738 31.5161C26.7727 31.5111 26.6187 30.8637 26.1879 30.0748L24.0712 32.2726C24.7651 33.9715 24.5978 35.2267 24.258 36.2535L27.2439 46.4226C27.2574 46.4551 27.2672 46.4894 27.2736 46.5252Z" fill="#C4806E"/>
<path fill-rule="evenodd" clip-rule="evenodd" d="M23.7019 39.8038C23.7511 39.888 23.7975 39.9717 23.8448 40.0555L24.0633 39.0195L23.6795 37.712C23.3906 38.4459 23.2618 39.0516 23.7019 39.8038Z" fill="#A6D9FF"/>
<path fill-rule="evenodd" clip-rule="evenodd" d="M39.5675 83.3176V84.4956H43.3152C43.2602 84.2401 43.1477 83.9289 42.9186 83.6943C42.6714 83.4409 42.3288 83.3178 41.8718 83.3178H39.5675V83.3176Z" fill="#999999"/>
<path fill-rule="evenodd" clip-rule="evenodd" d="M48.3459 84.4956H50.989C51.1574 84.0065 51.4727 83.4179 51.9642 82.9641V81.6657H49.8556C49.7124 82.287 49.3278 83.4702 48.3459 84.4956Z" fill="#998675"/>
<path fill-rule="evenodd" clip-rule="evenodd" d="M74.2519 50.8919H66.8596L67.6996 54.3624C67.704 54.3533 67.6961 54.1157 68.1603 54.1157C68.6257 54.1157 68.6161 54.5455 68.6164 54.5548L68.7903 58.8687L69.0366 59.8868C69.1257 60.2846 69.0619 60.6845 68.8624 61.0281L69.5429 81.5392H74.2518V50.8919H74.2519Z" fill="#736357"/>
<path fill-rule="evenodd" clip-rule="evenodd" d="M73.7769 82.5051H70.1385V84.4956H75.7307C75.6865 84.0743 75.5493 83.4492 75.1398 83.0168C74.8133 82.6724 74.3675 82.5051 73.7769 82.5051Z" fill="#4D4D4D"/>
<path fill-rule="evenodd" clip-rule="evenodd" d="M81.2133 53.0101C81.4389 52.94 81.6361 52.8061 81.7806 52.6185C81.9008 52.4624 81.9703 52.2814 81.9937 52.0931C81.6135 52.2652 81.3236 52.6008 81.2133 53.0101Z" fill="#C69C6D"/>
<path fill-rule="evenodd" clip-rule="evenodd" d="M81.8701 50.8919H79.452L79.7118 52.0626C79.7149 52.0759 79.8505 52.7375 80.2464 52.8965C80.4233 52.0371 81.0666 51.3472 81.8987 51.1005L81.8701 50.8919Z" fill="#C69C6D"/>
<path fill-rule="evenodd" clip-rule="evenodd" d="M37.4572 16.2835L36.1553 18.8216L38.5554 19.7848L38.3914 16.6755L37.4753 16.2348C37.469 16.2511 37.4651 16.2681 37.4572 16.2835Z" fill="#A6D9FF"/>
<path fill-rule="evenodd" clip-rule="evenodd" d="M79.1091 49.9259H81.8848L82.0103 49.096H78.5585L79.1091 49.9259Z" fill="#588AA3"/>
<path fill-rule="evenodd" clip-rule="evenodd" d="M78.2369 29.5395C78.2255 29.4286 77.9174 26.7563 74.4478 25.881C74.4359 25.8781 73.1858 25.4593 73.1858 25.4593L73.0614 28.2483C73.0544 28.4076 72.9688 28.5533 72.8332 28.6373C72.7558 28.6854 72.6675 28.7098 72.579 28.7098C72.5125 28.7098 72.4459 28.6961 72.3833 28.6684L72.0756 28.532C71.7669 29.4732 70.986 30.6485 69.4523 31.0985C69.4462 31.1004 69.4408 31.1035 69.4344 31.1052C69.4309 31.1062 69.4274 31.1058 69.4239 31.1066C69.2456 31.1576 68.6906 31.2988 68.1356 31.2988C67.5806 31.2988 67.026 31.1576 66.8477 31.1066C66.8444 31.1058 66.8407 31.1062 66.8372 31.1052C66.8309 31.1035 66.8255 31.1004 66.8193 31.0985C65.2856 30.6485 64.5046 29.4734 64.1961 28.532L63.8883 28.6684C63.8259 28.6962 63.7591 28.7098 63.6926 28.7098C63.604 28.7098 63.5159 28.6854 63.4384 28.6373C63.3028 28.5533 63.2172 28.4076 63.2103 28.2483L63.086 25.4593C63.086 25.4593 61.8358 25.8779 61.824 25.881C60.2432 26.2799 59.3292 27.0602 58.8051 27.7601C59.5158 27.9612 60.3796 28.3543 61.211 29.1178C63.1996 30.9435 64.2078 34.1082 64.2078 38.524C64.2078 38.7908 63.9917 39.0069 63.7249 39.0069H61.5657C61.5406 39.3885 61.5182 39.7665 61.4987 40.1411L62.1789 40.3772C64.9512 41.0241 65.5557 43.736 65.58 43.8516C65.6159 44.0216 65.558 44.1977 65.428 44.3131L65.2957 44.4303L66.6259 49.926H74.4214C75.5038 43.5338 74.2695 34.3982 74.2564 34.3024C74.2207 34.0441 74.3968 33.8042 74.6538 33.7605C74.9103 33.7165 75.1564 33.8849 75.2082 34.1403L78.053 48.1301H81.9819C81.9817 48.1301 78.2384 29.5569 78.2369 29.5395Z" fill="#588AA3"/>
<path fill-rule="evenodd" clip-rule="evenodd" d="M56.6971 84.4957H56.9195C56.8432 84.4213 56.7705 84.3423 56.6971 84.2636V84.4957Z" fill="#998675"/>
<path fill-rule="evenodd" clip-rule="evenodd" d="M56.6925 67.0911L56.6931 69.1491C56.7644 68.4563 56.8291 67.7707 56.8884 67.0911H56.6925Z" fill="#E5CBBD"/>
<path fill-rule="evenodd" clip-rule="evenodd" d="M64.4775 45.1553L62.6081 46.8123L62.5001 47.6874C62.5069 47.7021 66.8919 60.3184 66.8919 60.3184C66.8979 60.3358 67.0376 60.6657 67.1751 60.7528C67.3125 60.8402 67.4763 60.8684 67.6343 60.833C67.7933 60.7975 67.9285 60.7024 68.0158 60.5651C68.103 60.4277 68.1316 60.2647 68.096 60.1059L64.4775 45.1553Z" fill="#D8B4A4"/>
<path fill-rule="evenodd" clip-rule="evenodd" d="M48.6733 67.0911C48.5816 67.0911 48.4968 67.0641 48.4237 67.0197L49.4265 69.7424C49.6417 70.4059 49.2148 71.1105 48.4537 71.4076C48.818 74.4531 49.2886 77.5745 49.8573 80.7H51.964V73.3579C51.7412 71.2418 51.5741 69.0473 51.5502 67.0913H48.6733V67.0911Z" fill="#E5CBBD"/>
<path fill-rule="evenodd" clip-rule="evenodd" d="M53.7834 83.2106C52.808 83.2127 52.286 83.9457 52.0318 84.4941L55.7312 84.4862L55.7308 83.2106H53.7834Z" fill="#D6679F"/>
<path fill-rule="evenodd" clip-rule="evenodd" d="M61.9955 82.554C62.825 82.9987 63.3161 83.8377 63.5427 84.4955H66.1333V82.5049H62.4949C62.3148 82.5051 62.1497 82.5225 61.9955 82.554Z" fill="#4D4D4D"/>
<path fill-rule="evenodd" clip-rule="evenodd" d="M60.7483 83.2106H58.8013L58.8009 84.4862L62.4999 84.4941C62.2461 83.946 61.7241 83.2129 60.7483 83.2106Z" fill="#D6679F"/>
<path fill-rule="evenodd" clip-rule="evenodd" d="M16.8379 36.3522L13.5701 26.9107L11.9388 27.302C10.551 27.6283 9.61195 28.4237 8.98836 29.237L11.4887 31.8341C11.6261 31.9767 11.6624 32.1888 11.5805 32.3692C10.635 34.4461 11.1568 35.6805 11.661 36.874C12.0965 37.9043 12.5466 38.9698 11.7733 40.2916C9.77886 43.7003 9.51188 46.7788 9.48657 47.9026H16.8379V36.3522Z" fill="#C4806E"/>
<path fill-rule="evenodd" clip-rule="evenodd" d="M31.9656 10.1946H30.9462C30.4568 10.1946 30.0587 9.84131 30.0587 9.40723V8.80373H32.8529V9.40723C32.8529 9.8415 32.4547 10.1946 31.9656 10.1946ZM31.8167 9.18661C31.6368 9.00695 31.3125 9.00502 31.1328 9.18661C31.0439 9.27548 30.9916 9.39911 30.9916 9.52661C30.9916 9.65411 31.0437 9.77968 31.1326 9.86854C31.2234 9.95934 31.347 10.0096 31.4745 10.0096C31.6022 10.0096 31.7257 9.95934 31.8167 9.86854C31.9053 9.77775 31.9575 9.65411 31.9575 9.52661C31.9575 9.40104 31.9055 9.27548 31.8167 9.18661Z" fill="#D8D5D4"/>
<path fill-rule="evenodd" clip-rule="evenodd" d="M16.0184 15.6074C15.5272 16.3975 14.704 16.9257 14.1056 17.2288H16.581C16.8428 17.2288 17.0549 17.4376 17.0624 17.6978H17.5786C17.5861 17.4376 17.7982 17.2288 18.0602 17.2288H18.5885C17.2198 16.8476 16.4487 16.2051 16.0184 15.6074Z" fill="#E0B489"/>
<path fill-rule="evenodd" clip-rule="evenodd" d="M17.3211 11.3529C18.0447 11.3529 18.7241 11.5021 19.3269 11.7698C19.3947 11.5604 19.4337 11.3419 19.4337 11.1194C19.4337 9.9545 18.4861 9.00656 17.3211 9.00656C16.156 9.00656 15.208 9.95431 15.208 11.1194C15.208 11.3417 15.2471 11.5606 15.3149 11.77C15.9178 11.5021 16.5972 11.3529 17.3211 11.3529Z" fill="#CCCCCC"/>
<path fill-rule="evenodd" clip-rule="evenodd" d="M12.4411 84.4957H16.8381V82.8032H14.3428C14.162 82.813 12.8721 82.9376 12.4411 84.4957Z" fill="#998675"/>
<path fill-rule="evenodd" clip-rule="evenodd" d="M15.47 14.1765C15.47 13.9132 15.6812 13.6982 15.9445 13.6935C16.2041 13.6843 16.4264 13.8962 16.4355 14.1593C16.4413 14.2499 16.6287 16.4416 20.9388 16.5942C20.9388 16.5942 20.9372 15.6364 20.9372 15.6312C20.9372 13.7737 19.3487 12.3187 17.3211 12.3187C15.2934 12.3187 13.7049 13.7737 13.7049 15.6312C13.7049 15.6375 13.703 16.3486 13.703 16.3486C14.4147 15.9827 15.47 15.2581 15.47 14.1765Z" fill="#CCCCCC"/>
<path fill-rule="evenodd" clip-rule="evenodd" d="M19.2855 19.5014C18.8764 19.5014 18.5433 19.1685 18.5433 18.7594V18.1947H20.9388V18.7594C20.9388 19.1685 20.6059 19.5014 20.1968 19.5014H19.2855ZM20.1019 18.5347C19.9223 18.355 19.5958 18.355 19.4181 18.5347C19.3292 18.6236 19.2772 18.7491 19.2772 18.8766C19.2772 19.0041 19.3292 19.1278 19.4181 19.2166C19.5069 19.3074 19.6327 19.3596 19.7602 19.3596C19.8877 19.3596 20.0111 19.3074 20.1019 19.2166C20.1908 19.1278 20.2431 19.0041 20.2431 18.8766C20.2431 18.7491 20.1908 18.6236 20.1019 18.5347Z" fill="#D8D5D4"/>
<path fill-rule="evenodd" clip-rule="evenodd" d="M26.1475 28.3275L26.3003 27.5549L23.7279 20.1696C23.006 21.1778 22.9 22.1252 22.8932 22.1961C22.8917 22.2115 22.1166 26.1681 22.1166 26.1681L22.9278 26.3626C24.1827 26.658 25.2821 27.3318 26.1475 28.3275Z" fill="#A6D9FF"/>
<path fill-rule="evenodd" clip-rule="evenodd" d="M27.2825 27.5198V30.102C27.5929 30.7762 27.7092 31.2742 27.7162 31.305L30.2221 42.6183H33.6478V41.0655L31.6283 38.522C31.5532 38.4274 31.5163 38.3082 31.5248 38.1878L32.6806 21.7962L31.7873 20.0552L29.3748 21.154C29.3111 21.1832 29.2427 21.1975 29.1747 21.1975C29.0795 21.1975 28.9846 21.1693 28.9033 21.1138C28.7638 21.0192 28.6838 20.8585 28.6923 20.69L28.8712 17.1567C28.8712 17.1567 27.1374 17.9874 27.1071 17.9951C25.9279 18.3009 25.0785 18.7999 24.4649 19.3489L27.2556 27.3608C27.2589 27.3704 27.2825 27.5091 27.2825 27.5198Z" fill="#A6D9FF"/>
<path fill-rule="evenodd" clip-rule="evenodd" d="M30.8061 16.2835C30.7982 16.2681 30.7941 16.2511 30.7882 16.2348L29.8626 16.6801L29.6971 19.9459L32.1186 18.8428L30.8061 16.2835Z" fill="#A6D9FF"/>
<path fill-rule="evenodd" clip-rule="evenodd" d="M38.0692 11.0081C37.3641 14.0803 35.9778 14.7373 34.1316 14.7375C32.2853 14.7373 30.8992 14.0803 30.1941 11.0081C30.4244 11.1053 30.6784 11.1603 30.9462 11.1603H31.9656C32.9873 11.1603 33.8188 10.3737 33.8188 9.40703V8.80353H34.4445V9.40703C34.4445 10.3739 35.276 11.1603 36.2977 11.1603H37.3171C37.5851 11.1603 37.8391 11.1053 38.0692 11.0081ZM33.3685 12.6442C33.3167 12.4332 33.1262 12.2766 32.8992 12.2766C32.6325 12.2766 32.4163 12.4929 32.4165 12.7593C32.4165 13.3535 33.1297 13.7683 34.1509 13.7683C35.172 13.7683 35.8851 13.3533 35.8851 12.7593C35.8851 12.4925 35.6689 12.2764 35.4021 12.2764C35.1751 12.2764 34.9846 12.433 34.9329 12.644C34.8388 12.7019 34.571 12.8024 34.1507 12.8024C33.7301 12.8024 33.4624 12.7019 33.3685 12.6442Z" fill="#C69C6D"/>
<path fill-rule="evenodd" clip-rule="evenodd" d="M3.49138 51.2746C4.24711 51.6723 4.76426 52.4646 4.76426 53.3762C4.76426 53.643 4.54809 53.8592 4.2813 53.8592C4.01452 53.8592 3.79835 53.643 3.79835 53.3762C3.79835 52.9321 3.59126 52.536 3.26942 52.2776L3.17746 52.6927C3.10966 52.9929 3.16259 53.2993 3.32583 53.5578C3.48906 53.8161 3.7431 53.9955 4.04137 54.063C4.33887 54.1304 4.61725 54.0195 4.90431 53.914C5.27059 53.7796 5.41393 53.1809 5.41625 53.172L5.84356 51.6797L3.57097 50.9158L3.49138 51.2746Z" fill="#E0B489"/>
<path fill-rule="evenodd" clip-rule="evenodd" d="M18.9946 29.9583L20.1276 26.6843L19.1781 26.4565C18.961 26.4043 18.8078 26.2102 18.8078 25.9869V24.1673C18.3413 24.3636 17.8413 24.4715 17.3211 24.4715C16.8004 24.4715 16.3005 24.3634 15.8336 24.1669V25.9867C15.8336 26.21 15.6804 26.4041 15.4632 26.4563L14.5139 26.6841L15.647 29.9581H18.9946V29.9583Z" fill="#E0B489"/>
<path fill-rule="evenodd" clip-rule="evenodd" d="M18.6602 30.9242H15.9812L17.3209 34.7946L18.6602 30.9242Z" fill="#96564A"/>
<path fill-rule="evenodd" clip-rule="evenodd" d="M37.4044 4.88832C37.3913 4.87576 37.3797 4.86707 37.3714 4.86147C37.3044 4.87866 37.156 4.95883 37.0347 5.02451C36.5326 5.29593 35.6927 5.74991 34.1327 5.75029C34.1327 5.75029 34.1327 5.75029 34.1323 5.75029C34.1323 5.75029 34.1319 5.75029 34.1316 5.75029C34.1314 5.75029 34.1312 5.75029 34.1308 5.75029C34.1306 5.75029 34.1304 5.75029 34.1304 5.75029C32.5708 5.74991 31.7307 5.29574 31.2288 5.02451C31.1077 4.95922 30.9597 4.87924 30.8925 4.86166C30.8826 4.86881 30.8674 4.88136 30.8467 4.90203C30.6848 5.1354 30.5426 6.484 30.6415 7.83782H37.6222C37.7209 6.48419 37.5777 5.13443 37.4044 4.88832Z" fill="#C69C6D"/>
<path fill-rule="evenodd" clip-rule="evenodd" d="M8.44862 30.0692C8.03347 30.8313 7.88105 31.4597 7.86734 31.5192L3.78096 49.9677L6.10957 50.7503L10.3192 36.0491C10.0254 35.0608 9.92182 33.8604 10.5703 32.2728L8.44862 30.0692Z" fill="#C4806E"/>
<path fill-rule="evenodd" clip-rule="evenodd" d="M15.3564 19.5014H14.445C14.0358 19.5014 13.703 19.1685 13.703 18.7594V18.1947H16.0982V18.7594C16.0982 19.1685 15.7654 19.5014 15.3564 19.5014ZM15.2608 18.5347C15.0809 18.355 14.7566 18.355 14.5769 18.5347C14.4883 18.6236 14.4359 18.7491 14.4357 18.8766C14.4357 19.0022 14.4879 19.1278 14.5767 19.2166C14.6675 19.3074 14.7912 19.3596 14.9187 19.3596C15.0464 19.3596 15.17 19.3074 15.2608 19.2186C15.3514 19.1278 15.4016 19.0041 15.4016 18.8766C15.4016 18.7491 15.3516 18.6236 15.2608 18.5347Z" fill="#D8D5D4"/>
<path fill-rule="evenodd" clip-rule="evenodd" d="M30.1636 4.21914C30.7273 3.65582 31.2599 3.94347 31.688 4.1749C32.164 4.43203 32.8158 4.78439 34.1318 4.78458C35.4479 4.78439 36.0999 4.43203 36.5755 4.1749C37.0038 3.94366 37.5358 3.65505 38.0999 4.21914C38.6259 4.74517 38.6632 6.64473 38.5887 7.83782H38.6878C38.9545 7.83782 39.1707 8.05399 39.1707 8.32078V9.23143C39.4939 8.54738 39.7495 7.20322 39.3311 4.58966C39.0739 2.98336 38.8309 1.46611 34.1318 1.46591C29.4328 1.46611 29.19 2.98336 28.9328 4.58966C28.5144 7.20322 28.7698 8.54738 29.093 9.23124V8.32078C29.093 8.05399 29.3092 7.83782 29.576 7.83782H29.6751C29.6005 6.64473 29.6378 4.74498 30.1636 4.21914Z" fill="#754C24"/>
<path fill-rule="evenodd" clip-rule="evenodd" d="M20.741 20.3769C20.2516 22.1953 18.9038 23.5056 17.3211 23.5056C15.7379 23.5056 14.3903 22.1953 13.9008 20.3769C14.0718 20.4344 14.2545 20.4673 14.445 20.4673H15.3564C16.298 20.4673 17.0641 19.7011 17.0641 18.7594V18.6637H17.5774V18.7594C17.5774 19.7011 18.3438 20.4673 19.2855 20.4673H20.1968C20.3873 20.4673 20.5698 20.4346 20.741 20.3769ZM16.5085 21.046C16.4595 20.8312 16.2673 20.6707 16.0376 20.6707C15.7708 20.6707 15.5546 20.8869 15.555 21.1536C15.555 21.7602 16.2891 22.1839 17.34 22.1839C18.3909 22.1839 19.125 21.7602 19.125 21.1536C19.125 20.8869 18.9088 20.6707 18.642 20.6707C18.4122 20.6707 18.2199 20.8312 18.1711 21.046C18.0758 21.1079 17.7924 21.218 17.3398 21.218C16.8872 21.218 16.6038 21.1079 16.5085 21.046Z" fill="#E0B489"/>
<path fill-rule="evenodd" clip-rule="evenodd" d="M36.2977 10.1946C35.8086 10.1946 35.4104 9.8415 35.4104 9.40723V8.80373H38.2046V9.40723C38.2046 9.8415 37.8064 10.1946 37.3171 10.1946H36.2977ZM37.1676 9.18468C36.9881 9.00695 36.6655 9.00502 36.4859 9.18468C36.3949 9.27548 36.3427 9.39911 36.3427 9.52661C36.3427 9.65411 36.3947 9.77968 36.4857 9.86854C36.5745 9.95934 36.7001 10.0096 36.8257 10.0096C36.9534 10.0096 37.0768 9.95934 37.1676 9.86854C37.2584 9.77968 37.3086 9.65411 37.3086 9.52661C37.3086 9.40104 37.2586 9.27548 37.1676 9.18468Z" fill="#D8D5D4"/>
<path fill-rule="evenodd" clip-rule="evenodd" d="M53.7681 14.0932C53.5384 14.0932 53.346 14.2538 53.2971 14.4686C53.2019 14.5304 52.9185 14.6405 52.4659 14.6405C52.0132 14.6405 51.7298 14.5304 51.6346 14.4686C51.5857 14.2538 51.3935 14.0932 51.1636 14.0932C50.8968 14.0932 50.6807 14.3094 50.6807 14.5762C50.6807 15.1828 51.4148 15.6064 52.4657 15.6064C53.5166 15.6064 54.2507 15.1828 54.2507 14.5762C54.2511 14.3094 54.0349 14.0932 53.7681 14.0932Z" fill="#1C1B1A"/>
<path fill-rule="evenodd" clip-rule="evenodd" d="M50.9318 12.2543C50.9318 12.1268 50.8797 12.0032 50.789 11.9124C50.6113 11.7327 50.2866 11.7327 50.1071 11.9124C50.0163 12.0032 49.9661 12.1268 49.9661 12.2543C49.9661 12.3818 50.0165 12.5055 50.1071 12.5963C50.196 12.6851 50.3215 12.7373 50.449 12.7373C50.5765 12.7373 50.7004 12.6851 50.7892 12.5963C50.8797 12.5055 50.9318 12.3818 50.9318 12.2543Z" fill="#1C1B1A"/>
<path fill-rule="evenodd" clip-rule="evenodd" d="M54.1425 11.9124C54.0517 12.0032 54.0017 12.1268 54.0017 12.2543C54.0017 12.3818 54.0519 12.5055 54.1425 12.5943C54.2314 12.6851 54.3552 12.7373 54.4846 12.7373C54.6121 12.7373 54.7358 12.6851 54.8246 12.5943C54.9154 12.5055 54.9676 12.3818 54.9676 12.2543C54.9676 12.1268 54.9152 12.0032 54.8246 11.9124C54.645 11.7327 54.3223 11.7327 54.1425 11.9124Z" fill="#1C1B1A"/>
<path fill-rule="evenodd" clip-rule="evenodd" d="M44.3588 26.414C44.1666 26.3723 43.9601 26.4513 43.8482 26.6276C43.7056 26.8531 43.7725 27.1514 43.9977 27.2941C44.0634 27.3358 44.1896 27.3969 44.3627 27.3969C44.5159 27.3969 44.7056 27.349 44.9231 27.1977C45.1358 27.0495 45.3467 26.8197 45.5173 26.5502C45.9784 25.8217 45.9873 25.1417 45.5397 24.8585C45.3145 24.7161 45.016 24.7828 44.8734 25.0082C44.762 25.1842 44.7786 25.4048 44.8985 25.5609C44.8862 25.6499 44.8331 25.8252 44.7013 26.0334C44.5694 26.2419 44.4337 26.3645 44.3588 26.414Z" fill="#1C1B1A"/>
<path fill-rule="evenodd" clip-rule="evenodd" d="M44.1183 24.3898C44.2458 24.3898 44.3714 24.3377 44.4602 24.2488C44.5512 24.158 44.6032 24.0344 44.6032 23.9069C44.6032 23.7794 44.551 23.6557 44.4602 23.565C44.2806 23.3853 43.9579 23.3853 43.7764 23.565C43.6875 23.6557 43.6355 23.7794 43.6355 23.9069C43.6355 24.0344 43.6877 24.158 43.7764 24.2488C43.8673 24.3379 43.9927 24.3898 44.1183 24.3898Z" fill="#1C1B1A"/>
<path fill-rule="evenodd" clip-rule="evenodd" d="M42.5305 26.8995C42.6578 26.8995 42.7817 26.8473 42.8725 26.7584C42.9613 26.6676 43.0135 26.544 43.0135 26.4165C43.0135 26.289 42.9611 26.1654 42.8725 26.0746C42.6911 25.8949 42.3682 25.8949 42.1886 26.0746C42.0997 26.1654 42.0478 26.289 42.0478 26.4165C42.0478 26.544 42.098 26.6676 42.1886 26.7584C42.2773 26.8473 42.403 26.8995 42.5305 26.8995Z" fill="#1C1B1A"/>
<path fill-rule="evenodd" clip-rule="evenodd" d="M39.3531 54.0038C39.3527 54.0038 39.3523 54.0038 39.3519 54.0038C39.1381 54.0044 38.9567 54.1439 38.8939 54.3369C38.7919 54.3908 38.5363 54.4698 38.1551 54.4706C37.7813 54.4679 37.5182 54.3935 37.4162 54.3402C37.3527 54.1478 37.1713 54.0091 36.9572 54.0091C36.9572 54.0091 36.9568 54.0091 36.9565 54.0091C36.6899 54.0096 36.4741 54.2264 36.4747 54.493C36.475 54.6883 36.5616 55.049 37.1357 55.2702C37.4145 55.3776 37.7742 55.4365 38.1492 55.4365C38.1521 55.4365 38.1546 55.4365 38.1573 55.4365C38.5355 55.4357 38.8981 55.375 39.1784 55.2657C39.7516 55.0422 39.8364 54.6811 39.836 54.4858C39.8354 54.2194 39.6193 54.0038 39.3531 54.0038Z" fill="#1C1B1A"/>
<path fill-rule="evenodd" clip-rule="evenodd" d="M36.6479 51.9996C36.6479 51.8721 36.5958 51.7484 36.5069 51.6576C36.3273 51.478 36.0029 51.478 35.8231 51.6576C35.7342 51.7484 35.682 51.8721 35.682 51.9996C35.682 52.1271 35.7342 52.2526 35.8231 52.3415C35.9119 52.4304 36.0375 52.4825 36.165 52.4825C36.2925 52.4825 36.4161 52.4304 36.5069 52.3415C36.5958 52.2507 36.6479 52.1271 36.6479 51.9996Z" fill="#1C1B1A"/>
<path fill-rule="evenodd" clip-rule="evenodd" d="M39.8045 51.6499C39.7137 51.7388 39.6635 51.8643 39.6635 51.9918C39.6635 52.1193 39.7139 52.243 39.8045 52.3318C39.8934 52.4226 40.019 52.4748 40.1465 52.4748C40.274 52.4748 40.3978 52.4226 40.4884 52.3318C40.5773 52.243 40.6294 52.1174 40.6294 51.9918C40.6294 51.8643 40.5773 51.7388 40.4884 51.6499C40.3089 51.4703 39.9823 51.4703 39.8045 51.6499Z" fill="#1C1B1A"/>
<path fill-rule="evenodd" clip-rule="evenodd" d="M58.4219 36.8112C58.4213 36.8112 58.4209 36.8112 58.4203 36.8112C58.2099 36.8118 58.0314 36.9468 57.9657 37.1346C57.8672 37.1835 57.631 37.2536 57.2846 37.2544C57.2827 37.2544 57.2807 37.2544 57.2788 37.2544C56.9355 37.2544 56.7008 37.1858 56.6027 37.1375C56.5362 36.9501 56.3573 36.816 56.1475 36.816C56.1469 36.816 56.1466 36.816 56.146 36.816C55.8792 36.8168 55.6638 37.0338 55.6646 37.3005C55.6663 37.8513 56.3144 38.2203 57.2782 38.2203C57.2811 38.2203 57.2838 38.2203 57.2867 38.2203C57.6487 38.2195 57.9961 38.1614 58.265 38.0565C58.8231 37.8388 58.9054 37.4845 58.9048 37.2926C58.904 37.0264 58.6879 36.8112 58.4219 36.8112Z" fill="#1C1B1A"/>
<path fill-rule="evenodd" clip-rule="evenodd" d="M55.8775 34.986C55.8775 34.8585 55.8272 34.7349 55.7364 34.6441C55.5568 34.4645 55.2342 34.4645 55.0526 34.6441C54.9637 34.7349 54.9117 34.8585 54.9117 34.986C54.9117 35.1116 54.9639 35.2372 55.0526 35.328C55.1436 35.4168 55.267 35.469 55.3947 35.469C55.5222 35.469 55.6478 35.4168 55.7366 35.328C55.8272 35.2372 55.8775 35.1114 55.8775 34.986Z" fill="#1C1B1A"/>
<path fill-rule="evenodd" clip-rule="evenodd" d="M58.8329 34.6441C58.7422 34.733 58.6919 34.8585 58.6919 34.986C58.6919 35.1135 58.7443 35.2372 58.8329 35.326C58.9237 35.4168 59.0474 35.469 59.1749 35.469C59.3024 35.469 59.4262 35.4168 59.517 35.326C59.6059 35.2372 59.6578 35.1116 59.6578 34.986C59.6578 34.8585 59.6057 34.7349 59.517 34.6441C59.3373 34.4645 59.0126 34.4645 58.8329 34.6441Z" fill="#1C1B1A"/>
<path fill-rule="evenodd" clip-rule="evenodd" d="M17.3396 22.1839C18.3905 22.1839 19.1246 21.7602 19.1246 21.1536C19.1246 20.8869 18.9084 20.6707 18.6417 20.6707C18.412 20.6707 18.2196 20.8312 18.1707 21.046C18.0754 21.1079 17.792 21.218 17.3394 21.218C16.8868 21.218 16.6034 21.1079 16.5082 21.046C16.4593 20.8312 16.2671 20.6707 16.0372 20.6707C15.7704 20.6707 15.5542 20.8869 15.5542 21.1536C15.5546 21.7602 16.2887 22.1839 17.3396 22.1839Z" fill="#1C1B1A"/>
<path fill-rule="evenodd" clip-rule="evenodd" d="M14.9189 19.3596C15.0464 19.3596 15.1702 19.3074 15.261 19.2185C15.3518 19.1277 15.4018 19.0041 15.4018 18.8766C15.4018 18.7491 15.3516 18.6235 15.261 18.5347C15.0811 18.355 14.7568 18.355 14.5771 18.5347C14.4883 18.6235 14.4361 18.7491 14.4361 18.8766C14.4361 19.0022 14.4884 19.1277 14.5771 19.2166C14.6677 19.3074 14.7914 19.3596 14.9189 19.3596Z" fill="#1C1B1A"/>
<path fill-rule="evenodd" clip-rule="evenodd" d="M19.7602 19.3596C19.8877 19.3596 20.0113 19.3074 20.1019 19.2166C20.1908 19.1277 20.2431 19.0041 20.2431 18.8766C20.2431 18.7491 20.1908 18.6235 20.1019 18.5347C19.9223 18.355 19.5958 18.355 19.4181 18.5347C19.3292 18.6235 19.2772 18.7491 19.2772 18.8766C19.2772 19.0041 19.3292 19.1277 19.4181 19.2166C19.5069 19.3074 19.6325 19.3596 19.7602 19.3596Z" fill="#1C1B1A"/>
<path fill-rule="evenodd" clip-rule="evenodd" d="M69.9395 20.839C69.9395 20.5722 69.7234 20.356 69.4566 20.356C69.3057 20.356 69.1709 20.4254 69.082 20.5337C68.9478 20.5735 68.6273 20.6295 68.1544 20.6295C67.6814 20.6295 67.361 20.5735 67.2267 20.5337C67.138 20.4252 67.0032 20.356 66.8523 20.356C66.5855 20.356 66.3694 20.5722 66.3694 20.839C66.3694 21.0262 66.3694 21.5957 68.1544 21.5957C69.9394 21.5957 69.9395 21.0262 69.9395 20.839Z" fill="#1C1B1A"/>
<path fill-rule="evenodd" clip-rule="evenodd" d="M66.3665 14.8486H69.943C70.2098 14.8486 70.426 14.6324 70.426 14.3656C70.426 14.0988 70.2098 13.8827 69.943 13.8827H66.3665C66.0997 13.8827 65.8835 14.0988 65.8835 14.3656C65.8835 14.6324 66.0999 14.8486 66.3665 14.8486Z" fill="#1C1B1A"/>
<path fill-rule="evenodd" clip-rule="evenodd" d="M67.1533 13.2825H69.1564C69.4232 13.2825 69.6393 13.0663 69.6393 12.7995C69.6393 12.5327 69.4232 12.3165 69.1564 12.3165H67.1533C66.8865 12.3165 66.6703 12.5327 66.6703 12.7995C66.6703 13.0663 66.8865 13.2825 67.1533 13.2825Z" fill="#1C1B1A"/>
<path fill-rule="evenodd" clip-rule="evenodd" d="M65.4417 18.0208C65.5692 18.0208 65.6928 17.9687 65.7838 17.8779C65.8746 17.7871 65.9246 17.6634 65.9246 17.5359C65.9246 17.4104 65.8744 17.2867 65.7838 17.1959C65.604 17.0163 65.2813 17.0163 65.0999 17.1959C65.0111 17.2848 64.9589 17.4104 64.9589 17.5359C64.9589 17.6634 65.0113 17.789 65.0999 17.8779C65.1905 17.9687 65.3142 18.0208 65.4417 18.0208Z" fill="#1C1B1A"/>
<path fill-rule="evenodd" clip-rule="evenodd" d="M70.8662 18.0208C70.9937 18.0208 71.1193 17.9687 71.2082 17.8779C71.2992 17.789 71.3511 17.6634 71.3511 17.5379C71.3511 17.4104 71.299 17.2848 71.2082 17.1959C71.0285 17.0163 70.7059 17.0163 70.5264 17.1959C70.4354 17.2848 70.3835 17.4104 70.3835 17.5379C70.3835 17.6634 70.4356 17.789 70.5264 17.8779C70.6153 17.9687 70.7407 18.0208 70.8662 18.0208Z" fill="#1C1B1A"/>
<path fill-rule="evenodd" clip-rule="evenodd" d="M34.1507 13.7685C35.1718 13.7685 35.8849 13.3537 35.8849 12.7595C35.8849 12.4927 35.6687 12.2766 35.4019 12.2766C35.1749 12.2766 34.9845 12.4332 34.9327 12.6442C34.8388 12.7021 34.5709 12.8026 34.1505 12.8026C33.7299 12.8026 33.4624 12.7021 33.3683 12.6444C33.3165 12.4332 33.1261 12.2767 32.8991 12.2767C32.6323 12.2767 32.4161 12.4929 32.4161 12.7597C32.4163 13.3537 33.1295 13.7685 34.1507 13.7685Z" fill="#1C1B1A"/>
<path fill-rule="evenodd" clip-rule="evenodd" d="M31.4745 10.0096C31.602 10.0096 31.7257 9.95934 31.8167 9.86855C31.9055 9.77775 31.9575 9.65412 31.9575 9.52662C31.9575 9.40105 31.9053 9.27548 31.8167 9.18662C31.6368 9.00696 31.3125 9.00503 31.1328 9.18662C31.0439 9.27548 30.9918 9.39912 30.9918 9.52662C30.9918 9.65412 31.0441 9.77969 31.1328 9.86855C31.2234 9.95934 31.347 10.0096 31.4745 10.0096Z" fill="#1C1B1A"/>
<path fill-rule="evenodd" clip-rule="evenodd" d="M36.8257 10.0096C36.9532 10.0096 37.0768 9.95934 37.1676 9.86854C37.2586 9.77968 37.3086 9.65411 37.3086 9.52661C37.3086 9.40104 37.2584 9.27548 37.1676 9.18468C36.9879 9.00695 36.6653 9.00502 36.4859 9.18468C36.3949 9.27548 36.3429 9.39911 36.3429 9.52661C36.3429 9.65411 36.3951 9.77968 36.4859 9.86854C36.5747 9.95934 36.7001 10.0096 36.8257 10.0096Z" fill="#1C1B1A"/>
</svg>
