<svg xmlns="http://www.w3.org/2000/svg" width="18.286" height="13.93" viewBox="0 0 18.286 13.93"><g transform="translate(0 -0.035)"><g transform="translate(1.179)"><path d="M16.128,0,14.961,11.722H.94L0,.227,7.951,4.678Z" transform="translate(0.014 2.243)" fill="#f2f2f2"/><path d="M15.563,0,7.782,7.31,0,0H15.563Z" transform="translate(0.183 0.035)" fill="#f2f2f2"/></g><path d="M2.133,1.554V12.109H.862A.862.862,0,0,1,0,11.247V0L1.393.038Z" transform="translate(0 1.856)" fill="#f14336"/><path d="M2.133.107V11.354a.862.862,0,0,1-.863.862H0V1.662L.7,0Z" transform="translate(16.153 1.749)" fill="#d32e2a"/><path d="M18.286.862v.959L16.153,3.375l-7.01,5.11-7.01-5.11L0,1.821V.862A.862.862,0,0,1,.862,0h.5L9.143,5.672,16.924,0h.5A.862.862,0,0,1,18.286.862Z" transform="translate(0 0.035)" fill="#f14336"/><path d="M2.133,1.554,0,1.224V0Z" transform="translate(0 1.856)" fill="#d32e2a"/></g></svg>