<svg xmlns="http://www.w3.org/2000/svg" width="35.937" height="36" viewBox="0 0 35.937 36"><g transform="translate(-0.031)"><path d="M15.864,3.451v15.3l-4.81-.89-2.12-2.543L0,5.389,7.585,0c3.8,5.015,3.919,3.793,3.919,3.793s1.877-2.8,4.285-.394Z" transform="translate(15.904 13.392)" fill="#ccc"/><path d="M10.292,0,26.064,20.3c-.092.009-.185.014-.278.014H0Z" transform="translate(3.117 15.687)" fill="#518ef8"/><path d="M23.458,9.128,0,28.871V2.865A2.866,2.866,0,0,1,2.865,0H19.972c-.735,1.263,1.989,2.073,1.989,3.639A13.667,13.667,0,0,0,23.458,9.128Z" transform="translate(0.031 4.264)" fill="#28b446"/><path d="M15.785,12.422v.988A2.865,2.865,0,0,1,13.2,16.262L0,3.238,3.195,0l7.373,7.276.407.4Z" transform="translate(15.983 19.724)" fill="#f2f2f2"/><path d="M22.645,3.3l-3.5,3.546-3.195,3.238L3.086,23.119H2.865A2.866,2.866,0,0,1,0,20.254L19.987,0c.374.641,2.948-.008,3.471.511l.961,1.236C24.888,2.247,22.242,2.767,22.645,3.3Z" transform="translate(0.031 12.881)" fill="#ffd837"/><path d="M4.566,9.132A4.566,4.566,0,1,1,7.794,1.338L6.735,2.4a3.068,3.068,0,1,0,.807,2.918H4.566v-1.5H9.132v.749A4.571,4.571,0,0,1,4.566,9.132Z" transform="translate(2.951 6.883)" fill="#fff"/><path d="M1.155,4.264A8.561,8.561,0,1,1,14.6,14.627a19.564,19.564,0,0,0-1.754,2.163A27.78,27.78,0,0,0,8.56,27.244,27.514,27.514,0,0,0,3.828,16.178a19.519,19.519,0,0,0-1.307-1.551h0A8.563,8.563,0,0,1,1.155,4.264Z" transform="translate(18.848)" fill="#f14336"/><path d="M4.556,0A4.556,4.556,0,1,1,0,4.556,4.556,4.556,0,0,1,4.556,0Z" transform="translate(22.852 4.004)" fill="#7e2d25"/></g></svg>