<svg xmlns="http://www.w3.org/2000/svg" width="28" height="26" viewBox="0 0 28 26"><g><g><g><path fill="#556080" fill-opacity=".65" d="M1.4 18.9h4.667v6.533H1.4z"/></g><g><path fill="#556080" fill-opacity=".75" d="M8.4 14.7h4.667v10.733H8.4z"/></g><g><path fill="#556080" fill-opacity=".85" d="M15.4 10.97h4.667v14.467H15.4z"/></g><g><path fill="#556080" d="M22.4 7.23h4.667v18.2H22.4z"/></g><g><path fill="#556080" d="M27.533 25.903H.467a.467.467 0 1 1 0-.933h27.066a.467.467 0 1 1 0 .933z"/></g><g><path fill="#bdc3c7" d="M3.747 12.054a.466.466 0 0 1-.234-.871L21.7.683a.467.467 0 1 1 .466.808L3.98 11.991a.464.464 0 0 1-.233.063z"/></g><g><path fill="#bdc3c7" d="M21.933 1.55c-.015 0-.03 0-.046-.002l-3.996-.387a.466.466 0 1 1 .09-.929l3.996.388a.466.466 0 0 1-.044.93z"/></g><g><path fill="#bdc3c7" d="M20.267 5.208a.466.466 0 0 1-.425-.66L21.504.894a.466.466 0 1 1 .85.386L20.69 4.934a.466.466 0 0 1-.424.274z"/></g></g></g></svg>