<svg width="29" height="29" viewBox="0 0 29 29" fill="none" xmlns="http://www.w3.org/2000/svg">
<path fill-rule="evenodd" clip-rule="evenodd" d="M10.1845 22.736L5.85799 25.096C5.60411 25.2344 5.37594 25.4046 5.16364 25.5901C7.68609 27.7169 10.9423 29 14.5 29C18.0314 29 21.2668 27.7361 23.7822 25.6382C23.5502 25.4423 23.2985 25.2661 23.0194 25.1272L18.3865 22.811C17.7879 22.5117 17.4098 21.9 17.4098 21.2308V19.4131C17.5401 19.2648 17.6889 19.0744 17.8481 18.8495C18.4796 17.9576 18.9572 16.9765 19.2883 15.9473C19.8825 15.764 20.3202 15.2152 20.3202 14.5629V12.6227C20.3202 12.1959 20.1304 11.8145 19.8354 11.5475V8.7427C19.8354 8.7427 20.4116 4.37793 14.5005 4.37793C8.58947 4.37793 9.16564 8.7427 9.16564 8.7427V11.5475C8.87016 11.8145 8.68084 12.1959 8.68084 12.6227V14.5629C8.68084 15.074 8.9495 15.5238 9.35167 15.7837C9.83647 17.8941 11.1059 19.4131 11.1059 19.4131V21.1859C11.1054 21.8316 10.7519 22.4263 10.1845 22.736Z" fill="#556080"/>
<path fill-rule="evenodd" clip-rule="evenodd" d="M14.7478 0.00215922C6.7411 -0.134633 0.138953 6.24537 0.00216065 14.2521C-0.0755375 18.792 1.9479 22.8722 5.16963 25.5856C5.38029 25.4018 23.5474 25.4412 23.7789 25.6365C26.9032 23.0309 28.9217 19.135 28.9967 14.7478C29.1346 6.7411 22.7551 0.138952 14.7478 0.00215922Z" fill="#556080"/>
<path fill-rule="evenodd" clip-rule="evenodd" d="M18.0724 11.6448C17.9602 10.4945 17.3442 9.50346 16.4657 8.91783C16.4889 7.30312 17.7255 6.0005 19.2499 6C20.789 6 22.0365 7.32631 22.0365 8.9627C22.0365 10.5988 20.789 11.9252 19.2499 11.9252C18.8283 11.9252 18.4307 11.8228 18.0724 11.6448ZM17.4267 12.0212C17.4267 13.6573 16.1792 14.9839 14.6401 14.9839C13.1013 14.9839 11.8531 13.6576 11.8531 12.0215C11.8531 10.3853 13.1013 9.05875 14.6401 9.05875C16.179 9.05875 17.4267 10.3851 17.4267 12.0212ZM15.8222 15.1858H13.4576C11.4903 15.1858 9.88978 16.8878 9.88978 18.9795V22.0539L9.89713 22.102L10.0963 22.1683C11.9738 22.792 13.6049 23 14.9474 23C17.5697 23 19.0896 22.2051 19.1833 22.1544L19.3694 22.0544H19.3893V18.9795C19.39 16.8878 17.7895 15.1858 15.8222 15.1858ZM18.0861 12.1273H20.4324C22.3995 12.1273 24 13.829 24 15.9205V18.9959H23.9801L23.7939 19.0962C23.706 19.1431 22.371 19.8412 20.0544 19.9314V18.984C20.0544 16.9475 18.7749 15.2234 17.0262 14.6705C17.66 14.0242 18.0608 13.1254 18.0861 12.1273ZM9.75059 11.9257C10.2957 11.9257 10.8029 11.7565 11.2326 11.4683C11.3691 10.5212 11.8467 9.69355 12.5289 9.12985C12.5297 9.11318 12.5308 9.09656 12.5318 9.07995C12.5343 9.04127 12.5367 9.00261 12.5367 8.96346C12.5367 7.32707 11.289 6.00076 9.75059 6.00076C8.21124 6.00076 6.96402 7.32707 6.96402 8.96346C6.96402 10.5991 8.21124 11.9257 9.75059 11.9257ZM11.1939 12.1415C11.2231 13.1335 11.6224 14.0274 12.2531 14.6705C10.5039 15.2239 9.22491 16.9475 9.22444 18.984V19.9125C8.05688 19.8399 6.71268 19.6095 5.20653 19.1096L5.00735 19.0428L5 18.9954V15.9205C5 13.829 6.60052 12.1273 8.56786 12.1273H10.9321C11.0145 12.1273 11.0946 12.1336 11.1753 12.14C11.1815 12.1405 11.1877 12.141 11.1939 12.1415Z" fill="#E7ECED"/>
</svg>
