<svg xmlns="http://www.w3.org/2000/svg" width="90" height="90" viewBox="0 0 90 90"><rect width="84.023" height="42.539" transform="translate(2.988 44.239)" fill="#6fc8f1"/><rect width="42.012" height="42.539" transform="translate(45 44.239)" fill="#1594cf"/><rect width="46.524" height="86.778" transform="translate(21.739)" fill="#b7e4f8"/><rect width="23.261" height="86.778" transform="translate(45)" fill="#6fc8f1"/><rect width="14.999" height="19.278" transform="translate(37.499 67.5)" fill="#265d77"/><rect width="7.482" height="19.278" transform="translate(45.018 67.5)" fill="#132f3b"/><path d="M5.273,21.914V5.273H15V21.914h5.273V0H0V21.914Z" transform="translate(34.863 64.863)" fill="#6fc8f1"/><rect width="5.273" height="7.5" transform="translate(34.863 35.626)" fill="#dbf1fb"/><rect width="5.273" height="7.5" transform="translate(49.864 35.626)" fill="#b7e4f8"/><rect width="5.273" height="7.5" transform="translate(34.863 50.625)" fill="#dbf1fb"/><rect width="5.273" height="7.5" transform="translate(49.864 50.625)" fill="#b7e4f8"/><rect width="5.273" height="7.5" transform="translate(75.001 69.376)" fill="#6fc8f1"/><rect width="5.273" height="7.5" transform="translate(9.726 69.376)" fill="#b7e4f8"/><rect width="5.273" height="7.5" transform="translate(75.001 54.374)" fill="#6fc8f1"/><rect width="5.273" height="7.5" transform="translate(9.726 54.374)" fill="#b7e4f8"/><path d="M16.875,5.8h-5.8V0H5.8V5.8H0v5.273H5.8v5.8h5.273v-5.8h5.8Z" transform="translate(36.563 11.25)" fill="#ff4f19"/><path d="M2.637,5.8V0H0V16.875H2.637v-5.8h5.8V5.8Z" transform="translate(45 11.25)" fill="#d43200"/><path d="M4.846,21.914h5.273V0H0V5.273H4.846Z" transform="translate(45.018 64.863)" fill="#1594cf"/><rect width="90" height="5.273" transform="translate(0 84.727)" fill="#60dd4d"/><rect width="45" height="5.273" transform="translate(45 84.727)" fill="#1eba4a"/></svg>