<svg width="74" height="76" viewBox="0 0 74 76" fill="none" xmlns="http://www.w3.org/2000/svg">
<path fill-rule="evenodd" clip-rule="evenodd" d="M30.5085 13.2119H7.62714V74.2288H36.8644V13.2119H30.5085Z" fill="#57A4FF"/>
<path fill-rule="evenodd" clip-rule="evenodd" d="M66.1017 13.2119H43.2203H36.8644V74.2288H66.1017V13.2119Z" fill="#9BC9FF"/>
<path fill-rule="evenodd" clip-rule="evenodd" d="M36.8644 0.5H43.2203V13.2119H36.8644V0.5Z" fill="#FF0000"/>
<path fill-rule="evenodd" clip-rule="evenodd" d="M30.5085 0.5H36.8644V13.2119H30.5085V0.5Z" fill="#E50000"/>
<path fill-rule="evenodd" clip-rule="evenodd" d="M38.1356 3.04237H35.5932V5.58475H33.0508V8.12712H35.5932V10.6695H38.1356V8.12712H40.678V5.58475H38.1356V3.04237Z" fill="#F1F2F2"/>
<path fill-rule="evenodd" clip-rule="evenodd" d="M13.983 19.5678H21.6102V24.6525H13.983V19.5678Z" fill="#F1F2F2"/>
<path fill-rule="evenodd" clip-rule="evenodd" d="M26.6949 19.5678H34.322V24.6525H26.6949V19.5678Z" fill="#F1F2F2"/>
<path fill-rule="evenodd" clip-rule="evenodd" d="M39.4067 19.5678H47.0339V24.6525H39.4067V19.5678Z" fill="#F1F2F2"/>
<path fill-rule="evenodd" clip-rule="evenodd" d="M52.1187 19.5678H59.7458V24.6525H52.1187V19.5678Z" fill="#F1F2F2"/>
<path fill-rule="evenodd" clip-rule="evenodd" d="M13.983 29.7373H21.6102V34.822H13.983V29.7373Z" fill="#F1F2F2"/>
<path fill-rule="evenodd" clip-rule="evenodd" d="M26.6949 29.7373H34.322V34.822H26.6949V29.7373Z" fill="#F1F2F2"/>
<path fill-rule="evenodd" clip-rule="evenodd" d="M39.4067 29.7373H47.0339V34.822H39.4067V29.7373Z" fill="#F1F2F2"/>
<path fill-rule="evenodd" clip-rule="evenodd" d="M52.1187 29.7373H59.7458V34.822H52.1187V29.7373Z" fill="#F1F2F2"/>
<path fill-rule="evenodd" clip-rule="evenodd" d="M13.983 39.9068H21.6102V44.9915H13.983V39.9068Z" fill="#F1F2F2"/>
<path fill-rule="evenodd" clip-rule="evenodd" d="M26.6949 39.9068H34.322V44.9915H26.6949V39.9068Z" fill="#F1F2F2"/>
<path fill-rule="evenodd" clip-rule="evenodd" d="M39.4067 39.9068H47.0339V44.9915H39.4067V39.9068Z" fill="#F1F2F2"/>
<path fill-rule="evenodd" clip-rule="evenodd" d="M52.1187 39.9068H59.7458V44.9915H52.1187V39.9068Z" fill="#F1F2F2"/>
<path fill-rule="evenodd" clip-rule="evenodd" d="M47.0339 56.4322H50.8475V51.3475H22.8813V56.4322H26.6949H36.8644H47.0339Z" fill="#58595B"/>
<path fill-rule="evenodd" clip-rule="evenodd" d="M7.62711 72.9576V62.7881H5.08474V72.9576H1.27118V75.5H11.4407V72.9576H7.62711Z" fill="#8B5E3C"/>
<path fill-rule="evenodd" clip-rule="evenodd" d="M69.9153 72.9576V65.3305H67.3729V72.9576H64.8305V75.5H72.4576V72.9576H69.9153Z" fill="#8B5E3C"/>
<path fill-rule="evenodd" clip-rule="evenodd" d="M36.8644 56.4322H47.0339V74.2288H36.8644V56.4322Z" fill="#A7A9AC"/>
<path fill-rule="evenodd" clip-rule="evenodd" d="M26.6949 56.4322H36.8644V74.2288H26.6949V56.4322Z" fill="#939598"/>
<path fill-rule="evenodd" clip-rule="evenodd" d="M73.7288 60.2458C73.7288 56.736 71.4521 51.3475 68.6441 51.3475C65.836 51.3475 63.5593 56.736 63.5593 60.2458C63.5593 63.7555 65.836 66.6017 68.6441 66.6017C71.4521 66.6017 73.7288 63.7555 73.7288 60.2458Z" fill="#449903"/>
<path fill-rule="evenodd" clip-rule="evenodd" d="M6.35593 64.0593C9.86568 64.0593 12.7119 60.6449 12.7119 56.4322C12.7119 52.2195 9.86568 46.2627 6.35593 46.2627C2.84619 46.2627 0 52.2195 0 56.4322C0 60.6449 2.84619 64.0593 6.35593 64.0593Z" fill="#367A02"/>
<path fill-rule="evenodd" clip-rule="evenodd" d="M35.5932 56.4322H38.1356V64.0593H35.5932V56.4322Z" fill="#6D6E71"/>
<path fill-rule="evenodd" clip-rule="evenodd" d="M35.5932 66.6017H38.1356V75.5H35.5932V66.6017Z" fill="#6D6E71"/>
<path fill-rule="evenodd" clip-rule="evenodd" d="M19.0678 72.9576H54.661V75.5H19.0678V72.9576Z" fill="#58595B"/>
</svg>
