<svg width="18" height="16" viewBox="0 0 18 16" fill="none" xmlns="http://www.w3.org/2000/svg">
<path fill-rule="evenodd" clip-rule="evenodd" d="M10.2468 13.4367V14.458C10.2468 15.3056 9.56264 15.9899 8.7149 15.9899C7.86716 15.9899 7.18298 15.3056 7.18298 14.458V13.4367C7.18298 13.1507 7.40758 12.9261 7.69362 12.9261H9.73617C10.0222 12.9261 10.2468 13.1507 10.2468 13.4367Z" fill="#4A696F"/>
<path fill-rule="evenodd" clip-rule="evenodd" d="M10.2468 13.4367V14.458C10.2468 15.3056 9.56263 15.9899 8.71489 15.9899V12.9261H9.73617C10.0222 12.9261 10.2468 13.1507 10.2468 13.4367Z" fill="#384949"/>
<path fill-rule="evenodd" clip-rule="evenodd" d="M8.71489 0.670746C5.50811 0.670746 3.09787 3.25452 3.09787 6.28777C3.09787 8.10559 3.96596 9.81117 5.48763 10.8835C5.90638 11.1797 6.1617 11.7005 6.1617 12.2826V12.4154C6.1617 13.263 6.84588 13.9473 7.69361 13.9473H9.73617C10.5839 13.9473 11.2681 13.263 11.2681 12.4154V12.252C11.2681 11.7005 11.5642 11.1694 12.0749 10.7814C13.5047 9.70904 14.3319 8.075 14.3319 6.28777C14.3319 3.20346 11.8503 0.680985 8.71489 0.670746V0.670746Z" fill="#FFE470"/>
<path fill-rule="evenodd" clip-rule="evenodd" d="M14.3319 6.28777C14.3319 8.075 13.5047 9.70904 12.0749 10.7814C11.5642 11.1694 11.2681 11.7005 11.2681 12.252V12.4154C11.2681 13.263 10.5839 13.9473 9.73617 13.9473H8.71489V0.670746C11.8503 0.680985 14.3319 3.20346 14.3319 6.28777Z" fill="#FDBF00"/>
<path fill-rule="evenodd" clip-rule="evenodd" d="M16.9192 6.79841H15.8638C15.5817 6.79841 15.3532 6.56995 15.3532 6.28777C15.3532 6.00545 15.5817 5.77713 15.8638 5.77713H16.9192C17.2013 5.77713 17.4298 6.00545 17.4298 6.28777C17.4298 6.56995 17.2013 6.79841 16.9192 6.79841Z" fill="#F4D7AF"/>
<path fill-rule="evenodd" clip-rule="evenodd" d="M1.56596 6.79841H0.510638C0.228457 6.79841 0 6.56995 0 6.28777C0 6.00545 0.228457 5.77713 0.510638 5.77713H1.56596C1.84814 5.77713 2.0766 6.00545 2.0766 6.28777C2.0766 6.56995 1.84814 6.79841 1.56596 6.79841Z" fill="#FAECD8"/>
<path fill-rule="evenodd" clip-rule="evenodd" d="M13.4089 1.59375C13.2094 1.39428 13.2094 1.07114 13.4089 0.871676L14.131 0.149601C14.3305 -0.049867 14.6536 -0.049867 14.8531 0.149601C15.0525 0.349069 15.0525 0.672207 14.8531 0.871676L14.131 1.59375C13.9315 1.79322 13.6084 1.79322 13.4089 1.59375Z" fill="#F4D7AF"/>
<path fill-rule="evenodd" clip-rule="evenodd" d="M2.57673 12.4259C2.37726 12.2265 2.37726 11.9033 2.57673 11.7039L3.2988 10.9818C3.49827 10.7823 3.82141 10.7823 4.02087 10.9818C4.22034 11.1811 4.22034 11.5044 4.02087 11.7039L3.2988 12.4259C3.09933 12.6254 2.77619 12.6254 2.57673 12.4259Z" fill="#FAECD8"/>
<path fill-rule="evenodd" clip-rule="evenodd" d="M3.2988 1.59375L2.57673 0.871676C2.37726 0.672207 2.37726 0.349069 2.57673 0.149601C2.77619 -0.049867 3.09933 -0.049867 3.2988 0.149601L4.02087 0.871676C4.22034 1.07114 4.22034 1.39428 4.02087 1.59375C3.82141 1.79322 3.49827 1.79322 3.2988 1.59375Z" fill="#FAECD8"/>
<path fill-rule="evenodd" clip-rule="evenodd" d="M14.131 12.4259L13.4089 11.7039C13.2094 11.5044 13.2094 11.1811 13.4089 10.9818C13.6084 10.7823 13.9315 10.7823 14.131 10.9818L14.8531 11.7039C15.0525 11.9033 15.0525 12.2265 14.8531 12.4259C14.6536 12.6254 14.3305 12.6254 14.131 12.4259Z" fill="#F4D7AF"/>
<path fill-rule="evenodd" clip-rule="evenodd" d="M11.5541 6.88007L8.85784 5.09283L9.68511 3.44855C9.79747 3.22395 9.72593 2.95839 9.52167 2.8052C9.31742 2.66225 9.04175 2.68259 8.86808 2.8665L5.80425 5.93033C5.69189 6.03246 5.64082 6.18565 5.65106 6.33884C5.67154 6.49203 5.75319 6.62475 5.87566 6.71663L8.57194 8.50387L7.74468 10.1482C7.63231 10.3729 7.70386 10.6384 7.90811 10.7916C8.11237 10.9346 8.38803 10.9141 8.5617 10.7303L11.6255 7.6665C11.7379 7.56437 11.789 7.41118 11.7787 7.25799C11.7582 7.1048 11.6766 6.97195 11.5541 6.88007Z" fill="#FDBF00"/>
<path fill-rule="evenodd" clip-rule="evenodd" d="M11.7787 7.25799C11.789 7.41118 11.7379 7.56437 11.6255 7.6665L8.71489 10.5771V3.01969L8.86808 2.8665C9.04175 2.68259 9.31742 2.66225 9.52167 2.8052C9.72593 2.95839 9.79747 3.22395 9.6851 3.44855L8.85784 5.09283L11.5541 6.88007C11.6766 6.97195 11.7582 7.1048 11.7787 7.25799Z" fill="#FF9F00"/>
</svg>
