<svg width="25" height="28" viewBox="0 0 25 28" fill="none" xmlns="http://www.w3.org/2000/svg">
<path fill-rule="evenodd" clip-rule="evenodd" d="M5.25 0C4.2875 0 3.5 0.7875 3.5 1.75V26.25C3.5 27.2125 4.2875 28 5.25 28H22.75C23.7125 28 24.5 27.2125 24.5 26.25V7L17.5 0H5.25Z" fill="#E2E5E7"/>
<path fill-rule="evenodd" clip-rule="evenodd" d="M19.25 7H24.5L17.5 0V5.25C17.5 6.2125 18.2875 7 19.25 7Z" fill="#B0B7BD"/>
<path fill-rule="evenodd" clip-rule="evenodd" d="M24.5 12.25L19.25 7H24.5V12.25Z" fill="#CAD1D8"/>
<path fill-rule="evenodd" clip-rule="evenodd" d="M21 22.75C21 23.2312 20.6063 23.625 20.125 23.625H0.875C0.39375 23.625 0 23.2312 0 22.75V14C0 13.5188 0.39375 13.125 0.875 13.125H20.125C20.6063 13.125 21 13.5188 21 14V22.75Z" fill="#208391"/>
<path fill-rule="evenodd" clip-rule="evenodd" d="M6.01388 16.5786C6.01388 15.9906 6.93788 15.9906 6.93788 16.5786V19.3419C6.93788 20.4409 6.41288 21.1059 5.20275 21.1059C4.60775 21.1059 4.11163 20.944 3.67763 20.3849C3.32063 19.9579 3.99263 19.3428 4.35663 19.7899C4.65063 20.1539 4.96563 20.2379 5.27275 20.2239C5.66388 20.2099 6.00775 20.034 6.01475 19.3419V16.5786H6.01388Z" fill="white"/>
<path fill-rule="evenodd" clip-rule="evenodd" d="M8.64325 16.0956C8.34925 16.0956 8.16725 16.3476 8.16725 16.5786V20.5179C8.16725 20.8259 8.41225 21 8.64325 21C8.89525 21 9.09125 20.8259 9.09125 20.5179V19.5939H10.2594C11.1694 19.5939 11.9884 18.9779 11.9884 17.8719C11.9884 16.7046 11.1694 16.0956 10.2594 16.0956H8.64325ZM9.09125 18.7198V16.9768H10.2594C10.7284 16.9768 11.0994 17.3828 11.0994 17.8719C11.0994 18.3059 10.7284 18.7198 10.2594 18.7198H9.09125Z" fill="white"/>
<path fill-rule="evenodd" clip-rule="evenodd" d="M16.9846 20.4619C16.4876 20.8749 15.8786 21.0499 15.2635 21.0499C13.7935 21.0499 12.7514 20.2107 12.7514 18.5447C12.7514 17.1325 13.8504 16.0344 15.3256 16.0344C15.8786 16.0344 16.4868 16.2225 16.9208 16.6495C17.3469 17.0686 16.7318 17.6916 16.3126 17.3215C16.0536 17.0695 15.6896 16.8805 15.3256 16.8805C14.4795 16.8805 13.6614 17.5586 13.6614 18.5447C13.6614 19.5807 14.3465 20.2107 15.2635 20.2107C15.6896 20.2107 16.0536 20.0839 16.3126 19.8957V19.0356H15.2635C14.6405 19.0356 14.7035 18.1816 15.2635 18.1816H16.6626C16.9216 18.1816 17.1588 18.3776 17.1588 18.5946V20.0847C17.1588 20.2107 17.1036 20.328 16.9846 20.4619Z" fill="white"/>
<path fill-rule="evenodd" clip-rule="evenodd" d="M20.125 23.625H3.5V24.5H20.125C20.6063 24.5 21 24.1063 21 23.625V22.75C21 23.2312 20.6063 23.625 20.125 23.625Z" fill="#CAD1D8"/>
</svg>
