<svg width="143" height="173" viewBox="0 0 143 173" fill="none" xmlns="http://www.w3.org/2000/svg">
<path d="M20.9793 132.72C19.1553 132.72 17.6193 132.096 16.3713 130.848C15.1233 129.6 14.4993 128.064 14.4993 126.24V37.392C14.4993 35.568 15.1233 34.032 16.3713 32.784C17.6193 31.44 19.1553 30.768 20.9793 30.768C22.8033 30.768 24.3393 31.44 25.5873 32.784C26.9313 34.032 27.6033 35.568 27.6033 37.392V83.184L76.8513 33.072C78.1953 31.536 79.8273 30.768 81.7473 30.768C83.3793 30.768 84.7713 31.344 85.9233 32.496C87.1713 33.552 87.7953 34.896 87.7953 36.528C87.7953 38.448 87.2673 39.936 86.2113 40.992L52.9473 74.112L91.1073 122.208C92.1633 123.552 92.6913 124.944 92.6913 126.384C92.7873 128.112 92.2113 129.6 90.9633 130.848C89.7153 132.096 88.1793 132.72 86.3553 132.72C84.1473 132.72 82.4193 131.856 81.1713 130.128L44.0193 82.752L27.6033 99.312V126.24C27.6033 128.064 26.9313 129.6 25.5873 130.848C24.3393 132.096 22.8033 132.72 20.9793 132.72Z" fill="#4E4E4E"/>
<path d="M16.3713 130.848L16.9016 130.318L16.3713 130.848ZM16.3713 32.784L16.9016 33.3143L16.9114 33.3045L16.9208 33.2943L16.3713 32.784ZM25.5873 32.784L25.0377 33.2943L25.0566 33.3147L25.0769 33.3336L25.5873 32.784ZM27.6033 83.184H26.8533V85.0172L28.1382 83.7097L27.6033 83.184ZM76.8513 33.072L77.3862 33.5977L77.4014 33.5822L77.4157 33.5659L76.8513 33.072ZM85.9233 32.496L85.3929 33.0263L85.415 33.0484L85.4388 33.0685L85.9233 32.496ZM86.2113 40.992L86.7404 41.5235L86.7416 41.5223L86.2113 40.992ZM52.9473 74.112L52.4181 73.5805L51.9433 74.0533L52.3597 74.5782L52.9473 74.112ZM91.1073 122.208L91.697 121.745L91.6948 121.742L91.1073 122.208ZM92.6913 126.384H91.9413V126.405L91.9424 126.426L92.6913 126.384ZM90.9633 130.848L91.4936 131.378L90.9633 130.848ZM81.1712 130.128L81.7793 129.689L81.7706 129.677L81.7614 129.665L81.1712 130.128ZM44.0193 82.752L44.6094 82.2892L44.085 81.6204L43.4866 82.224L44.0193 82.752ZM27.6033 99.312L27.0706 98.784L26.8533 99.0033V99.312H27.6033ZM25.5873 130.848L25.0769 130.298L25.0667 130.308L25.0569 130.318L25.5873 130.848ZM20.9792 131.97C19.3467 131.97 18.0038 131.42 16.9016 130.318L15.8409 131.378C17.2347 132.772 18.9638 133.47 20.9792 133.47V131.97ZM16.9016 130.318C15.7994 129.215 15.2493 127.873 15.2493 126.24H13.7493C13.7493 128.255 14.4471 129.984 15.8409 131.378L16.9016 130.318ZM15.2493 126.24V37.392H13.7493V126.24H15.2493ZM15.2493 37.392C15.2493 35.7595 15.7994 34.4165 16.9016 33.3143L15.8409 32.2537C14.4471 33.6475 13.7493 35.3765 13.7493 37.392H15.2493ZM16.9208 33.2943C18.0278 32.1022 19.3651 31.518 20.9792 31.518V30.018C18.9454 30.018 17.2107 30.7778 15.8217 32.2737L16.9208 33.2943ZM20.9792 31.518C22.5934 31.518 23.9307 32.1022 25.0377 33.2943L26.1368 32.2737C24.7478 30.7778 23.0131 30.018 20.9792 30.018V31.518ZM25.0769 33.3336C26.269 34.4406 26.8533 35.7779 26.8533 37.392H28.3533C28.3533 35.3581 27.5935 33.6234 26.0976 32.2344L25.0769 33.3336ZM26.8533 37.392V83.184H28.3533V37.392H26.8533ZM28.1382 83.7097L77.3862 33.5977L76.3163 32.5463L27.0683 82.6583L28.1382 83.7097ZM77.4157 33.5659C78.6274 32.181 80.0585 31.518 81.7473 31.518V30.018C79.596 30.018 77.7631 30.891 76.2868 32.5781L77.4157 33.5659ZM81.7473 31.518C83.1807 31.518 84.3819 32.0153 85.3929 33.0263L86.4536 31.9657C85.1607 30.6727 83.5778 30.018 81.7473 30.018V31.518ZM85.4388 33.0685C86.5187 33.9823 87.0452 35.1171 87.0452 36.528H88.5452C88.5452 34.6749 87.8238 33.1217 86.4077 31.9235L85.4388 33.0685ZM87.0452 36.528C87.0452 38.3085 86.5592 39.5834 85.6809 40.4617L86.7416 41.5223C87.9753 40.2886 88.5452 38.5875 88.5452 36.528H87.0452ZM85.6821 40.4605L52.4181 73.5805L53.4764 74.6435L86.7404 41.5235L85.6821 40.4605ZM52.3597 74.5782L90.5197 122.674L91.6948 121.742L53.5348 73.6458L52.3597 74.5782ZM90.5175 122.671C91.4898 123.909 91.9413 125.142 91.9413 126.384H93.4413C93.4413 124.746 92.8367 123.195 91.697 121.745L90.5175 122.671ZM91.9424 126.426C92.0263 127.936 91.5335 129.217 90.4329 130.318L91.4936 131.378C92.8891 129.983 93.5482 128.288 93.4401 126.342L91.9424 126.426ZM90.4329 130.318C89.3307 131.42 87.9878 131.97 86.3553 131.97V133.47C88.3707 133.47 90.0998 132.772 91.4936 131.378L90.4329 130.318ZM86.3553 131.97C84.3779 131.97 82.8804 131.214 81.7793 129.689L80.5632 130.567C81.9581 132.498 83.9166 133.47 86.3553 133.47V131.97ZM81.7614 129.665L44.6094 82.2892L43.4291 83.2148L80.5811 130.591L81.7614 129.665ZM43.4866 82.224L27.0706 98.784L28.1359 99.84L44.5519 83.28L43.4866 82.224ZM26.8533 99.312V126.24H28.3533V99.312H26.8533ZM26.8533 126.24C26.8533 127.854 26.269 129.191 25.0769 130.298L26.0976 131.398C27.5935 130.009 28.3533 128.274 28.3533 126.24H26.8533ZM25.0569 130.318C23.9547 131.42 22.6118 131.97 20.9792 131.97V133.47C22.9947 133.47 24.7238 132.772 26.1176 131.378L25.0569 130.318Z" fill="#4E4E4E"/>
<path fill-rule="evenodd" clip-rule="evenodd" d="M126 135C135.389 135 143 127.389 143 118C143 108.611 135.389 101 126 101C116.611 101 109 108.611 109 118C109 127.389 116.611 135 126 135Z" fill="#2A9EF6"/>
</svg>
