<svg width="152" height="43" viewBox="0 0 152 43" fill="none" xmlns="http://www.w3.org/2000/svg">
<path d="M5.34247 33.18C4.88647 33.18 4.50247 33.024 4.19047 32.712C3.87847 32.4 3.72247 32.016 3.72247 31.56V9.348C3.72247 8.892 3.87847 8.508 4.19047 8.196C4.50247 7.86 4.88647 7.692 5.34247 7.692C5.79847 7.692 6.18247 7.86 6.49447 8.196C6.83047 8.508 6.99847 8.892 6.99847 9.348V20.796L19.3105 8.268C19.6465 7.884 20.0545 7.692 20.5345 7.692C20.9425 7.692 21.2905 7.836 21.5785 8.124C21.8905 8.388 22.0465 8.724 22.0465 9.132C22.0465 9.612 21.9145 9.984 21.6505 10.248L13.3345 18.528L22.8745 30.552C23.1385 30.888 23.2705 31.236 23.2705 31.596C23.2945 32.028 23.1505 32.4 22.8385 32.712C22.5265 33.024 22.1425 33.18 21.6865 33.18C21.1345 33.18 20.7025 32.964 20.3905 32.532L11.1025 20.688L6.99847 24.828V31.56C6.99847 32.016 6.83047 32.4 6.49447 32.712C6.18247 33.024 5.79847 33.18 5.34247 33.18ZM31.8717 33.36C30.8157 33.36 29.8317 33.144 28.9197 32.712C28.0317 32.28 27.3237 31.656 26.7957 30.84C26.2677 30 26.0037 29.04 26.0037 27.96C26.0037 26.184 26.6997 24.768 28.0917 23.712C29.5077 22.656 31.5717 22.128 34.2837 22.128H38.6397V21.84C38.6397 20.256 38.2437 19.116 37.4517 18.42C36.6837 17.724 35.4717 17.376 33.8157 17.376C32.9037 17.376 32.0877 17.448 31.3677 17.592C30.6717 17.736 29.8917 17.952 29.0277 18.24C28.8357 18.288 28.6797 18.312 28.5597 18.312C28.1997 18.312 27.8877 18.18 27.6237 17.916C27.3597 17.652 27.2277 17.328 27.2277 16.944C27.2277 16.296 27.5397 15.84 28.1637 15.576C30.2037 14.712 32.2797 14.28 34.3917 14.28C36.0477 14.28 37.4397 14.616 38.5677 15.288C39.7197 15.96 40.5597 16.836 41.0877 17.916C41.6397 18.972 41.9157 20.124 41.9157 21.372V31.56C41.9157 32.016 41.7477 32.4 41.4117 32.712C41.0997 33.024 40.7157 33.18 40.2597 33.18C39.8037 33.18 39.4197 33.024 39.1077 32.712C38.7957 32.4 38.6397 32.016 38.6397 31.56V30.624C36.8637 32.448 34.6077 33.36 31.8717 33.36ZM33.0957 30.48C34.1517 30.48 35.1717 30.228 36.1557 29.724C37.1397 29.196 37.9677 28.548 38.6397 27.78V24.756H34.7157C31.0917 24.756 29.2797 25.704 29.2797 27.6C29.2797 28.464 29.5677 29.16 30.1437 29.688C30.7437 30.216 31.7277 30.48 33.0957 30.48ZM53.3206 33.36C49.8166 33.36 48.0646 31.776 48.0646 28.608V17.448H45.5086C45.3166 17.448 45.1486 17.388 45.0046 17.268C44.8846 17.124 44.8246 16.956 44.8246 16.764C44.8246 16.524 44.9326 16.32 45.1486 16.152L50.0446 11.364C50.2606 11.148 50.4646 11.04 50.6566 11.04C50.8486 11.04 51.0046 11.112 51.1246 11.256C51.2686 11.4 51.3406 11.568 51.3406 11.76V14.64H55.4086C55.8166 14.64 56.1526 14.772 56.4166 15.036C56.6806 15.3 56.8126 15.636 56.8126 16.044C56.8126 16.428 56.6806 16.764 56.4166 17.052C56.1526 17.316 55.8166 17.448 55.4086 17.448H51.3406V28.32C51.3406 29.256 51.5566 29.856 51.9886 30.12C52.4446 30.36 53.0086 30.48 53.6806 30.48C54.1606 30.48 54.6406 30.408 55.1206 30.264C55.2166 30.24 55.3126 30.216 55.4086 30.192C55.5286 30.168 55.6726 30.156 55.8406 30.156C56.1766 30.156 56.4766 30.288 56.7406 30.552C57.0046 30.792 57.1366 31.092 57.1366 31.452C57.1366 32.004 56.8606 32.424 56.3086 32.712C55.3726 33.144 54.3766 33.36 53.3206 33.36ZM65.4107 33.36C64.3547 33.36 63.3707 33.144 62.4587 32.712C61.5707 32.28 60.8627 31.656 60.3347 30.84C59.8067 30 59.5427 29.04 59.5427 27.96C59.5427 26.184 60.2387 24.768 61.6307 23.712C63.0467 22.656 65.1107 22.128 67.8227 22.128H72.1787V21.84C72.1787 20.256 71.7827 19.116 70.9907 18.42C70.2227 17.724 69.0107 17.376 67.3547 17.376C66.4427 17.376 65.6267 17.448 64.9067 17.592C64.2107 17.736 63.4307 17.952 62.5667 18.24C62.3747 18.288 62.2187 18.312 62.0987 18.312C61.7387 18.312 61.4267 18.18 61.1627 17.916C60.8987 17.652 60.7667 17.328 60.7667 16.944C60.7667 16.296 61.0787 15.84 61.7027 15.576C63.7427 14.712 65.8187 14.28 67.9307 14.28C69.5867 14.28 70.9787 14.616 72.1067 15.288C73.2587 15.96 74.0987 16.836 74.6267 17.916C75.1787 18.972 75.4547 20.124 75.4547 21.372V31.56C75.4547 32.016 75.2867 32.4 74.9507 32.712C74.6387 33.024 74.2547 33.18 73.7987 33.18C73.3427 33.18 72.9587 33.024 72.6467 32.712C72.3347 32.4 72.1787 32.016 72.1787 31.56V30.624C70.4027 32.448 68.1467 33.36 65.4107 33.36ZM66.6347 30.48C67.6907 30.48 68.7107 30.228 69.6947 29.724C70.6787 29.196 71.5067 28.548 72.1787 27.78V24.756H68.2547C64.6307 24.756 62.8187 25.704 62.8187 27.6C62.8187 28.464 63.1067 29.16 63.6827 29.688C64.2827 30.216 65.2667 30.48 66.6347 30.48ZM82.5656 33.18C82.1096 33.18 81.7256 33.024 81.4136 32.712C81.1016 32.4 80.9456 32.016 80.9456 31.56V16.116C80.9456 15.66 81.1016 15.276 81.4136 14.964C81.7256 14.628 82.1096 14.46 82.5656 14.46C83.0216 14.46 83.4056 14.628 83.7176 14.964C84.0536 15.276 84.2216 15.66 84.2216 16.116V17.664C85.9016 15.408 87.7856 14.28 89.8736 14.28H90.0536C90.5096 14.28 90.8816 14.436 91.1696 14.748C91.4816 15.06 91.6376 15.444 91.6376 15.9C91.6376 16.356 91.4816 16.728 91.1696 17.016C90.8576 17.304 90.4616 17.448 89.9816 17.448H89.8016C88.6496 17.448 87.5936 17.736 86.6336 18.312C85.6736 18.864 84.8696 19.632 84.2216 20.616V31.56C84.2216 32.016 84.0536 32.4 83.7176 32.712C83.4056 33.024 83.0216 33.18 82.5656 33.18ZM96.2748 10.896C95.7708 10.896 95.3388 10.716 94.9788 10.356C94.6188 9.996 94.4388 9.564 94.4388 9.06V8.916C94.4388 8.412 94.6188 7.98 94.9788 7.62C95.3388 7.26 95.7708 7.08 96.2748 7.08H96.4908C96.9948 7.08 97.4268 7.26 97.7868 7.62C98.1468 7.98 98.3268 8.412 98.3268 8.916V9.06C98.3268 9.564 98.1468 9.996 97.7868 10.356C97.4268 10.716 96.9948 10.896 96.4908 10.896H96.2748ZM96.3468 33.18C95.8908 33.18 95.5068 33.024 95.1948 32.712C94.8828 32.4 94.7268 32.016 94.7268 31.56V16.116C94.7268 15.66 94.8828 15.276 95.1948 14.964C95.5068 14.628 95.8908 14.46 96.3468 14.46C96.8268 14.46 97.2228 14.616 97.5348 14.928C97.8468 15.24 98.0028 15.636 98.0028 16.116V31.56C98.0028 32.016 97.8348 32.4 97.4988 32.712C97.1868 33.024 96.8028 33.18 96.3468 33.18ZM105.312 33.18C104.856 33.18 104.472 33.024 104.16 32.712C103.848 32.4 103.692 32.016 103.692 31.56V16.116C103.692 15.66 103.848 15.276 104.16 14.964C104.472 14.628 104.856 14.46 105.312 14.46C105.768 14.46 106.152 14.628 106.464 14.964C106.8 15.276 106.968 15.66 106.968 16.116V17.592C107.88 16.584 108.864 15.78 109.92 15.18C110.976 14.58 112.224 14.28 113.664 14.28C114.984 14.28 116.124 14.592 117.084 15.216C118.068 15.84 118.812 16.692 119.316 17.772C119.844 18.852 120.108 20.04 120.108 21.336V31.56C120.108 32.016 119.94 32.4 119.604 32.712C119.292 33.024 118.908 33.18 118.452 33.18C117.996 33.18 117.612 33.024 117.3 32.712C116.988 32.4 116.832 32.016 116.832 31.56V21.696C116.832 18.768 115.512 17.304 112.872 17.304C111.672 17.304 110.592 17.616 109.632 18.24C108.696 18.864 107.808 19.704 106.968 20.76V31.56C106.968 32.016 106.8 32.4 106.464 32.712C106.152 33.024 105.768 33.18 105.312 33.18ZM130.309 33.36C129.253 33.36 128.269 33.144 127.357 32.712C126.469 32.28 125.761 31.656 125.233 30.84C124.705 30 124.441 29.04 124.441 27.96C124.441 26.184 125.137 24.768 126.529 23.712C127.945 22.656 130.009 22.128 132.721 22.128H137.077V21.84C137.077 20.256 136.681 19.116 135.889 18.42C135.121 17.724 133.909 17.376 132.253 17.376C131.341 17.376 130.525 17.448 129.805 17.592C129.109 17.736 128.329 17.952 127.465 18.24C127.273 18.288 127.117 18.312 126.997 18.312C126.637 18.312 126.325 18.18 126.061 17.916C125.797 17.652 125.665 17.328 125.665 16.944C125.665 16.296 125.977 15.84 126.601 15.576C128.641 14.712 130.717 14.28 132.829 14.28C134.485 14.28 135.877 14.616 137.005 15.288C138.157 15.96 138.997 16.836 139.525 17.916C140.077 18.972 140.353 20.124 140.353 21.372V31.56C140.353 32.016 140.185 32.4 139.849 32.712C139.537 33.024 139.153 33.18 138.697 33.18C138.241 33.18 137.857 33.024 137.545 32.712C137.233 32.4 137.077 32.016 137.077 31.56V30.624C135.301 32.448 133.045 33.36 130.309 33.36ZM131.533 30.48C132.589 30.48 133.609 30.228 134.593 29.724C135.577 29.196 136.405 28.548 137.077 27.78V24.756H133.153C129.529 24.756 127.717 25.704 127.717 27.6C127.717 28.464 128.005 29.16 128.581 29.688C129.181 30.216 130.165 30.48 131.533 30.48Z" fill="#4E4E4E"/>
<path d="M4.19047 32.712L4.7208 32.1817L4.19047 32.712ZM4.19047 8.196L4.7208 8.72633L4.73062 8.71651L4.74006 8.70634L4.19047 8.196ZM6.49447 8.196L5.94487 8.70634L5.96378 8.72669L5.98413 8.7456L6.49447 8.196ZM6.99847 20.796H6.24847V22.6292L7.53339 21.3217L6.99847 20.796ZM19.3105 8.268L19.8454 8.7937L19.8606 8.77821L19.8749 8.76188L19.3105 8.268ZM21.5785 8.124L21.0481 8.65433L21.0702 8.67639L21.094 8.69654L21.5785 8.124ZM21.6505 10.248L22.1796 10.7795L22.1808 10.7783L21.6505 10.248ZM13.3345 18.528L12.8053 17.9965L12.3305 18.4693L12.7469 18.9942L13.3345 18.528ZM22.8745 30.552L23.4642 30.0886L23.462 30.0858L22.8745 30.552ZM23.2705 31.596H22.5205V31.6168L22.5216 31.6376L23.2705 31.596ZM22.8385 32.712L23.3688 33.2423L22.8385 32.712ZM20.3905 32.532L20.9985 32.0929L20.9898 32.0809L20.9806 32.0692L20.3905 32.532ZM11.1025 20.688L11.6926 20.2252L11.1682 19.5564L10.5698 20.16L11.1025 20.688ZM6.99847 24.828L6.46583 24.3L6.24847 24.5193V24.828H6.99847ZM6.49447 32.712L5.98413 32.1624L5.97396 32.1719L5.96414 32.1817L6.49447 32.712ZM5.34247 32.43C5.07794 32.43 4.88697 32.3478 4.7208 32.1817L3.66014 33.2423C4.11797 33.7002 4.695 33.93 5.34247 33.93V32.43ZM4.7208 32.1817C4.55463 32.0155 4.47247 31.8245 4.47247 31.56H2.97247C2.97247 32.2075 3.20231 32.7845 3.66014 33.2423L4.7208 32.1817ZM4.47247 31.56V9.348H2.97247V31.56H4.47247ZM4.47247 9.348C4.47247 9.08347 4.55463 8.8925 4.7208 8.72633L3.66014 7.66567C3.20231 8.12349 2.97247 8.70053 2.97247 9.348H4.47247ZM4.74006 8.70634C4.91105 8.5222 5.09633 8.442 5.34247 8.442V6.942C4.67661 6.942 4.09389 7.1978 3.64087 7.68566L4.74006 8.70634ZM5.34247 8.442C5.58861 8.442 5.77389 8.5222 5.94487 8.70634L7.04406 7.68566C6.59105 7.1978 6.00833 6.942 5.34247 6.942V8.442ZM5.98413 8.7456C6.16827 8.91658 6.24847 9.10186 6.24847 9.348H7.74847C7.74847 8.68214 7.49267 8.09942 7.00481 7.6464L5.98413 8.7456ZM6.24847 9.348V20.796H7.74847V9.348H6.24847ZM7.53339 21.3217L19.8454 8.7937L18.7755 7.7423L6.46355 20.2703L7.53339 21.3217ZM19.8749 8.76188C20.0787 8.52901 20.2857 8.442 20.5345 8.442V6.942C19.8232 6.942 19.2143 7.23899 18.746 7.77412L19.8749 8.76188ZM20.5345 8.442C20.7439 8.442 20.9011 8.50726 21.0481 8.65433L22.1088 7.59367C21.6799 7.16474 21.141 6.942 20.5345 6.942V8.442ZM21.094 8.69654C21.2379 8.81832 21.2965 8.94505 21.2965 9.132H22.7965C22.7965 8.50295 22.543 7.95768 22.0629 7.55146L21.094 8.69654ZM21.2965 9.132C21.2965 9.47254 21.2064 9.63142 21.1201 9.71767L22.1808 10.7783C22.6225 10.3366 22.7965 9.75146 22.7965 9.132H21.2965ZM21.1213 9.71652L12.8053 17.9965L13.8636 19.0595L22.1796 10.7795L21.1213 9.71652ZM12.7469 18.9942L22.2869 31.0182L23.462 30.0858L13.922 18.0618L12.7469 18.9942ZM22.2847 31.0154C22.4651 31.2449 22.5205 31.434 22.5205 31.596H24.0205C24.0205 31.038 23.8119 30.5311 23.4642 30.0886L22.2847 31.0154ZM22.5216 31.6376C22.5335 31.8518 22.4727 32.0171 22.3081 32.1817L23.3688 33.2423C23.8283 32.7829 24.0554 32.2042 24.0193 31.5544L22.5216 31.6376ZM22.3081 32.1817C22.142 32.3478 21.951 32.43 21.6865 32.43V33.93C22.3339 33.93 22.911 33.7002 23.3688 33.2423L22.3081 32.1817ZM21.6865 32.43C21.3651 32.43 21.1636 32.3215 20.9985 32.0929L19.7825 32.9711C20.2413 33.6065 20.9038 33.93 21.6865 33.93V32.43ZM20.9806 32.0692L11.6926 20.2252L10.5123 21.1508L19.8003 32.9948L20.9806 32.0692ZM10.5698 20.16L6.46583 24.3L7.53111 25.356L11.6351 21.216L10.5698 20.16ZM6.24847 24.828V31.56H7.74847V24.828H6.24847ZM6.24847 31.56C6.24847 31.8061 6.16827 31.9914 5.98413 32.1624L7.00481 33.2616C7.49267 32.8086 7.74847 32.2259 7.74847 31.56H6.24847ZM5.96414 32.1817C5.79797 32.3478 5.607 32.43 5.34247 32.43V33.93C5.98994 33.93 6.56697 33.7002 7.0248 33.2423L5.96414 32.1817ZM28.9197 32.712L28.5915 33.3865L28.5986 33.3898L28.9197 32.712ZM26.7957 30.84L26.1606 31.2392L26.166 31.2474L26.7957 30.84ZM28.0917 23.712L27.6433 23.1108L27.6384 23.1145L28.0917 23.712ZM38.6397 22.128V22.878H39.3897V22.128H38.6397ZM37.4517 18.42L36.948 18.9758L36.9566 18.9834L37.4517 18.42ZM31.3677 17.592L31.2206 16.8565L31.2157 16.8576L31.3677 17.592ZM29.0277 18.24L29.2096 18.9676L29.2375 18.9606L29.2648 18.9515L29.0277 18.24ZM27.6237 17.916L28.154 17.3857V17.3857L27.6237 17.916ZM28.1637 15.576L28.4559 16.2667L28.4562 16.2666L28.1637 15.576ZM38.5677 15.288L38.1838 15.9324L38.1898 15.9358L38.5677 15.288ZM41.0877 17.916L40.4139 18.2454L40.4183 18.2545L40.423 18.2634L41.0877 17.916ZM41.4117 32.712L40.9013 32.1624L40.8911 32.1719L40.8813 32.1817L41.4117 32.712ZM39.1077 32.712L39.638 32.1817H39.638L39.1077 32.712ZM38.6397 30.624H39.3897V28.7786L38.1023 30.1008L38.6397 30.624ZM36.1557 29.724L36.4976 30.3915L36.5039 30.3883L36.5103 30.3849L36.1557 29.724ZM38.6397 27.78L39.2041 28.2739L39.3897 28.0618V27.78H38.6397ZM38.6397 24.756H39.3897V24.006H38.6397V24.756ZM30.1437 29.688L29.6369 30.2409L29.6425 30.246L29.6482 30.251L30.1437 29.688ZM31.8717 32.61C30.9214 32.61 30.0477 32.4164 29.2407 32.0342L28.5986 33.3898C29.6156 33.8716 30.7099 34.11 31.8717 34.11V32.61ZM29.2478 32.0376C28.4807 31.6644 27.8778 31.1318 27.4253 30.4326L26.166 31.2474C26.7695 32.1802 27.5826 32.8956 28.5916 33.3864L29.2478 32.0376ZM27.4306 30.4409C26.9844 29.731 26.7537 28.9118 26.7537 27.96H25.2537C25.2537 29.1682 25.5509 30.269 26.1607 31.2391L27.4306 30.4409ZM26.7537 27.96C26.7537 26.4141 27.3435 25.221 28.5449 24.3095L27.6384 23.1145C26.0559 24.315 25.2537 25.9539 25.2537 27.96H26.7537ZM28.54 24.3132C29.7737 23.3932 31.6518 22.878 34.2837 22.878V21.378C31.4915 21.378 29.2416 21.9188 27.6433 23.1108L28.54 24.3132ZM34.2837 22.878H38.6397V21.378H34.2837V22.878ZM39.3897 22.128V21.84H37.8897V22.128H39.3897ZM39.3897 21.84C39.3897 20.1495 38.9679 18.754 37.9467 17.8566L36.9566 18.9834C37.5194 19.478 37.8897 20.3625 37.8897 21.84H39.3897ZM37.9553 17.8643C36.9872 16.9869 35.5522 16.626 33.8157 16.626V18.126C35.3911 18.126 36.3801 18.4611 36.948 18.9757L37.9553 17.8643ZM33.8157 16.626C32.8656 16.626 31.999 16.7009 31.2206 16.8566L31.5147 18.3274C32.1763 18.1951 32.9417 18.126 33.8157 18.126V16.626ZM31.2157 16.8576C30.4842 17.0089 29.6751 17.2336 28.7905 17.5285L29.2648 18.9515C30.1082 18.6704 30.8591 18.4631 31.5196 18.3264L31.2157 16.8576ZM28.8458 17.5124C28.6802 17.5538 28.5917 17.562 28.5597 17.562V19.062C28.7676 19.062 28.9912 19.0222 29.2096 18.9676L28.8458 17.5124ZM28.5597 17.562C28.4067 17.562 28.2832 17.5148 28.154 17.3857L27.0933 18.4463C27.4922 18.8452 27.9927 19.062 28.5597 19.062V17.562ZM28.154 17.3857C28.0351 17.2667 27.9777 17.1354 27.9777 16.944H26.4777C26.4777 17.5206 26.6842 18.0373 27.0933 18.4463L28.154 17.3857ZM27.9777 16.944C27.9777 16.7444 28.0239 16.6224 28.0806 16.5395C28.1389 16.4543 28.2461 16.3555 28.4559 16.2667L27.8714 14.8853C27.4572 15.0605 27.0964 15.3216 26.8427 15.6925C26.5874 16.0656 26.4777 16.4956 26.4777 16.944H27.9777ZM28.4562 16.2666C30.4082 15.4398 32.385 15.03 34.3917 15.03V13.53C32.1743 13.53 29.9991 13.9841 27.8712 14.8854L28.4562 16.2666ZM34.3917 15.03C35.9474 15.03 37.1986 15.3454 38.1838 15.9323L38.9515 14.6437C37.6807 13.8866 36.1479 13.53 34.3917 13.53V15.03ZM38.1898 15.9358C39.2284 16.5417 39.9579 17.3128 40.4139 18.2454L41.7614 17.5866C41.1614 16.3592 40.2109 15.3783 38.9456 14.6402L38.1898 15.9358ZM40.423 18.2634C40.9163 19.2071 41.1657 20.2391 41.1657 21.372H42.6657C42.6657 20.0089 42.3631 18.7369 41.7523 17.5686L40.423 18.2634ZM41.1657 21.372V31.56H42.6657V21.372H41.1657ZM41.1657 31.56C41.1657 31.8061 41.0855 31.9914 40.9013 32.1624L41.922 33.2616C42.4099 32.8086 42.6657 32.2259 42.6657 31.56H41.1657ZM40.8813 32.1817C40.7152 32.3478 40.5242 32.43 40.2597 32.43V33.93C40.9071 33.93 41.4842 33.7002 41.942 33.2423L40.8813 32.1817ZM40.2597 32.43C39.9951 32.43 39.8042 32.3478 39.638 32.1817L38.5773 33.2423C39.0352 33.7002 39.6122 33.93 40.2597 33.93V32.43ZM39.638 32.1817C39.4718 32.0155 39.3897 31.8245 39.3897 31.56H37.8897C37.8897 32.2075 38.1195 32.7845 38.5773 33.2423L39.638 32.1817ZM39.3897 31.56V30.624H37.8897V31.56H39.3897ZM38.1023 30.1008C36.4788 31.7682 34.4221 32.61 31.8717 32.61V34.11C34.7932 34.11 37.2485 33.1278 39.177 31.1472L38.1023 30.1008ZM33.0957 31.23C34.2762 31.23 35.4129 30.9471 36.4976 30.3915L35.8138 29.0565C34.9305 29.5089 34.0271 29.73 33.0957 29.73V31.23ZM36.5103 30.3849C37.5662 29.8183 38.4674 29.1158 39.2041 28.2739L38.0752 27.2861C37.4679 27.9802 36.7131 28.5737 35.801 29.0631L36.5103 30.3849ZM39.3897 27.78V24.756H37.8897V27.78H39.3897ZM38.6397 24.006H34.7157V25.506H38.6397V24.006ZM34.7157 24.006C32.8627 24.006 31.3579 24.2443 30.291 24.8025C29.7465 25.0873 29.2974 25.4653 28.9869 25.9527C28.6744 26.4432 28.5297 27.0015 28.5297 27.6H30.0297C30.0297 27.2505 30.1114 26.9793 30.2519 26.7588C30.3944 26.5352 30.6249 26.3207 30.9863 26.1315C31.7314 25.7417 32.9446 25.506 34.7157 25.506V24.006ZM28.5297 27.6C28.5297 28.6495 28.8886 29.5549 29.6369 30.2409L30.6504 29.1351C30.2468 28.7651 30.0297 28.2785 30.0297 27.6H28.5297ZM29.6482 30.251C30.4538 30.96 31.6644 31.23 33.0957 31.23V29.73C31.7909 29.73 31.0335 29.472 30.6391 29.125L29.6482 30.251ZM48.0646 17.448H48.8146V16.698H48.0646V17.448ZM45.0046 17.268L44.4285 17.7481L44.4721 17.8005L44.5245 17.8442L45.0046 17.268ZM45.1486 16.152L45.6091 16.744L45.6426 16.7179L45.673 16.6882L45.1486 16.152ZM50.0446 11.364L50.569 11.9002L50.575 11.8943L50.0446 11.364ZM51.1246 11.256L50.5485 11.7361L50.5702 11.7623L50.5943 11.7863L51.1246 11.256ZM51.3406 14.64H50.5906V15.39H51.3406V14.64ZM56.4166 15.036L55.8863 15.5663V15.5663L56.4166 15.036ZM56.4166 17.052L56.947 17.5823L56.9585 17.5708L56.9695 17.5588L56.4166 17.052ZM51.3406 17.448V16.698H50.5906V17.448H51.3406ZM51.9886 30.12L51.5975 30.76L51.618 30.7725L51.6393 30.7837L51.9886 30.12ZM55.1206 30.264L54.9387 29.5364L54.9218 29.5406L54.9051 29.5456L55.1206 30.264ZM55.4086 30.192L55.2615 29.4566L55.244 29.4601L55.2267 29.4644L55.4086 30.192ZM56.7406 30.552L56.2103 31.0823L56.2229 31.0949L56.2361 31.107L56.7406 30.552ZM56.3086 32.712L56.6229 33.393L56.6394 33.3853L56.6556 33.3769L56.3086 32.712ZM53.3206 32.61C51.6666 32.61 50.5661 32.2345 49.8816 31.6157C49.2115 31.0098 48.8146 30.0558 48.8146 28.608H47.3146C47.3146 30.3282 47.7938 31.7502 48.8756 32.7283C49.9432 33.6935 51.4707 34.11 53.3206 34.11V32.61ZM48.8146 28.608V17.448H47.3146V28.608H48.8146ZM48.0646 16.698H45.5086V18.198H48.0646V16.698ZM45.5086 16.698C45.4998 16.698 45.4946 16.6973 45.4924 16.697C45.4903 16.6966 45.49 16.6964 45.4909 16.6967C45.4917 16.697 45.4922 16.6973 45.4919 16.6971C45.4915 16.6969 45.4892 16.6955 45.4848 16.6918L44.5245 17.8442C44.8068 18.0794 45.1458 18.198 45.5086 18.198V16.698ZM45.5808 16.7879C45.5771 16.7835 45.5757 16.7811 45.5755 16.7807C45.5753 16.7804 45.5756 16.7809 45.5759 16.7817C45.5762 16.7826 45.576 16.7823 45.5757 16.7802C45.5753 16.778 45.5746 16.7728 45.5746 16.764H44.0746C44.0746 17.1268 44.1932 17.4658 44.4285 17.7481L45.5808 16.7879ZM45.5746 16.764C45.5746 16.7607 45.5749 16.7626 45.5736 16.768C45.5723 16.7735 45.5702 16.7786 45.5685 16.7819C45.5645 16.7895 45.5695 16.7748 45.6091 16.744L44.6882 15.56C44.3185 15.8475 44.0746 16.2581 44.0746 16.764H45.5746ZM45.673 16.6882L50.569 11.9002L49.5202 10.8278L44.6242 15.6158L45.673 16.6882ZM50.575 11.8943C50.6461 11.8232 50.692 11.7936 50.7105 11.7838C50.7261 11.7756 50.7054 11.79 50.6566 11.79V10.29C50.1755 10.29 49.7908 10.5572 49.5143 10.8337L50.575 11.8943ZM50.6566 11.79C50.6569 11.79 50.6349 11.7895 50.6033 11.775C50.5713 11.7602 50.5532 11.7418 50.5485 11.7361L51.7008 10.7759C51.4343 10.4561 51.065 10.29 50.6566 10.29V11.79ZM50.5943 11.7863C50.6008 11.7928 50.6029 11.796 50.6025 11.7954C50.602 11.7947 50.5998 11.7913 50.5973 11.7854C50.5947 11.7795 50.5928 11.7733 50.5917 11.7676C50.5906 11.762 50.5906 11.7591 50.5906 11.76H52.0906C52.0906 11.3561 51.9301 11.0009 51.655 10.7257L50.5943 11.7863ZM50.5906 11.76V14.64H52.0906V11.76H50.5906ZM51.3406 15.39H55.4086V13.89H51.3406V15.39ZM55.4086 15.39C55.638 15.39 55.7767 15.4567 55.8863 15.5663L56.947 14.5057C56.5286 14.0873 55.9952 13.89 55.4086 13.89V15.39ZM55.8863 15.5663C55.9959 15.6759 56.0626 15.8146 56.0626 16.044H57.5626C57.5626 15.4574 57.3654 14.9241 56.947 14.5057L55.8863 15.5663ZM56.0626 16.044C56.0626 16.2368 56.0034 16.3929 55.8638 16.5452L56.9695 17.5588C57.3578 17.1351 57.5626 16.6192 57.5626 16.044H56.0626ZM55.8863 16.5217C55.7767 16.6313 55.638 16.698 55.4086 16.698V18.198C55.9952 18.198 56.5286 18.0007 56.947 17.5823L55.8863 16.5217ZM55.4086 16.698H51.3406V18.198H55.4086V16.698ZM50.5906 17.448V28.32H52.0906V17.448H50.5906ZM50.5906 28.32C50.5906 29.3004 50.8052 30.2758 51.5975 30.76L52.3797 29.48C52.308 29.4362 52.0906 29.2116 52.0906 28.32H50.5906ZM51.6393 30.7837C52.2308 31.095 52.9227 31.23 53.6806 31.23V29.73C53.0946 29.73 52.6585 29.625 52.3379 29.4563L51.6393 30.7837ZM53.6806 31.23C54.2368 31.23 54.7893 31.1464 55.3361 30.9824L54.9051 29.5456C54.4919 29.6696 54.0845 29.73 53.6806 29.73V31.23ZM55.3025 30.9916C55.3985 30.9676 55.4945 30.9436 55.5905 30.9196L55.2267 29.4644C55.1307 29.4884 55.0347 29.5124 54.9387 29.5364L55.3025 30.9916ZM55.5557 30.9274C55.6132 30.9159 55.7052 30.906 55.8406 30.906V29.406C55.6401 29.406 55.4441 29.4201 55.2615 29.4566L55.5557 30.9274ZM55.8406 30.906C55.9547 30.906 56.0698 30.9419 56.2103 31.0823L57.271 30.0217C56.8834 29.6341 56.3985 29.406 55.8406 29.406V30.906ZM56.2361 31.107C56.3422 31.2034 56.3866 31.3011 56.3866 31.452H57.8866C57.8866 30.8829 57.6671 30.3806 57.2451 29.997L56.2361 31.107ZM56.3866 31.452C56.3866 31.5966 56.3526 31.6934 56.3028 31.7691C56.2499 31.8496 56.1511 31.9482 55.9617 32.0471L56.6556 33.3769C57.0181 33.1878 57.3333 32.9324 57.5564 32.5929C57.7826 32.2486 57.8866 31.8594 57.8866 31.452H56.3866ZM55.9943 32.031C55.1593 32.4164 54.2708 32.61 53.3206 32.61V34.11C54.4824 34.11 55.5859 33.8716 56.6229 33.393L55.9943 32.031ZM62.4587 32.712L62.1306 33.3865L62.1377 33.3898L62.4587 32.712ZM60.3347 30.84L59.6997 31.2392L59.705 31.2474L60.3347 30.84ZM61.6307 23.712L61.1823 23.1108L61.1774 23.1145L61.6307 23.712ZM72.1787 22.128V22.878H72.9287V22.128H72.1787ZM70.9907 18.42L70.487 18.9758L70.4956 18.9834L70.9907 18.42ZM64.9067 17.592L64.7596 16.8565L64.7548 16.8576L64.9067 17.592ZM62.5667 18.24L62.7486 18.9676L62.7766 18.9606L62.8039 18.9515L62.5667 18.24ZM61.1627 17.916L61.6931 17.3857V17.3857L61.1627 17.916ZM61.7027 15.576L61.9949 16.2667L61.9952 16.2666L61.7027 15.576ZM72.1067 15.288L71.7228 15.9324L71.7288 15.9358L72.1067 15.288ZM74.6267 17.916L73.9529 18.2454L73.9574 18.2545L73.9621 18.2634L74.6267 17.916ZM74.9507 32.712L74.4404 32.1624L74.4302 32.1719L74.4204 32.1817L74.9507 32.712ZM72.6467 32.712L73.177 32.1817L72.6467 32.712ZM72.1787 30.624H72.9287V28.7786L71.6414 30.1008L72.1787 30.624ZM69.6947 29.724L70.0366 30.3915L70.043 30.3883L70.0493 30.3849L69.6947 29.724ZM72.1787 27.78L72.7431 28.2739L72.9287 28.0618V27.78H72.1787ZM72.1787 24.756H72.9287V24.006H72.1787V24.756ZM63.6827 29.688L63.1759 30.2409L63.1815 30.246L63.1872 30.251L63.6827 29.688ZM65.4107 32.61C64.4605 32.61 63.5868 32.4164 62.7798 32.0342L62.1377 33.3898C63.1547 33.8716 64.249 34.11 65.4107 34.11V32.61ZM62.7868 32.0376C62.0197 31.6644 61.4169 31.1318 60.9644 30.4326L59.705 31.2474C60.3086 32.1802 61.1217 32.8956 62.1306 33.3864L62.7868 32.0376ZM60.9697 30.4409C60.5235 29.731 60.2927 28.9118 60.2927 27.96H58.7927C58.7927 29.1682 59.09 30.269 59.6997 31.2391L60.9697 30.4409ZM60.2927 27.96C60.2927 26.4141 60.8825 25.221 62.084 24.3095L61.1774 23.1145C59.5949 24.315 58.7927 25.9539 58.7927 27.96H60.2927ZM62.0791 24.3132C63.3128 23.3932 65.1909 22.878 67.8227 22.878V21.378C65.0305 21.378 62.7807 21.9188 61.1824 23.1108L62.0791 24.3132ZM67.8227 22.878H72.1787V21.378H67.8227V22.878ZM72.9287 22.128V21.84H71.4287V22.128H72.9287ZM72.9287 21.84C72.9287 20.1495 72.507 18.754 71.4858 17.8566L70.4956 18.9834C71.0585 19.478 71.4287 20.3625 71.4287 21.84H72.9287ZM71.4944 17.8643C70.5263 16.9869 69.0913 16.626 67.3547 16.626V18.126C68.9302 18.126 69.9192 18.4611 70.4871 18.9757L71.4944 17.8643ZM67.3547 16.626C66.4047 16.626 65.538 16.7009 64.7596 16.8566L65.0538 18.3274C65.7154 18.1951 66.4808 18.126 67.3547 18.126V16.626ZM64.7548 16.8576C64.0232 17.0089 63.2141 17.2336 62.3295 17.5285L62.8039 18.9515C63.6473 18.6704 64.3982 18.4631 65.0587 18.3264L64.7548 16.8576ZM62.3848 17.5124C62.2192 17.5538 62.1307 17.562 62.0987 17.562V19.062C62.3067 19.062 62.5302 19.0222 62.7486 18.9676L62.3848 17.5124ZM62.0987 17.562C61.9457 17.562 61.8222 17.5148 61.6931 17.3857L60.6324 18.4463C61.0312 18.8452 61.5317 19.062 62.0987 19.062V17.562ZM61.6931 17.3857C61.5741 17.2667 61.5167 17.1354 61.5167 16.944H60.0167C60.0167 17.5206 60.2233 18.0373 60.6324 18.4463L61.6931 17.3857ZM61.5167 16.944C61.5167 16.7444 61.563 16.6224 61.6197 16.5395C61.678 16.4543 61.7852 16.3555 61.9949 16.2667L61.4105 14.8853C60.9963 15.0605 60.6355 15.3216 60.3817 15.6925C60.1264 16.0656 60.0167 16.4956 60.0167 16.944H61.5167ZM61.9952 16.2666C63.9473 15.4398 65.9241 15.03 67.9307 15.03V13.53C65.7133 13.53 63.5381 13.9841 61.4102 14.8854L61.9952 16.2666ZM67.9307 15.03C69.4865 15.03 70.7376 15.3454 71.7229 15.9323L72.4906 14.6437C71.2198 13.8866 69.687 13.53 67.9307 13.53V15.03ZM71.7288 15.9358C72.7675 16.5417 73.497 17.3128 73.9529 18.2454L75.3005 17.5866C74.7005 16.3592 73.75 15.3783 72.4846 14.6402L71.7288 15.9358ZM73.9621 18.2634C74.4553 19.2071 74.7047 20.2391 74.7047 21.372H76.2047C76.2047 20.0089 75.9021 18.7369 75.2914 17.5686L73.9621 18.2634ZM74.7047 21.372V31.56H76.2047V21.372H74.7047ZM74.7047 31.56C74.7047 31.8061 74.6245 31.9914 74.4404 32.1624L75.4611 33.2616C75.9489 32.8086 76.2047 32.2259 76.2047 31.56H74.7047ZM74.4204 32.1817C74.2542 32.3478 74.0632 32.43 73.7987 32.43V33.93C74.4462 33.93 75.0232 33.7002 75.481 33.2423L74.4204 32.1817ZM73.7987 32.43C73.5342 32.43 73.3432 32.3478 73.177 32.1817L72.1164 33.2423C72.5742 33.7002 73.1512 33.93 73.7987 33.93V32.43ZM73.177 32.1817C73.0109 32.0155 72.9287 31.8245 72.9287 31.56H71.4287C71.4287 32.2075 71.6586 32.7845 72.1164 33.2423L73.177 32.1817ZM72.9287 31.56V30.624H71.4287V31.56H72.9287ZM71.6414 30.1008C70.0178 31.7682 67.9611 32.61 65.4107 32.61V34.11C68.3323 34.11 70.7876 33.1278 72.7161 31.1472L71.6414 30.1008ZM66.6347 31.23C67.8152 31.23 68.9519 30.9471 70.0366 30.3915L69.3528 29.0565C68.4695 29.5089 67.5662 29.73 66.6347 29.73V31.23ZM70.0493 30.3849C71.1052 29.8183 72.0065 29.1158 72.7431 28.2739L71.6143 27.2861C71.007 27.9802 70.2522 28.5737 69.3401 29.0631L70.0493 30.3849ZM72.9287 27.78V24.756H71.4287V27.78H72.9287ZM72.1787 24.006H68.2547V25.506H72.1787V24.006ZM68.2547 24.006C66.4017 24.006 64.897 24.2443 63.83 24.8025C63.2855 25.0873 62.8365 25.4653 62.5259 25.9527C62.2134 26.4432 62.0687 27.0015 62.0687 27.6H63.5687C63.5687 27.2505 63.6505 26.9793 63.791 26.7588C63.9335 26.5352 64.1639 26.3207 64.5254 26.1315C65.2705 25.7417 66.4837 25.506 68.2547 25.506V24.006ZM62.0687 27.6C62.0687 28.6495 62.4276 29.5549 63.1759 30.2409L64.1895 29.1351C63.7858 28.7651 63.5687 28.2785 63.5687 27.6H62.0687ZM63.1872 30.251C63.9929 30.96 65.2034 31.23 66.6347 31.23V29.73C65.33 29.73 64.5725 29.472 64.1782 29.125L63.1872 30.251ZM81.4136 32.712L81.9439 32.1817L81.4136 32.712ZM81.4136 14.964L81.9439 15.4943L81.9537 15.4845L81.9632 15.4743L81.4136 14.964ZM83.7176 14.964L83.168 15.4743L83.1869 15.4947L83.2072 15.5136L83.7176 14.964ZM84.2216 17.664H83.4716V19.9269L84.8231 18.1119L84.2216 17.664ZM91.1696 14.748L90.6185 15.2567L90.6286 15.2677L90.6392 15.2783L91.1696 14.748ZM91.1696 17.016L90.6609 16.4649V16.4649L91.1696 17.016ZM86.6336 18.312L87.0075 18.9623L87.0194 18.9551L86.6336 18.312ZM84.2216 20.616L83.5952 20.2035L83.4716 20.3912V20.616H84.2216ZM83.7176 32.712L83.2072 32.1624L83.1971 32.1719L83.1872 32.1817L83.7176 32.712ZM82.5656 32.43C82.301 32.43 82.1101 32.3478 81.9439 32.1817L80.8832 33.2423C81.3411 33.7002 81.9181 33.93 82.5656 33.93V32.43ZM81.9439 32.1817C81.7777 32.0155 81.6956 31.8245 81.6956 31.56H80.1956C80.1956 32.2075 80.4254 32.7845 80.8832 33.2423L81.9439 32.1817ZM81.6956 31.56V16.116H80.1956V31.56H81.6956ZM81.6956 16.116C81.6956 15.8515 81.7777 15.6605 81.9439 15.4943L80.8832 14.4337C80.4254 14.8915 80.1956 15.4685 80.1956 16.116H81.6956ZM81.9632 15.4743C82.1341 15.2902 82.3194 15.21 82.5656 15.21V13.71C81.8997 13.71 81.317 13.9658 80.864 14.4537L81.9632 15.4743ZM82.5656 15.21C82.8117 15.21 82.997 15.2902 83.168 15.4743L84.2672 14.4537C83.8141 13.9658 83.2314 13.71 82.5656 13.71V15.21ZM83.2072 15.5136C83.3914 15.6846 83.4716 15.8699 83.4716 16.116H84.9716C84.9716 15.4501 84.7158 14.8674 84.2279 14.4144L83.2072 15.5136ZM83.4716 16.116V17.664H84.9716V16.116H83.4716ZM84.8231 18.1119C86.4147 15.9746 88.0993 15.03 89.8736 15.03V13.53C87.4718 13.53 85.3884 14.8414 83.62 17.216L84.8231 18.1119ZM89.8736 15.03H90.0536V13.53H89.8736V15.03ZM90.0536 15.03C90.3176 15.03 90.4838 15.1108 90.6185 15.2567L91.7207 14.2393C91.2793 13.7612 90.7015 13.53 90.0536 13.53V15.03ZM90.6392 15.2783C90.8054 15.4445 90.8876 15.6355 90.8876 15.9H92.3876C92.3876 15.2525 92.1577 14.6755 91.6999 14.2177L90.6392 15.2783ZM90.8876 15.9C90.8876 16.164 90.8067 16.3302 90.6609 16.4649L91.6783 17.5671C92.1564 17.1258 92.3876 16.548 92.3876 15.9H90.8876ZM90.6609 16.4649C90.5057 16.6081 90.2995 16.698 89.9816 16.698V18.198C90.6236 18.198 91.2094 17.9999 91.6783 17.5671L90.6609 16.4649ZM89.9816 16.698H89.8016V18.198H89.9816V16.698ZM89.8016 16.698C88.5178 16.698 87.3278 17.0208 86.2477 17.6689L87.0194 18.9551C87.8594 18.4512 88.7814 18.198 89.8016 18.198V16.698ZM86.2597 17.6618C85.1917 18.2759 84.3034 19.1281 83.5952 20.2035L84.8479 21.0285C85.4357 20.1359 86.1555 19.4521 87.0074 18.9622L86.2597 17.6618ZM83.4716 20.616V31.56H84.9716V20.616H83.4716ZM83.4716 31.56C83.4716 31.8061 83.3914 31.9914 83.2072 32.1624L84.2279 33.2616C84.7158 32.8086 84.9716 32.2259 84.9716 31.56H83.4716ZM83.1872 32.1817C83.0211 32.3478 82.8301 32.43 82.5656 32.43V33.93C83.213 33.93 83.7901 33.7002 84.2479 33.2423L83.1872 32.1817ZM94.9788 10.356L94.4485 10.8863L94.4485 10.8863L94.9788 10.356ZM97.7868 10.356L98.3171 10.8863L98.3171 10.8863L97.7868 10.356ZM95.1948 32.712L95.7251 32.1817L95.1948 32.712ZM95.1948 14.964L95.7251 15.4943L95.735 15.4845L95.7444 15.4743L95.1948 14.964ZM97.4988 32.712L96.9885 32.1624L96.9783 32.1719L96.9685 32.1817L97.4988 32.712ZM96.2748 10.146C95.972 10.146 95.7301 10.0466 95.5091 9.82567L94.4485 10.8863C94.9475 11.3854 95.5696 11.646 96.2748 11.646V10.146ZM95.5091 9.82567C95.2882 9.60472 95.1888 9.36283 95.1888 9.06H93.6888C93.6888 9.76517 93.9494 10.3873 94.4485 10.8863L95.5091 9.82567ZM95.1888 9.06V8.916H93.6888V9.06H95.1888ZM95.1888 8.916C95.1888 8.61317 95.2882 8.37128 95.5091 8.15033L94.4485 7.08967C93.9494 7.58872 93.6888 8.21083 93.6888 8.916H95.1888ZM95.5091 8.15033C95.7301 7.92938 95.972 7.83 96.2748 7.83V6.33C95.5696 6.33 94.9475 6.59062 94.4485 7.08967L95.5091 8.15033ZM96.2748 7.83H96.4908V6.33H96.2748V7.83ZM96.4908 7.83C96.7936 7.83 97.0355 7.92938 97.2565 8.15033L98.3171 7.08967C97.8181 6.59062 97.196 6.33 96.4908 6.33V7.83ZM97.2565 8.15033C97.4774 8.37128 97.5768 8.61317 97.5768 8.916H99.0768C99.0768 8.21083 98.8162 7.58872 98.3171 7.08967L97.2565 8.15033ZM97.5768 8.916V9.06H99.0768V8.916H97.5768ZM97.5768 9.06C97.5768 9.36283 97.4774 9.60472 97.2565 9.82567L98.3171 10.8863C98.8162 10.3873 99.0768 9.76517 99.0768 9.06H97.5768ZM97.2565 9.82567C97.0355 10.0466 96.7936 10.146 96.4908 10.146V11.646C97.196 11.646 97.8181 11.3854 98.3171 10.8863L97.2565 9.82567ZM96.4908 10.146H96.2748V11.646H96.4908V10.146ZM96.3468 32.43C96.0823 32.43 95.8913 32.3478 95.7251 32.1817L94.6645 33.2423C95.1223 33.7002 95.6993 33.93 96.3468 33.93V32.43ZM95.7251 32.1817C95.559 32.0155 95.4768 31.8245 95.4768 31.56H93.9768C93.9768 32.2075 94.2067 32.7845 94.6645 33.2423L95.7251 32.1817ZM95.4768 31.56V16.116H93.9768V31.56H95.4768ZM95.4768 16.116C95.4768 15.8515 95.559 15.6605 95.7251 15.4943L94.6645 14.4337C94.2067 14.8915 93.9768 15.4685 93.9768 16.116H95.4768ZM95.7444 15.4743C95.9154 15.2902 96.1007 15.21 96.3468 15.21V13.71C95.681 13.71 95.0982 13.9658 94.6452 14.4537L95.7444 15.4743ZM96.3468 15.21C96.6472 15.21 96.8462 15.3 97.0045 15.4583L98.0651 14.3977C97.5994 13.932 97.0065 13.71 96.3468 13.71V15.21ZM97.0045 15.4583C97.1628 15.6166 97.2528 15.8157 97.2528 16.116H98.7528C98.7528 15.4563 98.5309 14.8634 98.0651 14.3977L97.0045 15.4583ZM97.2528 16.116V31.56H98.7528V16.116H97.2528ZM97.2528 31.56C97.2528 31.8061 97.1726 31.9914 96.9885 32.1624L98.0091 33.2616C98.497 32.8086 98.7528 32.2259 98.7528 31.56H97.2528ZM96.9685 32.1817C96.8023 32.3478 96.6113 32.43 96.3468 32.43V33.93C96.9943 33.93 97.5713 33.7002 98.0291 33.2423L96.9685 32.1817ZM104.16 32.712L104.69 32.1817L104.16 32.712ZM104.16 14.964L104.69 15.4943L104.7 15.4845L104.709 15.4743L104.16 14.964ZM106.464 14.964L105.914 15.4743L105.933 15.4947L105.953 15.5136L106.464 14.964ZM106.968 17.592H106.218V19.5388L107.524 18.0952L106.968 17.592ZM117.084 15.216L116.675 15.8449L116.682 15.8494L117.084 15.216ZM119.316 17.772L118.636 18.0892L118.642 18.1014L119.316 17.772ZM119.604 32.712L119.093 32.1624L119.083 32.1719L119.073 32.1817L119.604 32.712ZM117.3 32.712L116.769 33.2423L117.3 32.712ZM109.632 18.24L109.223 17.6111L109.216 17.616L109.632 18.24ZM106.968 20.76L106.381 20.2931L106.218 20.4981V20.76H106.968ZM106.464 32.712L105.953 32.1624L105.943 32.1719L105.933 32.1817L106.464 32.712ZM105.312 32.43C105.047 32.43 104.856 32.3478 104.69 32.1817L103.629 33.2423C104.087 33.7002 104.664 33.93 105.312 33.93V32.43ZM104.69 32.1817C104.524 32.0155 104.442 31.8245 104.442 31.56H102.942C102.942 32.2075 103.172 32.7845 103.629 33.2423L104.69 32.1817ZM104.442 31.56V16.116H102.942V31.56H104.442ZM104.442 16.116C104.442 15.8515 104.524 15.6605 104.69 15.4943L103.629 14.4337C103.172 14.8915 102.942 15.4685 102.942 16.116H104.442ZM104.709 15.4743C104.88 15.2902 105.066 15.21 105.312 15.21V13.71C104.646 13.71 104.063 13.9658 103.61 14.4537L104.709 15.4743ZM105.312 15.21C105.558 15.21 105.743 15.2902 105.914 15.4743L107.013 14.4537C106.56 13.9658 105.978 13.71 105.312 13.71V15.21ZM105.953 15.5136C106.137 15.6846 106.218 15.8699 106.218 16.116H107.718C107.718 15.4501 107.462 14.8674 106.974 14.4144L105.953 15.5136ZM106.218 16.116V17.592H107.718V16.116H106.218ZM107.524 18.0952C108.389 17.1394 109.311 16.3883 110.29 15.8321L109.549 14.5279C108.416 15.1717 107.371 16.0286 106.412 17.0888L107.524 18.0952ZM110.29 15.8321C111.214 15.3072 112.329 15.03 113.664 15.03V13.53C112.118 13.53 110.737 13.8528 109.549 14.5279L110.29 15.8321ZM113.664 15.03C114.861 15.03 115.854 15.3114 116.675 15.8448L117.492 14.5872C116.393 13.8726 115.106 13.53 113.664 13.53V15.03ZM116.682 15.8494C117.542 16.3948 118.191 17.1358 118.636 18.0892L119.995 17.4548C119.432 16.2482 118.593 15.2852 117.485 14.5826L116.682 15.8494ZM118.642 18.1014C119.116 19.071 119.358 20.1451 119.358 21.336H120.858C120.858 19.9349 120.571 18.633 119.989 17.4426L118.642 18.1014ZM119.358 21.336V31.56H120.858V21.336H119.358ZM119.358 31.56C119.358 31.8061 119.277 31.9914 119.093 32.1624L120.114 33.2616C120.602 32.8086 120.858 32.2259 120.858 31.56H119.358ZM119.073 32.1817C118.907 32.3478 118.716 32.43 118.452 32.43V33.93C119.099 33.93 119.676 33.7002 120.134 33.2423L119.073 32.1817ZM118.452 32.43C118.187 32.43 117.996 32.3478 117.83 32.1817L116.769 33.2423C117.227 33.7002 117.804 33.93 118.452 33.93V32.43ZM117.83 32.1817C117.664 32.0155 117.582 31.8245 117.582 31.56H116.082C116.082 32.2075 116.312 32.7845 116.769 33.2423L117.83 32.1817ZM117.582 31.56V21.696H116.082V31.56H117.582ZM117.582 21.696C117.582 20.1345 117.231 18.8233 116.399 17.8998C115.553 16.9615 114.328 16.554 112.872 16.554V18.054C114.055 18.054 114.811 18.3785 115.285 18.9042C115.772 19.4447 116.082 20.3295 116.082 21.696H117.582ZM112.872 16.554C111.534 16.554 110.311 16.9042 109.223 17.6112L110.04 18.8688C110.873 18.3278 111.809 18.054 112.872 18.054V16.554ZM109.216 17.616C108.203 18.2908 107.26 19.1879 106.381 20.2931L107.555 21.2269C108.355 20.2201 109.188 19.4372 110.048 18.864L109.216 17.616ZM106.218 20.76V31.56H107.718V20.76H106.218ZM106.218 31.56C106.218 31.8061 106.137 31.9914 105.953 32.1624L106.974 33.2616C107.462 32.8086 107.718 32.2259 107.718 31.56H106.218ZM105.933 32.1817C105.767 32.3478 105.576 32.43 105.312 32.43V33.93C105.959 33.93 106.536 33.7002 106.994 33.2423L105.933 32.1817ZM127.357 32.712L127.029 33.3865L127.036 33.3898L127.357 32.712ZM125.233 30.84L124.598 31.2392L124.603 31.2474L125.233 30.84ZM126.529 23.712L126.081 23.1108L126.076 23.1145L126.529 23.712ZM137.077 22.128V22.878H137.827V22.128H137.077ZM135.889 18.42L135.385 18.9758L135.394 18.9834L135.889 18.42ZM129.805 17.592L129.658 16.8565L129.653 16.8576L129.805 17.592ZM127.465 18.24L127.647 18.9676L127.675 18.9606L127.702 18.9515L127.465 18.24ZM126.061 17.916L126.591 17.3857V17.3857L126.061 17.916ZM126.601 15.576L126.893 16.2667L126.894 16.2666L126.601 15.576ZM137.005 15.288L136.621 15.9324L136.627 15.9358L137.005 15.288ZM139.525 17.916L138.851 18.2454L138.856 18.2545L138.86 18.2634L139.525 17.916ZM139.849 32.712L139.339 32.1624L139.329 32.1719L139.319 32.1817L139.849 32.712ZM137.545 32.712L138.075 32.1817L137.545 32.712ZM137.077 30.624H137.827V28.7786L136.54 30.1008L137.077 30.624ZM134.593 29.724L134.935 30.3915L134.941 30.3883L134.948 30.3849L134.593 29.724ZM137.077 27.78L137.642 28.2739L137.827 28.0618V27.78H137.077ZM137.077 24.756H137.827V24.006H137.077V24.756ZM128.581 29.688L128.074 30.2409L128.08 30.246L128.086 30.251L128.581 29.688ZM130.309 32.61C129.359 32.61 128.485 32.4164 127.678 32.0342L127.036 33.3898C128.053 33.8716 129.147 34.11 130.309 34.11V32.61ZM127.685 32.0376C126.918 31.6644 126.315 31.1318 125.863 30.4326L124.603 31.2474C125.207 32.1802 126.02 32.8956 127.029 33.3864L127.685 32.0376ZM125.868 30.4409C125.422 29.731 125.191 28.9118 125.191 27.96H123.691C123.691 29.1682 123.988 30.269 124.598 31.2391L125.868 30.4409ZM125.191 27.96C125.191 26.4141 125.781 25.221 126.982 24.3095L126.076 23.1145C124.493 24.315 123.691 25.9539 123.691 27.96H125.191ZM126.978 24.3132C128.211 23.3932 130.089 22.878 132.721 22.878V21.378C129.929 21.378 127.679 21.9188 126.081 23.1108L126.978 24.3132ZM132.721 22.878H137.077V21.378H132.721V22.878ZM137.827 22.128V21.84H136.327V22.128H137.827ZM137.827 21.84C137.827 20.1495 137.405 18.754 136.384 17.8566L135.394 18.9834C135.957 19.478 136.327 20.3625 136.327 21.84H137.827ZM136.393 17.8643C135.425 16.9869 133.99 16.626 132.253 16.626V18.126C133.829 18.126 134.818 18.4611 135.386 18.9757L136.393 17.8643ZM132.253 16.626C131.303 16.626 130.436 16.7009 129.658 16.8566L129.952 18.3274C130.614 18.1951 131.379 18.126 132.253 18.126V16.626ZM129.653 16.8576C128.922 17.0089 128.113 17.2336 127.228 17.5285L127.702 18.9515C128.546 18.6704 129.297 18.4631 129.957 18.3264L129.653 16.8576ZM127.283 17.5124C127.118 17.5538 127.029 17.562 126.997 17.562V19.062C127.205 19.062 127.429 19.0222 127.647 18.9676L127.283 17.5124ZM126.997 17.562C126.844 17.562 126.721 17.5148 126.591 17.3857L125.531 18.4463C125.93 18.8452 126.43 19.062 126.997 19.062V17.562ZM126.591 17.3857C126.473 17.2667 126.415 17.1354 126.415 16.944H124.915C124.915 17.5206 125.122 18.0373 125.531 18.4463L126.591 17.3857ZM126.415 16.944C126.415 16.7444 126.461 16.6224 126.518 16.5395C126.576 16.4543 126.684 16.3555 126.893 16.2667L126.309 14.8853C125.895 15.0605 125.534 15.3216 125.28 15.6925C125.025 16.0656 124.915 16.4956 124.915 16.944H126.415ZM126.894 16.2666C128.846 15.4398 130.823 15.03 132.829 15.03V13.53C130.612 13.53 128.437 13.9841 126.309 14.8854L126.894 16.2666ZM132.829 15.03C134.385 15.03 135.636 15.3454 136.621 15.9323L137.389 14.6437C136.118 13.8866 134.585 13.53 132.829 13.53V15.03ZM136.627 15.9358C137.666 16.5417 138.395 17.3128 138.851 18.2454L140.199 17.5866C139.599 16.3592 138.648 15.3783 137.383 14.6402L136.627 15.9358ZM138.86 18.2634C139.354 19.2071 139.603 20.2391 139.603 21.372H141.103C141.103 20.0089 140.801 18.7369 140.19 17.5686L138.86 18.2634ZM139.603 21.372V31.56H141.103V21.372H139.603ZM139.603 31.56C139.603 31.8061 139.523 31.9914 139.339 32.1624L140.359 33.2616C140.847 32.8086 141.103 32.2259 141.103 31.56H139.603ZM139.319 32.1817C139.153 32.3478 138.962 32.43 138.697 32.43V33.93C139.345 33.93 139.922 33.7002 140.379 33.2423L139.319 32.1817ZM138.697 32.43C138.433 32.43 138.242 32.3478 138.075 32.1817L137.015 33.2423C137.473 33.7002 138.05 33.93 138.697 33.93V32.43ZM138.075 32.1817C137.909 32.0155 137.827 31.8245 137.827 31.56H136.327C136.327 32.2075 136.557 32.7845 137.015 33.2423L138.075 32.1817ZM137.827 31.56V30.624H136.327V31.56H137.827ZM136.54 30.1008C134.916 31.7682 132.86 32.61 130.309 32.61V34.11C133.231 34.11 135.686 33.1278 137.615 31.1472L136.54 30.1008ZM131.533 31.23C132.714 31.23 133.85 30.9471 134.935 30.3915L134.251 29.0565C133.368 29.5089 132.465 29.73 131.533 29.73V31.23ZM134.948 30.3849C136.004 29.8183 136.905 29.1158 137.642 28.2739L136.513 27.2861C135.905 27.9802 135.151 28.5737 134.239 29.0631L134.948 30.3849ZM137.827 27.78V24.756H136.327V27.78H137.827ZM137.077 24.006H133.153V25.506H137.077V24.006ZM133.153 24.006C131.3 24.006 129.795 24.2443 128.728 24.8025C128.184 25.0873 127.735 25.4653 127.424 25.9527C127.112 26.4432 126.967 27.0015 126.967 27.6H128.467C128.467 27.2505 128.549 26.9793 128.689 26.7588C128.832 26.5352 129.062 26.3207 129.424 26.1315C130.169 25.7417 131.382 25.506 133.153 25.506V24.006ZM126.967 27.6C126.967 28.6495 127.326 29.5549 128.074 30.2409L129.088 29.1351C128.684 28.7651 128.467 28.2785 128.467 27.6H126.967ZM128.086 30.251C128.891 30.96 130.102 31.23 131.533 31.23V29.73C130.228 29.73 129.471 29.472 129.077 29.125L128.086 30.251Z" fill="#4E4E4E"/>
<path fill-rule="evenodd" clip-rule="evenodd" d="M148 34C150.209 34 152 32.2091 152 30C152 27.7909 150.209 26 148 26C145.791 26 144 27.7909 144 30C144 32.2091 145.791 34 148 34Z" fill="#2A9EF6"/>
</svg>
