<svg width="25" height="28" viewBox="0 0 25 28" fill="none" xmlns="http://www.w3.org/2000/svg">
<path fill-rule="evenodd" clip-rule="evenodd" d="M5.0803 0C4.12078 0.00270373 3.3436 0.784624 3.34091 1.75V26.25C3.3436 27.2154 4.12078 27.9973 5.0803 28H22.4742C23.4338 27.9973 24.2109 27.2154 24.2136 26.25V7L17.2561 0H5.0803Z" fill="#E2E5E7"/>
<path fill-rule="evenodd" clip-rule="evenodd" d="M19.3773 7.12727H24.7227L17.5955 0V5.34545C17.5982 6.32838 18.3943 7.12452 19.3773 7.12727Z" fill="#B0B7BD"/>
<path fill-rule="evenodd" clip-rule="evenodd" d="M24.2136 12.2182L19.1227 7.12726H24.2136V12.2182Z" fill="#CAD1D8"/>
<path fill-rule="evenodd" clip-rule="evenodd" d="M19.7845 23.6727H3.34091V24.4364H19.7845C20.2625 24.4364 20.65 24.0945 20.65 23.6727V22.9091C20.65 23.3308 20.2625 23.6727 19.7845 23.6727Z" fill="#CAD1D8"/>
<path fill-rule="evenodd" clip-rule="evenodd" d="M20.8727 22.8C20.8727 23.292 20.4834 23.6909 20.003 23.6909H0.869697C0.389377 23.6909 0 23.292 0 22.8V13.8909C0 13.3989 0.389377 13 0.869697 13H20.003C20.4834 13 20.8727 13.3989 20.8727 13.8909V22.8Z" fill="#2399F1"/>
</svg>
