<svg width="35" height="44" viewBox="0 0 35 44" fill="none" xmlns="http://www.w3.org/2000/svg">
<path fill-rule="evenodd" clip-rule="evenodd" d="M18.0355 0.441772C18.0754 0.487427 22.0702 5.08005 26.0082 10.718C31.3961 18.4316 34.1279 24.372 34.1279 28.3741C34.1279 33.0547 32.3756 37.0384 29.06 39.8945C25.9867 42.5421 21.7264 44 17.064 44C12.4019 44 8.14157 42.5421 5.0683 39.8948C1.75266 37.0387 0 33.0551 0 28.3741C0 24.372 2.73187 18.4316 8.11975 10.718C12.0323 5.11647 16.0012 0.546813 16.0912 0.443226L16.0925 0.441772C16.3375 0.161133 16.6917 0 17.064 0C17.4362 0 17.7907 0.161133 18.0355 0.441772ZM24.8541 36.3005C25.1518 36.3005 25.4513 36.1978 25.6946 35.988C27.8693 34.1148 28.9717 31.5532 28.9717 28.3741C28.9717 27.6621 28.3946 27.0851 27.6826 27.0851C26.9709 27.0851 26.3936 27.6621 26.3936 28.3741C26.3936 30.769 25.5923 32.6734 24.0121 34.0346C23.4727 34.4992 23.4119 35.3133 23.8769 35.8527C24.1317 36.1485 24.4919 36.3005 24.8541 36.3005Z" fill="#BCBCCB"/>
</svg>
