<svg id="Layer_1" data-name="Layer 1" xmlns="http://www.w3.org/2000/svg" viewBox="0 0 426.67 426.67"><title>logo-question</title><rect x="192" y="298.67" width="42.67" height="42.67"/><path d="M213.33,85.33A85.31,85.31,0,0,0,128,170.62v0h42.67a42.67,42.67,0,1,1,85.33,0c0,42.66-64,37.33-64,106.66h42.67c0-48,64-53.33,64-106.66a85.33,85.33,0,0,0-85.29-85.34Z"/><path d="M213.33,0C95.57,0,0,95.57,0,213.33S95.57,426.67,213.33,426.67s213.34-95.58,213.34-213.34S331.09,0,213.33,0Zm0,384c-94.08,0-170.66-76.59-170.66-170.67S119.25,42.67,213.33,42.67,384,119.25,384,213.33,307.41,384,213.33,384Z"/></svg>