<svg id="1a0e425a-0ee2-4dc7-a623-c51185e22b5b" data-name="Capa 1" xmlns="http://www.w3.org/2000/svg" viewBox="0 0 502.96 512"><title>logo-annuaire</title><path d="M140.33,295.79c1.31,10.58,11.14,25.66,17.94,25.66a4.29,4.29,0,0,0,2.26-.65,91.15,91.15,0,0,0,18,23.38h51.34a77.31,77.31,0,0,0,15.46-23.83,4.9,4.9,0,0,0,2.88,1.09c6.79,0,14.86-15.11,14.94-25.67.08-10.82-.85-19.77-8-19.77a11.52,11.52,0,0,0-2.65.38c-.66-31.19-8.77-73.06-56.57-73.06-44.58,0-51,41.79-48,72.95a11,11,0,0,0-2-.29C138.88,276,139,285,140.33,295.79Z" transform="translate(-4.51)" fill="#fff"/><path d="M409.72,260.51l3.11-20c1.12-7.14-3.37-13-10.05-13H258.31c4.11,10,7,22,8,36.43,2.95,1.93,5.13,5,6.89,8.74h123C402.65,272.68,408.68,267.29,409.72,260.51Z" transform="translate(-4.51)" fill="#fff"/><path d="M385.79,345.39A12.79,12.79,0,0,0,398.1,335l2.65-17a9.26,9.26,0,0,0-9.39-11.05h-116c-3.34,11.81-11.11,23.84-21.54,27-.31.56-.67,1-1,1.6l0,9.89,132.9,0Z" transform="translate(-4.51)" fill="#fff"/><path d="M63.91,339.21l-23.68-158A35.29,35.29,0,0,1,75.48,146h359.6a35.28,35.28,0,0,1,35.24,35.25L449.27,337.4H480.8l21.07-156.17a66.79,66.79,0,0,0-66.79-66.79H75.48A66.8,66.8,0,0,0,8.69,181.23l23.69,158Z" transform="translate(-4.51)" fill="#fff"/><path d="M27,359.9A22.5,22.5,0,0,0,4.75,385.65L23.14,512h465.7l18.4-126.37A22.47,22.47,0,0,0,485,359.9Z" transform="translate(-4.51)" fill="#fff"/><path d="M413,89.26l5.71-24.66a8.43,8.43,0,0,0-8.2-10.31H87.4A8.56,8.56,0,0,0,79.09,64.9l6,24.34,327.89,0Z" transform="translate(-4.51)" fill="#fff"/><path d="M380.65,35l4.63-25A8.41,8.41,0,0,0,377,0H120.68a8.39,8.39,0,0,0-8.23,10L117.38,35Z" transform="translate(-4.51)" fill="#fff"/></svg>