<svg width="17" height="15" viewBox="0 0 17 15" fill="none" xmlns="http://www.w3.org/2000/svg">
<path fill-rule="evenodd" clip-rule="evenodd" d="M16.4722 11.5556L10.4949 1.32192C10.0938 0.519826 9.27412 0.0132446 8.37738 0.0132446C7.48064 0.0132446 6.66096 0.519826 6.25985 1.32192L0.282526 11.5556C-0.0844496 12.2894 -0.0452172 13.161 0.386211 13.8589C0.817512 14.5569 1.57949 14.9818 2.40005 14.9818H14.3547C15.1751 14.9818 15.9372 14.5569 16.3685 13.8589C16.8 13.161 16.8391 12.2894 16.4722 11.5556ZM8.37738 13.5424C7.74151 13.5424 7.22588 13.0269 7.22588 12.391C7.22588 11.7552 7.74151 11.2397 8.37738 11.2397C9.01325 11.2397 9.52875 11.7552 9.52875 12.391C9.52875 13.0269 9.01325 13.5424 8.37738 13.5424ZM8.37738 10.0882C9.01325 10.0882 9.52875 9.57269 9.52875 8.93682V3.46747C9.52875 2.8316 9.01325 2.31611 8.37738 2.31611C7.74151 2.31611 7.22588 2.8316 7.22588 3.46747V8.93682C7.22588 9.57269 7.74151 10.0882 8.37738 10.0882Z" fill="#4A4A4A"/>
</svg>
