<svg id="Layer_1" data-name="Layer 1" xmlns="http://www.w3.org/2000/svg" viewBox="0 0 512 512"><title>logo-tension</title><path d="M277.33,234.67a21.06,21.06,0,0,0-10.66-18.06V181.33a10.67,10.67,0,0,0-21.34,0h0v35.28a21.06,21.06,0,0,0-10.66,18.06,21.33,21.33,0,1,0,42.66,0Z"/><path d="M437.33,0c-41.86,0-74.66,37.48-74.66,85.33,0,34.34,25.9,95.18,64,105.12V394.67a96.11,96.11,0,0,1-96,96c-50.95,0-92.34-40-95.41-90.18,33.44-4.26,63.41-12.22,63.41-27.16v-41a106.46,106.46,0,0,0,0-195.25V74.67c0-30.46-124.4-32-149.34-32S0,44.21,0,74.67V373.33c0,30.46,124.4,32,149.33,32,10.1,0,36.55-.28,64.41-2.61C217.91,463.66,268.69,512,330.67,512A117.46,117.46,0,0,0,448,394.67V190.45c38.1-9.94,64-70.78,64-105.12C512,37.48,479.2,0,437.33,0ZM32.78,74.67C54.43,69.38,98.67,64,149.33,64s94.91,5.38,116.56,10.67C244.24,80,200,85.33,149.33,85.33S54.43,80,32.78,74.67Zm137.89,160A85.33,85.33,0,1,1,256,320a85.33,85.33,0,0,1-85.33-85.33Z"/></svg>