<svg id="Layer_1" data-name="Layer 1" xmlns="http://www.w3.org/2000/svg" viewBox="0 0 80.13 67.44"><title>logo-group</title><path d="M48.35,11.57a14.53,14.53,0,0,1,6.78,10.82,11.72,11.72,0,1,0-6.78-10.82Zm-7.7,24.07A11.76,11.76,0,1,0,28.9,23.88,11.75,11.75,0,0,0,40.65,35.64h0Zm5,.8h-10a15.07,15.07,0,0,0-15,15.05V63.68l0,.19.84.26A68.06,68.06,0,0,0,42,67.43c11.06,0,17.47-3.15,17.87-3.35l.78-.4h.09V51.48a15.06,15.06,0,0,0-15-15ZM65.08,24.3h-9.9a14.44,14.44,0,0,1-4.47,10.09A17.89,17.89,0,0,1,63.49,51.5v3.76c9.77-.36,15.4-3.13,15.77-3.31l.79-.4h.08V39.35A15.07,15.07,0,0,0,65.08,24.3Zm-45-.79a11.68,11.68,0,0,0,6.25-1.82,14.52,14.52,0,0,1,5.47-9.27c0-.22,0-.44,0-.66A11.75,11.75,0,1,0,20,23.51ZM30.59,34.39a14.5,14.5,0,0,1-4.47-10c-.36,0-.73-.05-1.1-.05h-10a15.06,15.06,0,0,0-15,15v12.2l0,.19L.87,52a70.37,70.37,0,0,0,17,3.18V51.5A17.88,17.88,0,0,1,30.59,34.39Z" transform="translate(0 0)" fill="#757474"/></svg>