<svg id="19ea5319-ffee-417b-a845-c6921e7fb885" data-name="Capa 1" xmlns="http://www.w3.org/2000/svg" viewBox="0 0 490 490"><title>logo-astuce</title><path d="M245,490C109.9,490,0,380.1,0,245S109.9,0,245,0,490,109.9,490,245,380.1,490,245,490Zm0-428C144.1,62,62,144.1,62,245s82.1,183,183,183,183-82.1,183-183S345.9,62,245,62Z"/><circle cx="241.3" cy="159.2" r="29.1" transform="translate(45.5 371.88) rotate(-80.78)"/><polygon points="285.1 359.9 270.4 359.9 219.6 359.9 204.9 359.9 204.9 321 219.6 321 219.6 254.8 205.1 254.8 205.1 215.9 219.6 215.9 263.1 215.9 270.4 215.9 270.4 321 285.1 321 285.1 359.9"/></svg>