<svg width="14" height="14" viewBox="0 0 14 14" fill="none" xmlns="http://www.w3.org/2000/svg">
<path fill-rule="evenodd" clip-rule="evenodd" d="M6.99999 0.538452C3.41922 0.538452 0.538452 3.41922 0.538452 6.99999C0.538452 10.5808 3.41922 13.4615 6.99999 13.4615C10.5808 13.4615 13.4615 10.5808 13.4615 6.99999C13.4615 3.41922 10.5808 0.538452 6.99999 0.538452ZM6.99999 3.79614C7.45768 3.79614 7.80768 4.14614 7.80768 4.60384C7.80768 5.06153 7.45768 5.41153 6.99999 5.41153C6.5423 5.41153 6.1923 5.06153 6.1923 4.60384C6.1923 4.14614 6.5423 3.79614 6.99999 3.79614ZM8.34614 9.44999C8.34614 9.58461 8.23845 9.6923 8.07691 9.6923H5.92307C5.78845 9.6923 5.65384 9.61153 5.65384 9.44999V8.91153C5.65384 8.77691 5.76153 8.61538 5.92307 8.61538C6.05768 8.61538 6.1923 8.53461 6.1923 8.37307V7.29614C6.1923 7.16153 6.08461 6.99999 5.92307 6.99999C5.78845 6.99999 5.65384 6.91922 5.65384 6.75768V6.21922C5.65384 6.08461 5.76153 5.92307 5.92307 5.92307H7.53845C7.67307 5.92307 7.80768 6.05768 7.80768 6.21922V8.37307C7.80768 8.50768 7.91538 8.61538 8.07691 8.61538C8.21153 8.61538 8.34614 8.74999 8.34614 8.91153V9.44999Z" fill="#BCBCCB"/>
<mask id="mask0" mask-type="alpha" maskUnits="userSpaceOnUse" x="0" y="0" width="14" height="14">
<path fill-rule="evenodd" clip-rule="evenodd" d="M6.99999 0.538452C3.41922 0.538452 0.538452 3.41922 0.538452 6.99999C0.538452 10.5808 3.41922 13.4615 6.99999 13.4615C10.5808 13.4615 13.4615 10.5808 13.4615 6.99999C13.4615 3.41922 10.5808 0.538452 6.99999 0.538452ZM6.99999 3.79614C7.45768 3.79614 7.80768 4.14614 7.80768 4.60384C7.80768 5.06153 7.45768 5.41153 6.99999 5.41153C6.5423 5.41153 6.1923 5.06153 6.1923 4.60384C6.1923 4.14614 6.5423 3.79614 6.99999 3.79614ZM8.34614 9.44999C8.34614 9.58461 8.23845 9.6923 8.07691 9.6923H5.92307C5.78845 9.6923 5.65384 9.61153 5.65384 9.44999V8.91153C5.65384 8.77691 5.76153 8.61538 5.92307 8.61538C6.05768 8.61538 6.1923 8.53461 6.1923 8.37307V7.29614C6.1923 7.16153 6.08461 6.99999 5.92307 6.99999C5.78845 6.99999 5.65384 6.91922 5.65384 6.75768V6.21922C5.65384 6.08461 5.76153 5.92307 5.92307 5.92307H7.53845C7.67307 5.92307 7.80768 6.05768 7.80768 6.21922V8.37307C7.80768 8.50768 7.91538 8.61538 8.07691 8.61538C8.21153 8.61538 8.34614 8.74999 8.34614 8.91153V9.44999Z" fill="white"/>
</mask>
<g mask="url(#mask0)">
</g>
</svg>
