<svg id="257146ca-4e8a-4351-8f8d-6769645b33f8" data-name="Capa 1" xmlns="http://www.w3.org/2000/svg" viewBox="0 0 321.88 308.69"><title>logo-morning</title><path d="M19.89,104.19a5.68,5.68,0,0,0,1.09-.11,4.88,4.88,0,0,0,3.48-3.14c.1-.26,9.44-26.92,27.26-44.73s42.13-25,42.37-25a4.82,4.82,0,0,0,2.06-8,56.34,56.34,0,0,0-79.68,79.68A4.93,4.93,0,0,0,19.89,104.19Z" transform="translate(0 -6.6)" fill="#010002"/><path d="M227.76,31.15c.24.07,24.61,7.28,42.37,25.06s27.18,44.47,27.27,44.72a4.87,4.87,0,0,0,3.48,3.14,5.68,5.68,0,0,0,1.09.11,4.87,4.87,0,0,0,3.41-1.4A56.34,56.34,0,0,0,225.7,23.1a4.84,4.84,0,0,0,2.06,8Z" transform="translate(0 -6.6)" fill="#010002"/><path d="M256.11,266a139.69,139.69,0,0,0,45.73-103.41c0-77.19-62.8-140-140-140s-140,62.8-140,140A139.11,139.11,0,0,0,71.15,269.13l-28.5,28.51a10.32,10.32,0,0,0,0,14.63,10.62,10.62,0,0,0,14.62,0L88,281.5a139.65,139.65,0,0,0,151.73-2.64l33.4,33.41a10.33,10.33,0,1,0,14.62-14.61ZM161.85,43.26A119.34,119.34,0,1,1,42.5,162.59,119.47,119.47,0,0,1,161.85,43.26Z" transform="translate(0 -6.6)" fill="#010002"/><path d="M79.23,172.94h83.89a10.34,10.34,0,0,0,10.33-10.33V69.25a10.34,10.34,0,0,0-20.68,0v83H79.23a10.34,10.34,0,0,0,0,20.67Z" transform="translate(0 -6.6)" fill="#010002"/></svg>