<svg width="18" height="18" viewBox="0 0 18 18" fill="none" xmlns="http://www.w3.org/2000/svg">
<path fill-rule="evenodd" clip-rule="evenodd" d="M6.75 2.7C6.75 4.23 5.58 5.4 4.05 5.4C2.52 5.4 1.35 4.23 1.35 2.7C1.35 1.17 2.52 0 4.05 0C5.58 0 6.75 1.17 6.75 2.7ZM4.95 2.7C4.95 2.16 4.59 1.8 4.05 1.8C3.51 1.8 3.15 2.16 3.15 2.7C3.15 3.24 3.51 3.6 4.05 3.6C4.59 3.6 4.95 3.24 4.95 2.7Z" fill="#1F89D8"/>
<path fill-rule="evenodd" clip-rule="evenodd" d="M2.25 6.3H5.85C6.84 6.3 7.65 7.11 7.65 8.1V13.5H6.75V18H1.35V13.5H0.45V8.1C0.45 7.11 1.26 6.3 2.25 6.3ZM4.95 11.7H5.85V8.1H2.25V11.7H3.15V16.2H4.95V11.7Z" fill="#1F89D8"/>
<path fill-rule="evenodd" clip-rule="evenodd" d="M14.85 12.78V5.22L16.29 6.66L17.55 5.4L13.95 1.8L10.35 5.4L11.61 6.66L13.05 5.22V12.78L11.61 11.34L10.35 12.6L13.95 16.2L17.55 12.6L16.29 11.34L14.85 12.78Z" fill="#1F89D8"/>
<rect x="10.35" width="7.2" height="1.8" fill="#1F89D8"/>
<rect x="10.35" y="16.2" width="7.2" height="1.8" fill="#1F89D8"/>
</svg>
