<svg id="3686efee-f7e8-4236-8d82-f356bc220ffc" data-name="Capa 1" xmlns="http://www.w3.org/2000/svg" viewBox="0 0 612 612"><title>logo-support</title><g id="73b8f6c4-46f7-4c5e-82c9-00132f9004f3" data-name="Troubleshoot"><path d="M306,0C137,0,0,137,0,306S137,612,306,612,612,475,612,306,475,0,306,0Zm0,76.5a227.89,227.89,0,0,1,132.77,42.65L383.61,174.3a152,152,0,0,0-155.22,0l-55.16-55.15A228,228,0,0,1,306,76.5ZM382.5,306a66.39,66.39,0,0,1-1.19,11.8,76.14,76.14,0,0,1-63.51,63.52,59.59,59.59,0,0,1-23.6,0,76.17,76.17,0,0,1-63.52-63.52,59.59,59.59,0,0,1,0-23.6,76.14,76.14,0,0,1,63.52-63.51,59.1,59.1,0,0,1,23.6,0,76.12,76.12,0,0,1,63.51,63.51A66.39,66.39,0,0,1,382.5,306Zm-306,0a227.86,227.86,0,0,1,42.65-132.77l55.15,55.16a152,152,0,0,0,0,155.22l-55.15,55.15A228,228,0,0,1,76.5,306ZM306,535.5a227.86,227.86,0,0,1-132.77-42.65l55.16-55.15a152,152,0,0,0,155.22,0l55.15,55.16A227.83,227.83,0,0,1,306,535.5Zm186.85-96.73L437.7,383.61a152,152,0,0,0,0-155.22l55.16-55.16a228,228,0,0,1,0,265.54Z"/></g></svg>