<svg width="16" height="14" viewBox="0 0 16 14" fill="none" xmlns="http://www.w3.org/2000/svg">
<path fill-rule="evenodd" clip-rule="evenodd" d="M14.6632 6.8286C14.4229 6.8286 14.2307 7.02082 14.2307 7.26109V11.1952C14.2307 12.2652 13.3593 13.1334 12.2924 13.1334H2.8032C1.73318 13.1334 0.864989 12.262 0.864989 11.1952V7.19702C0.864989 6.95675 0.672769 6.76453 0.432494 6.76453C0.19222 6.76453 0 6.95675 0 7.19702V11.1952C0 12.7426 1.25904 13.9984 2.8032 13.9984H12.2924C13.8398 13.9984 15.0957 12.7394 15.0957 11.1952V7.26109C15.0957 7.02402 14.9034 6.8286 14.6632 6.8286Z" fill="#BCBCCB"/>
<path fill-rule="evenodd" clip-rule="evenodd" d="M7.24349 10.5641C7.32678 10.6474 7.43891 10.6922 7.54784 10.6922C7.65676 10.6922 7.76889 10.6506 7.85218 10.5641L10.6009 7.81533C10.7707 7.64554 10.7707 7.37323 10.6009 7.20343C10.4311 7.03364 10.1588 7.03364 9.98903 7.20343L7.98033 9.21533V0.440505C7.98033 0.200231 7.78811 0.00801086 7.54784 0.00801086C7.30756 0.00801086 7.11534 0.200231 7.11534 0.440505V9.21533L5.10344 7.20343C4.93365 7.03364 4.66134 7.03364 4.49154 7.20343C4.32175 7.37323 4.32175 7.64554 4.49154 7.81533L7.24349 10.5641Z" fill="#BCBCCB"/>
</svg>
