<svg id="1918d45b-7f3b-411c-9925-08f09d056f99" data-name="Capa 1" xmlns="http://www.w3.org/2000/svg" viewBox="0 0 612 612"><title>logo-create-document</title><g id="3bad3b65-4917-49ae-a7bb-3f5fa990292d" data-name="Write"><path d="M344.25,344.25,535.5,153,459,76.5,267.75,267.75Zm229.5-229.5H612C612-1.18,497.25,0,497.25,0V38.25L535.5,76.5ZM535.5,497.25a38.27,38.27,0,0,1-38.25,38.25H114.75A38.27,38.27,0,0,1,76.5,497.25V114.75A38.27,38.27,0,0,1,114.75,76.5h229.5L420.75,0H76.5A76.47,76.47,0,0,0,0,76.5v459A76.47,76.47,0,0,0,76.5,612h459A76.47,76.47,0,0,0,612,535.5V191.25l-76.5,76.5ZM191.25,306V420.75H306V382.5L229.5,306Z" transform="translate(0 0)"/></g></svg>