<svg width="30" height="22" viewBox="0 0 30 22" fill="none" xmlns="http://www.w3.org/2000/svg">
<path fill-rule="evenodd" clip-rule="evenodd" d="M2.1085 0H27.8915C29.054 0 30 0.946 30 2.1085V19.8915C30 21.054 29.054 22 27.8915 22H2.1085C0.946 22 0 21.054 0 19.8915V2.1085C0 0.946 0.946 0 2.1085 0ZM27.8915 21C28.503 21 29 20.5025 29 19.8915V2.1085C29 1.4975 28.503 1 27.8915 1H2.1085C1.497 1 1 1.4975 1 2.1085V19.8915C1 20.5025 1.497 21 2.1085 21H27.8915Z" fill="#9696A2"/>
<path fill-rule="evenodd" clip-rule="evenodd" d="M8 14.5H3.5C3.2235 14.5 3 14.724 3 15C3 15.276 3.2235 15.5 3.5 15.5H8C8.2765 15.5 8.5 15.276 8.5 15C8.5 14.724 8.2765 14.5 8 14.5Z" fill="#9696A2"/>
<path fill-rule="evenodd" clip-rule="evenodd" d="M14.5 14.5H10C9.7235 14.5 9.5 14.724 9.5 15C9.5 15.276 9.7235 15.5 10 15.5H14.5C14.7765 15.5 15 15.276 15 15C15 14.724 14.7765 14.5 14.5 14.5Z" fill="#9696A2"/>
<path fill-rule="evenodd" clip-rule="evenodd" d="M4 17H3.5C3.2235 17 3 17.224 3 17.5C3 17.776 3.2235 18 3.5 18H4C4.2765 18 4.5 17.776 4.5 17.5C4.5 17.224 4.2765 17 4 17Z" fill="#9696A2"/>
<path fill-rule="evenodd" clip-rule="evenodd" d="M7 17H6C5.7235 17 5.5 17.224 5.5 17.5C5.5 17.776 5.7235 18 6 18H7C7.2765 18 7.5 17.776 7.5 17.5C7.5 17.224 7.2765 17 7 17Z" fill="#9696A2"/>
<path fill-rule="evenodd" clip-rule="evenodd" d="M9.5 17H9C8.7235 17 8.5 17.224 8.5 17.5C8.5 17.776 8.7235 18 9 18H9.5C9.7765 18 10 17.776 10 17.5C10 17.224 9.7765 17 9.5 17Z" fill="#9696A2"/>
<path fill-rule="evenodd" clip-rule="evenodd" d="M12.5 17H11.5C11.2235 17 11 17.224 11 17.5C11 17.776 11.2235 18 11.5 18H12.5C12.7765 18 13 17.776 13 17.5C13 17.224 12.7765 17 12.5 17Z" fill="#9696A2"/>
<path fill-rule="evenodd" clip-rule="evenodd" d="M14.145 17.145C14.0545 17.24 14 17.37 14 17.5C14 17.63 14.0545 17.76 14.145 17.855C14.2395 17.945 14.37 18 14.5 18C14.63 18 14.76 17.945 14.855 17.855C14.945 17.76 15 17.63 15 17.5C15 17.37 14.945 17.24 14.855 17.145C14.665 16.96 14.3245 16.96 14.145 17.145Z" fill="#9696A2"/>
<path fill-rule="evenodd" clip-rule="evenodd" d="M22.25 12.9735C22.7655 12.6745 23.362 12.5 24 12.5C25.9295 12.5 27.5 14.07 27.5 16C27.5 17.93 25.9295 19.5 24 19.5C23.362 19.5 22.7655 19.3255 22.25 19.0265C21.7345 19.3255 21.138 19.5 20.5 19.5C18.5705 19.5 17 17.93 17 16C17 14.07 18.5705 12.5 20.5 12.5C21.138 12.5 21.7345 12.6745 22.25 12.9735ZM22.25 17.781C22.712 17.327 23 16.697 23 16C23 15.303 22.712 14.673 22.25 14.219C21.788 14.673 21.5 15.303 21.5 16C21.5 16.697 21.788 17.327 22.25 17.781ZM18 16C18 14.6215 19.1215 13.5 20.5 13.5C20.8155 13.5 21.115 13.565 21.3935 13.6725C20.84 14.2915 20.5 15.106 20.5 16C20.5 16.894 20.84 17.7085 21.3935 18.3275C21.115 18.435 20.8155 18.5 20.5 18.5C19.1215 18.5 18 17.3785 18 16ZM23.1065 18.3275C23.385 18.435 23.6845 18.5 24 18.5C25.3785 18.5 26.5 17.3785 26.5 16C26.5 14.6215 25.3785 13.5 24 13.5C23.6845 13.5 23.385 13.565 23.1065 13.6725C23.66 14.2915 24 15.106 24 16C24 16.894 23.66 17.7085 23.1065 18.3275Z" fill="#9696A2"/>
<path fill-rule="evenodd" clip-rule="evenodd" d="M4.1275 11H7.1275H7.8725H10.8725C11.494 11 12 10.494 12 9.8725V5.8725V5.1275C12 4.506 11.494 4 10.8725 4H7.1275H4.1275C3.506 4 3 4.506 3 5.1275V9.8725C3 10.494 3.506 11 4.1275 11ZM6 8H4V7H6V8ZM4 9V9.8725C4 9.943 4.057 10 4.1275 10H6.013C6.01163 9.98832 6.01002 9.97671 6.00842 9.96511C6.00421 9.93453 6 9.90404 6 9.8725V9H4ZM11 8H9V7.1275C9 7.057 9.057 7 9.1275 7H10.8725C10.904 7 10.9345 6.99579 10.9651 6.99158C10.9767 6.98998 10.9883 6.98837 11 6.987V8ZM8.987 10H10.8725C10.943 10 11 9.943 11 9.8725V9H9V9.8725C9 9.90404 8.99579 9.93453 8.99158 9.96511L8.99158 9.96511L8.99157 9.96512C8.98997 9.97671 8.98837 9.98832 8.987 10ZM10.8725 5C10.943 5 11 5.057 11 5.1275V5.8725C11 5.943 10.943 6 10.8725 6H9.1275C8.506 6 8 6.506 8 7.1275V9.8725C8 9.943 7.943 10 7.8725 10H7.1275C7.057 10 7 9.943 7 9.8725V5.1275C7 5.057 7.057 5 7.1275 5H10.8725ZM6.013 5H4.1275C4.057 5 4 5.057 4 5.1275V6H6V5.1275C6 5.09596 6.00421 5.06547 6.00842 5.03489C6.01002 5.02329 6.01163 5.01168 6.013 5Z" fill="#9696A2"/>
</svg>
