<svg width="5" height="18" viewBox="0 0 5 18" fill="none" xmlns="http://www.w3.org/2000/svg">
<path fill-rule="evenodd" clip-rule="evenodd" d="M2.25 11.25C3.49264 11.25 4.5 10.2426 4.5 9C4.5 7.75736 3.49264 6.75 2.25 6.75C1.00736 6.75 0 7.75736 0 9C0 10.2426 1.00736 11.25 2.25 11.25Z" fill="#9696A2"/>
<path fill-rule="evenodd" clip-rule="evenodd" d="M2.25 18C3.49264 18 4.5 16.9926 4.5 15.75C4.5 14.5074 3.49264 13.5 2.25 13.5C1.00736 13.5 0 14.5074 0 15.75C0 16.9926 1.00736 18 2.25 18Z" fill="#9696A2"/>
<path fill-rule="evenodd" clip-rule="evenodd" d="M2.25 4.5C3.49264 4.5 4.5 3.49264 4.5 2.25C4.5 1.00736 3.49264 0 2.25 0C1.00736 0 0 1.00736 0 2.25C0 3.49264 1.00736 4.5 2.25 4.5Z" fill="#9696A2"/>
</svg>
