<svg width="44" height="44" viewBox="0 0 44 44" fill="none" xmlns="http://www.w3.org/2000/svg">
<path fill-rule="evenodd" clip-rule="evenodd" d="M10.6678 19.5127C10.6678 14.6098 14.6457 10.6318 19.5486 10.6318C24.4514 10.6318 28.4294 14.6098 28.4294 19.5127C28.4294 24.4155 24.4514 28.3935 19.5486 28.3935C14.6457 28.3935 10.6678 24.4155 10.6678 19.5127ZM13.8196 19.5127C13.8196 22.6735 16.3878 25.2416 19.5486 25.2416C22.7184 25.2416 25.2776 22.6735 25.2776 19.5127C25.2776 16.3518 22.7094 13.7837 19.5486 13.7837C16.3878 13.7837 13.8196 16.3518 13.8196 19.5127Z" fill="#BCBCCB"/>
<path fill-rule="evenodd" clip-rule="evenodd" d="M9.22204 0H34.778C39.8604 0 44 4.13959 44 9.22204V34.778C44 39.8604 39.8604 44 34.778 44H9.22204C4.13959 44 0 39.8604 0 34.778V9.22204C0 4.13959 4.13959 0 9.22204 0ZM34.778 40.3363C37.84 40.3363 40.3363 37.84 40.3363 34.778V9.22204C40.3363 6.16 37.84 3.66367 34.778 3.66367H9.22204C6.16 3.66367 3.66367 6.16 3.66367 9.22204V34.778C3.66367 37.84 6.16 40.3363 9.22204 40.3363H34.778Z" fill="#BCBCCB"/>
<path fill-rule="evenodd" clip-rule="evenodd" d="M31.68 30.3869C32.2277 29.8212 32.5959 29.3543 32.7935 28.9951C32.991 28.6359 33.0988 28.2498 33.0988 27.8547C33.0988 27.1274 32.8473 26.5527 32.3445 26.1306C31.8416 25.7086 31.258 25.502 30.5935 25.502C29.929 25.502 29.3812 25.6457 28.9502 25.9331C28.5192 26.2204 28.1241 26.6425 27.7649 27.1992L29.1388 28.0163C29.5698 27.3249 30.0277 26.9837 30.5126 26.9837C30.7731 26.9837 30.9975 27.0735 31.1592 27.2441C31.3298 27.4147 31.4106 27.6302 31.4106 27.8906C31.4106 28.151 31.3118 28.4114 31.1143 28.6898C30.9167 28.9682 30.5935 29.3363 30.1445 29.7943L27.8906 32.102V33.3771H33.3143V31.8327H30.2792L31.68 30.3869V30.3869Z" fill="#BCBCCB"/>
</svg>
