<svg id="593d0957-61b5-4a88-b749-1ca5b50818f4" data-name="Capa 1" xmlns="http://www.w3.org/2000/svg" viewBox="0 0 612 612"><title>logo-appointment</title><g id="c88336e2-44b3-45bd-b589-855ae78788a7" data-name="Calendar"><path d="M267.75,459h76.5V382.5h-76.5ZM153,344.25h76.5v-76.5H153ZM153,459h76.5V382.5H153ZM191.25,0h-76.5V76.5h76.5ZM382.5,459H459V382.5H382.5ZM535.5,0V76.5a38.27,38.27,0,0,1-38.25,38.25h-76.5A38.27,38.27,0,0,1,382.5,76.5V0h-153V76.5a38.27,38.27,0,0,1-38.25,38.25h-76.5A38.27,38.27,0,0,1,76.5,76.5V0A76.47,76.47,0,0,0,0,76.5v459A76.47,76.47,0,0,0,76.5,612h459A76.47,76.47,0,0,0,612,535.5V76.5A76.47,76.47,0,0,0,535.5,0Zm0,497.25a38.27,38.27,0,0,1-38.25,38.25H114.75A38.27,38.27,0,0,1,76.5,497.25V229.5a38.27,38.27,0,0,1,38.25-38.25h382.5A38.27,38.27,0,0,1,535.5,229.5Zm-267.75-153h76.5v-76.5h-76.5Zm114.75,0H459v-76.5H382.5ZM497.25,0h-76.5V76.5h76.5Z"/></g></svg>