<svg xmlns="http://www.w3.org/2000/svg" viewBox="0 0 29 29"><title>logo-multiple-calendars</title><path d="M14.5,0A14.5,14.5,0,1,0,29,14.5,14.5,14.5,0,0,0,14.5,0ZM3.94,20c0-4.53,4-4.53,4.86-5.72l.1-.54A4.31,4.31,0,0,1,6.79,9.79c0-2.34,1.51-4.23,3.39-4.23a3.54,3.54,0,0,1,3.19,2.82,5.14,5.14,0,0,0-3.26,5,5.6,5.6,0,0,0,1.73,4.17l-.53.26A7.42,7.42,0,0,0,8.37,20ZM8.26,23.6c0-4.53,4-4.53,4.86-5.72l.1-.54a4.31,4.31,0,0,1-2.11-3.91c0-2.34,1.51-4.23,3.39-4.23s3.39,1.89,3.39,4.23a4.34,4.34,0,0,1-2.08,3.9l.11.61c1,1.13,4.82,1.2,4.82,5.66ZM20.63,20a7.42,7.42,0,0,0-2.94-2.11l-.53-.26a5.6,5.6,0,0,0,1.73-4.17,5.14,5.14,0,0,0-3.26-5,3.54,3.54,0,0,1,3.19-2.82c1.88,0,3.4,1.89,3.4,4.23a4.34,4.34,0,0,1-2.09,3.9l.12.61c1,1.13,4.81,1.2,4.81,5.66Z" fill="#556080"/></svg>