<svg width="14" height="14" viewBox="0 0 14 14" fill="none" xmlns="http://www.w3.org/2000/svg">
<path fill-rule="evenodd" clip-rule="evenodd" d="M4.32928 12.9062C4.35577 13.2416 4.45329 13.5729 4.62259 13.8763C4.64609 13.9185 4.67108 13.9596 4.69693 14H1.64062C0.735931 14 0 13.2641 0 12.3594V1.64062C0 0.735931 0.735931 0 1.64062 0H12.3594C13.2641 0 14 0.735931 14 1.64062V10.2753L12.9062 8.50487V1.64062C12.9062 1.3391 12.6609 1.09375 12.3594 1.09375H1.64062C1.3391 1.09375 1.09375 1.3391 1.09375 1.64062V12.3594C1.09375 12.6609 1.3391 12.9062 1.64062 12.9062H4.32928ZM9.29688 3.55469H4.73047V2.46094H9.29688V3.55469ZM13.8364 13.3434C14.0626 12.9378 14.0517 12.4403 13.8076 12.0448L10.7963 7.17058C10.5613 6.78979 10.1541 6.5625 9.70703 6.5625C9.25992 6.5625 8.85275 6.78979 8.61798 7.17036L5.60622 12.0451C5.36237 12.4403 5.35147 12.9378 5.5778 13.3434C5.80724 13.7545 6.22498 14 6.69548 14H8.06641V12.9062H6.69548C6.60052 12.9062 6.55289 12.8462 6.53291 12.8104C6.51273 12.7743 6.48645 12.7015 6.53687 12.6198L9.54863 7.7449C9.59627 7.66779 9.66837 7.65625 9.70703 7.65625C9.7458 7.65625 9.8179 7.66779 9.86565 7.74522L12.8771 12.6195C12.9276 12.7015 12.9013 12.7743 12.8813 12.8104C12.8613 12.8462 12.8135 12.9062 12.7186 12.9062H11.3477V14H12.7186C13.1891 14 13.6069 13.7545 13.8364 13.3434ZM9.13281 12.9062H10.2266V14H9.13281V12.9062ZM10.2266 9.76172H9.13281V12.0859H10.2266V9.76172Z" fill="#BCBCCB"/>
</svg>
