<svg id="Layer_1" data-name="Layer 1" xmlns="http://www.w3.org/2000/svg" viewBox="0 0 23.95 23.56"><title>logo-hand-over</title><g opacity="0.45"><g opacity="0.45"><path d="M8.61,1.13a.35.35,0,0,0-.35.35h0v.65a.35.35,0,0,0,.35.35A.35.35,0,0,0,9,2.13V1.48a.35.35,0,0,0-.35-.35Z" transform="translate(0 -0.01)"/></g><g opacity="0.45"><path d="M10.24,1.13a.35.35,0,0,0-.35.35h0v.65a.35.35,0,0,0,.35.35.35.35,0,0,0,.35-.35V1.48a.35.35,0,0,0-.35-.35Z" transform="translate(0 -0.01)"/></g><g opacity="0.45"><path d="M11.87,1.13a.35.35,0,0,0-.35.35h0v.65a.35.35,0,0,0,.35.35.35.35,0,0,0,.35-.35V1.48a.35.35,0,0,0-.35-.35Z" transform="translate(0 -0.01)"/></g><g opacity="0.45"><path d="M13.5,1.13a.35.35,0,0,0-.35.35h0v.65a.35.35,0,0,0,.35.35.35.35,0,0,0,.35-.35V1.48a.35.35,0,0,0-.35-.35Z" transform="translate(0 -0.01)"/></g><g opacity="0.45"><path d="M15.13,1.13a.35.35,0,0,0-.35.35h0v.65a.35.35,0,0,0,.35.35.35.35,0,0,0,.35-.35V1.48a.35.35,0,0,0-.35-.35Z" transform="translate(0 -0.01)"/></g><g opacity="0.45"><path d="M23.17,14.72,22.31,16c-.7,1.06-1.42,2.15-2,3.21a8.55,8.55,0,0,1-1.19,1.07l-.08,0a43.81,43.81,0,0,1-5.41,1.82l-1.93.59a2.91,2.91,0,0,1-1.68,0c-1.53-.43-4.48-1-5.95-1.19V15.88l.56-.1c.47-.08.92-.17,1.29-.22a6.72,6.72,0,0,1,3.31.25l.1,0,.18.05.1,0a7,7,0,0,0,2.61.3c1-.13,2.6-.26,3.8-.34.83.07,1.23.38,1.34,1.06a.83.83,0,0,1,0,.13v.06c-1.46.33-3.08.56-4.65.78l-1.91.28c-.11,0-.11-.06-.12-.09a.34.34,0,0,0-.38-.32.36.36,0,0,0-.32.37.8.8,0,0,0,.83.74h.06l1.93-.28c1.68-.24,3.42-.48,5-.86a3.74,3.74,0,0,0,.54-.17l.32-.11a.39.39,0,0,0,.16-.1L22,13.75a.59.59,0,0,1,.45-.18.8.8,0,0,1,.5.18c.1.11.41.61.18,1Zm-16.92,0H17.49v1A2.33,2.33,0,0,0,16,15.19h0c-1.22.07-2.89.21-3.88.34a6.23,6.23,0,0,1-2.33-.28l-.1,0h0l0,0a7.76,7.76,0,0,0-3.35-.39Zm0-7.12H17.49V14H6.25Zm0-.9a1,1,0,0,1,.46-.81l1.72-1a.33.33,0,0,0,.17-.3v-1h6.54v1a.33.33,0,0,0,.17.3L17,5.9a1,1,0,0,1,.46.81v.2H6.25ZM7.53,2.89a.2.2,0,0,1-.2-.2V.91a.2.2,0,0,1,.2-.2H16.2a.2.2,0,0,1,.2.2V2.69a.2.2,0,0,1-.2.2ZM3.36,22.41H.7V15.26H3.36Zm20.17-9.12a1.5,1.5,0,0,0-1-.42,1.31,1.31,0,0,0-1,.41L18.3,16.84l-.11,0V6.71a1.66,1.66,0,0,0-.8-1.41l-1.55-.92V3.6h.37a.91.91,0,0,0,.91-.91V.91a.91.91,0,0,0-.91-.9H7.53a.91.91,0,0,0-.91.9V2.69a.91.91,0,0,0,.91.91H7.9v.78L6.35,5.3a1.66,1.66,0,0,0-.8,1.41V14.9l-1,.19-.44.08a.71.71,0,0,0-.69-.62H.69a.7.7,0,0,0-.69.69v7.19a.69.69,0,0,0,.69.69H3.37a.69.69,0,0,0,.69-.69v-.15c1.49.25,4.3.75,5.76,1.16a3.68,3.68,0,0,0,2.08,0c.56-.18,1.22-.38,1.92-.58A45.8,45.8,0,0,0,19.31,21a2.71,2.71,0,0,0,.92-.69c.32-.3.59-.58.6-.59l.06-.08c.58-1.05,1.31-2.14,2-3.2l.87-1.32A1.6,1.6,0,0,0,23.53,13.29Z" transform="translate(0 -0.01)"/></g><g opacity="0.45"><path d="M14,11.05H12.58a.35.35,0,0,0-.35.35v1.41h-.48V11.4a.35.35,0,0,0-.35-.35H10v-.48H11.4a.35.35,0,0,0,.35-.35h0V8.81h.48v1.41a.35.35,0,0,0,.35.35H14Zm.24-1.19h-1.3V8.56a.45.45,0,0,0-.45-.45h-1a.45.45,0,0,0-.45.45v1.3H9.74a.45.45,0,0,0-.45.45v1a.45.45,0,0,0,.45.44H11v1.31a.45.45,0,0,0,.45.45h1a.45.45,0,0,0,.45-.45V11.74h1.3a.45.45,0,0,0,.45-.44v-1A.45.45,0,0,0,14.23,9.86Z" transform="translate(0 -0.01)"/></g></g></svg>