<svg width="26" height="26" viewBox="0 0 26 26" fill="none" xmlns="http://www.w3.org/2000/svg">
<path fill-rule="evenodd" clip-rule="evenodd" d="M26 13C26 5.83204 20.168 0 13 0C5.83204 0 0 5.83204 0 13C0 16.7861 1.62807 20.1987 4.21956 22.5765L4.20727 22.5874L4.62895 22.9429C4.64322 22.9549 4.65813 22.9658 4.67301 22.9767C4.68673 22.9867 4.70042 22.9968 4.71356 23.0076C4.93764 23.1934 5.16975 23.3697 5.40611 23.5404C5.48269 23.5957 5.55927 23.651 5.63727 23.7049C5.88971 23.8789 6.14876 24.0439 6.41349 24.2003C6.47116 24.2344 6.52931 24.2675 6.58745 24.3005C6.87724 24.4655 7.17316 24.6211 7.47618 24.7638C7.48729 24.769 7.49852 24.774 7.50975 24.7789C7.52097 24.7839 7.5322 24.7889 7.54331 24.7941C8.53084 25.2531 9.58502 25.5901 10.6874 25.7892L10.7744 25.8048C11.1167 25.8639 11.4627 25.9111 11.813 25.9428C11.8345 25.9447 11.856 25.9463 11.8776 25.9478C11.8987 25.9493 11.9198 25.9509 11.9411 25.9527C12.29 25.9816 12.6426 26 13 26C13.3541 26 13.7034 25.9816 14.0504 25.9537C14.0724 25.9518 14.0944 25.9502 14.1163 25.9487C14.1383 25.9472 14.1603 25.9456 14.1823 25.9437C14.5297 25.9121 14.8729 25.8662 15.2119 25.8081L15.2232 25.8061C15.2488 25.8015 15.2747 25.7969 15.3003 25.792C16.3861 25.5972 17.4252 25.2677 18.4 24.8205C18.4149 24.8137 18.4299 24.807 18.4449 24.8002C18.4569 24.7949 18.4688 24.7896 18.4807 24.7841C18.4899 24.78 18.4991 24.7757 18.5082 24.7714C18.7999 24.6343 19.0849 24.4863 19.3643 24.3289C19.4338 24.2897 19.5028 24.25 19.5719 24.2093C19.8262 24.0595 20.0763 23.903 20.3192 23.7366C20.3894 23.6888 20.4583 23.6389 20.5274 23.5889L20.5275 23.5888L20.5788 23.5517C20.7863 23.4024 20.99 23.2483 21.1881 23.0871C21.2078 23.0712 21.2282 23.0562 21.2486 23.0413C21.2736 23.0229 21.2986 23.0045 21.3224 22.9845L21.7549 22.6233L21.7421 22.6124C24.3563 20.2337 26 16.8055 26 13ZM0.945455 13C0.945455 6.35298 6.35298 0.945455 13 0.945455C19.647 0.945455 25.0545 6.35298 25.0545 13C25.0545 16.5819 23.4827 19.8021 20.9943 22.0116C20.8553 21.9156 20.7154 21.8296 20.5721 21.7577L16.5696 19.7567C16.2103 19.5771 15.9872 19.2159 15.9872 18.8145V17.4167C16.0798 17.3023 16.1777 17.1728 16.2788 17.0305C16.7969 16.2987 17.2125 15.4847 17.5155 14.6087C18.1144 14.3241 18.5011 13.7275 18.5011 13.0539V11.3781C18.5011 10.9682 18.3508 10.5707 18.0818 10.2582V8.05196C18.1064 7.80662 18.1934 6.422 17.1917 5.27989C16.3204 4.28527 14.9103 3.78182 13 3.78182C11.0897 3.78182 9.67956 4.28527 8.80833 5.27942C7.80662 6.42153 7.8936 7.80615 7.91818 8.05149V10.2577C7.64967 10.5702 7.49887 10.9677 7.49887 11.3776V13.0534C7.49887 13.5739 7.7324 14.0594 8.13233 14.387C8.51524 15.8869 9.30327 17.0224 9.59447 17.4072V18.7753C9.59447 19.1611 9.38411 19.5156 9.04516 19.7009L5.30731 21.7398C5.18818 21.8045 5.07 21.8802 4.95182 21.9648C2.49411 19.7562 0.945455 16.5559 0.945455 13ZM19.5671 23.1008C19.7378 22.9897 19.9061 22.8734 20.0715 22.7533C20.0895 22.7403 20.1076 22.7275 20.1257 22.7147C20.159 22.6911 20.1924 22.6675 20.2252 22.6427L20.225 22.6426C20.2 22.6294 20.175 22.6162 20.1495 22.6035L16.1469 20.6024C15.4653 20.262 15.0417 19.5766 15.0417 18.8145V17.0659L15.1589 16.9321C15.2625 16.8135 15.383 16.6584 15.5069 16.4835C16.0108 15.7716 16.4079 14.9713 16.6868 14.1048L16.7624 13.8708L16.9974 13.7984C17.3264 13.6968 17.5557 13.3909 17.5557 13.0539V11.3781C17.5557 11.1583 17.4621 10.9531 17.2924 10.7999L17.1364 10.6591L17.1406 7.96404L17.1407 7.96357C17.1437 7.93549 17.2659 6.78895 16.4727 5.89302C15.7872 5.11964 14.6196 4.72727 13 4.72727C11.3743 4.72727 10.2029 5.12295 9.51931 5.902C8.71851 6.81484 8.85796 7.95175 8.85938 7.96309L8.86364 8.02502V10.6581L8.70764 10.799C8.53745 10.9526 8.44433 11.1573 8.44433 11.3771V13.0529C8.44433 13.3181 8.58047 13.564 8.80785 13.711L8.96906 13.8155L9.01207 14.0027C9.39829 15.686 10.4203 16.9293 10.4307 16.9411L10.5395 17.0725L10.5399 18.7753C10.5399 19.5076 10.1405 20.1803 9.49756 20.531L5.75971 22.5699L5.71433 22.5954C5.72496 22.6034 5.73535 22.6117 5.74575 22.62C5.75615 22.6283 5.76656 22.6365 5.7772 22.6446C5.98331 22.7992 6.19509 22.9452 6.40971 23.0856C6.47778 23.1301 6.54633 23.174 6.61535 23.2175C6.8484 23.3631 7.08476 23.5026 7.32633 23.6316C7.34728 23.643 7.36859 23.6538 7.38994 23.6646C7.40326 23.6714 7.41659 23.6782 7.42985 23.6851C7.69458 23.8226 7.96262 23.9531 8.23586 24.0708L8.242 24.0736C8.53084 24.1975 8.82487 24.3095 9.12222 24.4107L9.178 24.4296C9.77695 24.6305 10.392 24.7841 11.0169 24.8886L11.0566 24.8957C11.3521 24.9439 11.6504 24.9794 11.9501 25.0059C11.9886 25.0094 12.0273 25.0122 12.0661 25.0149C12.0788 25.0158 12.0915 25.0167 12.1042 25.0177C12.4015 25.0399 12.7003 25.0545 13 25.0545C13.2964 25.0545 13.5914 25.0404 13.8849 25.0181C13.8975 25.0172 13.91 25.0164 13.9226 25.0155C13.9628 25.0127 14.0028 25.0099 14.0428 25.0063C14.3397 24.9803 14.6356 24.9458 14.9292 24.8981C14.9335 24.8974 14.9377 24.8965 14.942 24.8957C14.9462 24.8949 14.9505 24.8941 14.9547 24.8933C15.2667 24.8418 15.5768 24.7789 15.8832 24.7033C15.8836 24.7033 15.8841 24.7032 15.8846 24.7031C15.8851 24.703 15.8855 24.7028 15.886 24.7028C16.1895 24.6277 16.4897 24.5402 16.7861 24.4419C16.7977 24.4381 16.8092 24.4342 16.8206 24.4302C16.8292 24.4273 16.8376 24.4244 16.8461 24.4216C17.412 24.2311 17.9627 23.9966 18.495 23.7238C18.5137 23.7142 18.5324 23.7047 18.5511 23.6952C18.5839 23.6786 18.6166 23.662 18.6491 23.6449C18.8807 23.522 19.1076 23.3905 19.3308 23.2525C19.4024 23.208 19.4725 23.1623 19.5429 23.1166L19.5671 23.1008Z" fill="#9696A2"/>
</svg>
