<svg width="16" height="16" viewBox="0 0 16 16" fill="none" xmlns="http://www.w3.org/2000/svg">
<path fill-rule="evenodd" clip-rule="evenodd" d="M15.3333 0H0.666667C0.298667 0 0 0.298667 0 0.666667C0 1.03467 0.298667 1.33333 0.666667 1.33333H15.3333C15.7013 1.33333 16 1.03467 16 0.666667C16 0.298667 15.7013 0 15.3333 0Z" fill="#BCBCCB"/>
<path fill-rule="evenodd" clip-rule="evenodd" d="M15.3333 14.6667H0.666667C0.298667 14.6667 0 14.9654 0 15.3334C0 15.7014 0.298667 16 0.666667 16H15.3333C15.7013 16 16 15.7014 16 15.3334C16 14.9654 15.7013 14.6667 15.3333 14.6667Z" fill="#BCBCCB"/>
<path fill-rule="evenodd" clip-rule="evenodd" d="M0.666667 4.99999H10C10.368 4.99999 10.6667 4.70132 10.6667 4.33332C10.6667 3.96532 10.368 3.66666 10 3.66666H0.666667C0.298667 3.66666 0 3.96532 0 4.33332C0 4.70132 0.298667 4.99999 0.666667 4.99999Z" fill="#BCBCCB"/>
<path fill-rule="evenodd" clip-rule="evenodd" d="M15.3333 7.33334H0.666667C0.298667 7.33334 0 7.63201 0 8.00001C0 8.36801 0.298667 8.66668 0.666667 8.66668H15.3333C15.7013 8.66668 16 8.36801 16 8.00001C16 7.63201 15.7013 7.33334 15.3333 7.33334Z" fill="#BCBCCB"/>
<path fill-rule="evenodd" clip-rule="evenodd" d="M0.666667 12.3333H10C10.368 12.3333 10.6667 12.0347 10.6667 11.6667C10.6667 11.2987 10.368 11 10 11H0.666667C0.298667 11 0 11.2987 0 11.6667C0 12.0347 0.298667 12.3333 0.666667 12.3333Z" fill="#BCBCCB"/>
</svg>
