<svg width="16" height="16" viewBox="0 0 16 16" fill="none" xmlns="http://www.w3.org/2000/svg">
<path fill-rule="evenodd" clip-rule="evenodd" d="M0 8C0 3.58862 3.58892 0 8 0C12.4111 0 16 3.58862 16 8C16 12.4114 12.4111 16 8 16C3.58892 16 0 12.4114 0 8ZM8.61538 8.61539H11.8462C12.1858 8.61539 12.4615 8.33969 12.4615 8C12.4615 7.66031 12.1858 7.38462 11.8462 7.38462H8.61538V4.30769C8.61538 3.968 8.33969 3.69231 8 3.69231C7.66031 3.69231 7.38461 3.968 7.38461 4.30769V7.38462H4.15385C3.81415 7.38462 3.53846 7.66031 3.53846 8C3.53846 8.33969 3.81415 8.61539 4.15385 8.61539H7.38461V12C7.38461 12.3397 7.66031 12.6154 8 12.6154C8.33969 12.6154 8.61538 12.3397 8.61538 12V8.61539Z" fill="#2399F1"/>
</svg>
