<svg width="16" height="16" viewBox="0 0 16 16" fill="none" xmlns="http://www.w3.org/2000/svg">
<path fill-rule="evenodd" clip-rule="evenodd" d="M0 0H16V16H0V0ZM8 3.33331C9.10667 3.33331 10 4.22665 10 5.33331C10 6.43998 9.10667 7.33331 8 7.33331C6.89333 7.33331 6 6.43998 6 5.33331C6 4.22665 6.89333 3.33331 8 3.33331ZM4 10.6533C4.86 11.9466 6.33333 12.8 8 12.8C9.66667 12.8 11.14 11.9466 12 10.6533C11.98 9.32665 9.32667 8.59998 8 8.59998C6.66667 8.59998 4.02 9.32665 4 10.6533Z" fill="#2399F1"/>
</svg>
