<svg xmlns="http://www.w3.org/2000/svg" width="90" height="82.242" viewBox="0 0 90 82.242"><g transform="translate(0 -0.775)" opacity="0.805"><path d="M61.4,66.387,46.573,58.976a5.655,5.655,0,0,1-3.125-5.057V48.1a22.162,22.162,0,0,0,1.4-1.8,34.082,34.082,0,0,0,4.607-9.286,4.653,4.653,0,0,0,3.3-4.429V26.379a4.629,4.629,0,0,0-1.552-3.44V13.966S53.049,0,34.138,0,17.069,13.966,17.069,13.966v8.974a4.629,4.629,0,0,0-1.552,3.44v6.207a4.654,4.654,0,0,0,2.146,3.906A30.777,30.777,0,0,0,23.276,48.1v5.672a5.651,5.651,0,0,1-2.947,4.962L6.486,66.29A12.444,12.444,0,0,0,0,77.215v5.026H68.276V77.519A12.448,12.448,0,0,0,61.4,66.387Z" transform="translate(0 0.776)" fill="#3083c9"/><path d="M40.453,60.218,25.287,53.649a4.911,4.911,0,0,1-1.982-2.255,1.307,1.307,0,0,1,1.176-1.881H35.162a16.479,16.479,0,0,0,6.938-.922,3.056,3.056,0,0,0,1.272-4.556c-3.235-4.607-9.925-15.452-10.141-26.654,0,0-.371-17.243-17.382-17.382A19.411,19.411,0,0,0,7.411,1.843a12.326,12.326,0,0,1,.348,4.151v8.974a4.629,4.629,0,0,1,1.552,3.44v6.207a4.653,4.653,0,0,1-3.3,4.429A34.126,34.126,0,0,1,1.4,38.329a22.162,22.162,0,0,1-1.4,1.8v5.816a5.644,5.644,0,0,0,1.269,3.564H5.538a1.125,1.125,0,0,1,.7,2.006c-.289.228-.565.439-.822.63l12.533,6.266a12.453,12.453,0,0,1,6.879,11.134V74.27H46.552V70.085A11.03,11.03,0,0,0,40.453,60.218Z" transform="translate(43.448 8.747)" fill="#cb465f"/></g></svg>