<svg id="5d05b279-334c-4ced-b79c-8d82980b459d" data-name="Capa 1" xmlns="http://www.w3.org/2000/svg" viewBox="0 0 612 612"><title>logo-create-task</title><g id="c2c6dac7-2be9-4595-9ef8-60923b361b1d" data-name="Google+"><path d="M76.5,497.25v-153H0V535.5A76.47,76.47,0,0,0,76.5,612H267.75V535.5h-153A38.27,38.27,0,0,1,76.5,497.25ZM344.25,459V344.25H459v-76.5H344.25V153h-76.5V267.75H153v76.5H267.75V459ZM76.5,114.75A38.27,38.27,0,0,1,114.75,76.5h153V0H76.5A76.47,76.47,0,0,0,0,76.5V267.75H76.5Zm459,382.5a38.27,38.27,0,0,1-38.25,38.25h-153V612H535.5A76.47,76.47,0,0,0,612,535.5V344.25H535.5ZM535.5,0H344.25V76.5h153a38.27,38.27,0,0,1,38.25,38.25v153H612V76.5A76.47,76.47,0,0,0,535.5,0Z"/></g></svg>