<svg id="Layer_1" data-name="Layer 1" xmlns="http://www.w3.org/2000/svg" viewBox="0 0 23.99 23.95"><title>logo-injection</title><g opacity="0.45"><g opacity="0.45"><path id="dti9a" d="M4.55,18.46l.29-.82L6.42,19.2l-.83.28a.17.17,0,0,1-.17,0l-.83-.83A.16.16,0,0,1,4.55,18.46ZM13.43,7,17,10.59l-.81.81-.62-.63a.36.36,0,0,0-.5,0,.35.35,0,0,0,0,.47l.62.62-.84.84-.62-.62a.35.35,0,0,0-.5.5l.63.62-.84.84-.62-.62a.36.36,0,0,0-.5,0,.35.35,0,0,0,0,.47l.62.62-.84.84-.62-.62a.35.35,0,1,0-.53.46l0,0,.62.62-.83.84-.63-.62a.35.35,0,0,0-.49,0,.35.35,0,0,0,0,.47l.62.63-.84.83-.62-.62a.36.36,0,0,0-.5,0,.34.34,0,0,0,0,.48l.62.62-.51.51a.87.87,0,0,1-1.23,0L4.94,16.73a.87.87,0,0,1,0-1.23h0Zm1.1-1.1,3.58,3.58-.59.59L13.93,6.51Zm.18-1.73a.21.21,0,0,1,.28,0L19.85,9a.19.19,0,0,1,0,.28h0l-.32.31a.19.19,0,0,1-.28,0h0L14.39,4.78a.19.19,0,0,1,0-.28h0ZM.6,23.87l4.12-4.12.21.2a.86.86,0,0,0,.89.21L7,19.75a1.57,1.57,0,0,0,2-.17L18.61,10l.13.14a.91.91,0,0,0,1.28,0l.32-.32a.9.9,0,0,0,0-1.27l-1-1,.76-.76a.34.34,0,0,0,0-.49.35.35,0,0,0-.5,0h0l-.76.75L17,5.16l2.58-2.59,1.91,1.91-.67.66a.37.37,0,0,0,0,.5.35.35,0,0,0,.5,0h0L22,5l.2.2a.9.9,0,0,0,1.27,0h0l.32-.32a.9.9,0,0,0,0-1.27l-1-1a.35.35,0,0,0-.49,0,.35.35,0,0,0,0,.47l1,1a.21.21,0,0,1,0,.29h0l-.32.31a.19.19,0,0,1-.28,0l-3.3-3.3a.19.19,0,0,1,0-.28l.31-.32a.21.21,0,0,1,.29,0l1.14,1.14a.34.34,0,0,0,.49,0,.35.35,0,0,0,0-.5h0L20.43.28a.9.9,0,0,0-1.27,0h0L18.84.6a.9.9,0,0,0,0,1.27l.2.2L16.46,4.66l-1-1a.88.88,0,0,0-1.27,0h0L13.89,4a.91.91,0,0,0,0,1.28h0l.14.13L4.44,15a1.58,1.58,0,0,0-.15,2.06l-.4,1.17a.86.86,0,0,0,.2.89l.13.13L.1,23.37a.36.36,0,0,0,0,.5.34.34,0,0,0,.48,0Z" transform="translate(-0.01 -0.02)"/></g></g></svg>