<svg id="5593519a-c168-49e6-a038-b2b393ab7d8b" data-name="Capa 1" xmlns="http://www.w3.org/2000/svg" viewBox="0 0 512 438.85"><title>logo-consultation</title><path d="M18.86,128.57Q0,147.42,0,173.71V411.43q0,26.28,18.86,45.14T64,475.43h9.14V109.71H64Q37.71,109.71,18.86,128.57Z" transform="translate(0 -36.57)" fill="#fff"/><path d="M365.71,64a27.31,27.31,0,0,0-27.42-27.43H173.72A27.31,27.31,0,0,0,146.29,64v45.71H100.57V475.43H411.43V109.71H365.71V64ZM182.86,73.14H329.14v36.57H182.86ZM365.71,320a8.8,8.8,0,0,1-9.13,9.14h-64v64a8.81,8.81,0,0,1-9.14,9.14H228.58a8.8,8.8,0,0,1-9.14-9.14v-64h-64a8.8,8.8,0,0,1-9.15-9.14V265.14a8.8,8.8,0,0,1,9.14-9.14h64V192a8.8,8.8,0,0,1,9.14-9.14h54.86a8.8,8.8,0,0,1,9.14,9.14v64h64a8.8,8.8,0,0,1,9.14,9.14V320Z" transform="translate(0 -36.57)" fill="#fff"/><path d="M493.14,128.57Q474.29,109.72,448,109.71h-9.14V475.43H448q26.28,0,45.14-18.86T512,411.43V173.71Q512,147.43,493.14,128.57Z" transform="translate(0 -36.57)" fill="#fff"/></svg>