<svg xmlns="http://www.w3.org/2000/svg" xmlns:xlink="http://www.w3.org/1999/xlink" viewBox="0 0 612 612"><defs><style>.a{clip-path:url(#b);}.b{fill:#fff;}</style><clipPath id="b"><rect width="612" height="612"/></clipPath></defs><g id="a" class="a"><rect class="b" width="612" height="612"/><path d="M535.5,114.75H420.75V76.5A76.479,76.479,0,0,0,344.25,0h-76.5a76.479,76.479,0,0,0-76.5,76.5v38.25H76.5A76.479,76.479,0,0,0,0,191.25V535.5A76.479,76.479,0,0,0,76.5,612h459A76.478,76.478,0,0,0,612,535.5V191.25A76.479,76.479,0,0,0,535.5,114.75ZM267.75,95.625A19.132,19.132,0,0,1,286.875,76.5h38.25A19.132,19.132,0,0,1,344.25,95.625V114.75h-76.5ZM535.5,497.25a38.264,38.264,0,0,1-38.25,38.25H114.75A38.264,38.264,0,0,1,76.5,497.25V382.5h153a38.264,38.264,0,0,0,38.25,38.25h76.5A38.264,38.264,0,0,0,382.5,382.5h153Zm0-153h-153A38.264,38.264,0,0,0,344.25,306h-76.5a38.264,38.264,0,0,0-38.25,38.25H76.5V229.5a38.264,38.264,0,0,1,38.25-38.25h382.5A38.264,38.264,0,0,1,535.5,229.5Z"/></g></svg>