<svg id="temp" xmlns="http://www.w3.org/2000/svg" viewBox="0 0 898.69 898.69"><title>logo-temp</title><g id="Group_1" data-name="Group 1"><path id="Path_1" data-name="Path 1" d="M224.67,505.52H168.5v56.16H112.34v56.17H168.5V674h56.17V617.85h56.17V561.68H224.67Z" transform="translate(0 0)"/><path id="Path_2" data-name="Path 2" d="M112.34,393.18H224.67V280.84H337V168.51H224.67V56.17H112.34V168.51H0V280.84H112.34Z" transform="translate(0 0)"/><path id="Path_3" data-name="Path 3" d="M674,140.42a140.42,140.42,0,1,0-280.84,0V564.86A195.59,195.59,0,0,0,337,702.1c0,108.6,88,196.59,196.59,196.59S730.05,811,730.18,702.58A196.32,196.32,0,0,0,674,564.86V140.42ZM533.6,842.52a96.1,96.1,0,0,1-17-1.64c-69.44-8.56-123.41-67-123.41-138.78,0-45.74,22.27-86,56.17-111.67v-450a84.25,84.25,0,0,1,168.5,0v450C651.8,616.1,674,656.36,674,702.1a140.41,140.41,0,0,1-140.4,140.42Z" transform="translate(0 0)"/><path id="Path_4" data-name="Path 4" d="M561.68,623V224.67H505.52V623a84.11,84.11,0,1,0,112.33,79.1C617.85,665.46,594.32,634.64,561.68,623Z" transform="translate(0 0)"/><path id="Path_5" data-name="Path 5" d="M842.52,168.51V112.34H786.36v56.17H730.19v56.16h56.17v56.17h56.16V224.67h56.17V168.51Z" transform="translate(0 0)"/></g></svg>