<svg width="36" height="25" viewBox="0 0 36 25" fill="none" xmlns="http://www.w3.org/2000/svg">
<path fill-rule="evenodd" clip-rule="evenodd" d="M34.8233 11.6868H31.8759C33.1012 9.02639 32.9687 6.87273 32.5051 5.41584C31.7103 2.81877 29.0279 0 25.0539 0C23.9941 0 22.9344 0.190029 21.8415 0.570088C19.9539 1.23519 18.6955 1.96364 18.1325 2.34369C17.5695 1.96364 16.3442 1.23519 14.4234 0.570088C13.3306 0.190029 12.2377 0 11.2111 0C7.2371 0 4.55466 2.81877 3.75986 5.41584C3.29622 6.96774 3.13064 9.31144 4.68712 12.2569H1.11052C0.812474 12.2569 0.580658 12.4786 0.580658 12.7636C0.580658 13.0487 0.812474 13.2704 1.11052 13.2704H5.31634C5.48192 13.5554 5.68062 13.8405 5.91244 14.1255C9.35657 18.8762 16.8409 24.0387 18.1987 24.3554V24.3871C18.1987 24.3871 18.2318 24.3871 18.2649 24.3554H18.3643V24.3238C19.5234 23.7853 26.7097 19.3513 30.485 14.0938C30.8493 13.6188 31.1473 13.1437 31.4123 12.6686H34.8895C35.1875 12.6686 35.4194 12.4469 35.4194 12.1619C35.4194 11.8768 35.1213 11.6868 34.8233 11.6868ZM29.5246 13.5554C26.0284 18.4448 19.6084 22.3916 18.1826 23.2681L18.1656 23.2786C16.7416 22.4235 10.317 18.4328 6.77347 13.5554L6.57477 13.2704H11.4429C11.6416 13.2704 11.8403 13.1754 11.9397 12.9853L14.1585 8.80469L17.6357 17.3243C17.702 17.5144 17.9338 17.6411 18.1325 17.6411H18.1656C18.3974 17.6411 18.5961 17.4827 18.6623 17.261L21.7091 7.28446L23.3318 12.3202C23.398 12.5103 23.5636 12.637 23.7623 12.6686C23.961 12.7003 24.1597 12.6053 24.2922 12.4469L25.5837 10.6416L26.6766 12.4152C26.7759 12.5736 26.9415 12.6686 27.1402 12.6686H30.1207C29.922 12.9853 29.7233 13.2704 29.5246 13.5554ZM27.4714 11.6868H30.7168C31.7765 9.56481 32.0746 7.53783 31.5116 5.70088C30.8162 3.4522 28.498 1.04516 25.087 1.04516C24.1597 1.04516 23.1993 1.20352 22.2389 1.55191C19.7883 2.40704 18.4968 3.38886 18.4968 3.38886C18.2981 3.54721 18.0331 3.54721 17.8344 3.38886C17.8296 3.38886 17.7977 3.36779 17.7393 3.32915C17.3988 3.10396 16.1557 2.28179 14.0922 1.55191C13.1319 1.23519 12.1715 1.04516 11.2442 1.04516C7.80009 1.04516 5.51504 3.4522 4.81959 5.70088C4.22349 7.69619 4.58777 9.9132 5.91244 12.2252H11.178L13.7942 7.31613C13.8935 7.1261 14.0591 7.03109 14.2909 7.03109C14.4896 7.03109 14.6883 7.15777 14.7546 7.3478L18.0994 15.5191L21.1792 5.35249C21.2454 5.13079 21.4773 4.97243 21.7091 4.97243C21.9409 5.00411 22.1727 5.13079 22.2389 5.35249L24.0604 11.0217L25.1863 9.43812C25.2857 9.27977 25.4513 9.21642 25.65 9.21642C25.8487 9.21642 26.0142 9.31144 26.1136 9.46979L27.4714 11.6868Z" fill="#B2B2B2"/>
</svg>
