<svg id="83094c45-ab19-47d7-aae0-d3c262c4baca" data-name="Capa 1" xmlns="http://www.w3.org/2000/svg" viewBox="0 0 32 32"><title>logo-full-screen</title><g id="ad6ba640-8755-4fbf-99ca-c4d948f6669d" data-name="fullscreen"><polygon points="27.41 24.59 22.83 20 20 22.83 24.59 27.41 20 32 32 32 32 20 27.41 24.59" fill="#030104"/><polygon points="12 0 0 0 0 12 4.59 7.41 9.13 11.95 11.96 9.13 7.41 4.59 12 0" fill="#030104"/><polygon points="12 22.83 9.17 20 4.59 24.59 0 20 0 32 12 32 7.41 27.41 12 22.83" fill="#030104"/><polygon points="32 0 20 0 24.59 4.59 20.04 9.13 22.87 11.95 27.41 7.41 32 12 32 0" fill="#030104"/></g></svg>