<svg id="Layer_1" data-name="Layer 1" xmlns="http://www.w3.org/2000/svg" viewBox="0 0 19.97 19.87"><title>logo-pencil</title><path d="M19.4,12.08a.52.52,0,0,0-.52.52h0v4.65a1.58,1.58,0,0,1-1.57,1.57H2.62a1.57,1.57,0,0,1-1.57-1.57V3.61A1.57,1.57,0,0,1,2.62,2H7.27a.53.53,0,0,0,0-1H2.62A2.62,2.62,0,0,0,0,3.61V17.25a2.62,2.62,0,0,0,2.62,2.62H17.31a2.63,2.63,0,0,0,2.62-2.62V12.6a.52.52,0,0,0-.53-.52Z" transform="translate(0 0)" fill="#8d9eb3"/><path d="M8.19,9.32l7.64-7.64L18.3,4.14l-7.65,7.65Z" transform="translate(0 0)" fill="#8d9eb3"/><path d="M6.94,13l2.72-.76-2-2Z" transform="translate(0 0)" fill="#8d9eb3"/><path d="M19,.38a1.31,1.31,0,0,0-1.85,0l-.56.56L19,3.4l.55-.55a1.31,1.31,0,0,0,0-1.85Z" transform="translate(0 0)" fill="#8d9eb3"/></svg>