<svg width="29" height="32" viewBox="0 0 29 32" fill="none" xmlns="http://www.w3.org/2000/svg">
<path fill-rule="evenodd" clip-rule="evenodd" d="M26.7348 4.45308C27.3377 4.45308 27.86 4.67345 28.3002 5.11411C28.7406 5.55478 28.9608 6.07654 28.9609 6.67969V28.9447C28.9609 29.5472 28.7405 30.0693 28.2997 30.5101C27.8596 30.9507 27.3373 31.171 26.7343 31.171H2.24342C1.64021 31.171 1.11845 30.9506 0.677845 30.5101C0.237179 30.0692 0.0168152 29.5473 0.0168152 28.9447V6.67975C0.0168152 6.07678 0.237179 5.55478 0.677845 5.11417C1.11851 4.67351 1.64027 4.45315 2.24342 4.45315H4.46972V2.78321C4.46972 2.018 4.74241 1.3627 5.28738 0.817727C5.83247 0.272637 6.48771 0 7.25305 0H8.3662C9.13171 0 9.78689 0.272637 10.3319 0.817727C10.877 1.36276 11.1496 2.018 11.1496 2.78321V4.45315H17.8287V2.78321C17.8287 2.018 18.1012 1.3627 18.6465 0.817727C19.1915 0.272637 19.8466 0 20.6121 0H21.7251C22.4907 0 23.1455 0.272637 23.6908 0.817666C24.2358 1.3627 24.5085 2.01794 24.5085 2.78315V4.45308H26.7348ZM20.2115 2.3833C20.1072 2.48742 20.0555 2.62091 20.0555 2.78339V7.79284C20.0555 7.95526 20.1072 8.08844 20.2115 8.19293C20.3157 8.29729 20.4491 8.34938 20.6118 8.34938H21.7247C21.8874 8.34938 22.0203 8.29705 22.125 8.19293C22.2293 8.0885 22.2814 7.95526 22.2814 7.79284V2.78339C22.2814 2.62109 22.2293 2.4876 22.125 2.3833C22.0204 2.27888 21.8874 2.22685 21.7247 2.22685H20.6118C20.4491 2.22685 20.3157 2.27906 20.2115 2.3833ZM6.6965 2.78339C6.6965 2.62091 6.74859 2.48742 6.85296 2.3833C6.95738 2.27906 7.09062 2.22685 7.25305 2.22685H8.3662C8.52868 2.22685 8.66217 2.27888 8.76629 2.3833C8.87053 2.4876 8.92286 2.62109 8.92286 2.78339V7.79284C8.92286 7.95526 8.87077 8.08869 8.76629 8.19293C8.66192 8.29705 8.52868 8.34938 8.3662 8.34938H7.25305C7.09062 8.34938 6.9572 8.29729 6.85296 8.19293C6.74884 8.08844 6.6965 7.95526 6.6965 7.79284V2.78339ZM2.24342 28.9444H26.7343V11.1326H2.24342V28.9444Z" fill="#BCBCCB"/>
</svg>
