<svg xmlns="http://www.w3.org/2000/svg" viewBox="0 0 611.997 612.115"><g transform="translate(-0.059)"><path d="M576.278,95.72,516.367,35.79A121.024,121.024,0,0,0,430.346.325c-3.176,0-6.352.115-9.526.364V0H191.3V.689c-3.156-.249-6.351-.364-9.526-.364A121.024,121.024,0,0,0,95.75,35.79L35.839,95.72a122.217,122.217,0,0,0,0,172.808l1.741,1.741a122.147,122.147,0,0,0,172.77,0l6.332-6.332A113.249,113.249,0,0,0,304.9,306.058H307.2a113.315,113.315,0,0,0,88.24-42.121l6.313,6.332a122.147,122.147,0,0,0,172.77,0l1.741-1.741A122.2,122.2,0,0,0,576.278,95.72Zm-54.1,118.693-1.74,1.741a45.673,45.673,0,0,1-64.6.019l-6.313-6.332-54.075-54.077a7.58,7.58,0,0,0-11.248.593l-48.186,59.394A37.015,37.015,0,0,1,307.2,229.543H304.9a36.976,36.976,0,0,1-28.827-13.811l-47.286-58.285a8.873,8.873,0,0,0-13.161-.689L162.585,209.84l-6.313,6.332a45.7,45.7,0,0,1-64.6,0l-1.741-1.741a45.7,45.7,0,0,1,0-64.6L149.845,89.9a44.959,44.959,0,0,1,31.926-13.065c1.224,0,8.3-.421,9.526-.325H420.8c1.225-.1,8.3.325,9.526.325a44.982,44.982,0,0,1,31.926,13.046l59.911,59.93A45.678,45.678,0,0,1,522.183,214.413Zm-24.5,168.159h-.765a37.874,37.874,0,0,0-37.875,37.874V516.47A19.134,19.134,0,0,1,439.91,535.6H172.168a19.135,19.135,0,0,1-19.129-19.129V420.446a37.862,37.862,0,0,0-37.875-37.874H114.4a37.875,37.875,0,0,0-37.875,37.874V574.24A37.863,37.863,0,0,0,114.4,612.115h383.26a37.875,37.875,0,0,0,37.874-37.875V420.446A37.832,37.832,0,0,0,497.679,382.572Z"/></g></svg>