<svg id="1bfdec45-69d4-4f3e-84b1-f55a10e2549b" data-name="Capa 1" xmlns="http://www.w3.org/2000/svg" viewBox="0 0 612 612"><title>logo-picture</title><g id="4ca6e3e6-6cbe-4b86-898d-9f47003da5fb" data-name="Picture"><path d="M535.5,0H76.5A76.47,76.47,0,0,0,0,76.5v459A76.47,76.47,0,0,0,76.5,612h459A76.47,76.47,0,0,0,612,535.5V76.5A76.47,76.47,0,0,0,535.5,0Zm0,497.25a38.27,38.27,0,0,1-38.25,38.25H114.75A38.27,38.27,0,0,1,76.5,497.25V114.75A38.27,38.27,0,0,1,114.75,76.5h382.5a38.27,38.27,0,0,1,38.25,38.25ZM210.38,267.75A57.38,57.38,0,1,0,153,210.38,57.39,57.39,0,0,0,210.38,267.75Zm57.37,153-38.25-76.5L153,459H459L382.5,229.5Z"/></g></svg>