<svg width="18" height="18" viewBox="0 0 18 18" fill="none" xmlns="http://www.w3.org/2000/svg">
<path fill-rule="evenodd" clip-rule="evenodd" d="M1.58203 0H16.418C17.2903 0 18 0.709717 18 1.58203V16.418C18 17.2903 17.2903 18 16.418 18H1.58203C0.709717 18 0 17.2903 0 16.418V1.58203C0 0.709717 0.709717 0 1.58203 0ZM16.418 16.9453C16.7087 16.9453 16.9453 16.7087 16.9453 16.418V1.58203C16.9453 1.29131 16.7087 1.05469 16.418 1.05469H1.58203C1.29131 1.05469 1.05469 1.29131 1.05469 1.58203V16.418C1.05469 16.7087 1.29131 16.9453 1.58203 16.9453H16.418Z" fill="#1F89D8"/>
<path fill-rule="evenodd" clip-rule="evenodd" d="M9 2.17969C11.2109 2.17969 13.3141 2.88062 15.082 4.20653C15.194 4.29057 15.268 4.41568 15.2876 4.55411C15.3074 4.69267 15.2713 4.83344 15.1871 4.94536L12.4033 8.64885C12.2285 8.88148 11.8982 8.92859 11.6654 8.75391C10.8906 8.17287 9.96885 7.86566 9 7.86566C8.031 7.86566 7.10939 8.17287 6.33458 8.75391C6.23968 8.82504 6.12858 8.85938 6.01858 8.85938C5.85846 8.85938 5.70025 8.78673 5.59657 8.64885L2.81277 4.94536C2.72873 4.83344 2.69261 4.69267 2.71225 4.55411C2.73202 4.41554 2.80604 4.29057 2.91797 4.20653C4.68594 2.88062 6.78914 2.17969 9 2.17969ZM9.52734 6.83624C10.3579 6.91479 11.1506 7.17847 11.8619 7.6138L14.0179 4.74554C12.528 3.75526 10.804 3.23438 9 3.23438C7.19604 3.23438 5.47201 3.75526 3.98213 4.74554L6.13806 7.6138C6.84942 7.17847 7.64209 6.91479 8.47265 6.83624V5.22894C8.47265 4.93767 8.70872 4.7016 9 4.7016C9.29127 4.7016 9.52734 4.93767 9.52734 5.22894V6.83624Z" fill="#1F89D8"/>
</svg>
