<svg width="19" height="19" viewBox="0 0 19 19" fill="none" xmlns="http://www.w3.org/2000/svg">
<path fill-rule="evenodd" clip-rule="evenodd" d="M14.7778 0H2.11111C0.95 0 0 0.95 0 2.11111V16.8889C0 18.05 0.95 19 2.11111 19H16.8889C18.05 19 19 18.05 19 16.8889V4.22222L14.7778 0ZM9.5 16.8889C7.70556 16.8889 6.33333 15.5167 6.33333 13.7222C6.33333 11.9278 7.70556 10.5556 9.5 10.5556C11.2944 10.5556 12.6667 11.9278 12.6667 13.7222C12.6667 15.5167 11.2944 16.8889 9.5 16.8889ZM2.11111 6.33333H12.6667V2.11111H2.11111V6.33333Z" fill="#9C9C9C"/>
</svg>
