<svg width="47" height="44" viewBox="0 0 47 44" fill="none" xmlns="http://www.w3.org/2000/svg">
<path fill-rule="evenodd" clip-rule="evenodd" d="M19.9484 15.3416C19.4914 14.3539 18.7072 13.4901 17.4232 13.1636C17.2194 13.1117 16.9992 13.0858 16.7687 13.0858C13.1029 13.0858 6.60463 19.721 3.46011 25.4296C0.713265 30.416 -0.406735 35.3593 0.130949 40.1214C0.367581 42.2173 2.81948 43.9222 5.59674 43.9222C7.03432 43.9222 9.76095 43.4539 12.0684 40.3618C12.5991 40.4154 13.1101 40.4426 13.5916 40.4426C13.5919 40.4426 13.5919 40.4426 13.5922 40.4426C15.8857 40.4426 17.6433 39.8318 18.8163 38.6268C20.5975 36.7975 20.4959 33.8242 20.4959 33.0065C20.4959 32.1888 20.5012 21.6795 20.5012 20.9578C20.5012 20.9318 20.5046 20.9032 20.5101 20.8733C20.2638 19.0448 20.3174 17.1645 19.966 15.3326C19.9549 15.3383 19.9484 15.3416 19.9484 15.3416Z" fill="#BCBCCB"/>
<path fill-rule="evenodd" clip-rule="evenodd" d="M43.0738 25.4295C39.9297 19.7209 33.4311 13.0857 29.7651 13.0857C29.5349 13.0857 29.3148 13.1116 29.1111 13.1635C27.8269 13.49 27.0425 14.3539 26.5855 15.3415C26.5855 15.3415 26.5741 15.3355 26.5543 15.3245C26.6394 17.2473 26.4132 19.163 26.0325 21.0196C26.0308 22.2062 26.038 32.1608 26.038 33.0065C26.038 33.869 25.9364 36.7975 27.7175 38.6268C28.8907 39.8318 30.6483 40.4426 32.9417 40.4426C32.9421 40.4426 32.9421 40.4426 32.9424 40.4426C33.4239 40.4426 33.9351 40.4155 34.4658 40.3618C36.7733 43.4539 39.4996 43.9222 40.9374 43.9222C43.7145 43.9222 46.1665 42.2172 46.4034 40.1214C46.9407 35.3592 45.8205 30.4159 43.0738 25.4295Z" fill="#BCBCCB"/>
<path fill-rule="evenodd" clip-rule="evenodd" d="M26.5543 15.3246C26.3795 15.2274 25.5174 14.717 25.5174 14.1088C25.5174 13.4321 25.5174 1.20105 25.5174 0.719362C25.5174 0.237678 25.1723 0.0856781 24.8837 0.0856781C24.5951 0.0856781 22.0832 0.0856781 21.6548 0.0856781C21.2268 0.0856781 21.0165 0.236099 21.0165 0.719362C21.0165 1.20263 21.0165 13.3944 21.0165 14.1088C21.0165 14.7698 20.1028 15.2625 19.966 15.3326C20.3174 17.1644 20.2638 19.0448 20.5101 20.8733C20.6547 20.0709 22.6739 17.9096 23.267 17.9096C23.8823 17.9096 26.0347 20.1126 26.0325 20.9578C26.0325 20.9743 26.0324 20.9959 26.0324 21.0196C26.4133 19.163 26.6394 17.2474 26.5543 15.3246Z" fill="#9696A2"/>
</svg>
