<svg width="18" height="5" viewBox="0 0 18 5" fill="none" xmlns="http://www.w3.org/2000/svg">
<path fill-rule="evenodd" clip-rule="evenodd" d="M6.75 2.25C6.75 3.49264 7.75736 4.5 9 4.5C10.2426 4.5 11.25 3.49264 11.25 2.25C11.25 1.00736 10.2426 0 9 0C7.75736 0 6.75 1.00736 6.75 2.25Z" fill="#BCBCCB"/>
<path fill-rule="evenodd" clip-rule="evenodd" d="M0 2.25C0 3.49264 1.00736 4.5 2.25 4.5C3.49264 4.5 4.5 3.49264 4.5 2.25C4.5 1.00736 3.49264 0 2.25 0C1.00736 0 0 1.00736 0 2.25Z" fill="#BCBCCB"/>
<path fill-rule="evenodd" clip-rule="evenodd" d="M13.5 2.25C13.5 3.49264 14.5074 4.5 15.75 4.5C16.9926 4.5 18 3.49264 18 2.25C18 1.00736 16.9926 0 15.75 0C14.5074 0 13.5 1.00736 13.5 2.25Z" fill="#BCBCCB"/>
</svg>
