<svg xmlns="http://www.w3.org/2000/svg" viewBox="0 0 26.6 19"><title>logo-mail</title><path d="M13.3,13.3,10,10.42.6,18.49A1.94,1.94,0,0,0,1.91,19H24.69a1.94,1.94,0,0,0,1.3-.51l-9.4-8.07Z" transform="translate(0 0)" fill="#bcbccb"/><path d="M26,.51A2,2,0,0,0,24.68,0H1.91A1.91,1.91,0,0,0,.6.52L13.3,11.4Z" transform="translate(0 0)" fill="#bcbccb"/><path d="M0,1.67V17.45l9.18-7.8Z" transform="translate(0 0)" fill="#bcbccb"/><path d="M17.42,9.65l9.18,7.8V1.66Z" transform="translate(0 0)" fill="#bcbccb"/></svg>