<svg id="e65643d2-7bba-40c5-b1ed-6668b910c6ec" data-name="Capa 1" xmlns="http://www.w3.org/2000/svg" viewBox="0 0 472.44 512"><title>logo-list</title><path d="M492.22,35a35,35,0,0,0-35-35H54.74a35,35,0,0,0-35,35V477a35,35,0,0,0,35,35H457.26a35,35,0,0,0,35-35V35ZM206,463.13h-114V358.4H206Zm0-155.93h-114V204.8H206Zm0-153.6h-114V48.87H206Zm131,311-61.23-61.22,26.08-26.07L337,412.44l55-55,26.07,26.08Zm0-155-61.23-61.22,26.08-26.08L337,257.44l55-55,26.07,26.08Zm0-155L275.77,93.38,301.85,67.3,337,102.44l55-55,26.07,26.08Z" transform="translate(-19.78 0)" fill="#fff"/></svg>