<svg width="23" height="19" viewBox="0 0 23 19" fill="none" xmlns="http://www.w3.org/2000/svg"><path fill-rule="evenodd" clip-rule="evenodd" d="M21.5184 7.71205L21.554 7.71984H6.29725L11.0934 2.91312C11.3283 2.67844 11.4571 2.36054 11.4571 2.02688C11.4571 1.69322 11.3283 1.37755 11.0934 1.14232L10.3471 0.395664C10.1125 0.16099 9.79974 0.0312343 9.46627 0.0312343C9.13261 0.0312343 8.81971 0.160064 8.58504 0.394737L0.363507 8.61553C0.127907 8.85113 -0.000921863 9.16495 4.9662e-06 9.4988C-0.000921863 9.83449 0.127907 10.1485 0.363507 10.3837L8.58504 18.6053C8.81971 18.8398 9.13242 18.9688 9.46627 18.9688C9.79974 18.9688 10.1125 18.8396 10.3471 18.6053L11.0934 17.8586C11.3283 17.6243 11.4571 17.3114 11.4571 16.9778C11.4571 16.6443 11.3283 16.3479 11.0934 16.1134L6.24313 11.2798H21.5354C22.2226 11.2798 22.8 10.6875 22.8 10.0008V8.94474C22.8 8.25796 22.2055 7.71205 21.5184 7.71205Z" fill="#9C9C9C"/></svg>
