<svg xmlns="http://www.w3.org/2000/svg" width="40" height="40" viewBox="0 0 40 40"><path d="M32.579,40a1.564,1.564,0,0,1-1.562-1.562v-4.3h-4.3a1.562,1.562,0,1,1,0-3.125h4.3v-4.3a1.562,1.562,0,1,1,3.125,0v4.3h4.3a1.562,1.562,0,1,1,0,3.125h-4.3v4.3A1.564,1.564,0,0,1,32.579,40Zm-14.3,0H4.692A4.687,4.687,0,0,1,.23,33.876,14.6,14.6,0,0,1,3.7,28.166a15.505,15.505,0,0,1,5.6-3.639A7.965,7.965,0,1,1,22.085,15.7a14.808,14.808,0,0,1,2.752-1.581c.219-.1.438-.186.65-.267a7.968,7.968,0,1,1,10.727.017,14.9,14.9,0,0,1,3.118,1.664,1.562,1.562,0,1,1-1.788,2.562,11.761,11.761,0,0,0-14.912,1.22,7.936,7.936,0,0,1-2.587,5.247,14.859,14.859,0,0,1,3.117,1.663,1.563,1.563,0,0,1-.9,2.845,1.549,1.549,0,0,1-.892-.282,11.683,11.683,0,0,0-6.718-2.107A12.055,12.055,0,0,0,3.2,34.833a1.564,1.564,0,0,0,1.488,2.042H18.284a1.562,1.562,0,1,1,0,3.125ZM14.691,13.819a4.843,4.843,0,1,0,4.843,4.843A4.849,4.849,0,0,0,14.691,13.819ZM30.86,3.125A4.844,4.844,0,1,0,35.7,7.969,4.849,4.849,0,0,0,30.86,3.125Z" transform="translate(0)" fill="#7a62ec"/></svg>