<svg id="Layer_1" data-name="Layer 1" xmlns="http://www.w3.org/2000/svg" viewBox="0 0 26 26.91"><title>logo-calendar-3</title><path d="M22.74,20.05H20.3V17.61a.58.58,0,1,0-1.15,0h0v2.44H16.71a.57.57,0,0,0,0,1.14h2.44v2.44a.58.58,0,0,0,.57.58.59.59,0,0,0,.58-.58h0V21.19h2.44a.57.57,0,0,0,0-1.14Z" transform="translate(0 0.01)" fill="#878787"/><path d="M5.94,12.55h8.74a.51.51,0,0,0,.56-.45.52.52,0,0,0-.56-.45H5.94a.52.52,0,0,0-.56.45A.51.51,0,0,0,5.94,12.55Z" transform="translate(0 0.01)" fill="#878787"/><path d="M11.1,16.14H5.94a.51.51,0,0,0-.56.45.52.52,0,0,0,.56.45H11.1a.53.53,0,0,0,.56-.45A.52.52,0,0,0,11.1,16.14Z" transform="translate(0 0.01)" fill="#878787"/><path d="M19.61,26.9A6.48,6.48,0,0,1,16,25.81a6.22,6.22,0,0,1-2.36-2.92H2.9A2.88,2.88,0,0,1,0,20V4.53A2.9,2.9,0,0,1,2.9,1.66H5.29V.57a.58.58,0,0,1,1.16,0V1.66h7.9V.57a.58.58,0,1,1,1.16,0V1.66h2.38a2.9,2.9,0,0,1,2.9,2.87v9.88a6.28,6.28,0,0,1,0,12.38A6.73,6.73,0,0,1,19.61,26.9Zm0-11.45a5.16,5.16,0,1,0,5.22,5.15,5.16,5.16,0,0,0-5.22-5.15ZM1.17,7.05V20a1.74,1.74,0,0,0,1.74,1.72H13.33a6.21,6.21,0,0,1,1.38-5.17,6.35,6.35,0,0,1,4.9-2.27h0V7.05ZM2.91,2.81A1.73,1.73,0,0,0,1.17,4.53V5.91H19.64V4.53A1.74,1.74,0,0,0,17.9,2.81H15.52V3.9a.6.6,0,0,1-.59.58.58.58,0,0,1-.58-.58V2.81H6.45V3.9a.58.58,0,0,1-1.16,0V2.81Z" transform="translate(0 0.01)" fill="#878787"/></svg>