<svg width="18" height="16" viewBox="0 0 18 16" fill="none" xmlns="http://www.w3.org/2000/svg">
<path fill-rule="evenodd" clip-rule="evenodd" d="M16.7579 7.80412C16.4833 7.80412 16.2636 8.0238 16.2636 8.2984V12.7945C16.2636 14.0174 15.2677 15.0096 14.0485 15.0096H3.20366C1.98078 15.0096 0.988558 14.0137 0.988558 12.7945V8.22518C0.988558 7.95058 0.768879 7.7309 0.494279 7.7309C0.21968 7.7309 0 7.95058 0 8.22518V12.7945C0 14.5629 1.4389 15.9982 3.20366 15.9982H14.0485C15.8169 15.9982 17.2522 14.5593 17.2522 12.7945V8.2984C17.2522 8.02746 17.0325 7.80412 16.7579 7.80412Z" fill="#BCBCCB"/>
<path fill-rule="evenodd" clip-rule="evenodd" d="M5.83252 3.99634L8.13184 1.69703V11.7254C8.13184 12 8.35152 12.2197 8.62612 12.2197C8.90072 12.2197 9.12039 12 9.12039 11.7254V1.69703L11.4197 3.99634C11.5149 4.09154 11.643 4.14279 11.7675 4.14279C11.8957 4.14279 12.0202 4.0952 12.1154 3.99634C12.3094 3.80229 12.3094 3.49108 12.1154 3.29703L8.97394 0.155608C8.88241 0.0640752 8.75426 0.00915527 8.62612 0.00915527C8.49431 0.00915527 8.36982 0.0604138 8.27829 0.155608L5.13687 3.29703C4.94282 3.49108 4.94282 3.80229 5.13687 3.99634C5.32726 4.18673 5.64213 4.18673 5.83252 3.99634Z" fill="#BCBCCB"/>
</svg>
