<svg xmlns="http://www.w3.org/2000/svg" viewBox="0 0 611.999 612.649"><g transform="translate(-0.325)"><path d="M600.86,287.559l-274.907-276A39.224,39.224,0,0,0,298.143,0H39.581A39.287,39.287,0,0,0,.325,39.313V297.855a39.268,39.268,0,0,0,11.522,27.81L287.309,601.146a39.231,39.231,0,0,0,55.506,0L600.822,343.138A39.367,39.367,0,0,0,600.86,287.559ZM506.9,328.768,328.575,507.113a19.106,19.106,0,0,1-27.025,0L76.827,282.391V95.719a19.131,19.131,0,0,1,19.121-19.14H282.7L506.941,301.722A19.134,19.134,0,0,1,506.9,328.768Zm-296.21-175.61A57.439,57.439,0,1,0,268.074,210.6,57.412,57.412,0,0,0,210.692,153.158Z"/></g></svg>