<svg id="Layer_1" data-name="Layer 1" xmlns="http://www.w3.org/2000/svg" viewBox="0 0 510 510"><title>logo-emoji</title><path d="M255,0C114.75,0,0,114.75,0,255S114.75,510,255,510,510,395.25,510,255,395.25,0,255,0Zm89.25,153c20.4,0,38.25,17.85,38.25,38.25s-17.85,38.25-38.25,38.25S306,211.65,306,191.25,323.85,153,344.25,153Zm-178.5,0c20.4,0,38.25,17.85,38.25,38.25s-17.85,38.25-38.25,38.25-38.25-17.85-38.25-38.25S145.35,153,165.75,153ZM255,408c-66.3,0-122.4-43.35-142.8-102H397.8C377.4,364.65,321.3,408,255,408Z"/></svg>