<svg width="16" height="16" viewBox="0 0 16 16" fill="none" xmlns="http://www.w3.org/2000/svg">
<path fill-rule="evenodd" clip-rule="evenodd" d="M10.3161 0.672064C11.1948 -0.206647 12.6194 -0.206647 13.4981 0.672064L14.0848 1.25878C14.9622 2.13808 14.9622 3.56152 14.0848 4.44081L5.1647 13.3613C5.10357 13.4225 5.02779 13.4666 4.94458 13.4896L0.709621 14.6629C0.535988 14.7109 0.350051 14.6619 0.222512 14.5346C0.095168 14.407 0.0461446 14.2211 0.0943868 14.0475L1.26743 9.81249C1.29048 9.72929 1.33462 9.65351 1.39575 9.59238L10.3161 0.672064ZM9.78579 2.6166L2.48521 9.91738L4.8395 12.2719L12.1403 4.97109L9.78579 2.6166ZM2.01489 10.8611L3.89595 12.7424L1.294 13.4633L2.01489 10.8611ZM12.8475 4.26406L13.3778 3.73378C13.8651 3.24531 13.8651 2.45449 13.3778 1.96581L12.7909 1.3791C12.3028 0.891009 11.5114 0.891009 11.0233 1.3791L10.4928 1.90937L12.8475 4.26406Z" fill="#7E4FFE"/>
</svg>
