<svg width="14" height="14" viewBox="0 0 14 14" fill="none" xmlns="http://www.w3.org/2000/svg">
<path fill-rule="evenodd" clip-rule="evenodd" d="M13.9717 11.029C14.0013 11.2559 13.9322 11.4532 13.7645 11.6209L11.7964 13.5742C11.7076 13.6728 11.5917 13.7568 11.4487 13.8257C11.3056 13.8948 11.1651 13.9392 11.027 13.9589C11.0172 13.9589 10.9875 13.9615 10.9381 13.9664C10.8889 13.9713 10.8248 13.9738 10.7458 13.9738C10.5583 13.9738 10.255 13.9418 9.83569 13.8776C9.41642 13.8135 8.90344 13.6556 8.29678 13.4041C7.68997 13.1525 7.00189 12.7751 6.23242 12.272C5.46295 11.769 4.64411 11.0784 3.77596 10.2003C3.08539 9.51961 2.51321 8.86851 2.0594 8.24702C1.6056 7.62548 1.24058 7.05083 0.964356 6.52303C0.688104 5.99524 0.480933 5.51678 0.342819 5.08764C0.204705 4.65849 0.110984 4.28855 0.061658 3.97779C0.0123316 3.66703 -0.00739896 3.42287 0.00246632 3.24529C0.0123316 3.06772 0.0172642 2.96907 0.0172642 2.94933C0.0369948 2.81122 0.0813886 2.67064 0.150446 2.52759C0.219503 2.38455 0.303358 2.26863 0.40201 2.17984L2.37013 0.211718C2.50825 0.0736041 2.66609 0.00454712 2.84367 0.00454712C2.97192 0.00454712 3.08537 0.0415419 3.18402 0.115532C3.28267 0.189521 3.36653 0.280775 3.43559 0.389293L5.01896 3.39327C5.10775 3.55112 5.13241 3.72376 5.09295 3.9112C5.05349 4.09864 4.96964 4.25648 4.84139 4.38473L4.11629 5.10983C4.09656 5.12956 4.0793 5.16162 4.0645 5.20602C4.0497 5.25041 4.0423 5.28741 4.0423 5.317C4.08176 5.52417 4.17055 5.76094 4.30866 6.0273C4.42705 6.26407 4.60955 6.55263 4.85619 6.89298C5.10282 7.23334 5.45304 7.62546 5.90684 8.06939C6.35078 8.52324 6.74539 8.87588 7.09067 9.12749C7.43589 9.37896 7.72454 9.56401 7.95638 9.68239C8.18821 9.80078 8.36579 9.8723 8.48908 9.89689L8.674 9.93391C8.69373 9.93391 8.72587 9.92648 8.77021 9.91171C8.81461 9.89689 8.84667 9.87965 8.86642 9.85989L9.70988 9.00161C9.88755 8.84379 10.0946 8.76487 10.3314 8.76487C10.4992 8.76487 10.6323 8.79444 10.7309 8.85366H10.7457L13.6017 10.5406C13.8089 10.669 13.9322 10.8317 13.9717 11.029Z" fill="#F8F8F8"/>
</svg>
