<svg width="47" height="29" viewBox="0 0 47 29" fill="none" xmlns="http://www.w3.org/2000/svg">
<rect x="1" y="6" width="44" height="7" fill="#D8D8D8"/>
<path fill-rule="evenodd" clip-rule="evenodd" d="M40.4 18.232H40.404C40.7332 18.232 41 18.4989 41 18.828V21.176V21.18C40.9978 21.5092 40.7292 21.7742 40.4 21.772H38.768V23.404C38.768 23.7332 38.5012 24 38.172 24H35.824H35.82C35.4908 23.9978 35.2258 23.7292 35.228 23.4V21.772H33.596C33.2669 21.772 33 21.5052 33 21.176V18.828V18.82C33.0022 18.4908 33.2709 18.2258 33.6 18.228H35.228V16.596C35.228 16.2669 35.4948 16 35.824 16H38.176H38.18C38.5092 16.0022 38.7742 16.2709 38.772 16.6V18.232H40.4ZM38.2863 20.9113H40V19.0887H38.2825C38.0754 19.0887 37.9075 18.9208 37.9075 18.7137V17H36.0887V18.7175C36.0887 18.9246 35.9208 19.0925 35.7137 19.0925H34V20.9113H35.7137C35.9208 20.9113 36.0887 21.0792 36.0887 21.2863V23H37.9113V21.2863C37.9113 21.0792 38.0792 20.9113 38.2863 20.9113Z" fill="#B2B2B2"/>
<path fill-rule="evenodd" clip-rule="evenodd" d="M0.518829 5.23533C0.518829 3.02619 2.30969 1.23533 4.51883 1.23533H41.5313C43.7405 1.23533 45.5313 3.02619 45.5313 5.23533V23.8632C45.5313 26.0724 43.7405 27.8632 41.5313 27.8632H4.51884C2.3097 27.8632 0.518829 26.0724 0.518829 23.8632V5.23533Z" stroke="#B2B2B2"/>
</svg>
