<svg id="0783dd6e-6ef7-4607-a99d-e87990ebf858" data-name="Capa 1" xmlns="http://www.w3.org/2000/svg" viewBox="0 0 576 576"><title>logo-share-patient</title><g id="9a27d346-2c20-42b7-96a0-e85d58876f38" data-name="Share"><path d="M504,468a36,36,0,0,1-36,36H108a36,36,0,0,1-36-36V108a36,36,0,0,1,36-36H216L336,0H72A72,72,0,0,0,0,72V504a72,72,0,0,0,72,72H504a72,72,0,0,0,72-72V207l-72,54V468ZM395.42,70.56c-.35,3.64-.54,3-.61-.21C377.07,70.2,153.18,88,143.86,363.28c2.66,13.79,48.27-181.77,252.07-222.19C396,144,396,216,396,216L576,108,396,0c.58-.36-1.37,57.24-1.19,70.35C396.14,70.38,396.61,70.45,395.42,70.56ZM144.47,349.71c-.54,6.26-.58,9.89-.58,9.89C143.93,356.11,144.4,353.13,144.47,349.71Z" transform="translate(0 0)"/></g></svg>