<!-- Generated by IcoMoon.io -->
<svg version="1.1" xmlns="http://www.w3.org/2000/svg" width="1024" height="1024" viewBox="0 0 1024 1024">
<title></title>
<g id="icomoon-ignore">
</g>
<path fill="#f44336" d="M761.624 37.52l224.953 224.906c24.156 24.153 37.474 56.317 37.423 90.527v318.097c0 34.205-13.318 66.322-37.468 90.483l-224.959 224.947c-24.149 24.207-56.316 37.518-90.477 37.518h-318.144c-34.16 0-66.282-13.311-90.486-37.518l-224.949-224.947c-24.204-24.162-37.517-56.33-37.517-90.483v-318.14c0-34.167 13.313-66.282 37.517-90.486l225-224.906c24.11-24.204 56.276-37.517 90.486-37.517h318.137c34.212 0 66.322 13.313 90.483 37.517zM717.273 717.209c18.202-18.151 18.202-47.613 0-65.808l-139.866-139.868 139.866-139.875c18.202-18.196 18.202-47.659 0-65.812-18.196-18.196-47.62-18.196-65.815 0l-139.866 139.867-139.875-139.867c-18.196-18.196-47.616-18.196-65.812 0-18.196 18.153-18.196 47.616 0 65.812l139.866 139.875-139.866 139.868c-18.196 18.196-18.196 47.658 0 65.808 9.077 9.082 20.992 13.644 32.907 13.644s23.83-4.563 32.907-13.644l139.875-139.866 139.866 139.866c9.075 9.082 20.99 13.644 32.904 13.644s23.835-4.563 32.91-13.644z"></path>
</svg>
