<svg width="12" height="14" viewBox="0 0 12 14" fill="none" xmlns="http://www.w3.org/2000/svg">
<path fill-rule="evenodd" clip-rule="evenodd" d="M7.61675 5.08122C7.43649 5.08122 7.29041 5.22731 7.29041 5.40756V11.5754C7.29041 11.7555 7.43649 11.9017 7.61675 11.9017C7.797 11.9017 7.94309 11.7555 7.94309 11.5754V5.40756C7.94309 5.22731 7.797 5.08122 7.61675 5.08122Z" fill="#BCBCCB"/>
<path fill-rule="evenodd" clip-rule="evenodd" d="M3.76592 5.08122C3.58566 5.08122 3.43958 5.22731 3.43958 5.40756V11.5754C3.43958 11.7555 3.58566 11.9017 3.76592 11.9017C3.94617 11.9017 4.09226 11.7555 4.09226 11.5754V5.40756C4.09226 5.22731 3.94617 5.08122 3.76592 5.08122Z" fill="#BCBCCB"/>
<path fill-rule="evenodd" clip-rule="evenodd" d="M0.959391 12.2214V4.18111C0.35426 4.02049 -0.0378587 3.43588 0.043089 2.81494C0.124164 2.19413 0.653065 1.72973 1.27923 1.72961H2.95007V1.32168C2.94816 0.97864 3.08379 0.64924 3.32663 0.406907C3.56948 0.164701 3.89939 0.0298312 4.24243 0.0326357H7.14023C7.48327 0.0298312 7.81318 0.164701 8.05602 0.406907C8.29886 0.64924 8.4345 0.97864 8.43258 1.32168V1.72961H10.1034C10.7296 1.72973 11.2585 2.19413 11.3396 2.81494C11.4205 3.43588 11.0284 4.02049 10.4233 4.18111V12.2214C10.4233 12.6967 10.249 13.143 9.94459 13.4632C9.6417 13.7843 9.22001 13.9666 8.77856 13.9674H2.6041C2.16277 13.9666 1.74108 13.7843 1.43807 13.4632C1.13365 13.143 0.959391 12.6967 0.959391 12.2214ZM2.6041 13.3147H8.77856C9.33652 13.3147 9.77058 12.8354 9.77058 12.2214V4.20979H1.61207V12.2214C1.61207 12.8354 2.04613 13.3147 2.6041 13.3147ZM3.60275 1.32168C3.60058 1.15175 3.66738 0.988201 3.78797 0.868245C3.90844 0.74829 4.07237 0.682384 4.24243 0.685316H7.14023C7.31028 0.682384 7.47422 0.74829 7.59468 0.868245C7.71527 0.988073 7.78207 1.15175 7.7799 1.32168V1.72961H3.60275V1.32168ZM10.1034 2.38229H1.27923C0.954802 2.38229 0.691818 2.64527 0.691818 2.9697C0.691818 3.29413 0.954802 3.55711 1.27923 3.55711H10.1034C10.4278 3.55711 10.6908 3.29413 10.6908 2.9697C10.6908 2.64527 10.4278 2.38229 10.1034 2.38229Z" fill="#BCBCCB"/>
<path fill-rule="evenodd" clip-rule="evenodd" d="M5.69133 5.08122C5.51108 5.08122 5.36499 5.22731 5.36499 5.40756V11.5754C5.36499 11.7555 5.51108 11.9017 5.69133 11.9017C5.87158 11.9017 6.01767 11.7555 6.01767 11.5754V5.40756C6.01767 5.22731 5.87158 5.08122 5.69133 5.08122Z" fill="#BCBCCB"/>
</svg>
