<svg width="19" height="19" viewBox="0 0 19 19" fill="none" xmlns="http://www.w3.org/2000/svg">
<path fill-rule="evenodd" clip-rule="evenodd" d="M4.75 14.8438V18.4062H14.25V14.8438V12.4688H4.75V14.8438ZM5.9375 13.6562H13.0625V14.8438H5.9375V13.6562ZM13.0625 16.0312H5.9375V17.2188H13.0625V16.0312Z" fill="#BCBCCB"/>
<path fill-rule="evenodd" clip-rule="evenodd" d="M14.25 4.15625V0.59375H4.75V4.15625V6.53125H14.25V4.15625Z" fill="#BCBCCB"/>
<path fill-rule="evenodd" clip-rule="evenodd" d="M16.625 4.15625H15.4375V6.53125V7.71875H3.5625V6.53125V4.15625H2.375C1.1875 4.15625 0 5.34375 0 6.53125V12.4688C0 13.6562 1.1875 14.8438 2.375 14.8438H3.5625V12.4688V11.2812H15.4375V12.4688V14.8438H16.625C17.8125 14.8438 19 13.6562 19 12.4688V6.53125C19 5.34375 17.8125 4.15625 16.625 4.15625Z" fill="#BCBCCB"/>
</svg>
