<svg xmlns="http://www.w3.org/2000/svg" viewBox="0 0 20 18.65"><title>logo-fax</title><path d="M15.2,3.82A.2.2,0,0,1,15,4H12.57a.2.2,0,0,1-.2-.2.2.2,0,0,1,.2-.21H15A.2.2,0,0,1,15.2,3.82Z" transform="translate(0 -0.02)" fill="#d0d0d0"/><path d="M17.63,1.37a.2.2,0,0,1-.2.2H12.57a.2.2,0,0,1-.2-.2.2.2,0,0,1,.2-.21h4.86A.2.2,0,0,1,17.63,1.37Z" transform="translate(0 -0.02)" fill="#d0d0d0"/><path d="M18.41,3.08V0H11.59V3.08H8.88A4.13,4.13,0,0,1,9.25,4.8V15.25A4.05,4.05,0,0,1,8.88,17h9.49A1.63,1.63,0,0,0,20,15.33V4.71A1.62,1.62,0,0,0,18.41,3.08ZM12,.43h6v4.2H12Zm.43,13c-.76,0-.86-.1-.86-.86s.1-.86.86-.86.86.1.86.86S13.19,13.41,12.43,13.41Zm0-2.53c-.76,0-.86-.1-.86-.86s.1-.86.86-.86.86.1.86.86S13.19,10.88,12.43,10.88Zm0-2.53c-.76,0-.86-.1-.86-.86s.1-.86.86-.86.86.1.86.86S13.19,8.35,12.43,8.35ZM15,13.41c-.76,0-.86-.1-.86-.86s.1-.86.86-.86.86.1.86.86S15.76,13.41,15,13.41Zm0-2.53c-.76,0-.86-.1-.86-.86s.1-.86.86-.86.86.1.86.86S15.76,10.88,15,10.88Zm0-2.53c-.76,0-.86-.1-.86-.86s.1-.86.86-.86.86.1.86.86S15.76,8.35,15,8.35Zm2.57,5.06c-.76,0-.86-.1-.86-.86s.1-.86.86-.86.86.1.86.86S18.33,13.41,17.57,13.41Zm0-2.53c-.76,0-.86-.1-.86-.86s.1-.86.86-.86.86.1.86.86S18.33,10.88,17.57,10.88Zm0-2.53c-.76,0-.86-.1-.86-.86s.1-.86.86-.86.86.1.86.86S18.33,8.35,17.57,8.35Z" transform="translate(0 -0.02)" fill="#d0d0d0"/><path d="M17.65,2.61a.2.2,0,0,1-.22.18H12.57a.19.19,0,0,1-.19-.18.2.2,0,0,1,.19-.22h4.89A.21.21,0,0,1,17.65,2.61Z" transform="translate(0 -0.02)" fill="#d0d0d0"/><path d="M8.43,4.79V15.24a3.43,3.43,0,1,1-6.86,0V4.79a3.43,3.43,0,0,1,6.86,0Z" transform="translate(0 -0.02)" fill="#d0d0d0"/><path d="M.75,15.24a4.25,4.25,0,0,0,.32,1.62A1.63,1.63,0,0,1,0,15.33V4.71A1.63,1.63,0,0,1,1.07,3.18,4.24,4.24,0,0,0,.75,4.79Z" transform="translate(0 -0.02)" fill="#d0d0d0"/></svg>