<svg width="12" height="12" viewBox="0 0 12 12" fill="none" xmlns="http://www.w3.org/2000/svg">
<path fill-rule="evenodd" clip-rule="evenodd" d="M0.0266667 10.0267C0.0280209 11.0866 0.886875 11.9454 1.94667 11.9467H9.84C11.0182 11.9467 11.9733 10.9916 11.9733 9.81334C11.9733 8.63511 11.0182 7.68 9.84 7.68C9.69812 7.68032 9.55656 7.69459 9.4174 7.72271C9.30188 7.74594 9.18938 7.67115 9.16615 7.55563C9.1599 7.52407 9.15115 7.49355 9.14323 7.46261C9.11938 7.37167 9.08812 7.28271 9.04979 7.19677L9.04625 7.18875C9.02896 7.15073 9.0101 7.11365 8.99031 7.07709L8.97875 7.05584C8.96083 7.02396 8.94167 6.99313 8.92188 6.96261C8.91458 6.95125 8.90708 6.94125 8.89948 6.92907C8.88177 6.90344 8.86354 6.87834 8.84458 6.85375C8.83313 6.83886 8.82115 6.82417 8.80896 6.80938C8.7925 6.78959 8.77573 6.7699 8.75844 6.75073C8.74115 6.73157 8.72552 6.71552 8.70875 6.69823C8.69187 6.68094 8.67885 6.66813 8.66323 6.65365C8.64198 6.63407 8.62062 6.61532 8.59927 6.59688C8.58604 6.58563 8.57281 6.57407 8.55917 6.56323C8.53438 6.54334 8.50885 6.52459 8.48302 6.50605C8.47104 6.4975 8.45906 6.48875 8.44698 6.48042C8.41875 6.46146 8.38979 6.44355 8.36052 6.42625C8.34948 6.41959 8.33917 6.41261 8.32708 6.40615C8.29635 6.38896 8.26479 6.37313 8.23281 6.35782C8.22188 6.3524 8.21146 6.34667 8.2001 6.34177C8.16771 6.32688 8.13458 6.31365 8.10115 6.30084C8.08979 6.29657 8.07854 6.29167 8.06719 6.2874C8.03396 6.27563 8 6.26605 7.96615 6.25563C7.95354 6.25198 7.94135 6.24771 7.92875 6.24427C7.89531 6.23532 7.86094 6.22844 7.82656 6.22146C7.81333 6.21886 7.8001 6.21532 7.78667 6.21292C7.75125 6.20677 7.71542 6.20271 7.68 6.19886C7.66719 6.1973 7.65458 6.195 7.64167 6.19396C7.59281 6.18969 7.54344 6.1873 7.49375 6.1873C7.2476 6.1874 7.00427 6.24125 6.78104 6.345C6.75427 6.3574 6.72521 6.36396 6.69573 6.36438C6.605 6.36625 6.52302 6.31052 6.49135 6.22552C6.46281 6.1499 6.43031 6.07584 6.39406 6.00365C6.38594 5.9874 6.3776 5.97125 6.36927 5.95521C6.29427 5.8125 6.2049 5.67782 6.1024 5.55334C6.09219 5.54094 6.08104 5.52855 6.07104 5.51615C6.02052 5.4575 5.96802 5.40073 5.91208 5.34719C5.90979 5.3449 5.9074 5.34209 5.9049 5.3398C5.85 5.28771 5.79177 5.23969 5.7325 5.19323C5.71115 5.17698 5.68979 5.16094 5.66854 5.14563C5.62219 5.11167 5.57438 5.0799 5.52573 5.04959C5.49417 5.0298 5.46177 5.01105 5.42958 4.99282C5.38458 4.96771 5.33885 4.94375 5.29219 4.92157C5.26115 4.9074 5.23 4.89313 5.19854 4.87896C5.14625 4.85761 5.09188 4.83625 5.03875 4.81834C4.79875 4.73625 4.54698 4.69396 4.29333 4.69334C3.53042 4.69136 2.81427 5.06136 2.37458 5.6848C1.93479 6.30834 1.82656 7.10698 2.08448 7.82511C2.1074 7.88938 2.09813 7.96084 2.05958 8.01719C2.02094 8.07344 1.95781 8.10792 1.88948 8.1099C0.850313 8.13521 0.0222917 8.98719 0.0266667 10.0267Z" fill="black"/>
<path fill-rule="evenodd" clip-rule="evenodd" d="M5.31865 4.46719C5.36323 4.4851 5.40802 4.50323 5.45156 4.52333C5.49063 4.54146 5.52854 4.56146 5.56677 4.58135C5.59979 4.59865 5.6324 4.61635 5.6649 4.6349C5.69729 4.65344 5.73396 4.67458 5.76771 4.69594C5.82386 4.73156 5.87865 4.76865 5.93219 4.80813C5.95354 4.82458 5.97594 4.84177 5.99771 4.85885C6.04542 4.89615 6.09208 4.935 6.1374 4.97563C6.15594 4.99219 6.17406 5.00906 6.19219 5.02615C6.24271 5.07375 6.29146 5.12354 6.33854 5.17552C6.34625 5.18375 6.35417 5.19146 6.36167 5.19979C6.4175 5.26229 6.47021 5.32781 6.52052 5.39542C6.52844 5.40625 6.53594 5.41677 6.54386 5.42823C6.5849 5.48521 6.62406 5.54437 6.66115 5.60573C6.67073 5.62177 6.68052 5.63729 6.6899 5.65354C6.73261 5.72563 6.77167 5.79906 6.80729 5.87542C7.02802 5.79917 7.25979 5.76021 7.49333 5.76C7.55115 5.76 7.60854 5.7626 7.66552 5.76708C7.68 5.76833 7.69406 5.77063 7.70813 5.77219C7.75083 5.77646 7.79354 5.78115 7.83511 5.78792C7.84958 5.79031 7.86365 5.79375 7.87781 5.79646C7.92042 5.80396 7.96073 5.81208 8.00177 5.82208C8.01448 5.82531 8.02688 5.82937 8.03969 5.83271C8.0824 5.84385 8.12354 5.85583 8.16469 5.86948C8.17563 5.87313 8.18604 5.87729 8.19688 5.88115C8.23958 5.89615 8.28115 5.91167 8.3224 5.92917C8.33198 5.93323 8.34136 5.93771 8.35073 5.94198C8.39344 5.96031 8.43354 5.97948 8.47365 6.00042L8.50073 6.01542C8.54042 6.03667 8.57969 6.05906 8.61781 6.08281L8.64531 6.10073C8.68229 6.12427 8.71854 6.14917 8.75396 6.1751C8.76417 6.1826 8.77417 6.19052 8.78427 6.19823C8.81729 6.22333 8.84948 6.24917 8.88104 6.27625C8.89302 6.28656 8.90458 6.2976 8.91625 6.3076C8.94469 6.33281 8.97219 6.35865 8.99865 6.38531C9.01271 6.39937 9.02636 6.41365 9.04 6.42792C9.06261 6.45187 9.08479 6.47625 9.10636 6.50115C9.12261 6.5199 9.13854 6.53906 9.15438 6.55875C9.17125 6.5801 9.18761 6.60135 9.20386 6.62271C9.2224 6.64771 9.24031 6.67281 9.25781 6.69865C9.26938 6.71552 9.27917 6.7326 9.29115 6.74969C9.31136 6.78146 9.33104 6.81365 9.34959 6.84625C9.35615 6.85802 9.3624 6.86979 9.36875 6.88167C9.39 6.92052 9.4099 6.9601 9.42875 7.00052C9.43146 7.00656 9.43386 7.0125 9.43656 7.01823C9.45792 7.06458 9.47688 7.11167 9.49438 7.15969C10.471 6.93479 11.2995 6.29208 11.76 5.40208C11.4391 5.51271 11.1013 5.56667 10.7619 5.56135C9.12594 5.5425 7.81396 4.20333 7.82854 2.5675C7.83958 1.54281 8.35396 0.589167 9.20406 0.0170833C9.02938 0.00322917 8.85375 0 8.68948 0C6.71073 0.025625 5.12604 1.64792 5.14667 3.62667C5.14761 3.89823 5.17865 4.16885 5.23927 4.43354C5.26636 4.44354 5.29198 4.45635 5.31865 4.46719Z" fill="black"/>
<path fill-rule="evenodd" clip-rule="evenodd" d="M11.3174 2.02989L10.9907 1.97999C10.9204 1.96916 10.8601 1.92406 10.8299 1.85958L10.6933 1.56885L10.5568 1.85958C10.5267 1.92406 10.4662 1.96916 10.3959 1.97999L10.0694 2.02989L10.3128 2.27926C10.36 2.3277 10.3815 2.39572 10.3706 2.46249L10.3153 2.80083L10.5901 2.64895C10.6544 2.61343 10.7324 2.61343 10.7966 2.64895L11.0714 2.80083L11.0161 2.46249C11.0052 2.39572 11.0267 2.3277 11.074 2.27926L11.3174 2.02989Z" fill="black"/>
</svg>
