<svg xmlns="http://www.w3.org/2000/svg" xmlns:xlink="http://www.w3.org/1999/xlink" viewBox="0 0 612 612"><defs><style>.a{clip-path:url(#b);}.b{fill:#fff;}</style><clipPath id="b"><rect width="612" height="612"/></clipPath></defs><g id="a" class="a"><rect class="b" width="612" height="612"/><path d="M76.5,535.5V0H0V573.75A38.24,38.24,0,0,0,38.25,612H612V535.5ZM172.125,459h38.25A19.132,19.132,0,0,0,229.5,439.875V248.625A19.132,19.132,0,0,0,210.375,229.5h-38.25A19.132,19.132,0,0,0,153,248.625v191.25A19.132,19.132,0,0,0,172.125,459Zm114.75,0h38.25a19.132,19.132,0,0,0,19.125-19.125V95.625A19.132,19.132,0,0,0,325.125,76.5h-38.25A19.132,19.132,0,0,0,267.75,95.625v344.25A19.132,19.132,0,0,0,286.875,459Zm114.75,0h38.25A19.132,19.132,0,0,0,459,439.875V325.125A19.132,19.132,0,0,0,439.875,306h-38.25A19.132,19.132,0,0,0,382.5,325.125v114.75A19.132,19.132,0,0,0,401.625,459Zm114.75,0h38.25a19.132,19.132,0,0,0,19.125-19.125V172.125A19.132,19.132,0,0,0,554.625,153h-38.25a19.132,19.132,0,0,0-19.125,19.125v267.75A19.132,19.132,0,0,0,516.375,459Z"/></g></svg>