<svg xmlns="http://www.w3.org/2000/svg" viewBox="0 0 23.95 23.95"><title>logo-customer</title><path d="M12.68,0A2.89,2.89,0,0,0,9.83,2.85a2.9,2.9,0,0,0,2.85,2.86,2.86,2.86,0,0,0,0-5.71Z" transform="translate(0)" fill="#bcbccb"/><path d="M15.79,5.71a4.16,4.16,0,0,1-3.11,1.4,4.25,4.25,0,0,1-3.16-1.4,4.14,4.14,0,0,0-1.1,2.81v.7a.7.7,0,0,0,.7.7h7.07a.7.7,0,0,0,.7-.7h0v-.7A4.17,4.17,0,0,0,15.79,5.71Z" transform="translate(0)" fill="#bcbccb"/><path d="M6.78,21.54,3.2,14.37a1.39,1.39,0,0,0-1.88-.63l-.93.46a.7.7,0,0,0-.32.94h0l4.21,8.42a.71.71,0,0,0,.94.32l.93-.46A1.4,1.4,0,0,0,6.78,21.54Z" transform="translate(0)" fill="#bcbccb"/><path d="M23.38,11.59a1.4,1.4,0,0,0-1.86.18l-3.83,4.71a1.73,1.73,0,0,1-1,.45H13.38a.69.69,0,0,1-.71-.68v0a.7.7,0,0,1,.71-.7h2.8a1.41,1.41,0,1,0,0-2.81H12.51c-.35,0-.53-.22-.8-.46a4.89,4.89,0,0,0-4.36-1.07A5,5,0,0,0,5.2,12.27l0,0-1,.89,4,8h8a4.22,4.22,0,0,0,3.37-1.68l4.12-5.9a1.42,1.42,0,0,0-.29-2Z" transform="translate(0)" fill="#bcbccb"/></svg>