<svg xmlns="http://www.w3.org/2000/svg" xmlns:xlink="http://www.w3.org/1999/xlink" width="35" height="30" viewBox="0 0 35 30"><defs><linearGradient id="a" x1="0.5" y1="-0.257" x2="0.5" y2="-2.737" gradientUnits="objectBoundingBox"><stop offset="0" stop-color="#535353"/><stop offset="0.466" stop-color="#8b8b8b"/><stop offset="0.752" stop-color="#b3b3b3"/><stop offset="1" stop-color="#efeeee"/></linearGradient></defs><path d="M22.161,18H5.09a1.846,1.846,0,0,1-1.84-1.844V14.342h-1.5A1.758,1.758,0,0,1,0,12.587V1.756A1.758,1.758,0,0,1,1.751,0H19A1.758,1.758,0,0,1,20.75,1.756v1.9h1.411A1.848,1.848,0,0,1,24,5.5V16.156A1.847,1.847,0,0,1,22.161,18ZM9.271,11.4,4.9,17.13a.986.986,0,0,0,.192.019H22.16a1,1,0,0,0,.187-.018l-4.385-5.712-3.2,2.723a1.743,1.743,0,0,1-2.264,0L9.271,11.4Zm13.88-4.4-4.54,3.861,4.421,5.759a.993.993,0,0,0,.119-.471ZM4.1,7.013v9.142a.966.966,0,0,0,.118.468l4.406-5.77Zm.991-2.5A1,1,0,0,0,4.1,5.5v.4l8.946,7.594a.9.9,0,0,0,1.166,0l8.939-7.6V5.5a.994.994,0,0,0-.99-.994Zm-1.84,6.866-1.61,2.109a.884.884,0,0,0,.111.007h1.5V11.375ZM.849,3.332h0v9.255a.885.885,0,0,0,.1.406l2.3-3.019V5.5a1.916,1.916,0,0,1,.011-.2Zm.9-2.48a.906.906,0,0,0-.9.9v.479L3.575,4.458a1.836,1.836,0,0,1,1.516-.8H19.9v-1.9a.906.906,0,0,0-.9-.9Z" transform="translate(0 6)" fill="url(#a)"/><path d="M9.834,2.172,7.033.084a.43.43,0,0,0-.591.078A.405.405,0,0,0,6.52.738L8.329,2.087H.423a.412.412,0,1,0,0,.824H8.329L6.52,4.259a.407.407,0,0,0-.164.381.414.414,0,0,0,.257.328.431.431,0,0,0,.42-.054l2.8-2.088a.406.406,0,0,0,0-.655Z" transform="translate(25 13)" fill="url(#a)"/><path d="M.4,7A.4.4,0,0,0,.69,6.882L6.037,1.534,5.749,3.693a.4.4,0,0,0,.347.454.409.409,0,0,0,.054,0,.4.4,0,0,0,.4-.351L7,.458A.4.4,0,0,0,6.542,0L3.2.45a.4.4,0,1,0,.107.8L5.465.963.118,6.31A.4.4,0,0,0,.4,7Z" transform="translate(25 0)" fill="url(#a)"/><path d="M6.549,3.2a.4.4,0,1,0-.8.107l.289,2.16L.686.115A.4.4,0,0,0,.115.686l5.35,5.35L3.3,5.748a.4.4,0,1,0-.107.8L6.542,7A.41.41,0,0,0,6.6,7,.4.4,0,0,0,7,6.542Z" transform="translate(25 23)" fill="url(#a)"/></svg>