<svg width="26" height="34" viewBox="0 0 26 34" fill="none" xmlns="http://www.w3.org/2000/svg">
<path fill-rule="evenodd" clip-rule="evenodd" d="M24.7392 9.06567L17.293 1.28442C17.113 1.09668 16.8709 1 16.6308 1H1.92308C1.41346 1 1 1.41992 1 1.9375V32.0625C1 32.5801 1.41346 33 1.92308 33H24.0769C24.5865 33 25 32.5801 25 32.0625V9.71875C25 9.48389 24.9123 9.24683 24.7392 9.06567Z" stroke="#979797"/>
<path fill-rule="evenodd" clip-rule="evenodd" d="M20.1111 15.8933H5.88889C5.39792 15.8933 5 15.4815 5 14.9735C5 14.4654 5.39792 14.0536 5.88889 14.0536H20.1111C20.6021 14.0536 21 14.4654 21 14.9735C21 15.4815 20.6021 15.8933 20.1111 15.8933Z" fill="#9B9B9B"/>
<path fill-rule="evenodd" clip-rule="evenodd" d="M20.1111 19.5879H5.88889C5.39792 19.5879 5 19.1761 5 18.668C5 18.16 5.39792 17.7482 5.88889 17.7482H20.1111C20.6021 17.7482 21 18.16 21 18.668C21 19.1761 20.6021 19.5879 20.1111 19.5879Z" fill="#9B9B9B"/>
<path fill-rule="evenodd" clip-rule="evenodd" d="M20.1111 23.2824H5.88889C5.39792 23.2824 5 22.8707 5 22.3626C5 21.8546 5.39792 21.4428 5.88889 21.4428H20.1111C20.6021 21.4428 21 21.8546 21 22.3626C21 22.8707 20.6021 23.2824 20.1111 23.2824Z" fill="#9B9B9B"/>
<path fill-rule="evenodd" clip-rule="evenodd" d="M14.7778 26.977H5.88889C5.39792 26.977 5 26.5653 5 26.0572C5 25.5491 5.39792 25.1374 5.88889 25.1374H14.7778C15.2688 25.1374 15.6667 25.5491 15.6667 26.0572C15.6667 26.5653 15.2688 26.977 14.7778 26.977Z" fill="#9B9B9B"/>
<path fill-rule="evenodd" clip-rule="evenodd" d="M11.125 8.00312H9.375V5.99688C9.375 5.44626 8.9833 5 8.5 5C8.0167 5 7.625 5.44626 7.625 5.99688V8.00312H5.875C5.3917 8.00312 5 8.44938 5 9C5 9.55062 5.3917 9.99688 5.875 9.99688H7.625V12.0031C7.625 12.5537 8.0167 13 8.5 13C8.9833 13 9.375 12.5537 9.375 12.0031V9.99688H11.125C11.6083 9.99688 12 9.55062 12 9C12 8.44938 11.6083 8.00312 11.125 8.00312Z" fill="#9B9B9B"/>
<path fill-rule="evenodd" clip-rule="evenodd" d="M25 10H18.1879C17.5318 10 17 9.40952 17 8.68094V1C17.2186 1.01597 17.4253 1.12134 17.5798 1.29756C25.3984 10.2306 24.9271 9.59784 25 10Z" fill="#9B9B9B"/>
</svg>
