<svg id="Layer_1" data-name="Layer 1" xmlns="http://www.w3.org/2000/svg" viewBox="0 0 18.98 18.98"><title>logo-info</title><path id="yq1ha" d="M8.42,6.19a1.65,1.65,0,0,0,.1.19l.12.16.18.16a.75.75,0,0,0,.2.1,1.22,1.22,0,0,0,.46.09.82.82,0,0,0,.22,0,.54.54,0,0,0,.19-.07h0a1.13,1.13,0,0,0,.21-.12,1,1,0,0,0,.15-.14l0,0a.57.57,0,0,0,.12-.15.61.61,0,0,0,.09-.18s0,0,0,0a2,2,0,0,0,.07-.23,1.62,1.62,0,0,0,0-.22,1.77,1.77,0,0,0,0-.23l-.07-.22a1,1,0,0,0-.21-.32l0,0-.17-.14-.19-.1A.58.58,0,0,0,9.7,4.6a.9.9,0,0,0-.22,0,.86.86,0,0,0-.23,0A.58.58,0,0,0,9,4.67H9l-.19.1-.17.14a1.07,1.07,0,0,0-.14.16,1.65,1.65,0,0,0-.1.19.6.6,0,0,0-.07.2,1,1,0,0,0,0,.23.9.9,0,0,0,0,.23,1,1,0,0,0,.07.27Z"/><path id="yq1hb" d="M10.82,12.54h-.4V8.29A.43.43,0,0,0,10,7.84H8.15a.45.45,0,0,0-.45.44h0v.94a.45.45,0,0,0,.45.45h.37v2.88H8.15A.45.45,0,0,0,7.7,13h0V14a.45.45,0,0,0,.45.45h2.67a.44.44,0,0,0,.45-.45V13a.46.46,0,0,0-.45-.47Z"/><path id="yq1hc" d="M9.49,17.73a8.24,8.24,0,1,1,8.24-8.24A8.25,8.25,0,0,1,9.49,17.73ZM9.49,0A9.49,9.49,0,1,0,19,9.49,9.49,9.49,0,0,0,9.49,0Z"/></svg>