<svg id="52425f78-47fd-4db3-94f1-565e6da756d5" data-name="27461732-ab7d-4f9e-8a46-ea3ef4cccf1b" xmlns="http://www.w3.org/2000/svg" viewBox="0 0 960 48"><title>logo-wave</title><path d="M435,17.75C425.42,25.4,417.17,32,400,32s-25.47-6.6-35-14.25C354.54,9.43,342.74,0,319.93,0s-34.59,9.43-45,17.75c-9.56,7.65-17.8,14.25-35,14.25s-25.44-6.6-35-14.25C194.54,9.43,182.74,0,159.94,0s-34.6,9.43-45,17.76C105.39,25.4,97.14,32,80,32S54.53,25.4,45,17.75C34.58,9.43,22.8,0,0,0V16c17.18,0,25.42,6.6,35,14.24C45.38,38.57,57.16,48,80,48s34.58-9.43,45-17.75C134.5,22.6,142.74,16,159.94,16s25.44,6.6,35,14.25c10.4,8.32,22.2,17.75,45,17.75s34.6-9.43,45-17.76c9.55-7.64,17.8-14.24,35-14.24s25.46,6.6,35,14.25C365.35,38.57,377.15,48,400,48s34.61-9.43,45-17.75C454.54,22.6,462.8,16,480,16V0C457.18,0,445.39,9.43,435,17.75Z" transform="translate(480)"/><path d="M-45,17.75C-54.58,25.4-62.83,32-80,32s-25.47-6.6-35-14.25C-125.46,9.43-137.26,0-160.07,0s-34.59,9.43-45,17.75c-9.56,7.65-17.8,14.25-35,14.25s-25.44-6.6-35-14.25C-285.46,9.43-297.26,0-320.06,0s-34.6,9.43-45,17.76C-374.61,25.4-382.86,32-400,32s-25.47-6.6-35-14.25C-445.42,9.43-457.2,0-480,0V16c17.18,0,25.42,6.6,35,14.24C-434.62,38.57-422.84,48-400,48s34.58-9.43,45-17.75C-345.5,22.6-337.26,16-320.06,16s25.44,6.6,35,14.25c10.4,8.32,22.2,17.75,45,17.75s34.6-9.43,45-17.76c9.55-7.64,17.8-14.24,35-14.24s25.46,6.6,35,14.25C-114.65,38.57-102.85,48-80,48s34.61-9.43,45-17.75C-25.46,22.6-17.2,16,0,16V0C-22.82,0-34.61,9.43-45,17.75Z" transform="translate(480)"/></svg>