<svg xmlns="http://www.w3.org/2000/svg" viewBox="0 0 384.213 469.333"><g transform="translate(-42.56)"><path d="M234.56,128a42.684,42.684,0,0,0,36.587-64.64L234.56,0,197.973,63.36A42.684,42.684,0,0,0,234.56,128Z"/><path d="M362.56,192H255.893V149.333H213.226V192H106.56a64.05,64.05,0,0,0-64,64v32.853A41.785,41.785,0,0,0,113.92,318.4l45.653-45.547,45.547,45.44c15.787,15.787,43.307,15.787,59.093,0l45.653-45.44,45.547,45.44a41.785,41.785,0,0,0,71.36-29.546V256A64.37,64.37,0,0,0,362.56,192Z"/><path d="M332.587,341.013h0L309.654,318.08l-23.04,22.933c-27.84,27.84-76.48,27.84-104.32,0L159.36,318.08l-23.04,22.933a72.327,72.327,0,0,1-51.947,21.653,73.655,73.655,0,0,1-41.813-13.12V448a21.4,21.4,0,0,0,21.333,21.333H405.226A21.4,21.4,0,0,0,426.559,448V349.547a73.449,73.449,0,0,1-93.972-8.534Z"/></g></svg>