<svg width="33" height="44" viewBox="0 0 33 44" fill="none" xmlns="http://www.w3.org/2000/svg">
<path fill-rule="evenodd" clip-rule="evenodd" d="M4.21094 3.4375H28.2734C28.7481 3.4375 29.1328 3.8222 29.1328 4.29688V21.6562C29.1328 22.1309 28.7481 22.5156 28.2734 22.5156H4.21094C3.73627 22.5156 3.35156 22.1309 3.35156 21.6562V4.29688C3.35156 3.8222 3.73627 3.4375 4.21094 3.4375ZM5.07031 20.7969H27.4141V5.15625H5.07031V20.7969Z" fill="#BCBCCB"/>
<path fill-rule="evenodd" clip-rule="evenodd" d="M4.29688 0H28.3594C30.7287 0 32.6562 1.92755 32.6562 4.29688V21.6562C32.6562 28.4752 27.3338 34.0739 20.625 34.5177V43.1406C20.625 43.6153 20.2403 44 19.7656 44H12.8906C12.416 44 12.0312 43.6153 12.0312 43.1406V34.5177C5.32242 34.0735 0 28.4752 0 21.6562V4.29688C0 1.92755 1.92755 0 4.29688 0ZM13.75 42.2812H18.9062V40.5625H13.75V42.2812ZM18.9062 38.8438H13.75V34.5469H18.9062V38.8438ZM19.7656 32.8281C25.9259 32.8281 30.9375 27.8166 30.9375 21.6562V4.29688C30.9375 2.87521 29.781 1.71875 28.3594 1.71875H4.29688C2.87521 1.71875 1.71875 2.87521 1.71875 4.29688V21.6562C1.71875 27.8166 6.73032 32.8281 12.8906 32.8281H19.7656Z" fill="#BCBCCB"/>
<path fill-rule="evenodd" clip-rule="evenodd" d="M5.92969 24.2344H14.6094C15.084 24.2344 15.4688 24.6191 15.4688 25.0938V30.25C15.4688 30.7247 15.084 31.1094 14.6094 31.1094C10.8563 31.1094 8.11506 30.1422 6.46177 28.2348C5.18747 26.7642 5.07938 25.2989 5.07132 25.1367C5.05957 24.9014 5.14484 24.6718 5.30698 24.5013C5.46912 24.3307 5.69437 24.2344 5.92969 24.2344ZM7.03043 25.9531C7.53397 27.1559 9.07212 29.1526 13.75 29.3712V25.9531H7.03043Z" fill="#BCBCCB"/>
<path fill-rule="evenodd" clip-rule="evenodd" d="M18.0469 24.2344H26.7266C26.9619 24.2344 27.1871 24.3307 27.3493 24.5013C27.5114 24.6721 27.5967 24.9017 27.5849 25.1367C27.5769 25.2989 27.4688 26.7642 26.1945 28.2348C24.5412 30.1422 21.7999 31.1094 18.0469 31.1094C17.5722 31.1094 17.1875 30.7247 17.1875 30.25V25.0938C17.1875 24.6191 17.5722 24.2344 18.0469 24.2344ZM18.9062 25.9531V29.3712C23.5804 29.153 25.1199 27.1593 25.6248 25.9531H18.9062Z" fill="#BCBCCB"/>
<path fill-rule="evenodd" clip-rule="evenodd" d="M14.5234 19.0781C14.9971 19.0781 15.3828 18.6924 15.3828 18.2188C15.3828 17.7451 14.9971 17.3594 14.5234 17.3594C14.0498 17.3594 13.6641 17.7451 13.6641 18.2188C13.6641 18.6924 14.0498 19.0781 14.5234 19.0781Z" fill="#BCBCCB"/>
<path fill-rule="evenodd" clip-rule="evenodd" d="M7.64844 19.0781H11.0859C11.5596 19.0781 11.9453 18.6924 11.9453 18.2188C11.9453 17.7451 11.5596 17.3594 11.0859 17.3594H7.64844C7.17477 17.3594 6.78906 17.7451 6.78906 18.2188C6.78906 18.6924 7.17477 19.0781 7.64844 19.0781Z" fill="#BCBCCB"/>
<path fill-rule="evenodd" clip-rule="evenodd" d="M21.3984 19.0781C21.8721 19.0781 22.2578 18.6924 22.2578 18.2188C22.2578 17.7451 21.8721 17.3594 21.3984 17.3594C20.9241 17.3594 20.5391 17.7451 20.5391 18.2188C20.5391 18.6924 20.9241 19.0781 21.3984 19.0781Z" fill="#BCBCCB"/>
<path fill-rule="evenodd" clip-rule="evenodd" d="M17.9609 19.0781C18.4346 19.0781 18.8203 18.6924 18.8203 18.2188C18.8203 17.7451 18.4346 17.3594 17.9609 17.3594C17.4866 17.3594 17.1016 17.7451 17.1016 18.2188C17.1016 18.6924 17.4866 19.0781 17.9609 19.0781Z" fill="#BCBCCB"/>
</svg>
