<svg xmlns="http://www.w3.org/2000/svg" xmlns:xlink="http://www.w3.org/1999/xlink" width="30" height="30" viewBox="0 0 30 30"><defs><path id="ewoya" d="M178.25 428.491c-1.103 0-2-.897-2-2s.897-2 2-2 2 .897 2 2-.897 2-2 2zm-5.5 0c-1.103 0-2-.897-2-2s.897-2 2-2 2 .897 2 2-.897 2-2 2zm-5.5 0c-1.103 0-2-.897-2-2s.897-2 2-2 2 .897 2 2-.897 2-2 2zm-1.993 8.004c0 .28-.144.54-.384.695l-.17.11-.046.198c-.39 1.697-1.662 2.569-1.673 2.576l-.224.148v1.89c0 .76.698 1.917 1.353 2.274l2.089 1.335c.061.039.082.094.062.165-.021.07-.069.106-.142.106h-11.724c-.073 0-.12-.036-.14-.106-.022-.071 0-.126.061-.165l2.059-1.318c.684-.374 1.382-1.53 1.382-2.292l-.001-1.887-.222-.149c-.012-.009-1.284-.88-1.674-2.577l-.045-.198-.17-.11a.828.828 0 0 1-.385-.695v-1.773c0-.246.168-.648.332-.797l.165-.149-.003-1.835c-.001-.012-.111-1.221.77-2.196.754-.832 2.01-1.254 3.733-1.254.942 0 1.753.129 2.415.384.268.815.66 1.596 1.172 2.321-.008.088-.02.17-.03.256-.215 1.996-.713 3.476-1.42 4.185l-1.06 1.059 1.483-.21.047-.007.017-.003h.004c.26-.04 1.21-.196 2.37-.52v.539zM172.5 417c-5.652 0-10.25 4.146-10.25 9.241 0 .508.05 1.011.141 1.506a8.444 8.444 0 0 0-2.13-.256c-2.019 0-3.524.532-4.474 1.583-1.176 1.3-1.031 2.9-1.027 2.917v1.368c-.292.363-.496.907-.496 1.363v1.773c0 .55.247 1.064.67 1.41a5.573 5.573 0 0 0 1.826 2.835v1.371c0 .397-.5 1.216-.891 1.431l-2.088 1.335a1.138 1.138 0 0 0-.484 1.288c.144.494.587.826 1.101.826h11.724c.515 0 .957-.332 1.101-.826a1.138 1.138 0 0 0-.483-1.288l-2.118-1.353c-.363-.198-.862-1.017-.862-1.413v-1.371a5.57 5.57 0 0 0 1.826-2.835c.423-.346.67-.86.67-1.41v-.85c.72-.246 1.465-.552 2.14-.934 1.298.512 2.677.771 4.103.771 5.652 0 10.25-4.145 10.25-9.24 0-5.096-4.597-9.242-10.25-9.242z"/></defs><g><g opacity=".5" transform="translate(-153 -417)"><g opacity=".5"><use fill="#bcbccb" xlink:href="#ewoya"/></g></g></g></svg>