<svg xmlns="http://www.w3.org/2000/svg" viewBox="0 0 43.83 40.18"><title>logo-med-actors</title><path d="M30,31.33l-7-3.49a1.93,1.93,0,0,1-1.07-1.73V23.64c.17-.2.35-.44.53-.69a16.79,16.79,0,0,0,2.16-4.24,2.89,2.89,0,0,0,1.7-2.64V13.15a2.89,2.89,0,0,0-.73-1.92V7.34A6.55,6.55,0,0,0,24,2.58C22.54.87,20.1,0,16.8,0S11.06.87,9.56,2.58A6.55,6.55,0,0,0,8,7.34v3.89a3,3,0,0,0-.73,1.92v2.92a2.92,2.92,0,0,0,1.1,2.27A15.2,15.2,0,0,0,11,23.63V26a1.94,1.94,0,0,1-1,1.7L3.43,31.29A6.62,6.62,0,0,0,0,37.08v3.1H33.6v-3A6.54,6.54,0,0,0,30,31.33Z" transform="translate(0)" fill="#bcbccb"/><path d="M40.52,32.16l-7.1-3.08a1.47,1.47,0,0,1-.52-.56h4.77s.27,0,.7,0A7.66,7.66,0,0,0,41.29,28a2.16,2.16,0,0,0,1.12-2.85,2.42,2.42,0,0,0-.21-.39c-1.36-1.93-4.54-7-4.64-12.14,0-.09-.29-8.82-8.92-8.9a11.26,11.26,0,0,0-2.46.3,7.94,7.94,0,0,1,.48,3.34v3.46a4,4,0,0,1,.73,2.3v2.92a4,4,0,0,1-1.9,3.41,17.86,17.86,0,0,1-2.16,4.1c-.11.16-.21.3-.32.44v2.09a.8.8,0,0,0,.46.75l7,3.49a7.66,7.66,0,0,1,4.25,6.87v3h9.13v-2.7A5.9,5.9,0,0,0,40.52,32.16Z" transform="translate(0)" fill="#bcbccb"/></svg>