<svg width="26" height="26" viewBox="0 0 26 26" fill="none" xmlns="http://www.w3.org/2000/svg">
<path fill-rule="evenodd" clip-rule="evenodd" d="M23.0806 18.769C23.0747 18.7823 23.068 18.7956 23.0606 18.8085C23.0527 18.8222 23.0437 18.835 23.0345 18.8474C22.6434 19.516 22.1874 20.142 21.6752 20.7171C21.6628 20.7366 21.6491 20.7555 21.6331 20.7733C21.6182 20.7899 21.602 20.8044 21.5852 20.818C21.0679 21.3857 20.4948 21.9015 19.8754 22.3578C19.8608 22.3722 19.8454 22.386 19.8283 22.3984C19.8116 22.4106 19.7941 22.4209 19.7763 22.4301C19.142 22.8872 18.4601 23.2821 17.7393 23.6055C17.7372 23.6065 17.7352 23.6076 17.7332 23.6086C17.7305 23.61 17.7279 23.6114 17.725 23.6127C17.7212 23.6144 17.7174 23.6158 17.7136 23.6172C17.7114 23.618 17.7093 23.6187 17.7072 23.6196C16.2675 24.2602 14.6747 24.617 13 24.617C11.3252 24.617 9.73236 24.2602 8.29268 23.6195C8.28676 23.6171 8.28079 23.6152 8.27493 23.6126C8.27006 23.6105 8.26558 23.6078 8.26082 23.6055C7.54001 23.2822 6.85809 22.8872 6.22375 22.4301C6.20593 22.4209 6.18845 22.4106 6.17175 22.3984C6.1546 22.386 6.13916 22.3722 6.12456 22.3578C5.50504 21.9014 4.93199 21.3855 4.41465 20.8179C4.39788 20.8043 4.38173 20.7898 4.36685 20.7733C4.35097 20.7556 4.33731 20.7368 4.32497 20.7174C3.81266 20.1422 3.3565 19.516 2.96534 18.8473C2.95621 18.8348 2.94725 18.8222 2.93934 18.8085C2.93187 18.7956 2.92523 18.7823 2.91931 18.769C1.94221 17.0683 1.38293 15.0982 1.38293 13C1.38293 10.9018 1.94221 8.93172 2.91926 7.23093C2.92518 7.21755 2.93182 7.20438 2.93928 7.19144C2.94764 7.177 2.95693 7.16344 2.96667 7.15039C3.35755 6.48252 3.81322 5.85708 4.32492 5.28254C4.33725 5.26318 4.35092 5.24431 4.36679 5.22667C4.38179 5.21001 4.3981 5.19535 4.41498 5.18169C4.93227 4.61423 5.50515 4.09849 6.1245 3.64216C6.13916 3.62778 6.1546 3.614 6.17169 3.60155C6.18829 3.58955 6.2056 3.57937 6.22325 3.57013C6.8577 3.11287 7.53979 2.71789 8.26076 2.39444C8.26269 2.39349 8.26457 2.3925 8.26645 2.39151C8.26921 2.39004 8.27197 2.38858 8.27487 2.3873C8.27887 2.38551 8.28294 2.38403 8.28701 2.38254C8.28924 2.38173 8.29147 2.38091 8.29368 2.38005C9.73314 1.73968 11.3256 1.38298 13 1.38298C14.6744 1.38298 16.2668 1.73968 17.7062 2.38011C17.7084 2.38096 17.7106 2.38176 17.7128 2.38256C17.7169 2.38406 17.721 2.38555 17.725 2.38735C17.7279 2.38865 17.7308 2.39015 17.7336 2.39164C17.7354 2.39263 17.7373 2.39362 17.7392 2.39455C18.4602 2.718 19.1422 3.11298 19.7767 3.57019C19.7943 3.57948 19.8116 3.58961 19.8282 3.60167C19.8453 3.61411 19.8607 3.62789 19.8754 3.64227C20.4946 4.09849 21.0675 4.61417 21.5847 5.18158C21.6017 5.19524 21.6181 5.21001 21.6331 5.22672C21.6491 5.24442 21.6628 5.26334 21.6752 5.28287C22.1868 5.85741 22.6424 6.48269 23.0332 7.1505C23.043 7.16355 23.0522 7.17705 23.0606 7.19149C23.068 7.20449 23.0747 7.21766 23.0806 7.23104C24.0578 8.93178 24.617 10.9018 24.617 13C24.617 15.0982 24.0578 17.0682 23.0806 18.769ZM19.5136 21.2594L19.6688 21.4731C20.0429 21.178 20.3967 20.8583 20.7284 20.5171L20.5331 20.3412C20.3628 20.188 20.3491 19.9256 20.5023 19.7553C20.6558 19.585 20.9182 19.5714 21.0883 19.7246L21.2841 19.9009C21.5887 19.5359 21.8695 19.1505 22.1245 18.7472L21.8948 18.6146C21.6964 18.5 21.6284 18.2462 21.743 18.0478C21.8574 17.8494 22.1111 17.7813 22.3097 17.896L22.5404 18.0292C22.7622 17.6101 22.9577 17.175 23.1236 16.7256L22.8678 16.6425C22.6499 16.5717 22.5306 16.3377 22.6014 16.1197C22.6722 15.9018 22.9066 15.7826 23.1242 15.8534L23.3806 15.9367C23.5093 15.4823 23.6083 15.0157 23.6767 14.5393L23.4094 14.5112C23.1816 14.4873 23.0162 14.2831 23.0402 14.0552C23.0641 13.8274 23.2677 13.6623 23.4962 13.686L23.7627 13.714C23.7783 13.4779 23.787 13.2399 23.787 12.9999C23.787 12.76 23.7782 12.522 23.7627 12.2859L23.4962 12.3139C23.4814 12.3155 23.4668 12.3163 23.4523 12.3163C23.2426 12.3163 23.0626 12.1579 23.0402 11.9447C23.0163 11.7169 23.1816 11.5127 23.4094 11.4887L23.6767 11.4606C23.6083 10.9842 23.5093 10.5176 23.3806 10.0633L23.1242 10.1466C23.0816 10.1604 23.0384 10.167 22.9959 10.167C22.821 10.167 22.6584 10.0555 22.6014 9.88022C22.5306 9.66227 22.6499 9.42821 22.8678 9.3574L23.1236 9.27431C22.9577 8.82495 22.7622 8.38987 22.5404 7.97077L22.3097 8.10398C22.2444 8.14171 22.173 8.15963 22.1027 8.15963C21.9593 8.15963 21.8199 8.08523 21.743 7.95213C21.6284 7.7537 21.6964 7.49995 21.8948 7.38538L22.1245 7.25278C21.8695 6.8494 21.5887 6.46404 21.2841 6.09905L21.0883 6.27535C21.009 6.34671 20.9097 6.3819 20.8108 6.3819C20.6973 6.3819 20.5843 6.33565 20.5023 6.24465C20.3491 6.07438 20.3628 5.812 20.5331 5.65871L20.7284 5.48285C20.3966 5.1417 20.0428 4.82201 19.6687 4.52693L19.5135 4.74058C19.4322 4.85232 19.3057 4.91162 19.1775 4.91162C19.0929 4.91162 19.0076 4.88584 18.934 4.83235C18.7486 4.6977 18.7075 4.4382 18.8422 4.25283L18.9979 4.03847C18.6037 3.77376 18.191 3.53473 17.7625 3.32297L17.654 3.56681C17.5852 3.72132 17.4336 3.8131 17.2747 3.8131C17.2183 3.8131 17.161 3.80153 17.1062 3.77714C16.8969 3.68392 16.8027 3.4387 16.8959 3.22937L17.0051 2.98425C16.5658 2.80795 16.1124 2.65969 15.647 2.54186L15.5909 2.80535C15.5494 3.0004 15.3772 3.13405 15.1856 3.13405C15.157 3.13405 15.1279 3.13107 15.0989 3.12487C14.8748 3.07718 14.7317 2.85685 14.7794 2.63275L14.8353 2.36965C14.3712 2.28972 13.897 2.23987 13.4148 2.22151V2.48936C13.4148 2.7185 13.2291 2.90426 12.9999 2.90426C12.7708 2.90426 12.585 2.7185 12.585 2.48936V2.22156C12.1028 2.23993 11.6286 2.28983 11.1645 2.36971L11.2204 2.63286C11.2681 2.85696 11.125 3.0773 10.9009 3.12493C10.8718 3.13112 10.8428 3.13411 10.8142 3.13411C10.6225 3.13411 10.4502 3.00046 10.4088 2.8054L10.3528 2.54192C9.88742 2.6598 9.43408 2.808 8.99479 2.9843L9.10394 3.22942C9.1971 3.43875 9.103 3.68398 8.89367 3.77719C8.83885 3.80159 8.78154 3.81315 8.72517 3.81315C8.56629 3.81315 8.41472 3.72138 8.3459 3.56693L8.23731 3.32308C7.80875 3.53484 7.39607 3.77387 7.00187 4.03858L7.15759 4.25294C7.29224 4.43831 7.25113 4.69776 7.06576 4.83246C6.99213 4.88595 6.90677 4.91173 6.82225 4.91173C6.69396 4.91173 6.56745 4.85243 6.48624 4.74069L6.33101 4.52704C5.95689 4.82212 5.60312 5.14181 5.27126 5.4829L5.46659 5.65876C5.63687 5.81211 5.65059 6.07443 5.4973 6.2447C5.41537 6.33565 5.3023 6.38195 5.18884 6.38195C5.08993 6.38195 4.99068 6.34682 4.91136 6.27541L4.71558 6.0991C4.41099 6.4641 4.13019 6.84951 3.87523 7.25284L4.10486 7.38544C4.30329 7.50001 4.37127 7.75376 4.25671 7.95218C4.17987 8.08528 4.04041 8.15969 3.89702 8.15969C3.82666 8.15969 3.7553 8.14176 3.68996 8.10404L3.45928 7.97083C3.23745 8.38993 3.04201 8.82501 2.87611 9.27437L3.1319 9.35746C3.34981 9.42827 3.46907 9.66238 3.39827 9.88028C3.34134 10.0556 3.1787 10.1671 3.00379 10.1671C2.9613 10.1671 2.91815 10.1605 2.8755 10.1466L2.6191 10.0633C2.49037 10.5177 2.3914 10.9843 2.32303 11.4607L2.59028 11.4888C2.81813 11.5127 2.98348 11.7169 2.95953 11.9448C2.93707 12.1579 2.75706 12.3163 2.5474 12.3163C2.53291 12.3163 2.5183 12.3155 2.50353 12.314L2.23695 12.2859C2.22141 12.522 2.21272 12.76 2.21272 13C2.21272 13.24 2.22141 13.478 2.2369 13.7142L2.50348 13.6861C2.73123 13.662 2.93547 13.8275 2.95948 14.0554C2.98343 14.2832 2.81808 14.4874 2.59022 14.5114L2.32297 14.5395C2.39135 15.0159 2.49031 15.4825 2.61904 15.9368L2.87545 15.8535C3.0934 15.7827 3.32746 15.902 3.39827 16.1199C3.46907 16.3378 3.34981 16.5719 3.1319 16.6427L2.87611 16.7258C3.04201 17.1752 3.23745 17.6102 3.45928 18.0293L3.68996 17.8961C3.88839 17.7816 4.14214 17.8496 4.25671 18.048C4.37127 18.2464 4.30329 18.5002 4.10486 18.6147L3.87523 18.7473C4.13019 19.1507 4.41099 19.5361 4.71558 19.9011L4.91136 19.7248C5.08163 19.5714 5.3439 19.5852 5.4973 19.7555C5.65064 19.9257 5.63687 20.1881 5.46659 20.3414L5.27126 20.5173C5.60312 20.8584 5.95689 21.1781 6.33101 21.4731L6.48624 21.2595C6.62088 21.0741 6.88033 21.0329 7.06576 21.1677C7.25113 21.3024 7.29229 21.5618 7.15759 21.7472L7.00187 21.9615C7.39607 22.2262 7.80875 22.4653 8.23731 22.677L8.3459 22.4332C8.43906 22.2239 8.68429 22.1297 8.89367 22.2229C9.103 22.3161 9.19715 22.5614 9.10394 22.7707L8.99479 23.0158C9.43403 23.1921 9.88742 23.3404 10.3528 23.4582L10.4088 23.1947C10.4564 22.9706 10.6769 22.8274 10.9009 22.8751C11.125 22.9228 11.2681 23.1431 11.2204 23.3672L11.1645 23.6304C11.6286 23.7102 12.1028 23.7601 12.585 23.7785V23.5106C12.585 23.2815 12.7708 23.0957 12.9999 23.0957C13.2291 23.0957 13.4148 23.2815 13.4148 23.5106V23.7786C13.897 23.7602 14.3712 23.7103 14.8353 23.6304L14.7794 23.3673C14.7317 23.1432 14.8747 22.9228 15.0989 22.8752C15.3229 22.8276 15.5433 22.9706 15.591 23.1947L15.647 23.4582C16.1125 23.3403 16.5658 23.1921 17.0051 23.0158L16.896 22.7707C16.8028 22.5614 16.897 22.3161 17.1062 22.2229C17.3156 22.1297 17.5608 22.2239 17.654 22.4332L17.7625 22.677C18.1911 22.4653 18.6038 22.2262 18.998 21.9615L18.8423 21.7472C18.7076 21.5618 18.7486 21.3023 18.934 21.1677C19.1195 21.033 19.3789 21.0741 19.5136 21.2594Z" fill="#9696A2"/>
<path fill-rule="evenodd" clip-rule="evenodd" d="M13 0C16.4724 0 19.737 1.35222 22.1924 3.80762C24.6478 6.26296 26 9.52756 26 13C26 16.4724 24.6478 19.737 22.1924 22.1924C19.737 24.6478 16.4724 26 13 26C9.52756 26 6.26296 24.6478 3.80762 22.1924C1.35222 19.737 0 16.4724 0 13C0 9.52756 1.35222 6.26296 3.80762 3.80762C6.26296 1.35222 9.52756 0 13 0ZM0.829787 13C0.829787 19.7107 6.28929 25.1702 13 25.1702C19.7107 25.1702 25.1702 19.7107 25.1702 13C25.1702 6.28929 19.7107 0.829787 13 0.829787C6.28929 0.829787 0.829787 6.28929 0.829787 13Z" fill="#9696A2"/>
<path fill-rule="evenodd" clip-rule="evenodd" d="M20.4476 17.3537C20.3813 17.1343 20.1497 17.0103 19.9305 17.0764L19.3758 17.2437C19.6388 16.8499 19.8666 16.4306 20.054 15.9901L21.4657 14.8608C21.6446 14.7177 21.6736 14.4566 21.5305 14.2776C21.3873 14.0987 21.1262 14.0696 20.9473 14.2128L20.4995 14.571C20.5952 14.1136 20.6499 13.6414 20.6597 13.1584L21.5527 11.5901C21.6661 11.3909 21.5966 11.1376 21.3974 11.0242C21.1983 10.9109 20.945 10.9804 20.8316 11.1795L20.5476 11.6782C20.4652 11.2045 20.3394 10.745 20.174 10.3043L20.4172 8.51606C20.448 8.28903 20.289 8.07992 20.062 8.04905C19.8346 8.01824 19.6258 8.17717 19.595 8.40426L19.5183 8.9684C19.2672 8.56236 18.9789 8.18132 18.658 7.82994L18.227 6.08517C18.172 5.86273 17.9472 5.72698 17.7247 5.78191C17.5023 5.8369 17.3665 6.06177 17.4215 6.28421L17.558 6.83718C17.1783 6.55599 16.7709 6.3091 16.3403 6.10094L15.2865 4.63913C15.1525 4.45325 14.8933 4.41127 14.7073 4.54519C14.5215 4.67918 14.4794 4.93851 14.6134 5.12439L14.9476 5.58796C14.6003 5.4974 14.2429 5.43025 13.8769 5.38848C13.6493 5.36237 13.4436 5.526 13.4176 5.7537C13.3917 5.98139 13.5552 6.18696 13.7829 6.2129C14.5224 6.29721 15.2227 6.49796 15.867 6.79502C15.8865 6.80587 15.9065 6.8156 15.9273 6.82307C16.692 7.18491 17.3757 7.68373 17.9491 8.28643C17.9697 8.31459 17.9933 8.33992 18.0199 8.36177C18.5901 8.97947 19.0464 9.70188 19.3585 10.495L19.361 10.5018L19.3663 10.5147C19.6674 11.287 19.832 12.1258 19.832 13L19.8318 13.016L19.8316 13.0294C19.8313 13.0363 19.8313 13.0431 19.8313 13.0499C19.8083 16.2524 17.5708 18.9377 14.5771 19.6478C14.3349 19.0124 13.7194 18.5596 13 18.5596C12.2805 18.5596 11.6652 19.0124 11.423 19.6479C8.42917 18.9377 6.19168 16.2522 6.16872 13.0497C6.16877 13.043 6.16872 13.0364 6.16844 13.0297L6.16825 13.0162L6.16805 13.0001C6.16805 12.1257 6.33274 11.2868 6.6339 10.5144C6.63655 10.5081 6.63921 10.5017 6.64153 10.4953C6.95364 9.70205 7.40991 8.97952 7.98025 8.36177C8.00675 8.33998 8.03032 8.3147 8.05084 8.28665C8.62434 7.68389 9.30797 7.18508 10.0728 6.82318C10.0936 6.81571 10.1135 6.80598 10.133 6.79519C10.7772 6.49807 11.4776 6.29732 12.2171 6.21301C12.4448 6.18707 12.6083 5.98145 12.5824 5.75381C12.5564 5.52611 12.3505 5.36276 12.1232 5.38859C11.7572 5.4303 11.3998 5.49751 11.0525 5.58802L11.3866 5.12444C11.5206 4.93857 11.4786 4.67929 11.2927 4.54525C11.1068 4.41127 10.8476 4.45337 10.7135 4.63918L9.6598 6.10094C9.22919 6.30916 8.82182 6.55605 8.442 6.83723L8.57859 6.28432C8.63352 6.06188 8.49777 5.83701 8.27533 5.78202C8.05278 5.72714 7.82796 5.86284 7.77303 6.08528L7.34204 7.83005C7.02119 8.18143 6.73292 8.56247 6.48177 8.96851L6.4051 8.40431C6.37423 8.17728 6.16529 8.01824 5.93809 8.04911C5.71106 8.07998 5.55202 8.28903 5.58289 8.51611L5.82596 10.3045C5.66061 10.7451 5.53476 11.2046 5.45239 11.6783L5.16844 11.1797C5.05509 10.9806 4.80184 10.911 4.60258 11.0244C4.40343 11.1377 4.33395 11.3911 4.4473 11.5903L5.3402 13.1585C5.35005 13.6416 5.40476 14.1138 5.50046 14.5712L5.05265 14.2129C4.87375 14.0698 4.61265 14.0988 4.46948 14.2777C4.32631 14.4566 4.35536 14.7177 4.53426 14.8609L5.94589 15.9902C6.13331 16.4307 6.36106 16.85 6.62405 17.2439L6.06942 17.0765C5.85025 17.0102 5.61857 17.1344 5.55235 17.3538C5.48614 17.5732 5.61033 17.8047 5.82972 17.8709L7.56442 18.3943C7.89799 18.7305 8.26255 19.0357 8.65316 19.3057L8.07623 19.3548C7.84793 19.3743 7.6786 19.5751 7.69802 19.8034C7.71644 20.0198 7.89772 20.1831 8.11097 20.1831C8.12276 20.1831 8.13465 20.1826 8.14665 20.1817L9.95056 20.0281C10.3902 20.2196 10.8512 20.371 11.3289 20.4777C11.4419 21.2992 12.1479 21.9341 12.9999 21.9341C13.8519 21.9341 14.558 21.2992 14.6709 20.4777C15.1486 20.3711 15.6096 20.2196 16.0493 20.0281L17.8532 20.1817C17.8652 20.1827 17.8771 20.1832 17.8889 20.1832C18.1021 20.1832 18.2834 20.0198 18.3018 19.8035C18.3213 19.5752 18.152 19.3743 17.9236 19.3549L17.3466 19.3058C17.7372 19.0357 18.1018 18.7305 18.4354 18.3944L20.1701 17.8709C20.3896 17.8046 20.5137 17.5731 20.4476 17.3537ZM13 19.3894C13.3062 19.3894 13.5746 19.5512 13.7264 19.7933C13.4877 19.8186 13.2454 19.8319 13 19.8319C12.7547 19.8319 12.5124 19.8186 12.2737 19.7933C12.4254 19.5512 12.6938 19.3894 13 19.3894ZM12.2308 20.6233C12.3705 20.9076 12.6624 21.1043 13 21.1043C13.3377 21.1043 13.6295 20.9076 13.7692 20.6233C13.5162 20.6486 13.2596 20.6617 13 20.6617C12.7404 20.6617 12.4838 20.6486 12.2308 20.6233Z" fill="#9696A2"/>
<path fill-rule="evenodd" clip-rule="evenodd" d="M12.1677 8.63204C12.1624 8.63259 12.1573 8.63364 12.152 8.63442C12.1441 8.63553 12.1361 8.63647 12.1282 8.63807C12.1183 8.64006 12.1087 8.64272 12.099 8.64537C12.0958 8.64626 12.0926 8.64687 12.0895 8.64781C12.08 8.65068 12.0708 8.65417 12.0615 8.65771C12.0582 8.65898 12.0548 8.66003 12.0516 8.66136C12.0435 8.66468 12.0359 8.6685 12.0281 8.67231C12.0236 8.67447 12.0191 8.67641 12.0147 8.67873C12.0086 8.68205 12.0027 8.68576 11.9967 8.68935C11.991 8.69278 11.9852 8.69599 11.9797 8.6997C11.9753 8.70257 11.9712 8.70584 11.967 8.70893C11.9602 8.7138 11.9534 8.71861 11.9469 8.72393C11.9439 8.72636 11.9412 8.72907 11.9383 8.73161C11.931 8.73787 11.9238 8.74417 11.917 8.75092C11.9144 8.75347 11.9121 8.75629 11.9096 8.75889C11.9029 8.76591 11.8962 8.77288 11.89 8.78046C11.8842 8.78749 11.8789 8.79496 11.8736 8.80242C11.8711 8.8058 11.8684 8.80895 11.8661 8.81244C11.8582 8.82411 11.8509 8.83628 11.8442 8.84878L10.8817 10.6409C10.7733 10.8428 10.8491 11.0943 11.051 11.2027C11.1134 11.2362 11.1806 11.2522 11.2469 11.2522C11.3948 11.2522 11.5379 11.1729 11.6128 11.0335L11.7949 10.6943V14.3276H11.7667C11.5376 14.3276 11.3518 14.5134 11.3518 14.7425C11.3518 14.9716 11.5376 15.1574 11.7667 15.1574H14.2331C14.4623 15.1574 14.648 14.9716 14.648 14.7425C14.648 14.5134 14.4623 14.3276 14.2331 14.3276H14.2049V14.1617C14.2049 13.9326 14.0192 13.7468 13.79 13.7468C13.5608 13.7468 13.3751 13.9326 13.3751 14.1617V14.3275H12.6246V9.45973H13.3751V12.5021C13.3751 12.7312 13.5608 12.917 13.79 12.917C14.0192 12.917 14.2049 12.7312 14.2049 12.5021V9.04478C14.2049 8.81564 14.0192 8.62988 13.79 8.62988H12.2098C12.1958 8.62994 12.1817 8.6306 12.1677 8.63204Z" fill="#9696A2"/>
<path fill-rule="evenodd" clip-rule="evenodd" d="M10.2561 16.402C10.2561 16.6311 10.4419 16.8169 10.671 16.8169H15.3291C15.5583 16.8169 15.744 16.6311 15.744 16.402C15.744 16.1729 15.5583 15.9871 15.3291 15.9871H10.671C10.4419 15.9871 10.2561 16.1728 10.2561 16.402Z" fill="#9696A2"/>
</svg>
