<svg width="44" height="44" viewBox="0 0 44 44" fill="none" xmlns="http://www.w3.org/2000/svg">
<path fill-rule="evenodd" clip-rule="evenodd" d="M10.9961 24.7418H8.24694V27.4905H5.49829V30.2396H8.24694V32.9878H10.9961V30.2396H13.7452V27.4905H10.9961V24.7418Z" fill="#BCBCCB"/>
<path fill-rule="evenodd" clip-rule="evenodd" d="M5.49829 19.2435H10.9961V13.7452H16.4939V8.24743H10.9961V2.74915H5.49829V8.24743H0V13.7452H5.49829V19.2435Z" fill="#BCBCCB"/>
<path fill-rule="evenodd" clip-rule="evenodd" d="M29.5515 0.920756C31.6779 2.14843 32.9878 4.41727 32.9878 6.87261V27.6461C34.7529 29.4453 35.7404 31.8661 35.7374 34.3866C35.731 39.693 31.4304 43.9848 26.1156 43.9848C20.8009 43.9848 16.4939 39.6783 16.4939 34.3631C16.4929 31.8501 17.4802 29.4375 19.2425 27.6461V6.87261C19.2425 4.41727 20.5524 2.14843 22.6788 0.920756C24.8052 -0.306919 27.4251 -0.306919 29.5515 0.920756ZM25.2841 41.1554C25.5585 41.2068 25.837 41.2337 26.1161 41.2357C27.9387 41.2356 29.6866 40.5114 30.9753 39.2225C32.264 37.9337 32.9879 36.1857 32.9878 34.3631C32.9878 32.1244 31.9012 30.1539 30.2401 28.8976V6.8731C30.2401 4.59577 28.3939 2.74963 26.1166 2.74963C23.8393 2.74963 21.9931 4.59577 21.9931 6.8731V28.8976C20.334 30.1539 19.244 32.1244 19.244 34.3631C19.244 37.8762 21.8855 40.7365 25.2841 41.1554Z" fill="#BCBCCB"/>
<path fill-rule="evenodd" clip-rule="evenodd" d="M27.4905 30.4917V10.9961H24.7418V30.4917C22.77 31.1939 21.6391 33.264 22.1135 35.3027C22.5879 37.3413 24.5166 38.6994 26.5958 38.459C28.6751 38.2186 30.243 36.4562 30.2396 34.3631C30.2396 32.5698 29.088 31.0614 27.4905 30.4917Z" fill="#BCBCCB"/>
<path fill-rule="evenodd" clip-rule="evenodd" d="M41.2357 8.24743V5.49829H38.487V8.24743H35.7379V10.9961H38.487V13.7452H41.2357V10.9961H43.9848V8.24743H41.2357Z" fill="#BCBCCB"/>
</svg>
