<svg width="44" height="44" viewBox="0 0 44 44" fill="none" xmlns="http://www.w3.org/2000/svg">
<path fill-rule="evenodd" clip-rule="evenodd" d="M23.6923 19.9451C23.6923 19.2828 23.2926 18.7272 22.7253 18.4107V15.4121C22.7253 14.911 22.2927 14.5055 21.7582 14.5055C21.2237 14.5055 20.7912 14.911 20.7912 15.4121V18.4107C20.2239 18.7272 19.8242 19.2829 19.8242 19.9451C19.8242 20.9446 20.692 21.7582 21.7581 21.7582C22.8243 21.7582 23.6923 20.9446 23.6923 19.9451Z" fill="#BCBCCB"/>
<path fill-rule="evenodd" clip-rule="evenodd" d="M37.5833 0C33.9855 0 31.1666 3.22085 31.1666 7.3333C31.1666 10.2845 33.3926 15.5125 36.6666 16.3671V33.9166C36.6666 38.466 32.9659 42.1666 28.4166 42.1666C24.0387 42.1666 20.4816 38.7295 20.2172 34.4171C23.0916 34.0514 25.6666 33.3674 25.6666 32.0832V28.5562C28.8982 27.1376 31.1666 23.9158 31.1666 20.1665C31.1666 16.4172 28.8982 13.1954 25.6666 11.7769V6.4167C25.6666 3.79921 14.9763 3.6667 12.8333 3.6667C10.6903 3.6667 0 3.79912 0 6.4167V32.0834C0 34.7009 10.6903 34.8334 12.8333 34.8334C13.7014 34.8334 15.974 34.8086 18.3684 34.6087C18.7266 39.8458 23.0902 44 28.4167 44C33.9767 44 38.5 39.4767 38.5 33.9167V16.3671C41.774 15.5125 44 10.2845 44 7.3333C44 3.22085 41.1811 0 37.5833 0ZM2.81712 6.4167C4.67732 5.96191 8.4792 5.5 12.8333 5.5C17.1875 5.5 20.9894 5.96191 22.8495 6.4167C20.9894 6.87139 17.1875 7.3333 12.8333 7.3333C8.4792 7.3333 4.67732 6.87139 2.81712 6.4167ZM22 12.8334C17.9565 12.8334 14.6667 16.1232 14.6667 20.1667C14.6667 24.2102 17.9565 27.5 22 27.5C26.0435 27.5 29.3333 24.2102 29.3333 20.1667C29.3333 16.1232 26.0435 12.8334 22 12.8334Z" fill="#BCBCCB"/>
</svg>
