<svg width="14" height="14" viewBox="0 0 14 14" fill="none" xmlns="http://www.w3.org/2000/svg">
<path d="M7.58757 10.121C7.4165 10.3165 7.4165 10.633 7.58757 10.828C7.75865 11.0235 8.03557 11.0235 8.2062 10.828L11.2245 7.37801C11.3155 7.27399 11.3545 7.1355 11.3483 6.99948C11.3545 6.86298 11.3155 6.72499 11.2245 6.62099L8.2062 3.1715C8.03557 2.976 7.7582 2.976 7.58757 3.1715C7.4165 3.36701 7.4165 3.6835 7.58757 3.87848L9.88137 6.49997H0.4375C0.196 6.5 0 6.724 0 7C0 7.276 0.196 7.5 0.4375 7.5H9.88137L7.58757 10.121ZM12.25 0H3.5C2.53357 0 1.75 0.895503 1.75 2V4H2.625V2C2.625 1.448 3.01657 1 3.5 1H12.25C12.7334 1 13.125 1.448 13.125 2V12C13.125 12.552 12.7334 13 12.25 13H3.5C3.01657 13 2.625 12.5525 2.625 12V10H1.75V12C1.75 13.1045 2.53357 14 3.5 14H12.25C13.2164 14 14 13.1045 14 12V2C14 0.895503 13.2164 0 12.25 0Z" fill="#BCBCCB"/>
</svg>
