<svg id="a59051c7-a9fc-4d3d-b933-3f41329cf4da" data-name="Capa 1" xmlns="http://www.w3.org/2000/svg" viewBox="0 0 354.47 512"><title>logo-micro</title><path d="M256,354.45q40.62,0,69.53-28.91T354.45,256V98.46q0-40.6-28.92-69.53T256,0q-40.62,0-69.54,28.93T157.54,98.46V256q0,40.62,28.92,69.54T256,354.45Z" transform="translate(-78.77)" fill="#fff"/><path d="M427.38,202.77a19.7,19.7,0,0,0-33.54,13.84V256q0,56.92-40.46,97.38T256,393.85q-56.92,0-97.39-40.47T118.15,256V216.61a19.58,19.58,0,0,0-33.54-13.84,18.9,18.9,0,0,0-5.84,13.84V256q0,68,45.38,118.31T236.3,432v40.62H157.54a19.7,19.7,0,0,0,0,39.39H354.45a19.7,19.7,0,0,0,0-39.39H275.69V432q66.76-7.38,112.15-57.68T433.23,256V216.61A18.91,18.91,0,0,0,427.38,202.77Z" transform="translate(-78.77)" fill="#fff"/></svg>