<svg id="Layer_1" data-name="Layer 1" xmlns="http://www.w3.org/2000/svg" viewBox="0 0 18.09 18.17"><title>logo-file</title><path d="M16.6,1.57A5.78,5.78,0,0,0,12.72,0,5.69,5.69,0,0,0,8.83,1.57a1.29,1.29,0,0,0-.33.91,1.82,1.82,0,0,0,.33.9,1.24,1.24,0,0,0,.91.33h0a1.65,1.65,0,0,0,.91-.33,3.1,3.1,0,0,1,4.29,0,3.47,3.47,0,0,1,.75,2.07,3,3,0,0,1-.91,2.15L7.6,14.78a3,3,0,0,1-5.12-2.06,3,3,0,0,1,.91-2.15L6.44,7.51a.9.9,0,0,1,1.24,0,1,1,0,0,1,0,1.32L5.45,11.06a1.24,1.24,0,0,0-.33.91,1.77,1.77,0,0,0,.33.91,1.37,1.37,0,0,0,1.73,0l2.23-2.23a3.39,3.39,0,0,0,0-4.79,3.32,3.32,0,0,0-2.4-1,3,3,0,0,0-2.31.91L1.65,8.83A5.25,5.25,0,0,0,0,12.72,5.69,5.69,0,0,0,1.57,16.6a5.83,5.83,0,0,0,3.88,1.57A5.65,5.65,0,0,0,9.33,16.6l7.18-7.18a5.3,5.3,0,0,0,1.57-3.88A5.4,5.4,0,0,0,16.6,1.57Z" transform="translate(0)" fill="#cecfd0"/></svg>