<svg id="Layer_1" data-name="Layer 1" xmlns="http://www.w3.org/2000/svg" viewBox="0 0 24.98 25"><title>logo-drug</title><path d="M23.06,2a6.6,6.6,0,0,0-9.32,0L8.3,7.41l6.17,6.17a7.3,7.3,0,0,1,4.66-1.72,7.4,7.4,0,0,1,2.87.59l1.06-1.15a6.6,6.6,0,0,0,0-9.32Z" transform="translate(-0.01 -0.05)" fill="#878787"/><path d="M13.44,14.63,7.26,8.45,1.94,13.77a6.63,6.63,0,0,0,9.37,9.38l1.08-1.09a7.2,7.2,0,0,1,1-7.43Z" transform="translate(-0.01 -0.05)" fill="#878787"/><path d="M13.27,19.19A5.84,5.84,0,0,0,18.4,25V13.4A5.84,5.84,0,0,0,13.27,19.19Z" transform="translate(-0.01 -0.05)" fill="#878787"/><path d="M19.86,13.4V25a5.83,5.83,0,0,0,0-11.57Z" transform="translate(-0.01 -0.05)" fill="#878787"/></svg>