<svg width="12" height="16" viewBox="0 0 12 16" fill="none" xmlns="http://www.w3.org/2000/svg">
<path fill-rule="evenodd" clip-rule="evenodd" d="M0.0156708 5.79457C0.0156708 2.59944 2.61511 0 5.81027 0C9.0054 0 11.6048 2.59944 11.6049 5.79457C11.6049 9.75982 6.41927 15.581 6.19849 15.8269C5.99149 16.0575 5.62943 16.0579 5.42205 15.8269C5.20127 15.581 0.0156708 9.75982 0.0156708 5.79457ZM2.89489 5.79457C2.89489 7.40213 4.20271 8.70998 5.81027 8.70998C7.4178 8.70998 8.72562 7.40217 8.72562 5.7946C8.72562 4.18704 7.4178 2.87919 5.81027 2.87919C4.20274 2.87919 2.89489 4.18701 2.89489 5.79457Z" fill="#BCBCCB"/>
</svg>
