<svg id="0578f5fc-c46e-4c32-b813-0b9f398147fe" data-name="Capa 1" xmlns="http://www.w3.org/2000/svg" viewBox="0 0 525.15 525.15"><title>logo-thumb</title><path d="M96.78,290.23a27.66,27.66,0,1,0,27.66,27.66A27.71,27.71,0,0,0,96.78,290.23Zm0,110.48a27.66,27.66,0,1,0,27.66,27.66A27.78,27.78,0,0,0,96.78,400.71Zm0-221.09a27.66,27.66,0,1,0,27.66,27.66A27.78,27.78,0,0,0,96.78,179.62ZM13.83,193.45a13.83,13.83,0,1,0,0,27.66,13.83,13.83,0,0,0,0-27.66Zm83-124.33a27.66,27.66,0,1,0,27.66,27.66A27.71,27.71,0,0,0,96.78,69.12Zm414.54,152a13.83,13.83,0,1,0-13.83-13.83A13.72,13.72,0,0,0,511.32,221.09ZM317.87,124.44a27.66,27.66,0,1,0-27.66-27.66A27.85,27.85,0,0,0,317.87,124.44Zm0-96.78A13.73,13.73,0,0,0,331.7,13.83a13.83,13.83,0,1,0-27.66,0A13.74,13.74,0,0,0,317.87,27.66Zm-304,276.4a13.82,13.82,0,1,0,0,27.64,13.82,13.82,0,1,0,0-27.64ZM207.28,497.49a13.83,13.83,0,1,0,13.83,13.83A13.73,13.73,0,0,0,207.28,497.49Zm0-469.83a13.72,13.72,0,0,0,13.83-13.83,13.83,13.83,0,0,0-27.66,0A13.73,13.73,0,0,0,207.28,27.66Zm0,96.78a27.66,27.66,0,1,0-27.66-27.66A27.78,27.78,0,0,0,207.28,124.44Zm0,152a41.49,41.49,0,1,0,41.49,41.49A41.42,41.42,0,0,0,207.28,276.4Zm221.09,13.83A27.66,27.66,0,1,0,456,317.89,27.78,27.78,0,0,0,428.37,290.23Zm0,110.48A27.66,27.66,0,1,0,456,428.37,27.85,27.85,0,0,0,428.37,400.71Zm0-221.09A27.66,27.66,0,1,0,456,207.28,27.85,27.85,0,0,0,428.37,179.62Zm0-110.5A27.66,27.66,0,1,0,456,96.78,27.78,27.78,0,0,0,428.37,69.12Zm82.95,234.94a13.83,13.83,0,1,0,13.83,13.81A13.73,13.73,0,0,0,511.32,304.06ZM317.87,400.71a27.66,27.66,0,1,0,27.66,27.66A27.78,27.78,0,0,0,317.87,400.71Zm0,96.78a13.83,13.83,0,1,0,13.83,13.83A13.73,13.73,0,0,0,317.87,497.49ZM207.28,165.79a41.49,41.49,0,1,0,41.49,41.49A41.42,41.42,0,0,0,207.28,165.79Zm0,234.92a27.66,27.66,0,1,0,27.66,27.66A27.85,27.85,0,0,0,207.28,400.71ZM317.87,276.4a41.49,41.49,0,1,0,41.49,41.49A41.41,41.41,0,0,0,317.87,276.4Zm0-110.61a41.49,41.49,0,1,0,41.49,41.49A41.41,41.41,0,0,0,317.87,165.79Z"/></svg>