<svg width="19" height="16" viewBox="0 0 19 16" fill="none" xmlns="http://www.w3.org/2000/svg">
<path fill-rule="evenodd" clip-rule="evenodd" d="M9.12727 4.57898L9.12561 8.57047C9.12561 8.72202 9.18577 8.86688 9.29277 8.97385L12.1482 11.8287L12.9549 11.0219L10.2666 8.33421L10.2683 4.57898L9.12727 4.57898Z" fill="#2399F1"/>
<path fill-rule="evenodd" clip-rule="evenodd" d="M10.2695 0.01474C6.25362 0.01474 2.92995 2.9972 2.3733 6.86108H0L2.85264 9.71372L5.70528 6.86108H3.52623C4.07205 3.62832 6.88374 1.15581 10.2695 1.15581C14.0448 1.15581 17.1159 4.22685 17.1159 8.00215C17.1159 11.7775 14.0448 14.8485 10.2695 14.8485C8.14731 14.8485 6.17945 13.888 4.87066 12.2131L3.97141 12.9151C5.498 14.8685 7.79349 15.9895 10.2695 15.9895C14.6738 15.9895 18.2569 12.4059 18.2569 8.00215C18.2569 3.59841 14.6738 0.0147731 10.2695 0.01474V0.01474Z" fill="#2399F1"/>
</svg>
