<svg width="11" height="14" viewBox="0 0 11 14" fill="none" xmlns="http://www.w3.org/2000/svg">
<path fill-rule="evenodd" clip-rule="evenodd" d="M7.00381 5.75169C7.86609 5.19592 8.43859 4.22788 8.43859 3.12395C8.43859 1.39877 7.04375 0 5.32384 0C3.60315 0 2.20864 1.39877 2.20864 3.12398C2.20864 4.22791 2.78114 5.19613 3.64345 5.75172C1.61185 5.93405 0.0136108 7.6503 0.0136108 9.7345V12.9768L0.0218019 13.0275L0.244724 13.0973C2.34319 13.7547 4.16672 13.9744 5.66759 13.9744C8.59868 13.9744 10.2978 13.1359 10.4031 13.0828L10.6113 12.9768H10.6331V9.73447C10.6334 7.65045 9.03567 5.93447 7.00381 5.75169Z" fill="#7BC1F6"/>
</svg>
