<svg width="16" height="16" viewBox="0 0 16 16" fill="none" xmlns="http://www.w3.org/2000/svg">
<path fill-rule="evenodd" clip-rule="evenodd" d="M8 0C3.58172 0 0 3.58172 0 8C0 12.4183 3.58172 16 8 16C12.4183 16 16 12.4183 16 8C16 3.58172 12.4183 0 8 0ZM6.06576 11.1158C6.48008 11.5328 7.15267 11.5328 7.56719 11.1158L12.2606 6.39439C12.4596 6.19414 12.5714 5.92245 12.5714 5.63928C12.5714 5.35612 12.4596 5.08442 12.2606 4.88418C11.846 4.46718 11.1734 4.46718 10.7591 4.88418L7.00623 8.65951C6.9014 8.76456 6.73155 8.76456 6.62692 8.65951L5.24092 7.26542C4.8264 6.84842 4.1538 6.84842 3.73948 7.26542C3.32496 7.68222 3.32496 8.35883 3.73948 8.77563L6.06576 11.1158Z" fill="#4CAF50"/>
</svg>
