<svg xmlns="http://www.w3.org/2000/svg" width="21.343" height="19" viewBox="0 0 21.343 19"><g transform="translate(0)"><path d="M5.408,10.815a5.408,5.408,0,1,1,5.407-5.407A5.414,5.414,0,0,1,5.408,10.815ZM5.408.7a4.7,4.7,0,1,0,4.7,4.7A4.709,4.709,0,0,0,5.408.7Z" transform="translate(6.431 4.092)" fill="#1e201d"/><path d="M2.923,3.436a.357.357,0,0,0-.349-.364H.7V.364A.357.357,0,0,0,.349,0,.357.357,0,0,0,0,.364V3.416A.37.37,0,0,0,.344,3.8h2.23a.357.357,0,0,0,.349-.364Z" transform="translate(11.108 6.723)" fill="#1e201d"/><path d="M11.827,19a.352.352,0,1,1,0-.7A8.794,8.794,0,1,0,3.174,7.87h2.32a.349.349,0,0,1,.294.542l-2.57,3.915a.353.353,0,0,1-.59,0L.058,8.412A.35.35,0,0,1,.35,7.87H2.457A9.5,9.5,0,0,1,11.827,0h.027a9.5,9.5,0,0,1,8.761,13.136A9.484,9.484,0,0,1,11.827,19ZM1.006,8.574l1.918,2.92,1.917-2.92Z" fill="#1e201d"/></g></svg>