<svg id="fb7e4fcd-fca0-4f87-a344-33bec6b8e6a7" data-name="Capa 1" xmlns="http://www.w3.org/2000/svg" viewBox="0 0 67.34 69.41"><title>logo-night</title><path d="M33,34.21H3.84a2.8,2.8,0,0,1-2-4.79L26.1,5.6H3.84a2.8,2.8,0,0,1,0-5.6H33a2.81,2.81,0,0,1,2,4.8L10.69,28.61H33a2.8,2.8,0,0,1,0,5.6ZM65.56,40H51.85L67.54,24.55a2.8,2.8,0,0,0-2-4.8H45a2.8,2.8,0,1,0,0,5.6H58.72L43,40.77a2.78,2.78,0,0,0-.63,3A2.81,2.81,0,0,0,45,45.57H65.56a2.8,2.8,0,0,0,0-5.6ZM33.94,63.8H24.37L35.9,52.48a2.81,2.81,0,0,0-2-4.81H17.52a2.81,2.81,0,0,0,0,5.61h9.57L15.56,64.6a2.81,2.81,0,0,0,2,4.81H33.94a2.81,2.81,0,0,0,0-5.61Z" transform="translate(-1.04)"/></svg>