<svg id="Layer_1" data-name="Layer 1" xmlns="http://www.w3.org/2000/svg" viewBox="0 0 426.67 341.33"><title>logo-dollar</title><path d="M384,0H42.67A42.48,42.48,0,0,0,.21,42.49v.18L0,298.67a42.65,42.65,0,0,0,42.64,42.66H384a42.65,42.65,0,0,0,42.67-42.64v-256A42.67,42.67,0,0,0,384,0Zm0,298.67H42.67v-256H384Z" transform="translate(0)"/><path d="M192,277.33h42.67V256H256a21.39,21.39,0,0,0,21.33-21.33v-64A21.4,21.4,0,0,0,256,149.33H192V128h85.33V85.33H234.67V64H192V85.33H170.67a21.41,21.41,0,0,0-21.34,21.34v64A21.41,21.41,0,0,0,170.67,192h64v21.33H149.33V256H192Z" transform="translate(0)"/></svg>