<svg width="19" height="16" viewBox="0 0 19 16" fill="none" xmlns="http://www.w3.org/2000/svg">
<g clip-path="url(#clip0)">
<path d="M1.79099 5.58586C2.02704 5.7286 2.73857 6.15252 3.92562 6.8574C5.11271 7.56229 6.0221 8.10503 6.65383 8.48567C6.72324 8.52739 6.8707 8.61809 7.09627 8.75788C7.32189 8.89777 7.50936 9.01082 7.65853 9.09705C7.80781 9.18324 7.98827 9.27994 8.2001 9.38698C8.41185 9.49393 8.61147 9.57438 8.79889 9.62763C8.98636 9.68133 9.15989 9.70792 9.31953 9.70792H9.33H9.3405C9.50014 9.70792 9.67375 9.68129 9.86121 9.62763C10.0486 9.57438 10.2484 9.49384 10.4599 9.38698C10.6716 9.27981 10.8521 9.18321 11.0014 9.09705C11.1506 9.01082 11.338 8.89777 11.5637 8.75788C11.7892 8.61796 11.9368 8.52739 12.0062 8.48567C12.6448 8.10503 14.2694 7.13834 16.8794 5.58568C17.3862 5.28243 17.8095 4.91651 18.1496 4.48818C18.49 4.06005 18.66 3.6109 18.66 3.14101C18.66 2.74835 18.495 2.41222 18.1653 2.13266C17.8355 1.85303 17.445 1.7133 16.9939 1.7133H1.666C1.13151 1.7133 0.720175 1.86794 0.432083 2.17722C0.144028 2.48657 0 2.87323 0 3.33719C0 3.71195 0.190967 4.11805 0.572719 4.55525C0.954435 4.99249 1.36066 5.33606 1.79099 5.58586Z" fill="#BCBCCB"/>
<path d="M17.6186 6.54053C15.3418 7.86101 13.6131 8.88724 12.4331 9.61901C12.0374 9.86875 11.7164 10.0637 11.4699 10.2034C11.2234 10.3432 10.8955 10.486 10.4859 10.6316C10.0764 10.7775 9.69474 10.8503 9.34064 10.8503H9.33002H9.31955C8.96552 10.8503 8.58366 10.7775 8.17415 10.6316C7.76465 10.486 7.43658 10.3432 7.19014 10.2034C6.94377 10.0637 6.62268 9.86875 6.22703 9.61901C5.28981 9.03013 3.56476 8.00384 1.05181 6.54053C0.65602 6.31463 0.305452 6.05569 0 5.76426V12.8489C0 13.2418 0.163066 13.5777 0.48938 13.8573C0.815621 14.137 1.20791 14.2768 1.66611 14.2768H16.994C17.4521 14.2768 17.8443 14.137 18.1706 13.8573C18.497 13.5776 18.66 13.2418 18.66 12.8489V5.76426C18.3614 6.04966 18.0145 6.3086 17.6186 6.54053Z" fill="#BCBCCB"/>
</g>
<defs>
<clipPath id="clip0">
</clipPath>
</defs>
</svg>
