<svg xmlns="http://www.w3.org/2000/svg" viewBox="0 0 612.015 612.056"><g transform="translate(-0.021)"><path d="M595.2,513.908,493.775,412.482c26.707-41.727,42.685-91.041,42.685-144.263C536.459,120.085,416.375,0,268.24,0S.021,120.085.021,268.219s120.085,268.22,268.219,268.22c53.222,0,102.537-15.979,144.225-42.686L513.891,595.216A57.494,57.494,0,0,0,595.2,513.908ZM268.24,459.8c-105.793,0-191.585-85.793-191.585-191.585S162.447,76.635,268.24,76.635,459.825,162.427,459.825,268.22,374.034,459.8,268.24,459.8Z"/></g></svg>