<svg id="Layer_1" data-name="Layer 1" xmlns="http://www.w3.org/2000/svg" viewBox="0 0 612 612"><title>logo-person</title><path d="M486.33,254.5h0a190.6,190.6,0,0,0,10.92-63.25C497.25,85.62,411.63,0,306,0S114.75,85.62,114.75,191.25a190.37,190.37,0,0,0,10.94,63.25h0C51.16,292.4,0,369.61,0,458.94V573.69A38.31,38.31,0,0,0,38.31,612H573.69A38.31,38.31,0,0,0,612,573.69V458.94C612,369.61,560.84,292.4,486.33,254.5ZM306,76.5A114.75,114.75,0,1,1,191.25,191.25h0A114.9,114.9,0,0,1,306,76.5Zm229.5,459H76.5V458.94c0-61.37,36.41-114.27,88.68-138.6,70.93,77.77,191.48,83.32,269.25,12.39q6.48-5.91,12.39-12.39c52.27,24.35,88.68,77.25,88.68,138.6Z"/></svg>