<svg id="Layer_1" data-name="Layer 1" xmlns="http://www.w3.org/2000/svg" viewBox="0 0 23.93 28.26"><title>logo-prescription</title><g opacity="0.45"><g opacity="0.45"><path id="wa6wa" d="M15,27.1l-1.27-4.24A2.25,2.25,0,0,1,16,24.14a2.45,2.45,0,0,1,.12.31A2.26,2.26,0,0,1,15,27.1Zm-2.73-.54h0a2.28,2.28,0,0,0,.1-.7V23.49l.06,0a2.16,2.16,0,0,1,.51-.36l1.26,4.23a2.24,2.24,0,0,1-1.93-.76ZM10,27.43H9.41a1.57,1.57,0,0,1-1.57-1.57V23.08h3.69v2.79A1.56,1.56,0,0,1,10,27.43Zm-7-.36,3.63-5.92a2.79,2.79,0,0,1,.39.38v4.34a2.35,2.35,0,0,0,0,.26,3.53,3.53,0,0,1-4,.95ZM1,24.66a3.52,3.52,0,0,1,2.59-4.24,3.49,3.49,0,0,1,2.4.27l-3.66,6a3.56,3.56,0,0,1-1.34-2Zm8.46-7.2H10A1.56,1.56,0,0,1,11.53,19v3.22H7.84V19a1.57,1.57,0,0,1,1.57-1.57Zm14.13-1.6a.41.41,0,0,0-.41.41v7.37H16.66a3.08,3.08,0,0,0-4.17-1.26l-.14.08V19A2.39,2.39,0,0,0,10,16.63H9.41A2.39,2.39,0,0,0,7,19V20.4a4.34,4.34,0,0,0-.88-.52V9.73a.41.41,0,1,0-.82,0V19.6a4.37,4.37,0,0,0-2,0,4.34,4.34,0,1,0,4,7.41,2.39,2.39,0,0,0,2.09,1.24H10a2.4,2.4,0,0,0,1.89-.93A3.07,3.07,0,0,0,17,24.47h6.58a.41.41,0,0,0,.41-.41V16.27a.41.41,0,0,0-.41-.41Z" transform="translate(-0.02)"/></g><g opacity="0.45"><path id="wa6wb" d="M23.53,0H5.72a.41.41,0,0,0-.41.41V8.08a.41.41,0,0,0,.41.41.41.41,0,0,0,.42-.41V.83h17V14.62a.41.41,0,0,0,.43.39.41.41,0,0,0,.39-.39V.41A.41.41,0,0,0,23.53,0Z" transform="translate(-0.02)"/></g><g opacity="0.45"><path id="wa6wc" d="M9,3.72h4.47a.43.43,0,0,0,.41-.42.41.41,0,0,0-.41-.41H9a.41.41,0,0,0-.41.42A.43.43,0,0,0,9,3.72Z" transform="translate(-0.02)"/></g><g opacity="0.45"><path id="wa6wd" d="M9,15.72h4.64A.42.42,0,0,0,14,15.3a.41.41,0,0,0-.41-.41H9a.41.41,0,0,0-.41.42A.43.43,0,0,0,9,15.72Z" transform="translate(-0.02)"/></g><g opacity="0.45"><path id="wa6we" d="M9,6.64H20a.43.43,0,0,0,.41-.42A.41.41,0,0,0,20,5.81H9a.41.41,0,0,0-.41.42A.43.43,0,0,0,9,6.64Z" transform="translate(-0.02)"/></g><g opacity="0.45"><path id="wa6wf" d="M9,9.92H20.44a.42.42,0,0,0,.42-.41.41.41,0,0,0-.41-.42H9a.41.41,0,0,0-.41.41A.42.42,0,0,0,9,9.92Z" transform="translate(-0.02)"/></g><g opacity="0.45"><path id="wa6wg" d="M9,13H20.44a.42.42,0,0,0,.42-.41.41.41,0,0,0-.41-.42H9a.41.41,0,0,0-.41.41A.42.42,0,0,0,9,13Z" transform="translate(-0.02)"/></g><g opacity="0.45"><path id="wa6wh" d="M19.17,16.29a1.31,1.31,0,1,1-.06,2.62,1.32,1.32,0,0,1-1.28-1.28,1.34,1.34,0,0,1,1.33-1.34Zm.45,4.35h-.89v-.89a2.22,2.22,0,0,0,.89,0Zm-1.31.83H20a.41.41,0,0,0,.41-.42V19.39a2.17,2.17,0,0,0-1.27-3.93,2.17,2.17,0,1,0-1.27,3.93v1.66A.41.41,0,0,0,18.31,21.47Z" transform="translate(-0.02)"/></g></g></svg>