<svg id="178d924c-f8af-4b28-bf98-22f30243fc79" data-name="Слой 1" xmlns="http://www.w3.org/2000/svg" viewBox="0 0 489.9 490.05"><title>logo-cloud</title><path d="M467.4,299a117,117,0,0,0-26.2-20.4c2.2-1.9,4.3-3.9,6.4-6a153.43,153.43,0,0,0,42.8-82.1c2.7-15.1-15.7-24.6-26.6-13.8a97.8,97.8,0,0,1-71.3,28.5c-52.3-1.1-95-43.7-96.1-96.1a98.77,98.77,0,0,1,28.7-71.3c10.8-10.9,1.3-29.2-13.8-26.6A154.43,154.43,0,0,0,184.2,154a153.87,153.87,0,0,0-83.6,112.3A118.89,118.89,0,0,0,10.9,381.8C10.9,447.5,64.3,501,130,501H381.7c65.7,0,119.1-53.5,119.1-119.2A118,118,0,0,0,467.4,299ZM262.6,79.3a132.8,132.8,0,0,0-2.9,27.7,135,135,0,0,0,135,135,132.8,132.8,0,0,0,27.7-2.9A113.15,113.15,0,1,1,262.6,79.3ZM381.7,459.9H130a78.09,78.09,0,0,1-8.6-155.7l17.2-1.9,1.1-17.3a112.42,112.42,0,0,1,48.4-85.7A154.56,154.56,0,0,0,398.5,305.6a78.07,78.07,0,0,1-16.8,154.3Z" transform="translate(-10.9 -10.95)"/></svg>