<svg id="Layer_1" data-name="Layer 1" xmlns="http://www.w3.org/2000/svg" viewBox="0 0 23.67 23.96"><title>logo-clock-2</title><path d="M1,14.14a11.24,11.24,0,0,1-.2-1.53.4.4,0,0,0-.8,0,12.88,12.88,0,0,0,.2,1.64.4.4,0,0,0,.39.32H.67A.4.4,0,0,0,1,14.14Z" transform="translate(0 0)" fill="#bcbccb"/><path d="M2.77,18.38a.38.38,0,0,0-.52-.12l0,0a.39.39,0,0,0-.11.54h0a9.66,9.66,0,0,0,1,1.29.39.39,0,0,0,.55,0h0a.39.39,0,0,0,0-.55A15,15,0,0,1,2.77,18.38Z" transform="translate(0 0)" fill="#bcbccb"/><path d="M.39,11.43h0a.4.4,0,0,0,.4-.37A13.16,13.16,0,0,1,1,9.53a.39.39,0,0,0-.29-.47h0a.38.38,0,0,0-.46.27v0A11.4,11.4,0,0,0,0,11a.41.41,0,0,0,.37.43Z" transform="translate(0 0)" fill="#bcbccb"/><path d="M6.11,21.54a11,11,0,0,1-1.25-.9.4.4,0,0,0-.56.06.39.39,0,0,0,0,.55h0a10.85,10.85,0,0,0,1.34,1,.4.4,0,0,0,.56-.11.4.4,0,0,0-.11-.55l0,0Z" transform="translate(0 0)" fill="#bcbccb"/><path d="M1,8.29a.41.41,0,0,0,.52-.23A10.11,10.11,0,0,1,2,7a.4.4,0,0,0-.72-.36h0A11.79,11.79,0,0,0,.75,7.78.4.4,0,0,0,1,8.29Z" transform="translate(0 0)" fill="#bcbccb"/><path d="M1.38,15.63a.38.38,0,0,0-.49-.25h0a.4.4,0,0,0-.25.51h0a11.92,11.92,0,0,0,.64,1.52.4.4,0,0,0,.54.18h0A.41.41,0,0,0,2,17.05,12,12,0,0,1,1.38,15.63Z" transform="translate(0 0)" fill="#bcbccb"/><path d="M8.93,22.78a10.9,10.9,0,0,1-1.45-.52.4.4,0,0,0-.32.73,11.18,11.18,0,0,0,1.56.56h.11a.4.4,0,0,0,.39-.41h0a.41.41,0,0,0-.29-.38Z" transform="translate(0 0)" fill="#bcbccb"/><path d="M2.28,15.36a.39.39,0,0,0,.49.26h0a.39.39,0,0,0,.25-.5H3a8.25,8.25,0,0,1-.46-1.46.39.39,0,0,0-.48-.3h0a.38.38,0,0,0-.3.46h0A10.18,10.18,0,0,0,2.28,15.36Z" transform="translate(0 0)" fill="#bcbccb"/><path d="M2.35,9.33a.38.38,0,0,0,.49-.24v0h0a10.31,10.31,0,0,1,.58-1.42.4.4,0,0,0-.72-.36h0a9.72,9.72,0,0,0-.62,1.54A.4.4,0,0,0,2.35,9.33Z" transform="translate(0 0)" fill="#bcbccb"/><path d="M2.38,12.08V12a11.33,11.33,0,0,1,.12-1.43.4.4,0,0,0-.33-.46h0a.41.41,0,0,0-.46.34A11.44,11.44,0,0,0,1.58,12v.11A.38.38,0,0,0,2,12.5H2a.38.38,0,0,0,.38-.4Z" transform="translate(0 0)" fill="#bcbccb"/><path d="M6.82,19.83a10.33,10.33,0,0,1-1.19-1,.42.42,0,0,0-.57,0,.4.4,0,0,0,0,.56,10.65,10.65,0,0,0,1.27,1.06.4.4,0,1,0,.47-.65h0Z" transform="translate(0 0)" fill="#bcbccb"/><path d="M9.55,21.22a9.2,9.2,0,0,1-1.42-.58.41.41,0,0,0-.55.15h0a.41.41,0,0,0,.16.54h0A10.73,10.73,0,0,0,9.3,22a.41.41,0,0,0,.51-.25.42.42,0,0,0-.26-.51Z" transform="translate(0 0)" fill="#bcbccb"/><path d="M4.53,18.27a.4.4,0,0,0,.06-.56,13.69,13.69,0,0,1-.88-1.27.41.41,0,0,0-.56-.11.41.41,0,0,0-.14.49H3a14.66,14.66,0,0,0,1,1.39A.41.41,0,0,0,4.53,18.27Z" transform="translate(0 0)" fill="#bcbccb"/><path d="M12,0A12,12,0,0,0,5.51,1.89L3.88.13a.4.4,0,0,0-.57,0h0a.41.41,0,0,0-.13.25l-.8,6a.4.4,0,0,0,.34.45h.12L8.44,6a.4.4,0,0,0,.34-.45.44.44,0,0,0-.1-.22L7.17,3.7A9.6,9.6,0,1,1,12,21.6h0a7.42,7.42,0,0,1-.94-.06.4.4,0,0,0-.1.8h0a8.39,8.39,0,0,0,1,.06h0A10.4,10.4,0,1,0,6.33,3.28a.4.4,0,0,0-.12.55h0L7.57,5.31l-4.32.62L3.87,1.3,5.15,2.69a.4.4,0,0,0,.52.06A11.19,11.19,0,1,1,10.46,23.1a.39.39,0,0,0-.43.35h0a.39.39,0,0,0,.33.43A12,12,0,0,0,13.55.11,11.42,11.42,0,0,0,12,0Z" transform="translate(0 0)" fill="#bcbccb"/><path d="M12,4.4a.4.4,0,0,0-.4.4V12a.36.36,0,0,0,.12.28l4,4a.4.4,0,0,0,.57,0h0a.4.4,0,0,0,0-.56L12.4,11.83v-7A.4.4,0,0,0,12,4.4Z" transform="translate(0 0)" fill="#bcbccb"/></svg>