<svg width="12" height="12" viewBox="0 0 12 12" fill="none" xmlns="http://www.w3.org/2000/svg">
<path fill-rule="evenodd" clip-rule="evenodd" d="M6.69844 5.92943H8.15105C8.26353 5.92943 8.35444 6.02034 8.35444 6.13282C8.35444 6.24529 8.26332 6.33621 8.15105 6.33621H6.69844C6.60753 6.68604 6.29166 6.94638 5.91376 6.94638C5.46509 6.94638 5.1002 6.5815 5.1002 6.13282C5.1002 5.75472 5.36054 5.43905 5.71037 5.34814V3.28536C5.71037 3.17289 5.80149 3.08197 5.91376 3.08197C6.02603 3.08197 6.11715 3.17289 6.11715 3.28536V5.34814C6.4017 5.42217 6.62441 5.64489 6.69844 5.92943ZM5.50698 6.13282C5.50698 6.35716 5.68942 6.5396 5.91376 6.5396C6.1381 6.5396 6.32054 6.35716 6.32054 6.13282C6.32054 5.90848 6.1381 5.72604 5.91376 5.72604C5.68942 5.72604 5.50698 5.90848 5.50698 6.13282Z" fill="black"/>
<path fill-rule="evenodd" clip-rule="evenodd" d="M11.0408 2.81897L10.2077 1.98589L9.86664 2.32677C10.8183 3.31463 11.4053 4.65619 11.4053 6.1328C11.4053 8.14596 10.3157 9.90853 8.69593 10.8647L9.3118 11.4805C9.39132 11.5601 9.39132 11.6886 9.3118 11.7681C9.27213 11.8078 9.22007 11.8277 9.168 11.8277C9.11593 11.8277 9.06386 11.8078 9.0242 11.7681L8.32251 11.0664C7.59478 11.4232 6.77736 11.6243 5.91376 11.6243C5.05017 11.6243 4.23275 11.4232 3.50502 11.0664L2.80332 11.7681C2.76366 11.8078 2.71159 11.8277 2.65953 11.8277C2.60746 11.8277 2.55539 11.8078 2.51573 11.7681C2.4362 11.6886 2.4362 11.5601 2.51573 11.4805L3.13159 10.8647C1.5118 9.90853 0.422237 8.14596 0.422237 6.1328C0.422237 4.65619 1.00922 3.31463 1.96088 2.32677L1.62 1.98589L0.786915 2.81897C0.748881 2.85721 0.697017 2.87857 0.643118 2.87857C0.58922 2.87857 0.537559 2.85721 0.499322 2.81897C-0.144814 2.17504 -0.144814 1.12697 0.499322 0.483041C1.14325 -0.160892 2.19132 -0.160892 2.83525 0.483041C2.87349 0.521075 2.89485 0.572736 2.89485 0.626837C2.89485 0.680939 2.87349 0.732397 2.83525 0.770634L1.90759 1.69829L2.25336 2.04385C3.22556 1.17253 4.50875 0.641278 5.91397 0.641278C7.31919 0.641278 8.60237 1.17253 9.57458 2.04385L9.92014 1.69829L8.99247 0.770634C8.95424 0.7326 8.93288 0.680939 8.93288 0.626837C8.93288 0.572736 8.95424 0.521278 8.99247 0.483041C9.63641 -0.160892 10.6845 -0.160892 11.3284 0.483041C11.9725 1.12697 11.9725 2.17504 11.3284 2.81897C11.2904 2.85721 11.2385 2.87857 11.1846 2.87857C11.1307 2.87857 11.0791 2.85721 11.0408 2.81897ZM11.1726 2.37599C11.521 1.88968 11.4771 1.20711 11.0406 0.770634C10.6041 0.333956 9.92136 0.290227 9.43546 0.638634L11.1726 2.37599ZM0.654915 2.37579C0.306508 1.88968 0.35044 1.20711 0.786915 0.770634C1.22339 0.334159 1.90617 0.290431 2.39207 0.638634L0.654915 2.37579ZM0.829017 6.1328C0.829017 8.93653 3.11003 11.2175 5.91376 11.2175C8.7177 11.2175 10.9985 8.93653 10.9985 6.1328C10.9985 3.32907 8.71749 1.04806 5.91376 1.04806C3.11003 1.04806 0.829017 3.32907 0.829017 6.1328Z" fill="black"/>
<path fill-rule="evenodd" clip-rule="evenodd" d="M8.26169 2.08923C8.96298 2.49804 9.54875 3.0836 9.95756 3.78509C9.95858 3.78672 9.95995 3.78804 9.96134 3.78938C9.96274 3.79073 9.96417 3.79211 9.96529 3.79384C9.96635 3.79575 9.9668 3.79773 9.96726 3.79969C9.96767 3.80149 9.96808 3.80328 9.96895 3.80502C10.3643 4.49106 10.5919 5.2857 10.5919 6.13282C10.5919 6.97994 10.3643 7.77438 9.96895 8.46062C9.96823 8.46223 9.96783 8.46393 9.96743 8.46562C9.96693 8.46775 9.96642 8.46987 9.96529 8.4718C9.96363 8.47477 9.96148 8.47725 9.95934 8.47973C9.9578 8.4815 9.95627 8.48328 9.95492 8.48523C9.5461 9.18468 8.96156 9.76841 8.26169 10.1764C8.26002 10.1775 8.25873 10.1789 8.25745 10.1802C8.25609 10.1817 8.25474 10.1831 8.25295 10.1841C8.24982 10.1859 8.24655 10.1871 8.24331 10.1883C8.24107 10.1891 8.23884 10.1899 8.23668 10.1909C7.55166 10.5844 6.75905 10.8108 5.91397 10.8108C5.06888 10.8108 4.27627 10.5844 3.59125 10.1909C3.58909 10.1899 3.58686 10.1891 3.58462 10.1883C3.58138 10.1871 3.57811 10.1859 3.57498 10.1841C3.57312 10.183 3.57167 10.1815 3.57022 10.18C3.56898 10.1787 3.56774 10.1774 3.56624 10.1764C2.86637 9.76841 2.28183 9.18448 1.87302 8.48523C1.87166 8.48328 1.87013 8.48151 1.8686 8.47973C1.86645 8.47725 1.86431 8.47477 1.86264 8.4718C1.86158 8.46989 1.86113 8.46792 1.86068 8.46595C1.86027 8.46415 1.85986 8.46236 1.85898 8.46062C1.46359 7.77458 1.236 6.97994 1.236 6.13282C1.236 5.2857 1.46359 4.49126 1.85898 3.80502C1.8597 3.80341 1.8601 3.80171 1.8605 3.80002C1.86101 3.79789 1.86151 3.79577 1.86264 3.79384C1.8637 3.79205 1.86513 3.7907 1.86657 3.78933C1.86793 3.78805 1.86929 3.78676 1.87037 3.78509C2.27919 3.0836 2.86475 2.49804 3.56624 2.08923C3.56791 2.08815 3.5692 2.08678 3.57048 2.08543C3.57184 2.08398 3.5732 2.08255 3.57498 2.0815C3.57688 2.08027 3.57896 2.07978 3.58105 2.07928C3.58278 2.07887 3.58452 2.07846 3.58617 2.07763C4.2722 1.68204 5.06685 1.45465 5.91397 1.45465C6.76108 1.45465 7.55573 1.68224 8.24176 2.07763C8.2435 2.0785 8.24528 2.07896 8.24707 2.07942C8.24904 2.07992 8.25102 2.08043 8.25295 2.0815C8.25481 2.08259 8.25626 2.0841 8.25771 2.08561C8.25895 2.0869 8.26019 2.08819 8.26169 2.08923ZM8.1238 9.55384L8.22081 9.72184C8.73437 9.39052 9.17166 8.95323 9.50237 8.43946L9.33437 8.34245C9.23715 8.28631 9.2038 8.16204 9.25993 8.06462C9.31607 7.9676 9.44014 7.93363 9.53776 7.99018L9.70637 8.0876C9.98034 7.55838 10.1443 6.96489 10.1742 6.33601H9.98115C9.86888 6.33601 9.77776 6.24509 9.77776 6.13262C9.77776 6.02014 9.86888 5.92923 9.98115 5.92923H10.1742C10.1443 5.30055 9.98034 4.70706 9.70637 4.17763L9.53776 4.27506C9.50563 4.29357 9.47064 4.30231 9.43627 4.30231C9.3659 4.30231 9.29776 4.2657 9.25993 4.20062C9.2038 4.1034 9.23715 3.97892 9.33437 3.92279L9.50237 3.82577C9.17125 3.31241 8.73397 2.87492 8.22041 2.5438L8.12339 2.7118C8.08576 2.77689 8.01742 2.8135 7.94705 2.8135C7.91268 2.8135 7.8777 2.80475 7.84556 2.78624C7.74834 2.73011 7.71498 2.60584 7.77112 2.50841L7.86854 2.3398C7.33912 2.06584 6.74583 1.9017 6.11695 1.87201V2.06502C6.11695 2.1775 6.02583 2.26841 5.91356 2.26841C5.80129 2.26841 5.71017 2.1775 5.71017 2.06502V1.87201C5.08129 1.90191 4.488 2.06584 3.95858 2.3398L4.056 2.50841C4.11214 2.60563 4.07878 2.73011 3.98156 2.78624C3.94942 2.80475 3.91444 2.8135 3.88007 2.8135C3.8097 2.8135 3.74156 2.77689 3.70373 2.7118L3.60671 2.5438C3.09336 2.87492 2.65586 3.31241 2.32475 3.82577L2.49275 3.92319C2.58997 3.97933 2.62332 4.1036 2.56719 4.20102C2.52956 4.26611 2.46122 4.30272 2.39085 4.30272C2.35647 4.30272 2.32149 4.29397 2.28936 4.27546L2.12075 4.17804C1.84678 4.70726 1.68285 5.30075 1.65295 5.92963H1.84637C1.95864 5.92963 2.04976 6.02055 2.04976 6.13302C2.04976 6.2455 1.95864 6.33641 1.84637 6.33641H1.65336C1.68325 6.96509 1.84719 7.55858 2.12115 8.08801L2.28976 7.99058C2.38719 7.93384 2.51125 7.9678 2.56759 8.06502C2.62373 8.16224 2.59037 8.28672 2.49315 8.34285L2.32515 8.43987C2.65627 8.95323 3.09356 9.39072 3.60712 9.72184L3.70414 9.55384C3.76027 9.45682 3.88414 9.42326 3.98197 9.4794C4.07919 9.53553 4.11254 9.6598 4.05641 9.75723L3.95898 9.92584C4.48841 10.1998 5.0817 10.3639 5.71058 10.3936V10.2006C5.71058 10.0881 5.80169 9.99723 5.91397 9.99723C6.02624 9.99723 6.11736 10.0881 6.11736 10.2006V10.3936C6.74624 10.3637 7.33953 10.1998 7.86895 9.92584L7.77153 9.75723C7.71539 9.66001 7.74875 9.53553 7.84597 9.4794C7.94319 9.42306 8.06746 9.45662 8.1238 9.55384Z" fill="black"/>
</svg>
