<svg width="24" height="18" viewBox="0 0 24 18" fill="none" xmlns="http://www.w3.org/2000/svg">
<path fill-rule="evenodd" clip-rule="evenodd" d="M1.17 0H22.23C22.8762 0 23.4 0.525602 23.4 1.17391V16.8261C23.4 17.4744 22.8762 18 22.23 18H1.17C0.523803 18 0 17.4744 0 16.8261V1.17391C0 0.525556 0.523849 0 1.17 0ZM22.23 17.2174C22.4454 17.2174 22.62 17.0423 22.62 16.8261V1.17391C22.62 0.957795 22.4454 0.782625 22.23 0.782625H1.17C0.954601 0.782625 0.780015 0.957795 0.780015 1.17391V16.8261C0.780015 17.0423 0.954601 17.2174 1.17 17.2174H22.23Z" fill="#9696A2"/>
<path fill-rule="evenodd" clip-rule="evenodd" d="M21.2523 1.80142C21.1517 1.79295 21.0517 1.82334 20.9744 1.88592L12.19 8.9941C11.9067 9.22349 11.4932 9.22349 11.2099 8.9941L2.42563 1.88588C2.32144 1.80163 2.17847 1.7773 2.05063 1.82209C1.92279 1.86688 1.82944 1.97399 1.80579 2.10306C1.78214 2.23214 1.83176 2.36354 1.93595 2.44778L10.7203 9.55562C11.2864 10.0148 12.1135 10.0148 12.6797 9.55562L21.464 2.44782C21.5414 2.38529 21.5898 2.29571 21.5985 2.19879C21.6073 2.10186 21.5758 2.00554 21.5108 1.93105C21.4459 1.85648 21.3529 1.80988 21.2523 1.80142Z" fill="#9696A2"/>
<path fill-rule="evenodd" clip-rule="evenodd" d="M7.79259 9.91016C7.65346 9.87677 7.50849 9.927 7.41362 10.0414L1.9118 16.382C1.81224 16.4917 1.77567 16.6508 1.81629 16.7977C1.85691 16.9447 1.96831 17.0565 2.10739 17.0898C2.24652 17.1232 2.39149 17.073 2.48636 16.9586L7.98817 10.618C8.08774 10.5083 8.12431 10.3492 8.08369 10.2023C8.04307 10.0553 7.93171 9.94355 7.79259 9.91016Z" fill="#9696A2"/>
<path fill-rule="evenodd" clip-rule="evenodd" d="M15.9877 10.0417C15.8927 9.92705 15.7474 9.87673 15.608 9.91018C15.4686 9.94363 15.357 10.0557 15.3163 10.2029C15.2756 10.3501 15.3123 10.5095 15.412 10.6194L20.9245 16.9723C21.074 17.137 21.3184 17.1432 21.4748 16.9861C21.6313 16.8291 21.6426 16.5664 21.5002 16.3946L15.9877 10.0417Z" fill="#9696A2"/>
</svg>
