<svg xmlns="http://www.w3.org/2000/svg" width="21.542" height="27.5" viewBox="0 0 21.542 27.5"><g transform="translate(-0.229)"><path d="M11.917,0H.458a.458.458,0,0,0,0,.917H11.917a.458.458,0,0,0,0-.917Z" transform="translate(4.813 10.083)" fill="#878787"/><path d="M.458.917H5.042a.458.458,0,1,0,0-.917H.458a.458.458,0,0,0,0,.917Z" transform="translate(4.813 6.417)" fill="#878787"/><path d="M11.917,0H.458a.458.458,0,0,0,0,.917H11.917a.458.458,0,0,0,0-.917Z" transform="translate(4.813 13.75)" fill="#878787"/><path d="M11.917,0H.458a.458.458,0,0,0,0,.917H11.917a.458.458,0,0,0,0-.917Z" transform="translate(4.813 17.417)" fill="#878787"/><path d="M11.917,0H.458a.458.458,0,0,0,0,.917H11.917a.458.458,0,0,0,0-.917Z" transform="translate(4.813 21.083)" fill="#878787"/><path d="M21.542,27.5H0V0H14.856l6.685,6.685V27.5ZM.917.917V26.583H20.625V7.333H14.208V.917Zm14.208.648V6.417h4.852L15.125,1.565Z" transform="translate(0.229)" fill="#878787"/></g></svg>