<svg width="16" height="16" viewBox="0 0 16 16" fill="none" xmlns="http://www.w3.org/2000/svg">
<path fill-rule="evenodd" clip-rule="evenodd" d="M13.0656 0.957031C13.0656 0.428477 12.6322 0 12.0977 0H0.96786C0.433326 0 0 0.428477 0 0.957031V13.043C0 13.5715 0.433326 14 0.96786 14H12.0988C12.6333 14 13.0667 13.5715 13.0667 13.043V0.957031H13.0656ZM5.13333 12.6H1.86667V9.8H5.13333V12.6ZM1.86667 8.4H5.13333V5.6H1.86667V8.4ZM5.13333 4.2H1.86667V1.4H5.13333V4.2ZM7 11.0004L8.60641 12.6L10.7333 10.4814L10.0494 9.8L8.60641 11.2371L7.68423 10.3192L7 11.0004ZM8.60641 8.4L7 6.80037L7.68423 6.11893L8.60641 7.0371L10.0494 5.6L10.7333 6.28145L8.60641 8.4ZM7 2.60037L8.60641 4.2L10.7333 2.08145L10.0494 1.4L8.60641 2.8371L7.68423 1.91892L7 2.60037Z" fill="#BCBCCB"/>
<path fill-rule="evenodd" clip-rule="evenodd" d="M11.88 15.76C14.0229 15.76 15.76 14.0229 15.76 11.88C15.76 9.73714 14.0229 8 11.88 8C9.73714 8 8 9.73714 8 11.88C8 14.0229 9.73714 15.76 11.88 15.76Z" fill="white"/>
<path fill-rule="evenodd" clip-rule="evenodd" d="M8 11.8823C8 14.023 9.7415 15.7648 11.8823 15.7648C14.023 15.7648 15.7648 14.023 15.7645 11.8823C15.7645 9.7415 14.023 8 11.8823 8C9.7415 8 8 9.7415 8 11.8823ZM8.4435 11.8823C8.4435 9.98625 9.986 8.4435 11.8823 8.4435C13.7783 8.4435 15.3208 9.98625 15.3208 11.8823C15.3208 13.7783 13.7783 15.3208 11.8823 15.3208C9.986 15.3208 8.4435 13.7783 8.4435 11.8823Z" fill="#BCBCCB"/>
<path fill-rule="evenodd" clip-rule="evenodd" d="M13.413 12.104H10.3515C10.229 12.104 10.1295 12.005 10.1295 11.8822C10.1295 11.7597 10.2288 11.6602 10.3515 11.6602H13.413C13.5355 11.6602 13.6348 11.7597 13.6348 11.8822C13.6348 12.005 13.5358 12.104 13.413 12.104Z" fill="#BCBCCB"/>
<path fill-rule="evenodd" clip-rule="evenodd" d="M11.9104 13.6347C11.7724 13.6347 11.6602 13.5355 11.6602 13.413V10.3515C11.6602 10.229 11.7724 10.1295 11.9104 10.1295C12.0484 10.1295 12.1602 10.229 12.1602 10.3515V13.413C12.1602 13.5357 12.0487 13.6347 11.9104 13.6347Z" fill="#BCBCCB"/>
</svg>
