<svg id="Layer_1" data-name="Layer 1" xmlns="http://www.w3.org/2000/svg" viewBox="0 0 25.98 26"><title>logo-file-view</title><path d="M19.91,26H0V0H13.37l6.54,6.54v4.69a5.33,5.33,0,0,1,2.52,7.11,5.11,5.11,0,0,1-.54.9L26,23.38,24.9,24.45l-4.09-4.13a5.11,5.11,0,0,1-.9.54V26ZM1.52,1.52v23H18.38V21.32a4.87,4.87,0,0,1-.76.06,5.33,5.33,0,0,1,0-10.66,6.47,6.47,0,0,1,.76,0V7.62H12.29V1.52Zm16.1,10.72a3.79,3.79,0,1,0,2.7,1.11,3.85,3.85,0,0,0-2.7-1.11ZM13.81,2.6V6.09h3.5Z" fill="#878787"/><rect x="3.05" y="9.19" width="10.77" height="1.52" fill="#878787"/><rect x="3.05" y="12.24" width="7.72" height="1.52" fill="#878787"/><rect x="3.05" y="18.33" width="7.72" height="1.52" fill="#878787"/><rect x="3.05" y="15.28" width="7.72" height="1.52" fill="#878787"/></svg>