<svg width="14" height="14" viewBox="0 0 14 14" fill="none" xmlns="http://www.w3.org/2000/svg">
<g clip-path="url(#clip0)">
<path d="M1.22368 10.4662L9.89068 1.79898L12.201 4.10932L3.53379 12.7763L1.22368 10.4662Z" fill="#BCBCCB"/>
<path d="M13.1915 3.11905L13.5215 2.78903C13.8301 2.48049 14 2.07042 14 1.63398C14 1.19753 13.8301 0.787464 13.5215 0.47892C13.213 0.170376 12.8027 0 12.3663 0C11.9298 0 11.5197 0.170143 11.211 0.478686L10.881 0.808702L13.1915 3.11905Z" fill="#BCBCCB"/>
<path d="M0.956656 10.859L0.0118861 13.6928C-0.0161209 13.7766 0.00581795 13.8693 0.0683669 13.9316C0.112711 13.976 0.17246 14 0.233375 14C0.258114 14 0.282854 13.996 0.307127 13.9879L3.14073 13.0433L0.956656 10.859Z" fill="#BCBCCB"/>
<path d="M10.2209 1.46897L10.5512 1.13872L12.8615 3.44906L12.5313 3.77931L10.2209 1.46897Z" fill="#BCBCCB"/>
</g>
<defs>
<clipPath id="clip0">
<rect width="14" height="14" fill="white"/>
</clipPath>
</defs>
</svg>
