<svg width="25" height="16" viewBox="0 0 25 16" fill="none" xmlns="http://www.w3.org/2000/svg">
<path fill-rule="evenodd" clip-rule="evenodd" d="M0.914286 2.05715H23.3143C23.819 2.05715 24.2286 1.64755 24.2286 1.14286C24.2286 0.638177 23.819 0.228577 23.3143 0.228577H0.914286C0.4096 0.228577 0 0.638177 0 1.14286C0 1.64755 0.4096 2.05715 0.914286 2.05715Z" fill="#BCBCCB"/>
<path fill-rule="evenodd" clip-rule="evenodd" d="M0.914286 8.91428H23.3143C23.819 8.91428 24.2286 8.50468 24.2286 7.99999C24.2286 7.49531 23.819 7.08571 23.3143 7.08571H0.914286C0.4096 7.08571 0 7.49531 0 7.99999C0 8.50468 0.4096 8.91428 0.914286 8.91428Z" fill="#BCBCCB"/>
<path fill-rule="evenodd" clip-rule="evenodd" d="M0.914286 15.7714H23.3143C23.819 15.7714 24.2286 15.3618 24.2286 14.8572C24.2286 14.3525 23.819 13.9429 23.3143 13.9429H0.914286C0.4096 13.9429 0 14.3525 0 14.8572C0 15.3618 0.4096 15.7714 0.914286 15.7714Z" fill="#BCBCCB"/>
</svg>
