<svg id="b6059aac-9f88-410b-830e-4c5b1da3692f" data-name="Capa 1" xmlns="http://www.w3.org/2000/svg" viewBox="0 0 511.63 401.99"><title>logo-view-list</title><path d="M64,164.45H9.14a8.78,8.78,0,0,0-6.43,2.71A8.78,8.78,0,0,0,0,173.59v54.82a8.76,8.76,0,0,0,2.71,6.42,8.82,8.82,0,0,0,6.43,2.71H64a9.26,9.26,0,0,0,9.14-9.13V173.59A9.25,9.25,0,0,0,64,164.45Z" transform="translate(0 -54.82)"/><path d="M64,383.72H9.14a8.78,8.78,0,0,0-6.43,2.71A8.77,8.77,0,0,0,0,392.85v54.82a8.76,8.76,0,0,0,2.71,6.42,8.75,8.75,0,0,0,6.43,2.72H64a9.27,9.27,0,0,0,9.14-9.14V392.85A9.26,9.26,0,0,0,64,383.72Z" transform="translate(0 -54.82)"/><path d="M64,274.08H9.14a8.79,8.79,0,0,0-6.43,2.72A8.76,8.76,0,0,0,0,283.22V338a8.77,8.77,0,0,0,2.71,6.42,8.78,8.78,0,0,0,6.43,2.71H64A9.26,9.26,0,0,0,73.09,338V283.22A9.27,9.27,0,0,0,64,274.08Z" transform="translate(0 -54.82)"/><path d="M64,54.82H9.14a8.78,8.78,0,0,0-6.43,2.71A8.77,8.77,0,0,0,0,64v54.82a8.74,8.74,0,0,0,2.71,6.42,8.79,8.79,0,0,0,6.43,2.72H64a9.27,9.27,0,0,0,9.14-9.14V64A9.26,9.26,0,0,0,64,54.82Z" transform="translate(0 -54.82)"/><path d="M502.49,383.72H118.77a9.26,9.26,0,0,0-9.13,9.13v54.82a9.26,9.26,0,0,0,9.13,9.14H502.49a9.25,9.25,0,0,0,9.14-9.14V392.85a9.26,9.26,0,0,0-9.14-9.13Z" transform="translate(0 -54.82)"/><path d="M502.49,274.08H118.77a9.27,9.27,0,0,0-9.13,9.14V338a9.26,9.26,0,0,0,9.13,9.13H502.49a9.26,9.26,0,0,0,9.14-9.13V283.22a9.27,9.27,0,0,0-9.14-9.14Z" transform="translate(0 -54.82)"/><path d="M508.92,57.53a8.78,8.78,0,0,0-6.43-2.71H118.77A9.26,9.26,0,0,0,109.64,64v54.82a9.27,9.27,0,0,0,9.13,9.14H502.49a9.27,9.27,0,0,0,9.14-9.14V64A8.81,8.81,0,0,0,508.92,57.53Z" transform="translate(0 -54.82)"/><path d="M502.49,164.45H118.77a9.26,9.26,0,0,0-9.13,9.14v54.82a9.26,9.26,0,0,0,9.13,9.13H502.49a9.26,9.26,0,0,0,9.14-9.13V173.59a9.25,9.25,0,0,0-9.14-9.14Z" transform="translate(0 -54.82)"/></svg>