<svg width="17" height="15" viewBox="0 0 17 15" fill="none" xmlns="http://www.w3.org/2000/svg">
<path fill-rule="evenodd" clip-rule="evenodd" d="M14.3543 6.23279C14.0046 6.23279 13.7212 6.51626 13.7212 6.86591V7.50359C13.7202 9.167 13.0716 10.7305 11.8947 11.906C10.7186 13.0807 9.15588 13.7274 7.49382 13.7274C7.49259 13.7274 7.49137 13.7274 7.49014 13.7274C4.05631 13.7255 1.26429 10.9303 1.26625 7.49643C1.2672 5.83305 1.91587 4.26956 3.09279 3.09399C4.26882 1.91934 5.8316 1.27256 7.49363 1.27256C7.49486 1.27256 7.49608 1.27256 7.49731 1.27256C8.37502 1.27305 9.22659 1.45446 10.0283 1.81167C10.3478 1.95402 10.722 1.81042 10.8643 1.49104C11.0066 1.17166 10.8631 0.797399 10.5437 0.655052C9.57891 0.225164 8.55423 0.00689877 7.49801 0.00631714C7.49642 0.00631714 7.49519 0.00631714 7.4936 0.00631714C5.49374 0.00631714 3.61298 0.784725 2.1979 2.19815C0.781715 3.61268 0.0011645 5.49408 1.23444e-06 7.49576C-0.00113142 9.49737 0.777215 11.3797 2.19181 12.7958C3.6064 14.212 5.48777 14.9926 7.48941 14.9937C7.49097 14.9937 7.49223 14.9937 7.49382 14.9937C9.49368 14.9937 11.3744 14.2154 12.7895 12.8019C14.2057 11.3873 14.9863 9.50594 14.9874 7.50396V6.86594C14.9874 6.51626 14.704 6.23279 14.3543 6.23279Z" fill="#52CB76"/>
<path fill-rule="evenodd" clip-rule="evenodd" d="M15.488 0.881738C15.2408 0.634513 14.8399 0.634513 14.5926 0.881738L7.4937 7.98066L5.88322 6.37018C5.63599 6.12292 5.2351 6.12292 4.98787 6.37018C4.74062 6.61743 4.74062 7.0183 4.98787 7.26555L7.04605 9.32374C7.16967 9.44738 7.33173 9.50919 7.49376 9.50919C7.65579 9.50919 7.81782 9.44738 7.94146 9.32374L15.488 1.77712C15.7353 1.52986 15.7353 1.12899 15.488 0.881738Z" fill="#52CB76"/>
</svg>
