<svg id="Layer_1" data-name="Layer 1" xmlns="http://www.w3.org/2000/svg" viewBox="0 0 558.45 484.5"><title>logo-eye-cross</title><path d="M280.5,102C351.9,102,408,158.1,408,229.5c0,15.3-2.55,33.15-10.2,45.9l73.95,74c38.25-33.15,68.85-74,86.7-119.85C515.1,117.3,405.45,38.25,278,38.25c-35.7,0-68.85,7.65-102,17.85l56.1,56.1C247.35,104.55,265.2,102,280.5,102ZM25.5,33.15,84.15,91.8,94.35,102C51,135.15,17.85,178.5,0,229.5,43.35,341.7,153,420.75,280.5,420.75c38.25,0,76.5-7.65,112.2-20.4l10.2,10.2,74,73.95L510,451.35,58.65,0ZM165.75,173.4,204,211.65V229.5c0,43.35,33.15,76.5,76.5,76.5a49.85,49.85,0,0,0,17.85-2.55L336.6,341.7c-17.85,10.2-35.7,15.3-56.1,15.3C209.1,357,153,300.9,153,229.5,153,209.1,158.1,191.25,165.75,173.4ZM275.4,153l79.05,79.05V227c0-43.35-33.15-76.5-76.5-76.5C278,153,278,153,275.4,153Z"/></svg>