<svg id="Layer_1" data-name="Layer 1" xmlns="http://www.w3.org/2000/svg" viewBox="0 0 24 24"><title>logo-calendar-user</title><path d="M4.5,0H6V4.5H4.5Z" fill="#bcbccb"/><path d="M16.5,0H18V4.5H16.5Z" fill="#bcbccb"/><path d="M13.5,21.15h0L1.5,21V9H21v1.8a3.05,3.05,0,0,1,1.5.9V1.5h-3V6H15V1.5H7.5V6H3V1.5H0v21H13.5Z" fill="#bcbccb"/><path d="M22.5,15a3,3,0,1,1-3-3A3,3,0,0,1,22.5,15Z" fill="#bcbccb"/><path d="M20.85,18h-2.7A3.16,3.16,0,0,0,15,21.15V24h9V21.15A3.07,3.07,0,0,0,21,18Z" fill="#bcbccb"/></svg>