<svg id="e6e6bf83-7ada-42e4-98e5-71062d2c78f4" data-name="Capa 1" xmlns="http://www.w3.org/2000/svg" viewBox="0 0 416 512"><title>logo-notification</title><path d="M454.63,342.63l-35.89-35.88A64,64,0,0,1,400,261.49V180.93c0-69.12-47.07-130.17-112.37-145.22A32.37,32.37,0,0,0,288,32a32,32,0,0,0-64,0,31.55,31.55,0,0,0,.37,3.65C160.09,50.08,112,107.36,112,176v85.49a64,64,0,0,1-18.74,45.26L57.37,342.63A32,32,0,0,0,48,365.25V400H464V365.25A32,32,0,0,0,454.63,342.63Z" transform="translate(-48)"/><path d="M192,448a64,64,0,0,0,128,0V432H192Z" transform="translate(-48)"/></svg>