<svg width="16" height="16" viewBox="0 0 16 16" fill="none" xmlns="http://www.w3.org/2000/svg">
<path fill-rule="evenodd" clip-rule="evenodd" d="M0.13024 1.38705L12.9653 14.2222L5.77781 14.2222C5.53215 14.2222 5.33335 14.421 5.33335 14.6667V15.5555C5.33335 15.8012 5.53215 16 5.77781 16H15.5555C15.8012 16 16 15.8012 16 15.5555L16 5.77773C16 5.5321 15.8012 5.33331 15.5555 5.33331H14.6667C14.421 5.33331 14.2222 5.5321 14.2222 5.77777L14.2222 12.9653L1.38715 0.130135C1.30203 0.0450511 1.19103 0.00171721 1.07953 5.05447e-05C0.963573 -0.00169946 0.847072 0.0417177 0.758573 0.130135L0.130198 0.758553C0.0464486 0.842261 0.00307402 0.951094 0.000157356 1.06084C-0.00296764 1.17851 0.0404073 1.29726 0.13024 1.38705Z" fill="#F5A623"/>
</svg>
