<svg id="a7174d4f-fec0-49f4-bc1c-66c04a01269a" data-name="Capa 1" xmlns="http://www.w3.org/2000/svg" viewBox="0 0 512 365.71"><title>logo-video</title><path d="M500.86,83.71a20,20,0,0,0-7.15-1.43,17,17,0,0,0-12.85,5.43L365.71,202.57V155.43q0-34-24.14-58.14T283.42,73.14H82.28q-34,0-58.14,24.15T0,155.43V356.57q0,34,24.14,58.14t58.15,24.15H283.43q34,0,58.14-24.15t24.14-58.14V309.14L480.86,424.29a17,17,0,0,0,12.85,5.42,19.94,19.94,0,0,0,7.15-1.42Q512,423.43,512,411.43V100.57Q512,88.57,500.86,83.71Z" transform="translate(0 -73.14)" fill="#fff"/></svg>