<svg width="16" height="17" viewBox="0 0 16 17" fill="none" xmlns="http://www.w3.org/2000/svg">
<path fill-rule="evenodd" clip-rule="evenodd" d="M13.0578 10.669C12.1236 10.669 11.2995 11.1103 10.7612 11.7861L5.76763 9.25407C5.83301 9.01231 5.87999 8.76252 5.87999 8.49963C5.87999 8.21344 5.82419 7.94401 5.74632 7.68182L10.7178 5.16143C11.2532 5.86783 12.0986 6.32953 13.0585 6.32953C14.6846 6.32953 16 5.02527 16 3.41441C16 1.805 14.6846 0.5 13.0586 0.5C11.4361 0.5 10.1193 1.805 10.1193 3.41438C10.1193 3.67801 10.1663 3.92851 10.2324 4.17101L5.23958 6.70308C4.70049 6.02657 3.87495 5.5838 2.93926 5.5838C1.31464 5.5838 0 6.88951 0 8.49963C0 10.1097 1.31468 11.4147 2.93926 11.4147C3.90066 11.4147 4.74529 10.9516 5.28289 10.2445L10.2522 12.7649C10.1743 13.0263 10.1178 13.298 10.1178 13.5849C10.1178 15.195 11.4347 16.5 13.0571 16.5C14.6831 16.5 15.9985 15.195 15.9985 13.5849C15.9993 11.9733 14.6839 10.669 13.0578 10.669Z" fill="#BCBCCB"/>
</svg>
