<svg width="20" height="15" viewBox="0 0 20 15" fill="none" xmlns="http://www.w3.org/2000/svg">
<path fill-rule="evenodd" clip-rule="evenodd" d="M15.6931 10.9438C15.6163 10.9438 15.5394 10.9156 15.4794 10.8588L11.8831 7.485C11.7575 7.3675 11.7513 7.16938 11.8694 7.04375C11.9875 6.91688 12.1844 6.91125 12.3113 7.03L15.9075 10.4038C16.0331 10.5213 16.0394 10.7194 15.9213 10.845C15.8594 10.9106 15.7769 10.9438 15.6931 10.9438Z" fill="#7A61EF"/>
<path fill-rule="evenodd" clip-rule="evenodd" d="M3.68875 10.9437C3.60562 10.9437 3.5225 10.9106 3.46062 10.845C3.3425 10.7194 3.34875 10.5212 3.47437 10.4037L7.07187 7.02999C7.19812 6.91249 7.39625 6.91749 7.51375 7.04374C7.63187 7.16937 7.62562 7.36749 7.5 7.48499L3.9025 10.8587C3.8425 10.9156 3.76562 10.9437 3.68875 10.9437Z" fill="#7A61EF"/>
<path fill-rule="evenodd" clip-rule="evenodd" d="M1.5625 14.0806H17.82C18.6812 14.0806 19.3825 13.38 19.3825 12.5181V1.86375C19.3825 1.00188 18.6812 0.301254 17.82 0.301254H1.5625C0.70125 0.301254 0 1.00188 0 1.86375V12.5181C0 13.38 0.70125 14.0806 1.5625 14.0806ZM0.625 1.86375C0.625 1.34688 1.04562 0.926254 1.5625 0.926254H17.82C18.3369 0.926254 18.7575 1.34688 18.7575 1.86375V12.5181C18.7575 13.035 18.3369 13.4556 17.82 13.4556H1.5625C1.04562 13.4556 0.625 13.035 0.625 12.5181V1.86375Z" fill="#7A61EF"/>
<path fill-rule="evenodd" clip-rule="evenodd" d="M9.69125 8.76125C9.27562 8.76125 8.86 8.62312 8.54375 8.3475L0.518749 1.34687C0.388749 1.23375 0.374999 1.03625 0.488124 0.905622C0.602499 0.775622 0.799374 0.763747 0.929374 0.875622L8.95437 7.87562C9.35375 8.22375 10.0287 8.22375 10.4275 7.87562L18.4425 0.886872C18.5719 0.773747 18.7687 0.786247 18.8837 0.916872C18.9969 1.0475 18.9837 1.24437 18.8538 1.35812L10.8387 8.34687C10.5219 8.62312 10.1069 8.76125 9.69125 8.76125Z" fill="#7A61EF"/>
</svg>
