<svg id="Capa_1" data-name="Capa 1" xmlns="http://www.w3.org/2000/svg" viewBox="0 0 536.46 402"><title>logo-folder-opened</title><path d="M144.75,263.52Q174.15,250,201,250H438.54V204.28q0-26.26-18.85-45.12t-45.11-18.84H219.27v-9.14q0-26.27-18.85-45.11T155.31,67.23H64q-26.27,0-45.11,18.84T0,131.18V405.27c0,.76.05,2,.14,3.57s.15,2.81.15,3.57l1.42-1.7L97.93,297.64Q115.35,277.08,144.75,263.52Z" transform="translate(0 -67.23)"/><path d="M528.9,290.21a38.76,38.76,0,0,0-17.27-3.72H201q-18.84,0-41,10.14t-34.4,24.7L29.7,434.39q-8.86,10-8.86,18.85,0,8.56,7.57,12.27a38.63,38.63,0,0,0,17.27,3.72H356.32q18.84,0,41-10.13t34.39-24.71l95.93-113q8.85-10,8.85-18.85Q536.48,293.92,528.9,290.21Z" transform="translate(0 -67.23)"/></svg>