<svg width="32" height="28" viewBox="0 0 32 28" fill="none" xmlns="http://www.w3.org/2000/svg">
<path fill-rule="evenodd" clip-rule="evenodd" d="M13 15H19V17H13V15Z" fill="#B2B2B2"/>
<path fill-rule="evenodd" clip-rule="evenodd" d="M25.9612 16.8886H20.6875V17.8145C20.6875 18.3262 20.2681 18.7405 19.75 18.7405H12.25C11.7319 18.7405 11.3125 18.3262 11.3125 17.8145V16.8886H6.03882C4.82666 16.8886 3.75464 16.1254 3.37085 14.9897L0 5V25.2221C0 26.7538 1.26172 28 2.8125 28H29.1875C30.7383 28 32 26.7538 32 25.2221V5.00072L28.6289 14.9897C28.2454 16.1254 27.1733 16.8886 25.9612 16.8886Z" fill="#B2B2B2"/>
<path fill-rule="evenodd" clip-rule="evenodd" d="M11.7204 0H19.2793C20.8423 0 22.1139 1.26172 22.1139 2.8125V3.75H30L26.4361 14.3591C26.3069 14.7427 25.9462 15 25.5392 15H20.2242V14.0625C20.2242 13.5444 19.8014 13.125 19.2793 13.125H11.7204C11.1983 13.125 10.7756 13.5444 10.7756 14.0625V15H5.46052C5.05354 15 4.69282 14.7427 4.56364 14.3591L1 3.75H8.88587V2.8125C8.88587 1.26172 10.1575 0 11.7204 0ZM10.7756 2.8125V3.75H20.2242V2.8125C20.2242 2.29517 19.8007 1.875 19.2793 1.875H11.7204C11.1991 1.875 10.7756 2.29517 10.7756 2.8125Z" fill="#B2B2B2"/>
</svg>
