<svg width="19" height="19" viewBox="0 0 19 19" fill="none" xmlns="http://www.w3.org/2000/svg"><path fill-rule="evenodd" clip-rule="evenodd" d="M17.9638 8.17208H10.8225V1.03075C10.8225 0.705432 10.3807 3.8147e-05 9.49726 3.8147e-05C8.6138 3.8147e-05 8.17205 0.705471 8.17205 1.03075V8.17212H1.03071C0.705433 8.17209 0 8.61383 0 9.49726C0 10.3807 0.705433 10.8225 1.03071 10.8225H8.17209V17.9638C8.17209 18.2891 8.6138 18.9946 9.4973 18.9946C10.3808 18.9946 10.8225 18.2891 10.8225 17.9638V10.8225H17.9639C18.2891 10.8225 18.9946 10.3808 18.9946 9.49726C18.9946 8.61376 18.289 8.17208 17.9638 8.17208Z" fill="#9C9C9C"/></svg>
