<svg width="23" height="17" viewBox="0 0 23 17" fill="none" xmlns="http://www.w3.org/2000/svg">
<path fill-rule="evenodd" clip-rule="evenodd" d="M9.69448 9.70758L7.18239 7.53847L0 13.6123C0.261072 13.8512 0.61352 14 1.00223 14H18.3867C18.774 14 19.125 13.8512 19.3846 13.6123L12.2066 7.53847L9.69448 9.70758Z" fill="#BCBCCB"/>
<path fill-rule="evenodd" clip-rule="evenodd" d="M19.3846 0.389128C19.1236 0.147897 18.7726 0 18.3825 0H0.999252C0.612024 0 0.261053 0.149333 0 0.392L9.69086 8.61539L19.3846 0.389128Z" fill="#BCBCCB"/>
<path fill-rule="evenodd" clip-rule="evenodd" d="M0 1.07692V12.9231L6.46154 7.06701L0 1.07692Z" fill="#BCBCCB"/>
<path fill-rule="evenodd" clip-rule="evenodd" d="M12.9231 7.06913L19.3846 12.9231V1.07692L12.9231 7.06913Z" fill="#BCBCCB"/>
<path fill-rule="evenodd" clip-rule="evenodd" d="M19 17C21.2091 17 23 15.2091 23 13C23 10.7909 21.2091 9 19 9C16.7909 9 15 10.7909 15 13C15 15.2091 16.7909 17 19 17Z" fill="white"/>
<path fill-rule="evenodd" clip-rule="evenodd" d="M15 12.9999C15 15.2055 16.7943 17 19 17C21.2057 17 23.0003 15.2055 23 12.9999C23 10.7943 21.2057 9 19 9C16.7943 9 15 10.7943 15 12.9999ZM15.457 12.9999C15.457 11.0464 17.0462 9.45694 19 9.45694C20.9535 9.45694 22.5428 11.0464 22.5428 12.9999C22.5428 14.9533 20.9535 16.5425 19 16.5425C17.0462 16.5425 15.457 14.9533 15.457 12.9999Z" fill="#BCBCCB"/>
<path fill-rule="evenodd" clip-rule="evenodd" d="M20.5835 13.2438H17.522C17.3995 13.2438 17.3 13.1448 17.3 13.022C17.3 12.8995 17.3993 12.8 17.522 12.8H20.5835C20.706 12.8 20.8053 12.8995 20.8053 13.022C20.8053 13.1448 20.7063 13.2438 20.5835 13.2438Z" fill="#BCBCCB"/>
<path fill-rule="evenodd" clip-rule="evenodd" d="M19.0501 14.8053C18.9121 14.8053 18.8 14.706 18.8 14.5835V11.522C18.8 11.3995 18.9121 11.3 19.0501 11.3C19.1882 11.3 19.3 11.3995 19.3 11.522V14.5835C19.3 14.7063 19.1885 14.8053 19.0501 14.8053Z" fill="#BCBCCB"/>
</svg>
