<svg id="Layer_1" data-name="Layer 1" xmlns="http://www.w3.org/2000/svg" viewBox="0 0 53.34 49.59"><title>logo-pulse</title><path d="M4.57,29H10.7l4.73-10.41a1,1,0,0,1,1.84,0l5.22,13.05,4-7.17a1,1,0,0,1,.86-.51,1,1,0,0,1,.87.49l1.69,2.83,3.48-16.53a1,1,0,0,1,1-.79,1,1,0,0,1,1,.84L38.2,29H48.77a23.34,23.34,0,0,0,4-8.6,15.22,15.22,0,0,0,.46-5.62C52.48,6.21,46.42,0,38.83,0A14.33,14.33,0,0,0,27.16,6.14a.74.74,0,0,1-1,.24.69.69,0,0,1-.24-.24A13.67,13.67,0,0,0,14.51,0C6.93,0,.87,6.21.09,14.78a15.16,15.16,0,0,0,.45,5.61A23.71,23.71,0,0,0,4.57,29Z" transform="translate(0)"/><path d="M37.35,31a1,1,0,0,1-1-.84L34.21,16.53,31.33,30.24a1,1,0,0,1-1.84.31L27.38,27l-4.16,7.48a1,1,0,0,1-.87.51h-.06a1,1,0,0,1-.87-.63L16.29,21.55l-4,8.86a1,1,0,0,1-.91.59H6.22c.54.59,1.1,1.17,1.71,1.72L26.52,49.59l18.9-16.87c.6-.55,1.17-1.13,1.71-1.72Z" transform="translate(0)"/></svg>