<svg xmlns="http://www.w3.org/2000/svg" viewBox="0 0 612 535.5"><g transform="translate(0 -38.25)"><path d="M439.875,38.25c-54.1,0-102.318,33.125-133.875,76.5-31.556-43.375-79.771-76.5-133.875-76.5C77.055,38.25,0,123.873,0,229.5,0,448.252,306,573.75,306,573.75s306-125.5,306-344.25C612,123.873,534.945,38.25,439.875,38.25ZM306,489.619C222.462,447.965,76.5,350.121,76.5,229.5c0-63.266,42.9-114.75,95.625-114.75,24.6,0,51.523,16.83,72.006,45l30.925,33.89a38.255,38.255,0,0,0,61.869,0l30.926-33.89c20.521-28.171,47.431-45,72.024-45,52.728,0,95.625,51.484,95.625,114.75C535.5,350.141,389.442,448,306,489.619Z"/></g></svg>