<svg id="0edec1ef-5439-4d68-9957-28686cfac599" data-name="Capa 1" xmlns="http://www.w3.org/2000/svg" viewBox="0 0 612 612"><title>logo-upload</title><g id="6c7f17e9-5406-4c47-8419-c532bc046c7d" data-name="Sent"><path d="M535.5,0H76.5A76.47,76.47,0,0,0,0,76.5v459A76.47,76.47,0,0,0,76.5,612h459A76.47,76.47,0,0,0,612,535.5V76.5A76.47,76.47,0,0,0,535.5,0Zm0,382.5a38.27,38.27,0,0,1-38.25,38.25H459c-33.09,0-38.25,38.25-38.25,38.25v38.25A38.27,38.27,0,0,1,382.5,535.5h-153a38.27,38.27,0,0,1-38.25-38.25V459S191,420.75,153,420.75H114.75A38.27,38.27,0,0,1,76.5,382.5V114.75A38.27,38.27,0,0,1,114.75,76.5h382.5a38.27,38.27,0,0,1,38.25,38.25ZM153,306H267.75V459h76.5V306H459L306,153Z"/></g></svg>