<svg width="15" height="14" viewBox="0 0 15 14" fill="none" xmlns="http://www.w3.org/2000/svg">
<path fill-rule="evenodd" clip-rule="evenodd" d="M2.09644 0.712246C2.09644 0.712246 2.07368 8.237 2.09644 10.7452C2.09867 10.993 2.226 11.0082 2.2321 11.009C2.23225 11.009 2.23232 11.009 2.23232 11.009L2.67455 10.1143V0.712246C2.67455 0.651504 2.72403 0.602052 2.78482 0.602052H7.87317C7.95253 0.602052 8.01688 0.666407 8.01688 0.74569V2.27553C8.01688 2.4348 8.14664 2.56434 8.30622 2.56434H9.66966C9.74902 2.56434 9.81337 2.62872 9.81337 2.70797V7.28891H10.3913V2.27503C10.3913 2.19597 10.3614 2.11967 10.308 2.06139L8.5266 0.125952C8.46696 0.060995 8.38276 0.0240631 8.2945 0.0240631H2.78447C2.40519 0.0240631 2.09644 0.33259 2.09644 0.712246ZM12.1538 13.4855L14.7821 8.5112C15.0239 8.06395 14.7456 7.73724 14.4152 7.73385H11.6174V6.4811C11.6174 6.07334 11.303 5.74294 10.9047 5.70601L10.9026 7.73382H4.80235C4.52127 7.73382 4.25535 7.96131 4.11462 8.24279L1.62372 13.2817H1.09571C0.885487 13.2817 0.714953 13.1115 0.714953 12.901L0.714201 5.2287C0.714201 5.12772 0.754319 5.03087 0.825649 4.95946C0.897054 4.88806 0.993975 4.84802 1.09489 4.84802H1.61045V4.13306L0.839824 4.13379C0.376921 4.13424 0.00170609 4.50981 0.00170609 4.97266L0 13.1571C0 13.3799 0.0883907 13.5931 0.245728 13.7506C0.403065 13.9081 0.616552 13.9963 0.839222 13.9963L11.3793 13.9944C11.6607 13.9944 12.0252 13.7328 12.1538 13.4855ZM8.5954 1.98665H9.45376L8.5954 1.05362V1.98665ZM3.58312 3.15294H8.90844C9.10452 3.15294 9.26421 3.31251 9.26454 3.50856C9.26454 3.70448 9.10479 3.8641 8.90859 3.8641H3.58312C3.38707 3.8641 3.22765 3.70461 3.22765 3.50856C3.22765 3.31236 3.38692 3.15294 3.58312 3.15294ZM9.26421 5.57933C9.26421 5.38328 9.10467 5.22401 8.90844 5.22401H3.58312C3.38692 5.22401 3.22765 5.38358 3.22765 5.57933C3.22765 5.77538 3.38707 5.93465 3.58312 5.93465H8.90859C9.10452 5.93467 9.26421 5.77538 9.26421 5.57933ZM3.58297 8.01944C3.38692 8.01944 3.22743 7.86015 3.22743 7.66412C3.22743 7.46807 3.38722 7.3088 3.58297 7.3088H4.49254C4.49254 7.3088 3.93541 7.39303 3.71065 8.01944H3.58297Z" fill="#BCBCCB"/>
</svg>
