<svg width="9" height="9" viewBox="0 0 9 9" fill="none" xmlns="http://www.w3.org/2000/svg">
<g clip-path="url(#clip0)">
<path d="M4.5 9.00001C4.34475 9.00001 4.21875 8.87401 4.21875 8.71876V5.43748C4.21875 5.28223 4.34475 5.15623 4.5 5.15623C4.65525 5.15623 4.78125 5.28223 4.78125 5.43748V8.71876C4.78125 8.87401 4.65525 9.00001 4.5 9.00001Z" fill="white"/>
<path d="M4.5 5.625C3.87975 5.625 3.375 5.12025 3.375 4.5C3.375 3.87975 3.87975 3.375 4.5 3.375C5.12025 3.375 5.625 3.87975 5.625 4.5C5.625 5.12025 5.12025 5.625 4.5 5.625ZM4.5 3.9375C4.18984 3.9375 3.9375 4.18984 3.9375 4.5C3.9375 4.81016 4.18984 5.0625 4.5 5.0625C4.81016 5.0625 5.0625 4.81016 5.0625 4.5C5.0625 4.18984 4.81016 3.9375 4.5 3.9375Z" fill="white"/>
<path d="M7.48128 7.76253C7.40925 7.76253 7.33688 7.73472 7.28174 7.67965C7.17222 7.56972 7.17263 7.3916 7.28249 7.28174C8.02764 6.54112 8.4375 5.55297 8.4375 4.5C8.4375 2.32876 6.67124 0.5625 4.5 0.5625C2.32876 0.5625 0.5625 2.32876 0.5625 4.5C0.5625 5.55297 0.972359 6.54112 1.71709 7.28174C1.82703 7.39126 1.82737 7.56937 1.71785 7.67965C1.6084 7.78986 1.42987 7.78986 1.32001 7.68075C0.468773 6.83322 0 5.70376 0 4.5C0 2.0186 2.0186 0 4.5 0C6.9814 0 9 2.0186 9 4.5C9 5.70376 8.53123 6.83322 7.67965 7.68075C7.62486 7.73513 7.55324 7.76253 7.48128 7.76253Z" fill="white"/>
<path d="M6.42002 6.70126C6.34765 6.70126 6.27528 6.67352 6.22055 6.61803C6.11103 6.50776 6.11179 6.32964 6.22199 6.22012C6.68328 5.76227 6.93755 5.15136 6.93755 4.50001C6.93755 3.15604 5.84399 2.06248 4.50002 2.06248C3.15605 2.06248 2.0625 3.15604 2.0625 4.50001C2.0625 5.15136 2.31676 5.76227 2.77805 6.22054C2.88826 6.32999 2.88902 6.5081 2.7795 6.61838C2.67004 6.72865 2.49227 6.72941 2.38165 6.61989C1.81318 6.05512 1.5 5.30249 1.5 4.50001C1.5 2.84588 2.84589 1.49998 4.50002 1.49998C6.15415 1.49998 7.50005 2.84588 7.50005 4.50001C7.50005 5.30249 7.18687 6.05512 6.61805 6.61948C6.56326 6.67386 6.49164 6.70126 6.42002 6.70126Z" fill="white"/>
</g>
<defs>
<clipPath id="clip0">
</clipPath>
</defs>
</svg>
