<svg width="28" height="34" viewBox="0 0 28 34" fill="none" xmlns="http://www.w3.org/2000/svg">
<path fill-rule="evenodd" clip-rule="evenodd" d="M14.1486 0.0774483L26.9739 7.10635C27.175 7.21673 27.3001 7.42769 27.3001 7.65722V15.7668C27.2924 23.3021 22.8283 30.119 15.9245 33.1383L14.1433 33.9148C13.9842 33.9842 13.803 33.9846 13.6436 33.9156L11.6377 33.0496C4.60428 30.0962 0.0287318 23.2124 0.0283813 15.5839V7.65687C0.0283813 7.42489 0.156288 7.21183 0.360938 7.10249L13.5514 0.073944C13.7386 -0.0259281 13.9628 -0.0245265 14.1486 0.0774483ZM15.4217 31.9875C21.8682 29.1683 26.0369 22.8028 26.0442 15.7668V8.02903L13.8426 1.34144L1.28432 8.03393V15.5839C1.28537 22.7081 5.55955 29.1364 12.1287 31.8936L12.1329 31.8953L13.8913 32.6547L15.4217 31.9875Z" fill="url(#paint0_linear)"/>
<path fill-rule="evenodd" clip-rule="evenodd" d="M10.7038 14.0231V9.26849C10.7123 8.91841 10.9996 8.63912 11.3497 8.64052H15.9789C16.3289 8.63912 16.6163 8.91841 16.6247 9.26849V14.0231H21.3793C21.7294 14.0315 22.0087 14.3189 22.0073 14.6689V19.2981C22.0087 19.6482 21.7294 19.9355 21.3793 19.944H16.6247V24.6986C16.6163 25.0486 16.3289 25.3279 15.9789 25.3265H11.3497C10.9996 25.3279 10.7123 25.0486 10.7038 24.6986V19.944H5.94923C5.59915 19.9355 5.31986 19.6482 5.32126 19.2981V14.6689C5.31986 14.3189 5.59915 14.0315 5.94923 14.0231H10.7038ZM11.9598 9.89646V14.6689C11.9633 14.8319 11.8999 14.9889 11.7849 15.1042C11.6696 15.2191 11.5126 15.2825 11.3497 15.279H6.5772V18.688H11.3497C11.5126 18.6845 11.6696 18.7479 11.7849 18.8629C11.8999 18.9782 11.9633 19.1352 11.9598 19.2981V24.0706H15.3688V19.2981C15.3653 19.1352 15.4287 18.9782 15.5436 18.8629C15.6589 18.7479 15.8159 18.6845 15.9789 18.688H20.7513V15.279H15.9789C15.8159 15.2825 15.6589 15.2191 15.5436 15.1042C15.4287 14.9889 15.3653 14.8319 15.3688 14.6689V9.89646H11.9598Z" fill="url(#paint1_linear)"/>
<defs>
<linearGradient id="paint0_linear" x1="0.0283813" y1="33.9671" x2="27.3001" y2="33.9671" gradientUnits="userSpaceOnUse">
<stop stop-color="#76D275"/>
<stop offset="1" stop-color="#43A047"/>
</linearGradient>
<linearGradient id="paint1_linear" x1="5.32126" y1="25.3265" x2="22.0073" y2="25.3265" gradientUnits="userSpaceOnUse">
<stop stop-color="#76D275"/>
<stop offset="1" stop-color="#43A047"/>
</linearGradient>
</defs>
</svg>
