<svg width="16" height="16" viewBox="0 0 16 16" fill="none" xmlns="http://www.w3.org/2000/svg">
<path fill-rule="evenodd" clip-rule="evenodd" d="M1.38705 15.8698L14.2222 3.0347V10.2222C14.2222 10.4679 14.421 10.6666 14.6667 10.6666H15.5555C15.8012 10.6666 16 10.4679 16 10.2222V0.444457C16 0.198791 15.8012 0 15.5555 0L5.77773 0C5.5321 0 5.33331 0.198791 5.33331 0.444457V1.33333C5.33331 1.579 5.5321 1.77779 5.77777 1.77779L12.9653 1.77779L0.130135 14.6128C0.0450511 14.698 0.00171721 14.809 5.05447e-05 14.9205C-0.00169946 15.0364 0.0417177 15.1529 0.130135 15.2414L0.758553 15.8698C0.842261 15.9536 0.951094 15.9969 1.06084 15.9998C1.17851 16.003 1.29726 15.9596 1.38705 15.8698Z" fill="#2399F1"/>
</svg>
