<svg width="21" height="21" viewBox="0 0 21 21" fill="none" xmlns="http://www.w3.org/2000/svg">
<path fill-rule="evenodd" clip-rule="evenodd" d="M12.3572 10.5002L20.6152 2.24189C21.1283 1.72924 21.1283 0.897455 20.6152 0.384811C20.1021 -0.12827 19.2713 -0.12827 18.7582 0.384811L10.5002 8.64314L2.24179 0.384811C1.72873 -0.12827 0.897855 -0.12827 0.384795 0.384811C-0.128265 0.897455 -0.128265 1.72924 0.384795 2.24189L8.64322 10.5002L0.384795 18.7586C-0.128265 19.2712 -0.128265 20.103 0.384795 20.6156C0.641325 20.8717 0.977528 21 1.31329 21C1.64906 21 1.98526 20.8717 2.24179 20.6152L10.5002 12.3569L18.7582 20.6152C19.0147 20.8717 19.3509 21 19.6867 21C20.0225 21 20.3587 20.8717 20.6152 20.6152C21.1283 20.1025 21.1283 19.2708 20.6152 18.7581L12.3572 10.5002Z" fill="white"/>
</svg>
