<svg width="15" height="16" viewBox="0 0 15 16" fill="none" xmlns="http://www.w3.org/2000/svg">
<path fill-rule="evenodd" clip-rule="evenodd" d="M13.3696 9.8589L12.1903 8.67958L6.88355 3.37307C5.90552 2.40236 4.32679 2.40529 3.35242 3.37966C2.37805 4.35402 2.37513 5.93276 3.34583 6.91079L8.65235 12.2189C8.86939 12.4361 9.22144 12.4361 9.4386 12.2189C9.65564 12.0017 9.65564 11.6498 9.4386 11.4326L4.13208 6.12453C3.58936 5.58181 3.58936 4.70204 4.13208 4.15932C4.67481 3.6166 5.55457 3.6166 6.09729 4.15932L11.4054 9.46584L12.5847 10.645C13.5618 11.6225 13.5614 13.2068 12.5841 14.1837C11.6067 15.1607 10.0225 15.1604 9.04541 14.183L8.06287 13.2001L2.5597 7.69692L2.16651 7.30385C0.792239 5.88662 0.809695 3.6288 2.20557 2.23281C3.60157 0.836932 5.85938 0.819476 7.27661 2.19374L13.1729 8.09011C13.3134 8.23049 13.5181 8.2853 13.7098 8.2339C13.9017 8.18251 14.0516 8.03273 14.103 7.84084C14.1544 7.64894 14.0995 7.44435 13.9591 7.30385L8.06287 1.40761C6.21631 -0.430524 3.23035 -0.427106 1.38806 1.4153C-0.454343 3.25759 -0.457761 6.24355 1.38037 8.09011L7.27661 13.9863L8.26062 14.9693C9.67969 16.3323 11.9286 16.3096 13.3197 14.918C14.7109 13.5265 14.733 11.2776 13.3696 9.8589Z" fill="#BCBCCB"/>
</svg>
