<svg id="30b5699a-2859-4903-8d4f-3e3450a04179" data-name="Capa 1" xmlns="http://www.w3.org/2000/svg" viewBox="0 0 303.6 303.6"><title>logo-cross</title><path d="M293.6,110a36.92,36.92,0,0,0-24.8-9.6H211.2a8.45,8.45,0,0,1-8.4-8.4V34.4a35.52,35.52,0,0,0-10-24.4A33.81,33.81,0,0,0,168.4,0h-34A35.52,35.52,0,0,0,110,10a33.81,33.81,0,0,0-10,24.4V92a8.45,8.45,0,0,1-8.4,8.4H34.4a35.52,35.52,0,0,0-24.4,10A33.81,33.81,0,0,0,0,134.8v34a35.52,35.52,0,0,0,10,24.4,33.81,33.81,0,0,0,24.4,10H92a8.45,8.45,0,0,1,8.4,8.4v57.6a35.52,35.52,0,0,0,10,24.4,33.81,33.81,0,0,0,24.4,10h34a35.52,35.52,0,0,0,24.4-10,33.81,33.81,0,0,0,10-24.4v-58a8.45,8.45,0,0,1,8.4-8.4h57.6a35.52,35.52,0,0,0,24.4-10,33.81,33.81,0,0,0,10-24.4v-34A35.52,35.52,0,0,0,293.6,110Z" transform="translate(0)" fill="#231f20"/></svg>