<svg id="0b69c7ac-2a07-40b3-8113-491ecf687391" data-name="Capa 1" xmlns="http://www.w3.org/2000/svg" viewBox="0 0 437.21 354.8"><title>logo-chat</title><path d="M404.81,41.21h-300a32.52,32.52,0,0,0-32.4,32.4V260a32.52,32.52,0,0,0,32.4,32.4h206.8l46.8,47.2a10,10,0,0,0,7.2,3.2,10.33,10.33,0,0,0,10.4-10.4v-40h28.8a32.52,32.52,0,0,0,32.4-32.4V73.61A32.52,32.52,0,0,0,404.81,41.21Zm-254,160.4a30,30,0,1,1,30-30A30.22,30.22,0,0,1,150.81,201.61Zm105.2,0a30,30,0,1,1,30-30A30.22,30.22,0,0,1,256,201.61Zm104.8,0a30,30,0,1,1,30-30A30.22,30.22,0,0,1,360.81,201.61Z" transform="translate(0 -41.21)"/><path d="M54,260.81v-63.6H21.21A21.34,21.34,0,0,0,0,218.41v122.4a21,21,0,0,0,21.2,22H40v26.4a7,7,0,0,0,6.8,6.8,6.62,6.62,0,0,0,4.8-2l30.8-30.8h136a21.34,21.34,0,0,0,21.2-21.2v-30.4H104.81A50.87,50.87,0,0,1,54,260.81Z" transform="translate(0 -41.21)"/></svg>