<svg width="24" height="20" viewBox="0 0 24 20" fill="none" xmlns="http://www.w3.org/2000/svg">
<path fill-rule="evenodd" clip-rule="evenodd" d="M11.7538 10.0093C11.7538 10.2443 11.6835 10.4793 11.5541 10.6556L5.67708 19.471C5.46552 19.7884 5.11299 20 4.70149 20H1.17532C0.529012 20 0 19.471 0 18.8247C0 18.5894 0.0705923 18.3544 0.199725 18.1782L5.64179 10.0093L0.199725 1.84014C0.0705923 1.66387 0 1.42885 0 1.19383C0 0.547307 0.529012 0.0182953 1.17532 0.0182953H4.70149C5.11299 0.0182953 5.46552 0.229857 5.67708 0.547307L11.5541 9.36273C11.6835 9.539 11.7538 9.77402 11.7538 10.0093Z" fill="#B9B9B9"/>
<path fill-rule="evenodd" clip-rule="evenodd" d="M23.5079 10.0093C23.5079 10.2443 23.4373 10.4793 23.3079 10.6556L17.4311 19.471C17.2196 19.7884 16.8668 20 16.4555 20H12.9294C12.2828 20 11.7538 19.471 11.7538 18.8247C11.7538 18.5894 11.8244 18.3544 11.9538 18.1782L17.3958 10.0093L11.9538 1.84014C11.8244 1.66387 11.7538 1.42885 11.7538 1.19383C11.7538 0.547307 12.2828 0.0182953 12.9294 0.0182953H16.4555C16.8668 0.0182953 17.2196 0.229857 17.4311 0.547307L23.3079 9.36273C23.4373 9.539 23.5079 9.77402 23.5079 10.0093Z" fill="#9C9C9C"/>
</svg>
