<svg width="47" height="44" viewBox="0 0 47 44" fill="none" xmlns="http://www.w3.org/2000/svg">
<path fill-rule="evenodd" clip-rule="evenodd" d="M36.8126 19.9985H28.1684L26.0649 13.6182C25.9003 13.119 25.4221 12.7254 24.9123 12.7982C24.3907 12.8102 23.9386 13.1614 23.7969 13.6678L20.3318 25.9212L16.5975 8.93803C16.4835 8.42444 16.0528 8.0452 15.5327 8.00283C15.0158 7.96767 14.5281 8.26281 14.3358 8.75249L9.88262 19.9986H1.1875C0.531222 19.9986 0 20.5354 0 21.1987C0 21.8619 0.531222 22.3987 1.1875 22.3987H10.6875C11.172 22.3995 11.6106 22.1011 11.7895 21.6443L15.1129 13.2511L19.0277 31.0599C19.1456 31.5968 19.6096 31.9831 20.1527 32C20.1645 32 20.1756 32 20.1875 32C20.7163 32 21.1825 31.6464 21.3283 31.1303L25.0254 18.0585L26.1852 21.5787C26.3474 22.0683 26.8018 22.3988 27.3125 22.3988H36.8125C37.4688 22.3988 38 21.862 38 21.1988C38.0001 20.5353 37.4689 19.9985 36.8126 19.9985Z" fill="#BCBCCB"/>
<path fill-rule="evenodd" clip-rule="evenodd" d="M42.8664 4.18286C40.1103 1.39404 36.4979 0 32.8863 0C29.5067 0 26.1547 1.27028 23.477 3.71164C20.7984 1.27028 17.4472 0 14.0677 0C10.4553 0 6.84363 1.39404 4.08755 4.18295C0.432808 7.88185 -0.744181 13.0915 0.448521 17.8171H2.89494C1.6404 13.7286 2.55698 9.09811 5.75063 5.86652C7.97201 3.61875 10.9257 2.38101 14.0677 2.38101C16.9351 2.38101 19.6176 3.45613 21.7582 5.34603L23.477 6.97177L25.1965 5.34528C27.3372 3.45613 30.0196 2.38027 32.8863 2.38027C36.0282 2.38027 38.9812 3.61801 41.2033 5.86578C45.7895 10.5057 45.7888 18.0568 41.2033 22.6967L23.477 40.6335L7.98533 24.9579H4.65836L23.477 44L42.8664 24.3803C48.3779 18.8025 48.3779 9.76068 42.8664 4.18286Z" fill="#BCBCCB"/>
</svg>
