<svg id="Layer_1" data-name="Layer 1" xmlns="http://www.w3.org/2000/svg" viewBox="0 0 17.4 18.98"><title>logo-trash</title><path id="bst6a" d="M14.26,16.47a1.35,1.35,0,0,1-.09.5,1.06,1.06,0,0,1-.18.33c-.06.07-.11.11-.13.11H3.57s-.07,0-.13-.11a1.37,1.37,0,0,1-.27-.83V4.74H14.26V16.47ZM6.55,1.72a.34.34,0,0,1,.21-.14h3.91a.34.34,0,0,1,.21.14l.6,1.44H5.94ZM17.3,3.27A.44.44,0,0,0,17,3.16H13.19L12.33,1.1a1.76,1.76,0,0,0-.67-.78,1.75,1.75,0,0,0-1-.32h-4a1.75,1.75,0,0,0-1,.32,1.7,1.7,0,0,0-.67.78L4.22,3.16H.41a.44.44,0,0,0-.29.11A.44.44,0,0,0,0,3.56v.79a.38.38,0,0,0,.11.28.36.36,0,0,0,.29.11H1.59V16.51a2.77,2.77,0,0,0,.58,1.75,1.76,1.76,0,0,0,1.4.72H13.85a1.74,1.74,0,0,0,1.4-.75,2.85,2.85,0,0,0,.58-1.77V4.74H17a.38.38,0,0,0,.29-.11.39.39,0,0,0,.11-.28V3.56A.44.44,0,0,0,17.3,3.27Z" transform="translate(-0.01 0)" fill="#9c9c9c"/><path id="bst6b" d="M5.16,15H6a.39.39,0,0,0,.28-.11.36.36,0,0,0,.11-.29V7.52a.39.39,0,0,0-.11-.29A.43.43,0,0,0,6,7.12H5.16a.38.38,0,0,0-.4.4v7.11a.42.42,0,0,0,.11.29.44.44,0,0,0,.29.11Z" transform="translate(-0.01 0)" fill="#9c9c9c"/><path id="bst6c" d="M8.31,15h.8a.38.38,0,0,0,.39-.4V7.52a.36.36,0,0,0-.11-.29.41.41,0,0,0-.28-.11H8.32a.38.38,0,0,0-.4.4v7.11a.42.42,0,0,0,.11.29.43.43,0,0,0,.28.11Z" transform="translate(-0.01 0)" fill="#9c9c9c"/><path id="bst6d" d="M11.47,15h.8a.39.39,0,0,0,.28-.11.44.44,0,0,0,.11-.29V7.52a.39.39,0,0,0-.11-.29.41.41,0,0,0-.28-.11h-.79a.38.38,0,0,0-.4.4v7.11a.42.42,0,0,0,.11.29.43.43,0,0,0,.28.11Z" transform="translate(-0.01 0)" fill="#9c9c9c"/></svg>