<svg xmlns="http://www.w3.org/2000/svg" viewBox="0 0 612 612"><path d="M520.2,229.5h-5.336A152.95,152.95,0,1,0,229.5,153,152.812,152.812,0,0,0,97.136,382.5H91.8C37.294,406.9,0,459.191,0,514.96v58.79C0,587.156,21.19,612,37.064,612H425.531C441.4,612,459,587.156,459,573.75V514.96c0-19.45-4.781-38.4-13.005-55.96H578.531C594.405,459,612,434.156,612,420.75V361.96C612,306.191,574.706,253.9,520.2,229.5ZM382.5,76.5a76.509,76.509,0,1,1-23.026,149.08,153.35,153.35,0,0,0-49.553-49.553A75.5,75.5,0,0,1,382.5,76.5Zm-153,153a76.5,76.5,0,1,1-75.2,89.447A68.66,68.66,0,0,1,153,306,76.5,76.5,0,0,1,229.5,229.5Zm153,306H76.5V514.96c0-20.751,13.636-42.343,34.368-55.96H348.133c20.731,13.617,34.367,35.209,34.367,55.96Zm153-153H361.864A152.141,152.141,0,0,0,382.5,306H501.133c20.731,13.617,34.367,35.209,34.367,55.96Z"/></svg>