<svg id="576051ee-f2fd-47f3-8bb4-ea4c166f2d92" data-name="Capa 1" xmlns="http://www.w3.org/2000/svg" viewBox="0 0 512 512"><title>logo-calendar</title><path d="M90,210V422H362V362h60V210ZM301,392H211V362h30V292A59.63,59.63,0,0,1,211,300V270a30,30,0,0,0,30-30h30V362h30Z" fill="#fff"/><polygon points="392 392 392 512 512 392 392 392" fill="#fff"/><polygon points="434.43 512 512 512 512 434.43 434.43 512" fill="#fff"/><path d="M332,75a45.05,45.05,0,0,0,45,45v30a75.09,75.09,0,0,1-75-75H90a45.05,45.05,0,0,0,45,45v30A75.09,75.09,0,0,1,60,75H0V512H362V452H60V180H452V362h60V75Z" fill="#fff"/><path d="M135,0A75.09,75.09,0,0,0,60,75H90a45,45,0,0,1,78.51-30h35.21A75.11,75.11,0,0,0,135,0Z" fill="#fff"/><path d="M377,0a75.09,75.09,0,0,0-75,75h30a45,45,0,0,1,78.51-30h35.21A75.11,75.11,0,0,0,377,0Z" fill="#fff"/></svg>