<svg xmlns="http://www.w3.org/2000/svg" viewBox="0 0 32.26 41.98"><title>logo-lock</title><path d="M30,42H2.29C1,42,0,40.67,0,39.06V19.86C0,18.26,1,17,2.29,17h.82V13.12A13.16,13.16,0,0,1,6.79,4a12.64,12.64,0,0,1,9-4h.77a12.62,12.62,0,0,1,9,4,13.21,13.21,0,0,1,3.69,9.16V17H30c1.26,0,2.28,1.3,2.28,2.91v19.2C32.26,40.67,31.24,42,30,42ZM16.13,23.46h-.38a3.51,3.51,0,0,0-2.21,6v5.8a1.25,1.25,0,0,0,1.22,1.23H17.5a1.25,1.25,0,0,0,1.22-1.23v-5.8a3.51,3.51,0,0,0,0-5,3.55,3.55,0,0,0-2.19-1Zm0-18a7.68,7.68,0,0,0-7.63,7.7V17H23.77V13.12A7.68,7.68,0,0,0,16.13,5.42Z" fill="#bcbccb"/></svg>