<svg width="34" height="41" viewBox="0 0 34 41" fill="none" xmlns="http://www.w3.org/2000/svg">
<path fill-rule="evenodd" clip-rule="evenodd" d="M9.39114 20.0396C9.39114 15.8455 12.8034 12.4333 16.9977 12.4333C21.1918 12.4333 24.604 15.8455 24.604 20.0396C24.604 24.234 21.1918 27.6462 16.9977 27.6462C12.8034 27.6462 9.39114 24.234 9.39114 20.0396ZM16.0645 24.0564L21.5138 18.6072C21.9712 18.1497 21.9712 17.408 21.5138 16.9508C21.0563 16.4934 20.3146 16.4934 19.8575 16.9508L15.2361 21.5719L13.9818 20.3177C13.5243 19.8602 12.7827 19.8602 12.3255 20.3177C11.868 20.7752 11.868 21.5168 12.3255 21.974L14.4079 24.0564C14.6366 24.2855 14.9363 24.3997 15.2361 24.3997C15.5358 24.3997 15.8358 24.2851 16.0645 24.0564Z" fill="#BCBCCB"/>
<path fill-rule="evenodd" clip-rule="evenodd" d="M33.955 10.8787L33.9562 10.9098C34.0451 15.5991 34.1557 21.4352 32.1997 26.7382C31.1273 29.6464 29.5044 32.1744 27.3766 34.2526C24.9543 36.6182 21.7821 38.4975 17.9483 39.8383C17.8229 39.8821 17.6922 39.9178 17.56 39.9443C17.3739 39.9814 17.186 40 16.9984 40C16.8107 40 16.6231 39.9814 16.4367 39.9443C16.3045 39.9178 16.1748 39.8824 16.0499 39.8389C12.2116 38.5005 9.036 36.6222 6.61154 34.2562C4.48282 32.1787 2.86002 29.6513 1.7885 26.7437C-0.160209 21.4565 -0.049341 15.6314 0.0399012 10.9509L0.0417286 10.8787C0.0590897 10.4925 0.0709684 10.0868 0.0776692 9.63846C0.110259 7.43695 1.86038 5.61617 4.06159 5.49342C8.65162 5.23696 12.2024 3.74025 15.2364 0.783077L15.2622 0.758406C16.2521 -0.148941 17.7449 -0.148941 18.7345 0.758406L18.7604 0.783077C21.7943 3.74025 25.3451 5.23696 29.9351 5.49312C32.1366 5.61617 33.8865 7.43695 33.919 9.63816C33.926 10.0895 33.9376 10.4952 33.955 10.8787ZM7.04861 20.0396C7.04861 25.5257 11.5116 29.9887 16.9977 29.9887C22.4836 29.9887 26.9469 25.5257 26.9469 20.0396C26.9469 14.5535 22.4836 10.0905 16.9977 10.0905C11.5116 10.0905 7.04861 14.5535 7.04861 20.0396Z" fill="#BCBCCB"/>
</svg>
