<svg width="12" height="13" viewBox="0 0 12 13" fill="none" xmlns="http://www.w3.org/2000/svg">
<path fill-rule="evenodd" clip-rule="evenodd" d="M11.0627 1.84266C11.3122 1.84266 11.5283 1.93384 11.7104 2.11618C11.8927 2.29853 11.9838 2.51443 11.9838 2.76401V11.9771C11.9838 12.2264 11.8926 12.4425 11.7102 12.6249C11.5281 12.8072 11.312 12.8984 11.0625 12.8984H0.928311C0.678706 12.8984 0.462807 12.8072 0.280487 12.6249C0.0981429 12.4424 0.00695801 12.2265 0.00695801 11.9771V2.76403C0.00695801 2.51453 0.0981429 2.29853 0.280487 2.11621C0.462832 1.93387 0.678731 1.84268 0.928311 1.84268H1.84954V1.15167C1.84954 0.835034 1.96238 0.563874 2.18788 0.33837C2.41344 0.112815 2.68457 0 3.00126 0H3.46187C3.77864 0 4.04975 0.112815 4.27525 0.33837C4.50081 0.563899 4.61362 0.835034 4.61362 1.15167V1.84268H7.3774V1.15167C7.3774 0.835034 7.49017 0.563874 7.71577 0.33837C7.9413 0.112815 8.21239 0 8.52915 0H8.98969C9.30648 0 9.57746 0.112815 9.80309 0.338345C10.0286 0.563874 10.1415 0.835008 10.1415 1.15165V1.84266H11.0627ZM8.36337 0.986193C8.32024 1.02928 8.29883 1.08451 8.29883 1.15175V3.22462C8.29883 3.29183 8.32024 3.34694 8.36337 3.39018C8.4065 3.43336 8.46171 3.45492 8.529 3.45492H8.98954C9.05685 3.45492 9.11186 3.43326 9.15517 3.39018C9.19833 3.34697 9.21988 3.29183 9.21988 3.22462V1.15175C9.21988 1.08459 9.19833 1.02935 9.15517 0.986193C9.11188 0.942983 9.05685 0.921454 8.98954 0.921454H8.529C8.46171 0.921454 8.4065 0.943059 8.36337 0.986193ZM2.77097 1.15175C2.77097 1.08451 2.79252 1.02928 2.83571 0.986193C2.87892 0.943059 2.93405 0.921454 3.00126 0.921454H3.46187C3.52911 0.921454 3.58434 0.942983 3.62743 0.986193C3.67056 1.02935 3.69222 1.08459 3.69222 1.15175V3.22462C3.69222 3.29183 3.67066 3.34704 3.62743 3.39018C3.58424 3.43326 3.52911 3.45492 3.46187 3.45492H3.00126C2.93405 3.45492 2.87884 3.43336 2.83571 3.39018C2.79262 3.34694 2.77097 3.29183 2.77097 3.22462V1.15175ZM0.928311 11.977H11.0625V4.60659H0.928311V11.977Z" fill="#C74B65"/>
</svg>
