<svg id="0de08127-64f2-4de7-811a-7aa1c9dc7d56" data-name="Calque 1" xmlns="http://www.w3.org/2000/svg" viewBox="0 0 299.86 300.05"><title>logo-ext-appointments</title><path d="M158.85,0c5.69.77,11.42,1.3,17.05,2.34,42.06,7.77,75.24,29.41,99,64.89,21.43,32,28.83,67.52,23.27,105.55a148.81,148.81,0,0,1-116,123.56C134.8,306.47,92,295.78,54.26,265.28a145.55,145.55,0,0,1-32.7-38c-.3-.49-.57-1-.85-1.53,1-.92,2.1-.52,3.11-.52q37.49,0,75,0a9.51,9.51,0,0,1,5.21,1.49c32.67,19.68,73.42,16.88,102.83-7.42,17.69-14.62,28.47-33.43,31.69-56.27,5.32-37.77-12.32-73.44-45.64-91.75A87,87,0,0,0,134,61.81,87.2,87.2,0,0,0,85.79,87.59a9.52,9.52,0,0,1-7.62,3.16c-21-.13-42-.1-63,0-2.47,0-2.95-.33-1.8-2.78Q39,33.38,94.7,10.57a143.13,143.13,0,0,1,44-10.1c1.06-.08,2.17.12,3.15-.47Z" transform="translate(-0.07)"/><path d="M.07,120.7a4.58,4.58,0,0,1,2.84-.43q46.53,0,93.07,0c10.72,0,19.51,5.81,22.49,14.59,5.2,15.35-5,29.93-21.24,30.31-6.82.16-13.66,0-20.48,0H.07Z" transform="translate(-0.07)"/><path d="M.07,180.46c4-.06,8-.19,12-.19H175.7c4.33,0,4.33,0,3.74,4.25-2.06,14.88-14.53,25.54-30.47,25.67-19.22.15-38.44,0-57.67,0q-43.75,0-87.52,0c-1.24,0-2.55.34-3.71-.44Z" transform="translate(-0.07)"/><path d="M157,165.22c-12.3-.28-22.41-10.67-22.08-22.68.33-12.36,10.53-22.38,22.59-22.22,12.41.17,22.62,10.54,22.37,22.72A22.64,22.64,0,0,1,157,165.22Z" transform="translate(-0.07)"/></svg>