	<svg class="page-header__logo--svg" width="34" height="34" id="Layer_1" data-name="Layer 1" xmlns="http://www.w3.org/2000/svg" viewBox="0 0 512 512"><title>logo-header</title><circle cx="256" cy="256" r="256" fill="#4d3a2d"/><circle cx="256" cy="256" r="204.8" fill="#fff"/><circle id="logo-bg" cx="256" cy="256" r="170.67" fill="#7d4eff" fill-opacity="0.5" /><path id="logo-stroke" d="M371,262.5,359.8,246.75a8.53,8.53,0,0,0-15.42,3.91l-.17,1.4c0,.19,0,.39,0,.58l-.54,10.16a87.89,87.89,0,0,1-79.09,78V240.91h9.8a8.54,8.54,0,0,0,0-17.07h-9.8V201.43a34.13,34.13,0,1,0-17.06,0v22.41h-9.8a8.54,8.54,0,0,0,0,17.07h9.8v99.92a87.89,87.89,0,0,1-79.09-78l-.54-10.16c0-.2,0-.39-.05-.58l-.17-1.4a8.54,8.54,0,0,0-15.43-3.92L141,262.5a8.53,8.53,0,0,0,12,11.86A104.91,104.91,0,0,0,247.46,358v11.26a8.54,8.54,0,0,0,17.07,0V358a104.92,104.92,0,0,0,94.54-83.59A8.53,8.53,0,0,0,371,262.5ZM238.94,168.38a17.06,17.06,0,1,1,23.73,15.7,8.52,8.52,0,0,0-13.34,0A17.08,17.08,0,0,1,238.94,168.38Z" fill="#4e4e4e"/></svg>
