<svg width="40" height="34" viewBox="0 0 40 34" fill="none" xmlns="http://www.w3.org/2000/svg">
<path fill-rule="evenodd" clip-rule="evenodd" d="M35.729 6.26507H20.5009L16.6904 1.58316C15.8877 0.58873 14.6789 0.00723847 13.3988 0H4.27095C1.92858 0 0 1.94198 0 4.27725V29.4306C0 31.7659 1.92858 33.7079 4.27095 33.7079H35.729C38.0714 33.7079 40 31.7666 40 29.4306V10.4917C40 8.15638 38.0714 6.26507 35.729 6.26507ZM1.76991 29.4306V4.27725C1.76991 2.91469 2.90445 1.76481 4.27095 1.76481H13.3988C14.1468 1.77308 14.8517 2.11605 15.3187 2.69892L18.2166 6.26507H8.79943C6.45707 6.26507 4.51327 8.15638 4.51327 10.4917V31.9431H4.27095C2.90445 31.9431 1.76991 30.7932 1.76991 29.4306ZM35.729 31.9431C37.0955 31.9431 38.2301 30.7932 38.2301 29.4306V10.4917C38.217 9.12531 37.0997 8.0254 35.729 8.02988H8.79943C7.43294 8.02988 6.28319 9.12944 6.28319 10.4917V31.9431H35.729Z" fill="url(#paint0_linear)"/>
<path fill-rule="evenodd" clip-rule="evenodd" d="M24.8926 17.804H28.3317C28.8187 17.804 29.2135 18.1988 29.2135 18.6858V22.2131C29.2135 22.7001 28.8187 23.0949 28.3317 23.0949H24.8926V26.5339C24.8926 27.021 24.4979 27.4157 24.0108 27.4157H20.4836C19.9965 27.4157 19.6018 27.021 19.6018 26.5339V23.0949H16.1627C15.6756 23.0949 15.2809 22.7001 15.2809 22.2131V18.6858C15.2809 18.1988 15.6756 17.804 16.1627 17.804H19.6018V14.365C19.6018 13.8779 19.9965 13.4831 20.4836 13.4831H24.0108C24.4979 13.4831 24.8926 13.8779 24.8926 14.365V17.804ZM24.0108 21.3312H27.4499V19.5676H24.0108C23.5237 19.5676 23.129 19.1729 23.129 18.6858V15.2468H21.3654V18.6858C21.3654 19.1729 20.9706 19.5676 20.4836 19.5676H17.0445V21.3312H20.4836C20.9706 21.3312 21.3654 21.726 21.3654 22.2131V25.6521H23.129V22.2131C23.129 21.726 23.5237 21.3312 24.0108 21.3312Z" fill="url(#paint1_linear)"/>
<defs>
<linearGradient id="paint0_linear" x1="0" y1="33.7079" x2="40" y2="33.7079" gradientUnits="userSpaceOnUse">
<stop stop-color="#00F2FE"/>
<stop offset="0.0208" stop-color="#03EFFE"/>
<stop offset="1" stop-color="#2399F1"/>
</linearGradient>
<linearGradient id="paint1_linear" x1="15.2809" y1="27.4157" x2="29.2135" y2="27.4157" gradientUnits="userSpaceOnUse">
<stop stop-color="#00F2FE"/>
<stop offset="0.0208" stop-color="#03EFFE"/>
<stop offset="1" stop-color="#2399F1"/>
</linearGradient>
</defs>
</svg>
