<svg width="20" height="26" viewBox="0 0 20 26" fill="none" xmlns="http://www.w3.org/2000/svg">
<path fill-rule="evenodd" clip-rule="evenodd" d="M19.5895 6.55336L13.4449 0.231094C13.2964 0.0785522 13.0966 0 12.8984 0H0.761719C0.341187 0 0 0.341187 0 0.761719V25.2383C0 25.6588 0.341187 26 0.761719 26H19.043C19.4635 26 19.8047 25.6588 19.8047 25.2383V7.08398C19.8047 6.89316 19.7323 6.70055 19.5895 6.55336Z" fill="#EEEEEE"/>
<path fill-rule="evenodd" clip-rule="evenodd" d="M19.5895 6.55336L13.4449 0.231094C13.296 0.0787506 13.0964 0 12.8984 0H9.90234V26H19.043C19.4635 26 19.8047 25.6588 19.8047 25.2383V7.08398C19.8047 6.89296 19.7321 6.70055 19.5895 6.55336Z" fill="#DEDEDE"/>
<path fill-rule="evenodd" clip-rule="evenodd" d="M15.9961 12.2319H3.80859C3.38786 12.2319 3.04688 11.8909 3.04688 11.4702C3.04688 11.0495 3.38786 10.7085 3.80859 10.7085H15.9961C16.4168 10.7085 16.7578 11.0495 16.7578 11.4702C16.7578 11.8909 16.4168 12.2319 15.9961 12.2319Z" fill="#1FC0F4"/>
<path fill-rule="evenodd" clip-rule="evenodd" d="M15.9961 15.2915H3.80859C3.38786 15.2915 3.04688 14.9505 3.04688 14.5298C3.04688 14.1091 3.38786 13.7681 3.80859 13.7681H15.9961C16.4168 13.7681 16.7578 14.1091 16.7578 14.5298C16.7578 14.9505 16.4168 15.2915 15.9961 15.2915Z" fill="#1FC0F4"/>
<path fill-rule="evenodd" clip-rule="evenodd" d="M15.9961 18.3511H3.80859C3.38786 18.3511 3.04688 18.0101 3.04688 17.5894C3.04688 17.1686 3.38786 16.8276 3.80859 16.8276H15.9961C16.4168 16.8276 16.7578 17.1686 16.7578 17.5894C16.7578 18.0101 16.4168 18.3511 15.9961 18.3511Z" fill="#1FC0F4"/>
<path fill-rule="evenodd" clip-rule="evenodd" d="M11.4258 21.4106H3.80859C3.38786 21.4106 3.04688 21.0697 3.04688 20.6489C3.04688 20.2282 3.38786 19.8872 3.80859 19.8872H11.4258C11.8465 19.8872 12.1875 20.2282 12.1875 20.6489C12.1875 21.0697 11.8465 21.4106 11.4258 21.4106Z" fill="#1FC0F4"/>
<path fill-rule="evenodd" clip-rule="evenodd" d="M16.7578 11.4704C16.7578 11.8909 16.4166 12.2321 15.9961 12.2321H9.90234V10.7087H15.9961C16.4166 10.7087 16.7578 11.0495 16.7578 11.4704Z" fill="#1BA6EF"/>
<path fill-rule="evenodd" clip-rule="evenodd" d="M16.7578 14.5296C16.7578 14.9505 16.4166 15.2913 15.9961 15.2913H9.90234V13.7679H15.9961C16.4166 13.7679 16.7578 14.1091 16.7578 14.5296Z" fill="#1BA6EF"/>
<path fill-rule="evenodd" clip-rule="evenodd" d="M16.7578 17.5896C16.7578 18.0101 16.4166 18.3513 15.9961 18.3513H9.90234V16.8278H15.9961C16.4166 16.8278 16.7578 17.1686 16.7578 17.5896Z" fill="#1BA6EF"/>
<path fill-rule="evenodd" clip-rule="evenodd" d="M12.1875 20.6487C12.1875 21.0697 11.8463 21.4104 11.4258 21.4104H9.90234V19.887H11.4258C11.8463 19.887 12.1875 20.2282 12.1875 20.6487Z" fill="#1BA6EF"/>
<path fill-rule="evenodd" clip-rule="evenodd" d="M8.37891 5.35425H6.85547V3.82129C6.85547 3.40056 6.51448 3.05957 6.09375 3.05957C5.67302 3.05957 5.33203 3.40056 5.33203 3.82129V5.35425H3.80859C3.38786 5.35425 3.04688 5.69524 3.04688 6.11597C3.04688 6.5367 3.38786 6.87769 3.80859 6.87769H5.33203V8.41064C5.33203 8.83138 5.67302 9.17236 6.09375 9.17236C6.51448 9.17236 6.85547 8.83138 6.85547 8.41064V6.87769H8.37891C8.79964 6.87769 9.14062 6.5367 9.14062 6.11597C9.14062 5.69524 8.79964 5.35425 8.37891 5.35425Z" fill="#1FC0F4"/>
<path fill-rule="evenodd" clip-rule="evenodd" d="M19.789 6.93164H13.9648C13.4039 6.93164 12.9492 6.47699 12.9492 5.91602V0.00198364C13.1361 0.0142822 13.3128 0.0954132 13.4449 0.231094C20.1296 7.10918 19.7267 6.62199 19.789 6.93164Z" fill="#CECECE"/>
</svg>
