<svg xmlns="http://www.w3.org/2000/svg" xmlns:xlink="http://www.w3.org/1999/xlink" width="29" height="29" viewBox="0 0 29 29"><defs><path id="inlda" d="M489.5 215c-8.008 0-14.5 6.492-14.5 14.5 0 8.007 6.492 14.5 14.5 14.5 8.007 0 14.5-6.493 14.5-14.5 0-8.008-6.493-14.5-14.5-14.5z"/><path id="inldb" d="M478.94 234.957c0-4.53 3.978-4.528 4.86-5.713l.102-.54c-1.24-.628-2.116-2.144-2.116-3.916 0-2.335 1.519-4.228 3.392-4.228 1.475 0 2.726 1.176 3.194 2.815-1.877.596-3.265 2.63-3.265 5.049 0 1.665.657 3.196 1.734 4.168-.173.089-.365.18-.53.257-.87.408-2.074.974-2.943 2.108h-4.428z"/><path id="inldc" d="M489.542 238.597h-6.282c0-4.53 3.978-4.528 4.86-5.713l.102-.54c-1.24-.628-2.116-2.144-2.116-3.916 0-2.335 1.519-4.228 3.392-4.228s3.392 1.893 3.392 4.228c0 1.757-.86 3.263-2.084 3.902l.115.614c.969 1.127 4.815 1.2 4.815 5.653h-6.194z"/><path id="inldd" d="M495.632 234.957c-.869-1.134-2.073-1.7-2.942-2.108-.171-.08-.361-.17-.53-.256 1.076-.974 1.733-2.508 1.733-4.17 0-2.417-1.387-4.452-3.263-5.048.467-1.64 1.718-2.815 3.194-2.815 1.873 0 3.392 1.893 3.392 4.228 0 1.757-.86 3.263-2.084 3.902l.115.614c.968 1.126 4.814 1.2 4.814 5.653z"/></defs><g><g transform="translate(-475 -215)"><g><use fill="#556080" xlink:href="#inlda"/></g><g><use fill="#e7eced" xlink:href="#inldb"/></g><g><use fill="#e7eced" xlink:href="#inldc"/></g><g><use fill="#e7eced" xlink:href="#inldd"/></g></g></g></svg>