<svg width="18" height="18" viewBox="0 0 18 18" fill="none" xmlns="http://www.w3.org/2000/svg">
<path fill-rule="evenodd" clip-rule="evenodd" d="M2 0H16C17.1 0 18 0.9 18 2V16C18 17.1 17.1 18 16 18H2C0.9 18 0 17.1 0 16V2C0 0.9 0.9 0 2 0ZM6.8 14V10.4V10.3H9.3C10.8 10.3 11.5 10 12.1 9.5C12.7 9 13 8.2 13 7.2C13 6.3 12.8 5.5 12.1 4.9C11.5 4.3 10.8 4 9.3 4H5V14H6.8Z" fill="#186BA8"/>
<path fill-rule="evenodd" clip-rule="evenodd" d="M6.8 9V5.4H9.1C9.80004 5.4 10.3 5.6 10.6 6C10.9 6.4 11.1 6.7 11.1 7.2C11.1 7.8 10.9 8.1 10.6 8.5C10.3 8.8 9.9 9 9.2 9H6.8Z" fill="#186BA8"/>
</svg>
