<svg width="28" height="32" viewBox="0 0 28 32" fill="none" xmlns="http://www.w3.org/2000/svg">
<path fill-rule="evenodd" clip-rule="evenodd" d="M6 0C4.89671 0.00308998 4.00309 0.896713 4 2V30C4.00309 31.1033 4.89671 31.9969 6 32H26C27.1033 31.9969 27.9969 31.1033 28 30V8L20 0H6Z" fill="#E2E5E7"/>
<path fill-rule="evenodd" clip-rule="evenodd" d="M22 8H28L20 0V6C20.0031 7.10329 20.8967 7.99691 22 8Z" fill="#B0B7BD"/>
<path fill-rule="evenodd" clip-rule="evenodd" d="M28 14L22 8H28V14Z" fill="#CAD1D8"/>
<path fill-rule="evenodd" clip-rule="evenodd" d="M24 26C24 26.5523 23.5523 27 23 27H1C0.447715 27 0 26.5523 0 26V16C0 15.4477 0.447715 15 1 15H23C23.5523 15 24 15.4477 24 16V26Z" fill="#F15642"/>
<path fill-rule="evenodd" clip-rule="evenodd" d="M4.62178 19C4.27628 19.0034 3.9988 19.2231 4 19.4923V23.5233C4.00114 23.6508 4.06733 23.7727 4.18398 23.8621C4.30063 23.9516 4.45815 24.0012 4.62178 24C4.95163 24 5.20779 23.8227 5.20779 23.5088V22.5666H6.73755C7.92673 22.5666 9 21.9382 9 20.8109C9 19.6211 7.92816 19 6.73755 19H4.62178ZM5.20779 21.6751V19.8982H6.73755C7.35146 19.8982 7.83658 20.3124 7.83658 20.8109C7.83658 21.253 7.35146 21.6751 6.73755 21.6751H5.20779Z" fill="white"/>
<path fill-rule="evenodd" clip-rule="evenodd" d="M10 23.5527C10 23.8701 10.2822 24 10.5411 24H12.4073C15.8368 24 15.9151 19 12.3369 19H10.5411C10.2822 19 10 19.1892 10 19.4484V23.5527ZM11.0344 23.1189V19.8822H12.3369C14.5453 19.8822 14.4517 23.1189 12.3369 23.1189H11.0344Z" fill="white"/>
<path fill-rule="evenodd" clip-rule="evenodd" d="M17.0626 19.9405V21.0894H19.135C19.4278 21.0894 19.7205 21.3498 19.7205 21.6017C19.7205 21.84 19.4278 22.0355 19.135 22.0355H17.0626V23.5526C17.0684 23.6661 17.0233 23.777 16.9372 23.8609C16.8511 23.9449 16.731 23.9949 16.6034 24H16.5761C16.2185 24 16 23.8057 16 23.5526V19.4479C16 19.1887 16.2191 19 16.5761 19H19.4284C19.786 19 20 19.1887 20 19.4479C19.9977 19.5806 19.9361 19.7069 19.8288 19.7991C19.7216 19.8913 19.5775 19.9418 19.4284 19.9393H17.0626V19.9405Z" fill="white"/>
<path fill-rule="evenodd" clip-rule="evenodd" d="M23 27H4V28H23C23.5523 28 24 27.5523 24 27V26C24 26.5523 23.5523 27 23 27Z" fill="#CAD1D8"/>
</svg>
