<svg width="19" height="16" viewBox="0 0 19 16" fill="none" xmlns="http://www.w3.org/2000/svg">
<path fill-rule="evenodd" clip-rule="evenodd" d="M15.9679 2.86941C15.9679 3.3401 15.7874 3.78737 15.4501 4.11696L13.0804 6.49455L9.47089 2.88507L11.8483 0.515383C12.5154 -0.151715 13.6766 -0.159473 14.3437 0.515383L15.4501 1.6217C15.7874 1.9513 15.9679 2.39857 15.9679 2.86941Z" fill="#1F89D8"/>
<path fill-rule="evenodd" clip-rule="evenodd" d="M13.0803 6.49455L4.63724 14.9377C4.55879 15.0161 4.45678 15.071 4.35476 15.0946L0.721719 15.9499C0.682495 15.9578 0.635368 15.9655 0.588242 15.9655C0.431345 15.9655 0.282207 15.9027 0.172437 15.793C0.0312016 15.6517 -0.0315858 15.4398 0.0155406 15.2437L0.870713 11.6106C0.894276 11.5086 0.949305 11.4066 1.02775 11.3282L9.47086 2.88507L13.0803 6.49455Z" fill="#2399F1"/>
<path fill-rule="evenodd" clip-rule="evenodd" d="M17.2626 15.9656H7.06179C6.62874 15.9656 6.27716 15.6141 6.27716 15.1809C6.27716 14.7477 6.62874 14.3963 7.06179 14.3963H17.2626C17.6957 14.3963 18.0473 14.7477 18.0473 15.1809C18.0473 15.6141 17.6957 15.9656 17.2626 15.9656Z" fill="#1F89D8"/>
</svg>
