<svg width="25" height="28" viewBox="0 0 25 28" fill="none" xmlns="http://www.w3.org/2000/svg">
<path fill-rule="evenodd" clip-rule="evenodd" d="M5.25 0C4.2875 0 3.5 0.7875 3.5 1.75V26.25C3.5 27.2125 4.2875 28 5.25 28H22.75C23.7125 28 24.5 27.2125 24.5 26.25V7L17.5 0H5.25Z" fill="#E2E5E7"/>
<path fill-rule="evenodd" clip-rule="evenodd" d="M19.25 7H24.5L17.5 0V5.25C17.5 6.2125 18.2875 7 19.25 7Z" fill="#B0B7BD"/>
<path fill-rule="evenodd" clip-rule="evenodd" d="M24.5 12.25L19.25 7H24.5V12.25Z" fill="#CAD1D8"/>
<path fill-rule="evenodd" clip-rule="evenodd" d="M21 22.75C21 23.2312 20.6063 23.625 20.125 23.625H0.875C0.39375 23.625 0 23.2312 0 22.75V14C0 13.5188 0.39375 13.125 0.875 13.125H20.125C20.6063 13.125 21 13.5188 21 14V22.75Z" fill="#208391"/>
<path fill-rule="evenodd" clip-rule="evenodd" d="M3.801 16.0947C3.507 16.0947 3.32587 16.3476 3.32587 16.5786V20.517C3.32587 20.8259 3.57 21 3.801 21C4.05387 21 4.24812 20.8259 4.24812 20.517V19.593H5.418C6.32712 19.593 7.14612 18.9779 7.14612 17.8719C7.14612 16.7037 6.32712 16.0947 5.418 16.0947H3.801ZM4.24812 18.7189V16.9767H5.41712C5.88525 16.9767 6.25625 17.3819 6.25625 17.8719C6.25625 18.3059 5.88525 18.7189 5.41712 18.7189H4.24812Z" fill="white"/>
<path fill-rule="evenodd" clip-rule="evenodd" d="M8.03775 16.6486C8.03775 16.3957 8.09375 16.1516 8.45775 16.1516C8.70887 16.1516 8.76575 16.2146 8.95387 16.3957L11.2691 19.2929V16.5786C11.2691 16.3476 11.4712 16.0947 11.7101 16.0947C11.9621 16.0947 12.2062 16.3476 12.2062 16.5786V20.517C12.2062 20.8259 12.0172 20.9431 11.8352 21C11.5911 21 11.4712 20.944 11.2691 20.7559L8.95387 17.8167V20.5179C8.95387 20.8267 8.76487 21.0009 8.51287 21.0009C8.26087 21.0009 8.03687 20.8267 8.03687 20.5179V16.6486H8.03775Z" fill="white"/>
<path fill-rule="evenodd" clip-rule="evenodd" d="M17.4694 20.4619C16.9724 20.874 16.3634 21.0499 15.7483 21.0499C14.2782 21.0499 13.2361 20.2099 13.2361 18.5448C13.2361 17.1316 14.3351 16.0335 15.8104 16.0335C16.3634 16.0335 16.9715 16.2225 17.4055 16.6495C17.8325 17.0686 17.2165 17.6916 16.7974 17.3215C16.5384 17.0686 16.1744 16.8805 15.8104 16.8805C14.9642 16.8805 14.1461 17.5586 14.1461 18.5448C14.1461 19.5808 14.8312 20.2099 15.7483 20.2099C16.1744 20.2099 16.5384 20.0839 16.7974 19.8949V19.0356H15.7483C15.1252 19.0356 15.1883 18.1808 15.7483 18.1808H17.1474C17.4064 18.1808 17.6435 18.3776 17.6435 18.5946V20.0848C17.6435 20.2099 17.5884 20.328 17.4694 20.4619Z" fill="white"/>
<path fill-rule="evenodd" clip-rule="evenodd" d="M20.125 23.625H3.5V24.5H20.125C20.6063 24.5 21 24.1063 21 23.625V22.75C21 23.2312 20.6063 23.625 20.125 23.625Z" fill="#CAD1D8"/>
</svg>
