<svg width="41" height="40" viewBox="0 0 41 40" fill="none" xmlns="http://www.w3.org/2000/svg">
<path fill-rule="evenodd" clip-rule="evenodd" d="M37.8977 25.8897C37.1443 24.5705 35.4744 24.1167 34.1667 24.8759L25.5772 29.2966C25.2144 28.6639 24.6169 28.203 23.9167 28.0159L15.4707 25.7317C14.9535 25.5919 14.407 25.6084 13.899 25.7793L11.0017 26.7586C10.7227 26.8512 10.4309 26.8977 10.1373 26.8966H6.83334V37.2414H8.87514C9.09857 37.2414 9.32116 37.269 9.53798 37.3235L14.35 38.5386C14.5668 38.5931 14.7894 38.6207 15.0128 38.6207H20.7774C21.2573 38.6207 21.7286 38.4932 22.1441 38.251L36.9 29.6552C37.7455 29.1635 38.2665 28.2537 38.2667 27.269C38.2681 26.7842 38.1406 26.3079 37.8977 25.8897Z" fill="#FFBCAB"/>
<path fill-rule="evenodd" clip-rule="evenodd" d="M0 23.4483H6.83333V40H0V23.4483Z" fill="#2488FF"/>
<path fill-rule="evenodd" clip-rule="evenodd" d="M4.78333 23.4483H6.83333V40H4.78333V23.4483Z" fill="#006DF0"/>
<path fill-rule="evenodd" clip-rule="evenodd" d="M36.3943 2.07585C35.2429 0.910288 33.6791 0.255188 32.0483 0.255188C30.4175 0.255188 28.8538 0.910288 27.7023 2.07585L25.2833 4.51723V22.069L33.9822 13.2896L36.2167 11.0345L36.3943 10.8552C37.5493 9.69171 38.1983 8.11242 38.1983 6.46551C38.1983 4.81859 37.5493 3.2393 36.3943 2.07585Z" fill="#FF0000"/>
<path fill-rule="evenodd" clip-rule="evenodd" d="M22.8643 2.07586C20.4479 -0.258798 16.6256 -0.215956 14.2611 2.17229C11.8966 4.56053 11.8572 8.41819 14.1723 10.8552L15.0333 11.7241L16.5845 13.2896L25.2833 22.069V4.51724L22.8643 2.07586Z" fill="#E50000"/>
<path fill-rule="evenodd" clip-rule="evenodd" d="M15.8936 30.3683C15.8467 30.545 15.8712 30.7333 15.9618 30.8917C16.0524 31.0501 16.2017 31.1658 16.3768 31.2131L22.7263 32.7455C23.5222 32.7868 24.2961 32.4746 24.8446 31.891L16.7307 29.8807C16.5556 29.8333 16.3691 29.858 16.2121 29.9495C16.0551 30.0409 15.9406 30.1916 15.8936 30.3683Z" fill="#FF9478"/>
<path fill-rule="evenodd" clip-rule="evenodd" d="M24.5713 15.871L20.5738 8.47379L18.9003 12.4138H10.25V11.0345H17.9997L20.4262 5.31931L24.6287 13.0945L26.2632 10.3448H28.3344L31.4333 5.6531L34.5322 10.3448H41V11.7241H33.8011L31.4333 8.14L29.0656 11.7241H27.0368L24.5713 15.871Z" fill="#9BC9FF"/>
</svg>
