<svg width="20" height="20" viewBox="0 0 20 20" fill="none" xmlns="http://www.w3.org/2000/svg">
<path fill-rule="evenodd" clip-rule="evenodd" d="M17.7083 0H2.29172C1.02753 0 0 1.02753 0 2.29172V17.7083C0 18.9725 1.02753 20 2.29172 20H17.7083C18.9725 20 20 18.9725 20 17.7083V2.29172C20 1.02753 18.9725 0 17.7083 0Z" fill="#FFC107"/>
<path fill-rule="evenodd" clip-rule="evenodd" d="M10.9091 14.8485C10.9091 15.3506 10.5021 15.7576 10 15.7576C9.49793 15.7576 9.09091 15.3506 9.09091 14.8485C9.09091 14.3464 9.49793 13.9394 10 13.9394C10.5021 13.9394 10.9091 14.3464 10.9091 14.8485Z" fill="black"/>
<path fill-rule="evenodd" clip-rule="evenodd" d="M9.69697 12.1212C9.34275 12.1212 9.05527 11.8371 9.05527 11.487V10.6328C9.05527 9.82781 9.57211 9.10639 10.3395 8.83836C11.3628 8.48237 12.0499 7.40667 12.0499 6.6244C12.0499 5.34151 10.9949 4.29879 9.69697 4.29879C8.399 4.29879 7.34401 5.34151 7.34401 6.6244C7.34401 6.9745 7.05653 7.25864 6.70231 7.25864C6.34809 7.25864 6.06061 6.9745 6.06061 6.6244C6.06061 4.64223 7.69228 3.0303 9.69697 3.0303C11.7017 3.0303 13.3333 4.64223 13.3333 6.6244C13.3333 8.0358 12.2064 9.53345 10.7665 10.0341C10.5107 10.1237 10.3387 10.3647 10.3387 10.6328V11.487C10.3387 11.8371 10.0512 12.1212 9.69697 12.1212Z" fill="black"/>
<path fill-rule="evenodd" clip-rule="evenodd" d="M2.29172 20H17.7083C18.9725 20 20 18.9725 20 17.7083V2.29172C20 1.02753 18.9725 0 17.7083 0H2.29172C1.02753 0 0 1.02753 0 2.29172V17.7083C0 18.9725 1.02753 20 2.29172 20ZM1.25 2.29172C1.25 1.71753 1.71753 1.25 2.29172 1.25H17.7083C18.2825 1.25 18.75 1.71753 18.75 2.29172V17.7083C18.75 18.2825 18.2825 18.75 17.7083 18.75H2.29172C1.71753 18.75 1.25 18.2825 1.25 17.7083V2.29172Z" fill="black"/>
</svg>
