<svg width="20" height="22" viewBox="0 0 20 22" fill="none" xmlns="http://www.w3.org/2000/svg">
<path fill-rule="evenodd" clip-rule="evenodd" d="M1.38555 10.9995C1.38555 13.8204 2.78702 16.3139 4.93161 17.8217C5.30953 18.0876 5.32963 18.6396 4.96662 18.9253L4.9564 18.9334C4.71936 19.12 4.387 19.1324 4.14008 18.959C1.6365 17.2007 0 14.2911 0 10.9995C0 5.66048 4.41933 1.32625 9.74762 1.28069V2.66657C5.18406 2.7118 1.38555 6.42538 1.38555 10.9995Z" fill="#4EADF3"/>
<path fill-rule="evenodd" clip-rule="evenodd" d="M10.0023 0.0413799L12.5486 1.78308C12.685 1.87639 12.685 2.07758 12.5486 2.17089L10.0023 3.91259C9.84634 4.0193 9.63477 3.90756 9.63477 3.71877V0.235367C9.63477 0.0464055 9.84634 -0.0651625 10.0023 0.0413799V0.0413799Z" fill="#1F89D8"/>
<path fill-rule="evenodd" clip-rule="evenodd" d="M18.2426 10.9576C18.2426 8.13675 16.8409 5.64323 14.6963 4.13538C14.3184 3.86953 14.2983 3.31755 14.6613 3.03177L14.6715 3.02373C14.9086 2.83711 15.2409 2.82471 15.4879 2.99809C17.9916 4.75638 19.6279 7.66603 19.6279 10.9576C19.6279 16.2966 15.2162 20.6309 9.8877 20.6764V19.2905C14.4513 19.2453 18.2426 15.5319 18.2426 10.9576V10.9576Z" fill="#4EADF3"/>
<path fill-rule="evenodd" clip-rule="evenodd" d="M9.62611 21.9157L7.07981 20.174C6.94345 20.0807 6.94345 19.8795 7.07981 19.7862L9.62611 18.0445C9.7819 17.9378 9.99364 18.0496 9.99364 18.2383V21.7218C9.99364 21.9107 9.7819 22.0224 9.62611 21.9157Z" fill="#1F89D8"/>
<path fill-rule="evenodd" clip-rule="evenodd" d="M14.1359 9.89873L9.96505 13.3577L8.91353 14.2298C8.66577 14.435 8.35217 14.5464 8.03321 14.5464C7.98011 14.5464 7.927 14.5434 7.8734 14.5372C7.50134 14.4935 7.15893 14.2961 6.93428 13.9961L5.31236 11.8341C4.94616 11.3458 5.04517 10.6526 5.53365 10.2857C6.02248 9.9195 6.71567 10.0185 7.08204 10.507L8.17694 11.9669L8.18582 11.9597L12.7243 8.1959C13.1945 7.80625 13.8917 7.87124 14.2815 8.34147C14.6713 8.8117 14.6062 9.50891 14.1359 9.89873V9.89873Z" fill="#2399F1"/>
<path fill-rule="evenodd" clip-rule="evenodd" d="M14.1362 9.89873L9.96526 13.3577C9.28312 13.0171 8.68323 12.5464 8.18604 11.9597L12.7245 8.1959C13.1947 7.80625 13.8919 7.87124 14.2817 8.34147C14.6716 8.8117 14.6064 9.50891 14.1362 9.89873V9.89873Z" fill="#4EADF3"/>
</svg>
