<svg xmlns="http://www.w3.org/2000/svg" xmlns:xlink="http://www.w3.org/1999/xlink" width="34" height="34" viewBox="0 0 17 17"><defs><path id="7oc0a" d="M125.32 299.696a4.358 4.358 0 0 1-4.377-4.377 4.358 4.358 0 0 1 4.376-4.376 4.358 4.358 0 0 1 4.377 4.376 4.358 4.358 0 0 1-4.377 4.377zm5.823-.01h-.777l-.292-.292a6.08 6.08 0 0 0 1.555-4.08 6.302 6.302 0 0 0-6.315-6.314 6.302 6.302 0 0 0-6.314 6.314 6.302 6.302 0 0 0 6.314 6.315 6.08 6.08 0 0 0 4.08-1.555l.292.292v.777l4.857 4.857 1.457-1.457z"/></defs><g><g transform="translate(-119 -289)"><use fill="#757575" xlink:href="#7oc0a"/></g></g></svg>