<svg xmlns="http://www.w3.org/2000/svg" width="18.958" height="20.11" viewBox="0 0 18.958 20.11">
  <g id="share" transform="translate(-0.033)">
    <g id="share_1_" data-name="share (1)">
      <path id="Shape" d="M15.363,20.111a3.6,3.6,0,0,1-3.6-3.6,3.551,3.551,0,0,1,.209-1.2L6.456,12.231a3.6,3.6,0,1,1-.008-4.364l5.516-3.082a3.508,3.508,0,0,1-.2-1.19A3.6,3.6,0,1,1,12.5,5.779L6.982,8.861a3.538,3.538,0,0,1,.2,1.19,3.591,3.591,0,0,1-.2,1.186l5.525,3.086a3.6,3.6,0,1,1,2.852,5.787Zm0-6.067a2.468,2.468,0,1,0,2.468,2.468A2.471,2.471,0,0,0,15.358,14.044ZM3.6,7.583a2.468,2.468,0,1,0,2.468,2.468A2.471,2.471,0,0,0,3.6,7.583ZM15.358,1.131A2.468,2.468,0,1,0,17.826,3.6,2.471,2.471,0,0,0,15.358,1.131Z" transform="translate(0.033)" fill="silver"/>
    </g>
  </g>
</svg>
