<svg width="53" height="36" viewBox="0 0 53 36" fill="none" xmlns="http://www.w3.org/2000/svg">
<path fill-rule="evenodd" clip-rule="evenodd" d="M7.83269 23.5132L2.99075 2.37949H39.2766L34.4347 23.5132H7.83269ZM23.8903 15.2434H27.5657V9.73031H23.8903V6.0549H18.3772V9.73031H14.7018V15.2434H18.3772V18.9188H23.8903V15.2434Z" fill="white"/>
<path fill-rule="evenodd" clip-rule="evenodd" d="M22.0526 7.89261H20.2149V11.568H16.5394V13.4057H20.2149V17.0811H22.0526V13.4057H25.728V11.568H22.0526V7.89261Z" fill="#FF0000"/>
<path fill-rule="evenodd" clip-rule="evenodd" d="M8.26965 28.1074C6.74962 28.1074 5.51309 29.3439 5.51309 30.8639C5.51309 32.3839 6.74962 33.6205 8.26965 33.6205C9.78968 33.6205 11.0262 32.3839 11.0262 30.8639C11.0262 29.3439 9.78978 28.1074 8.26965 28.1074Z" fill="white"/>
<path fill-rule="evenodd" clip-rule="evenodd" d="M36.7542 28.1074C35.2342 28.1074 33.9977 29.3439 33.9977 30.8639C33.9977 32.3839 35.2342 33.6205 36.7542 33.6205C38.2742 33.6205 39.5108 32.3839 39.5108 30.8639C39.5108 29.3439 38.2742 28.1074 36.7542 28.1074Z" fill="white"/>
<path fill-rule="evenodd" clip-rule="evenodd" d="M45.0724 3.48848H51.787C52.2949 3.48848 52.7059 3.89994 52.7059 4.40744C52.7059 4.91483 52.2949 5.32629 51.787 5.32629H45.7669L39.5576 27.2507C40.6391 28.092 41.3485 29.3909 41.3485 30.8639C41.3485 33.397 39.2873 35.4582 36.7542 35.4582C34.5357 35.4582 32.6797 33.8771 32.2528 31.7828H12.7711C12.3441 33.8771 10.4882 35.4582 8.26968 35.4582C5.7366 35.4582 3.67541 33.397 3.67541 30.8639C3.67541 28.3309 5.7366 26.2697 8.26968 26.2697C10.4882 26.2697 12.3442 27.8507 12.7711 29.9451H32.2527C32.6797 27.8507 34.5356 26.2697 36.7541 26.2697C37.1453 26.2697 37.5188 26.3338 37.8815 26.4262L38.1861 25.3508H35.1669H7.10047H0V23.5131H5.94753L0.942221 1.6656C0.879426 1.39332 0.944897 1.10663 1.11897 0.888084C1.29304 0.669128 1.55771 0.541687 1.83771 0.541687H40.4297C40.7096 0.541687 40.9744 0.669128 41.1485 0.888084C41.3225 1.10653 41.388 1.39332 41.3252 1.6656L36.3199 23.5131H38.7067L44.1885 4.15698C44.3006 3.76128 44.6614 3.48848 45.0724 3.48848ZM2.99075 2.3795L7.83269 23.5131V23.5132H34.4346L39.2766 2.3795H2.99075ZM8.26968 33.6205C6.74965 33.6205 5.51312 32.384 5.51312 30.8639C5.51312 29.3439 6.74965 28.1074 8.26968 28.1074C9.78971 28.1074 11.0262 29.3439 11.0262 30.8639C11.0262 32.3841 9.78981 33.6205 8.26968 33.6205ZM33.9977 30.8639C33.9977 32.384 35.2342 33.6205 36.7542 33.6205C38.2743 33.6205 39.5108 32.3841 39.5108 30.8639C39.5108 29.3439 38.2743 28.1074 36.7542 28.1074C35.2342 28.1074 33.9977 29.3439 33.9977 30.8639Z" fill="#4A4A4A"/>
<path fill-rule="evenodd" clip-rule="evenodd" d="M18.3772 6.0549H23.8903V9.73031H27.5657V15.2434H23.8903V18.9188H18.3772V15.2434H14.7018V9.73031H18.3772V6.0549ZM25.728 13.4057V11.568H22.0526V7.89261H20.2149V11.568H16.5395V13.4057H20.2149V17.0811H22.0526V13.4057H25.728Z" fill="#FB605B"/>
</svg>
