<svg width="49" height="40" viewBox="0 0 49 40" fill="none" xmlns="http://www.w3.org/2000/svg">
<path fill-rule="evenodd" clip-rule="evenodd" d="M0.5 33.484V6.51599C0.5 3.19363 3.19232 0.5 6.51305 0.5L42.487 0.5C45.8077 0.5 48.5 3.19363 48.5 6.51599V33.484C48.5 36.8064 45.8077 39.5 42.487 39.5H6.51305C3.19232 39.5 0.5 36.8064 0.5 33.484Z" fill="#FFCC3B"/>
<path fill-rule="evenodd" clip-rule="evenodd" d="M0.5 33.484V6.51599C0.5 3.19363 3.19232 0.5 6.51305 0.5L42.487 0.5C45.8077 0.5 48.5 3.19363 48.5 6.51599V33.484C48.5 36.8064 45.8077 39.5 42.487 39.5H6.51305C3.19232 39.5 0.5 36.8064 0.5 33.484Z" fill="#FFCC3B"/>
<path fill-rule="evenodd" clip-rule="evenodd" d="M48 33.9521V32H0V33.9521C0 37.2921 2.69232 40 6.01305 40H41.987C45.3077 40 48 37.2921 48 33.9521H48Z" fill="#EFB525"/>
<path fill-rule="evenodd" clip-rule="evenodd" d="M32 16.6633V23.3367C32 24.8077 33.2099 26 34.7024 26H48V14H34.7024C33.2104 14 32 15.1923 32 16.6633Z" fill="#FFD876"/>
<path fill-rule="evenodd" clip-rule="evenodd" d="M16 23.3367V16.6633C16 15.1923 14.7901 14 13.2981 14L0 14V26H13.2981C14.7901 26 16 24.8077 16 23.3367Z" fill="#FFD876"/>
<path fill-rule="evenodd" clip-rule="evenodd" d="M29.0128 40V37.5126C29.0128 37.3407 29.1105 37.1848 29.2616 37.1162C32.7082 35.5449 34.9347 32.0407 34.9347 28.1883V27.7171H48V25.6615H34.7632C33.8352 25.6615 33.0796 24.8899 33.0796 23.9421V17.0584C33.0796 16.1101 33.8352 15.3385 34.7632 15.3385H48V13.2829H34.9352V12.8117C34.9352 8.95931 32.7082 5.45509 29.2616 3.88381C29.1105 3.81522 29.0128 3.65934 29.0128 3.48735V1L27 1V3.48735C27 4.4694 27.5658 5.36157 28.4409 5.76114C31.163 7.00196 32.9224 9.76989 32.9224 12.8117V13.787C31.8147 14.4396 31.0668 15.6607 31.0668 17.0579V23.9416C31.0668 25.3388 31.8147 26.5604 32.9224 27.213V28.1878C32.9224 31.2301 31.163 33.9975 28.4409 35.2389C27.5658 35.6379 27 36.5306 27 37.5121V39.9995H29.0128V40Z" fill="#EFB525"/>
<path fill-rule="evenodd" clip-rule="evenodd" d="M28.7121 36.6009C30.9013 35.5744 32.5868 33.7284 33.5 31.5H31.3014C30.536 32.8921 29.3635 34.0324 27.9089 34.7136C27.0529 35.1148 26.5 36.0122 26.5 36.9994V39.5H28.4687V36.9994C28.4687 36.8265 28.5643 36.6698 28.7121 36.6009V36.6009Z" fill="#E59D0E"/>
<path fill-rule="evenodd" clip-rule="evenodd" d="M21 40V37.5126C21 36.5306 20.4342 35.6384 19.5591 35.2389C16.837 33.998 15.0776 31.2301 15.0776 28.1883V27.213C16.1853 26.5604 16.9332 25.3388 16.9332 23.9421V17.0584C16.9332 15.6612 16.1853 14.4396 15.0776 13.787V12.8117C15.0776 9.76989 16.837 7.00196 19.5591 5.76114C20.4342 5.36157 21 4.4694 21 3.48735V1L18.9872 1V3.48735C18.9872 3.65934 18.8895 3.81522 18.7384 3.88381C15.2918 5.45509 13.0648 8.95983 13.0648 12.8117V13.2829L0 13.2829V15.3385L13.2368 15.3385C14.1648 15.3385 14.9204 16.1101 14.9204 17.0584L14.9204 23.9421C14.9204 24.8899 14.1648 25.6615 13.2368 25.6615H0V27.7171H13.0648V28.1883C13.0648 32.0402 15.2918 35.5449 18.7384 37.1162C18.8895 37.1848 18.9872 37.3407 18.9872 37.5126V40H21Z" fill="#EFB525"/>
<path fill-rule="evenodd" clip-rule="evenodd" d="M20.0906 34.7136C18.636 34.0324 17.4635 32.8921 16.6981 31.5H14.5C15.4132 33.7289 17.0983 35.575 19.2879 36.6009C19.4357 36.6698 19.5313 36.8265 19.5313 36.9994V39.5H21.5V36.9994C21.5 36.0122 20.9466 35.1153 20.0906 34.7136V34.7136Z" fill="#E59D0E"/>
</svg>
