<svg width="14" height="22" viewBox="0 0 14 22" fill="none" xmlns="http://www.w3.org/2000/svg">
<path fill-rule="evenodd" clip-rule="evenodd" d="M5.15883 21.8847L13.6446 7.2734C13.8368 6.94259 13.5643 6.5355 13.1852 6.58706L7.54067 7.35427L8.88933 0.273793C8.93479 0.0351017 8.62705 -0.101668 8.48036 0.0919923L0.136944 11.1053C-0.106088 11.4261 0.151252 11.8822 0.551463 11.8401L6.77454 11.185L4.73443 21.7256C4.68523 21.9798 5.02876 22.1086 5.15883 21.8847Z" fill="#FF7988"/>
<path fill-rule="evenodd" clip-rule="evenodd" d="M2.74609 10.3248C2.59024 10.3373 2.48673 10.1669 2.56958 10.0344L8.80774 0.0533227C8.71492 -0.0201109 8.56883 -0.0248375 8.48036 0.0919516L0.136944 11.1053C-0.106088 11.4261 0.151252 11.8821 0.551463 11.84L6.77454 11.185L4.73443 21.7256C4.70693 21.8677 4.80283 21.9678 4.91494 21.9917L8.41083 10.9295C8.57472 10.411 8.16127 9.89158 7.61922 9.93497L2.74609 10.3248Z" fill="#CC606C"/>
</svg>
