<svg id="Layer_1" data-name="Layer 1" xmlns="http://www.w3.org/2000/svg" viewBox="0 0 426.65 511.99"><title>urine</title><path d="M63.33,501.33,32.72,32H393.93L363.32,501.33Z" fill="#f5f7fa"/><path d="M63.33,501.33h300l16.94-259.56a127.32,127.32,0,0,1-44.72,35.69c-17.84,8.75-34.7,12.63-50.9,12.63-35.84,0-68.44-18.85-101.42-45.13-30.27-24.15-65.06-44.37-103-44.37a107.68,107.68,0,0,0-36.08,6.28Z" fill="#ffce54"/><path d="M80.19,221.9c38,0,72.76,20.25,103,44.37,33,26.28,65.58,45.13,101.42,45.13,16.2,0,33.06-3.85,50.9-12.6A128,128,0,0,0,378.73,265l1.52-23.22a127.43,127.43,0,0,1-44.72,35.69c-17.84,8.75-34.7,12.63-50.9,12.63-35.84,0-68.43-18.85-101.42-45.13-30.26-24.15-65.06-44.37-103-44.37a107.62,107.62,0,0,0-36.07,6.28l1.37,20.87A107,107,0,0,1,80.19,221.9Z" fill="#fff" opacity="0.2" style="isolation:isolate"/><path d="M21.33,21.34,53.33,512h320l32-490.65Zm332,469.3h-280l-29.22-448H382.55Z" fill="#e6e9ed"/><path d="M416,0H10.66A10.7,10.7,0,0,0,0,10.66v64A10.71,10.71,0,0,0,10.66,85.34H416a10.71,10.71,0,0,0,10.66-10.69v-64A10.71,10.71,0,0,0,416,0Z" fill="#656d78"/><path d="M53.33,10.66A10.66,10.66,0,0,0,64,0V0H42.65A10.67,10.67,0,0,0,53.3,10.66Z" fill="#434a54"/><path d="M117.33,10.66A10.67,10.67,0,0,0,128,0V0H106.65A10.67,10.67,0,0,0,117.3,10.66Z" fill="#434a54"/><path d="M181.32,10.66A10.66,10.66,0,0,0,192,0V0H170.65A10.67,10.67,0,0,0,181.3,10.66Z" fill="#434a54"/><path d="M245.32,10.66A10.65,10.65,0,0,0,256,0V0H234.65A10.67,10.67,0,0,0,245.3,10.66Z" fill="#434a54"/><path d="M309.32,10.66A10.65,10.65,0,0,0,320,0V0H298.65A10.67,10.67,0,0,0,309.3,10.66Z" fill="#434a54"/><path d="M373.32,10.66A10.65,10.65,0,0,0,384,0V0H362.65A10.66,10.66,0,0,0,373.3,10.66Z" fill="#434a54"/></svg>