<svg width="126" height="126" viewBox="0 0 126 126" fill="none" xmlns="http://www.w3.org/2000/svg">
<path fill-rule="evenodd" clip-rule="evenodd" d="M43.8431 98.5242L25.0208 108.876C23.9163 109.483 22.9236 110.229 22 111.043C32.9739 120.372 47.1401 126 62.6178 126C77.9813 126 92.057 120.456 103 111.254C101.991 110.395 100.896 109.622 99.6816 109.012L79.5263 98.853C76.922 97.5402 75.2771 94.8569 75.2771 91.9216V83.9487C75.8437 83.2982 76.4912 82.463 77.1839 81.4766C79.9309 77.5645 82.0091 73.2612 83.4493 68.7467C86.0344 67.9427 87.9388 65.5355 87.9388 62.6746V54.164C87.9388 52.292 87.1128 50.6191 85.8297 49.4479V37.1452C85.8297 37.1452 88.3363 18 62.6202 18C36.9041 18 39.4107 37.1452 39.4107 37.1452V49.4479C38.1253 50.6191 37.3016 52.292 37.3016 54.164V62.6746C37.3016 64.9162 38.4704 66.8891 40.2201 68.0291C42.3292 77.2861 47.8518 83.9487 47.8518 83.9487V91.7248C47.8494 94.5569 46.3117 97.1658 43.8431 98.5242Z" fill="#E7ECED"/>
<path fill-rule="evenodd" clip-rule="evenodd" d="M64.0793 0.00934891C29.2901 -0.58293 0.603751 27.0409 0.00938801 61.7082C-0.32821 81.3647 8.4636 99.0312 22.462 110.78C23.3773 109.984 24.3592 109.254 25.4505 108.662L44.249 98.4437C46.7144 97.1028 48.2502 94.5275 48.2502 91.7272V84.0513C48.2502 84.0513 42.7322 77.4747 40.6281 68.337C38.8831 67.2117 37.7134 65.2666 37.7134 63.0515V54.6506C37.7134 52.8027 38.5383 51.1514 39.8198 49.9953V37.8512C39.8198 37.8512 37.3163 18.9528 62.9999 18.9528C88.6835 18.9528 86.1801 37.8512 86.1801 37.8512V49.9953C87.4639 51.1514 88.2865 52.8027 88.2865 54.6506V63.0515C88.2865 65.8755 86.3845 68.2517 83.8026 69.0453C82.3643 73.5017 80.2887 77.7495 77.5452 81.6111C76.8533 82.5848 76.2067 83.4093 75.6408 84.0513V91.9215C75.6408 94.8189 77.2836 97.47 79.8846 98.7635L100.014 108.792C101.222 109.394 102.313 110.154 103.319 111C116.894 99.7183 125.665 82.8502 125.99 63.8546C126.59 29.1874 98.8709 0.601628 64.0793 0.00934891Z" fill="#556080"/>
</svg>
