<svg xmlns="http://www.w3.org/2000/svg" width="39.777" height="34.112" viewBox="0 0 39.777 34.112"><g transform="translate(0 -0.301)"><circle cx="1.839" cy="1.839" r="1.839" transform="translate(18.05 24.881)"/><path d="M1.013,11.646a1.013,1.013,0,0,0,1.013-1.013V1.013A1.013,1.013,0,1,0,0,1.013v9.62A1.013,1.013,0,0,0,1.013,11.646Z" transform="translate(18.629 10.302)"/><path d="M36.239,34.112H3.538A3.472,3.472,0,0,1,0,30.632a.7.7,0,0,1,.14-.417L16.175,3.043l.019-.03.019-.03C17.128,1.516,18.075,0,19.888,0c1.738,0,2.707,1.493,3.644,2.936l.048.075L39.638,30.165a.859.859,0,0,1,.139.466A3.472,3.472,0,0,1,36.239,34.112ZM19.888,2c-.656,0-1.178.758-1.958,2.006L2.045,30.875a1.461,1.461,0,0,0,1.493,1.212h32.7a1.462,1.462,0,0,0,1.493-1.218L21.834,4.03l-.025-.039C21.117,2.924,20.519,2,19.888,2Z" transform="translate(0 0.301)" fill="#e7d755"/></g></svg>