<svg xmlns="http://www.w3.org/2000/svg" xmlns:xlink="http://www.w3.org/1999/xlink" width="18" height="18" viewBox="0 0 18 18"><defs><path id="uuv8a" d="M707.101 257.01c-.947 0-1.364.688-.928 1.528l8.024 15.45c.436.84 1.15.84 1.587 0l8.024-15.45c.436-.84.019-1.528-.929-1.528z"/><path id="uuv8b" d="M713.75 260.114c0 .685.558 1.242 1.243 1.242s1.243-.557 1.243-1.242c0-.686-.558-1.244-1.243-1.244s-1.243.558-1.243 1.244zm.095 9.403c0 .67.492 1.084 1.143 1.084.635 0 1.143-.43 1.143-1.084v-6.137c0-.653-.508-1.083-1.143-1.083-.65 0-1.143.415-1.143 1.083z"/></defs><g><g transform="translate(-706 -257)"><g transform="matrix(1 0 0 -1 0 532)"><g><g><g><use fill="#ffcc4d" xlink:href="#uuv8a"/></g><g><use fill="#231f20" xlink:href="#uuv8b"/></g></g></g></g></g></g></svg>