<svg width="15" height="18" viewBox="0 0 15 18" fill="none" xmlns="http://www.w3.org/2000/svg">
<path fill-rule="evenodd" clip-rule="evenodd" d="M12.3362 13.6364H13.9283C14.3801 13.6364 14.7465 14.0027 14.7465 14.4545C14.7465 14.9064 14.3802 15.2727 13.9283 15.2727H11.7465C11.5327 15.2727 11.3338 15.1893 11.1853 15.0493C10.1316 16.8252 8.19155 18 6.01921 18C5.92777 18 5.83689 17.9976 5.74646 17.9935C2.56419 17.8504 0.0191953 15.217 0.0191953 12C0.0191953 9.06964 2.12034 6.61307 4.92827 6.09905V4.76835C3.976 4.4306 3.29193 3.52118 3.29193 2.45454C3.29193 1.10109 4.39298 0 5.74646 0C7.09988 0 8.201 1.10109 8.20097 2.45454C8.20097 3.52118 7.51693 4.4306 6.56462 4.76835V6.00701H10.6555C11.1074 6.00701 11.4737 6.37334 11.4737 6.8252C11.4737 7.27706 11.1074 7.64339 10.6555 7.64339H6.56462V10.3636H10.6555C11.0077 10.3636 11.3203 10.589 11.4317 10.923L12.3362 13.6364ZM5.74643 16.3543C5.83671 16.3598 5.92748 16.3637 6.01917 16.3637C8.14039 16.3637 9.95688 14.8244 10.3173 12.7548L10.0658 12H5.74643C5.29457 12 4.92824 11.6337 4.92824 11.1818V7.77368C3.03708 8.25852 1.65551 9.97337 1.65551 12C1.65551 14.3144 3.46697 16.2129 5.74643 16.3543Z" fill="#A4E276"/>
<path fill-rule="evenodd" clip-rule="evenodd" d="M13.9283 13.6364H12.3362L11.4317 10.923C11.3203 10.589 11.0077 10.3636 10.6555 10.3636H6.56462V7.64339H10.6555C11.1074 7.64339 11.4737 7.27706 11.4737 6.8252C11.4737 6.37334 11.1074 6.00701 10.6555 6.00701H6.56462V4.76835C7.51693 4.4306 8.20097 3.52118 8.20097 2.45454C8.201 1.10109 7.09987 0 5.74646 0V12H10.0658L10.3174 12.7548C9.95688 14.8244 8.14043 16.3636 6.01921 16.3636C5.92752 16.3636 5.83675 16.3598 5.74646 16.3542V17.9935C5.83689 17.9976 5.92777 18 6.01921 18C8.19155 18 10.1316 16.8252 11.1853 15.0493C11.3338 15.1893 11.5327 15.2727 11.7465 15.2727H13.9283C14.3802 15.2727 14.7465 14.9064 14.7465 14.4545C14.7465 14.0027 14.3801 13.6364 13.9283 13.6364Z" fill="#A4E276"/>
<path fill-rule="evenodd" clip-rule="evenodd" d="M1.65554 12C1.65554 9.97334 3.03711 8.25848 4.92827 7.77364V11.1818C4.92827 11.6337 5.2946 12 5.74646 12V0C4.39298 0 3.29193 1.10109 3.29193 2.45454C3.29193 3.52118 3.976 4.4306 4.92827 4.76835V6.09905C2.12034 6.61307 0.0191953 9.06964 0.0191953 12C0.0191953 15.217 2.56419 17.8504 5.74646 17.9935V16.3542C3.467 16.2129 1.65554 14.3144 1.65554 12Z" fill="#64C37D"/>
<path fill-rule="evenodd" clip-rule="evenodd" d="M13.9283 13.6364H12.3362L11.4317 10.923C11.3203 10.589 11.0077 10.3636 10.6555 10.3636H6.56462V7.64339H10.6555C11.1074 7.64339 11.4737 7.27706 11.4737 6.8252C11.4737 6.37334 11.1074 6.00701 10.6555 6.00701H6.56462V4.76835C7.51693 4.4306 8.20097 3.52118 8.20097 2.45454C8.201 1.10109 7.09987 0 5.74646 0V12H10.0658L10.3174 12.7548C9.95688 14.8244 8.14043 16.3636 6.01921 16.3636C5.92752 16.3636 5.83675 16.3598 5.74646 16.3542V17.9935C5.83689 17.9976 5.92777 18 6.01921 18C8.19155 18 10.1316 16.8252 11.1853 15.0493C11.3338 15.1893 11.5327 15.2727 11.7465 15.2727H13.9283C14.3802 15.2727 14.7465 14.9064 14.7465 14.4545C14.7465 14.0027 14.3801 13.6364 13.9283 13.6364Z" fill="#A4E276"/>
<path fill-rule="evenodd" clip-rule="evenodd" d="M1.65554 12C1.65554 9.97334 3.03711 8.25848 4.92827 7.77364V11.1818C4.92827 11.6337 5.2946 12 5.74646 12V0C4.39298 0 3.29193 1.10109 3.29193 2.45454C3.29193 3.52118 3.976 4.4306 4.92827 4.76835V6.09905C2.12034 6.61307 0.0191953 9.06964 0.0191953 12C0.0191953 15.217 2.56419 17.8504 5.74646 17.9935V16.3542C3.467 16.2129 1.65554 14.3144 1.65554 12Z" fill="#64C37D"/>
</svg>
