<svg width="28" height="32" viewBox="0 0 28 32" fill="none" xmlns="http://www.w3.org/2000/svg">
<path fill-rule="evenodd" clip-rule="evenodd" d="M6 0C4.9 0 4 0.9 4 2V30C4 31.1 4.9 32 6 32H26C27.1 32 28 31.1 28 30V8L20 0H6Z" fill="#E2E5E7"/>
<path fill-rule="evenodd" clip-rule="evenodd" d="M22 8H28L20 0V6C20 7.1 20.9 8 22 8Z" fill="#B0B7BD"/>
<path fill-rule="evenodd" clip-rule="evenodd" d="M28 14L22 8H28V14Z" fill="#CAD1D8"/>
<path fill-rule="evenodd" clip-rule="evenodd" d="M24 26C24 26.55 23.55 27 23 27H1C0.45 27 0 26.55 0 26V16C0 15.45 0.45 15 1 15H23C23.55 15 24 15.45 24 16V26Z" fill="#036F39"/>
<path fill-rule="evenodd" clip-rule="evenodd" d="M7.02099 20.387L8.41199 18.644C8.82799 18.1 9.63599 18.795 9.17999 19.315C8.70099 19.883 8.19699 20.499 7.71699 21.13L9.34799 23.161C9.78799 23.761 8.90899 24.336 8.47699 23.744L7.00499 21.857L5.55799 23.785C5.14999 24.368 4.24599 23.713 4.70199 23.169L6.30899 21.13C5.80499 20.498 5.31699 19.883 4.82999 19.315C4.32699 18.715 5.26199 18.1 5.62999 18.661L7.02099 20.387Z" fill="white"/>
<path fill-rule="evenodd" clip-rule="evenodd" d="M10.335 18.947C10.335 18.683 10.559 18.459 10.839 18.459C11.095 18.459 11.311 18.684 11.311 18.947V22.953H13.486C14.269 22.953 14.286 24 13.486 24H10.84C10.56 24 10.336 23.801 10.336 23.513V18.947H10.335Z" fill="white"/>
<path fill-rule="evenodd" clip-rule="evenodd" d="M15.002 19.667C15.186 18.115 17.528 17.836 18.632 18.684C19.176 19.123 18.6 19.819 18.12 19.467C17.528 19.092 16.185 18.916 16.017 19.746C15.801 21.058 19.279 20.307 19.223 22.434C19.167 24.465 16.225 24.512 15.121 23.601C14.856 23.385 14.865 23.034 15.009 22.817C15.217 22.61 15.448 22.538 15.721 22.762C16.376 23.209 18.064 23.545 18.183 22.409C18.08 21.227 14.754 21.938 15.002 19.667Z" fill="white"/>
<path fill-rule="evenodd" clip-rule="evenodd" d="M23 27H4V28H23C23.55 28 24 27.55 24 27V26C24 26.55 23.55 27 23 27Z" fill="#CAD1D8"/>
</svg>
