<svg width="25" height="28" viewBox="0 0 25 28" fill="none" xmlns="http://www.w3.org/2000/svg">
<path fill-rule="evenodd" clip-rule="evenodd" d="M5.25 0C4.2875 0 3.5 0.7875 3.5 1.75V26.25C3.5 27.2125 4.2875 28 5.25 28H22.75C23.7125 28 24.5 27.2125 24.5 26.25V7L17.5 0H5.25Z" fill="#E2E5E7"/>
<path fill-rule="evenodd" clip-rule="evenodd" d="M19.25 7H24.5L17.5 0V5.25C17.5 6.2125 18.2875 7 19.25 7Z" fill="#B0B7BD"/>
<path fill-rule="evenodd" clip-rule="evenodd" d="M24.5 12.25L19.25 7H24.5V12.25Z" fill="#CAD1D8"/>
<path fill-rule="evenodd" clip-rule="evenodd" d="M21 22.75C21 23.2312 20.6063 23.625 20.125 23.625H0.875C0.39375 23.625 0 23.2312 0 22.75V14C0 13.5188 0.39375 13.125 0.875 13.125H20.125C20.6063 13.125 21 13.5188 21 14V22.75Z" fill="#F8E090"/>
<path fill-rule="evenodd" clip-rule="evenodd" d="M5.50375 21C5.06275 21 4.88775 20.5739 5.13975 20.2729L7.63088 16.9636H5.56588C4.95775 16.9636 5.00675 16.1044 5.56588 16.1044H8.386C8.91713 16.1044 9.07113 16.6066 8.694 17.0135L6.30788 20.1119H8.582C9.142 20.1119 9.212 21.0009 8.52688 21.0009H5.50375V21Z" fill="white"/>
<path fill-rule="evenodd" clip-rule="evenodd" d="M9.84637 16.5786C9.84637 16.0046 10.7704 15.9836 10.7704 16.5786V20.573C10.7704 21.1531 9.84637 21.168 9.84637 20.573V16.5786Z" fill="white"/>
<path fill-rule="evenodd" clip-rule="evenodd" d="M12.4863 16.0956C12.1923 16.0956 12.0103 16.3476 12.0103 16.5786V20.5179C12.0103 20.8259 12.2553 21 12.4863 21C12.7383 21 12.9343 20.8259 12.9343 20.5179V19.5939H14.1024C15.0124 19.5939 15.8314 18.9779 15.8314 17.8719C15.8314 16.7046 15.0124 16.0956 14.1024 16.0956H12.4863ZM12.9334 18.7198V16.9768H14.1015C14.5705 16.9768 14.9415 17.3828 14.9415 17.8719C14.9415 18.3059 14.5705 18.7198 14.1015 18.7198H12.9334Z" fill="white"/>
<path fill-rule="evenodd" clip-rule="evenodd" d="M20.125 23.625H3.5V24.5H20.125C20.6063 24.5 21 24.1063 21 23.625V22.75C21 23.2312 20.6063 23.625 20.125 23.625Z" fill="#CAD1D8"/>
</svg>
